%TF.GenerationSoftware,KiCad,Pcbnew,(6.0.5)*%
%TF.CreationDate,2022-05-16T23:41:31-07:00*%
%TF.ProjectId,3HMouse,33484d6f-7573-4652-9e6b-696361645f70,rev?*%
%TF.SameCoordinates,Original*%
%TF.FileFunction,Soldermask,Top*%
%TF.FilePolarity,Negative*%
%FSLAX46Y46*%
G04 Gerber Fmt 4.6, Leading zero omitted, Abs format (unit mm)*
G04 Created by KiCad (PCBNEW (6.0.5)) date 2022-05-16 23:41:31*
%MOMM*%
%LPD*%
G01*
G04 APERTURE LIST*
G04 Aperture macros list*
%AMRoundRect*
0 Rectangle with rounded corners*
0 $1 Rounding radius*
0 $2 $3 $4 $5 $6 $7 $8 $9 X,Y pos of 4 corners*
0 Add a 4 corners polygon primitive as box body*
4,1,4,$2,$3,$4,$5,$6,$7,$8,$9,$2,$3,0*
0 Add four circle primitives for the rounded corners*
1,1,$1+$1,$2,$3*
1,1,$1+$1,$4,$5*
1,1,$1+$1,$6,$7*
1,1,$1+$1,$8,$9*
0 Add four rect primitives between the rounded corners*
20,1,$1+$1,$2,$3,$4,$5,0*
20,1,$1+$1,$4,$5,$6,$7,0*
20,1,$1+$1,$6,$7,$8,$9,0*
20,1,$1+$1,$8,$9,$2,$3,0*%
G04 Aperture macros list end*
%ADD10O,1.000000X1.600000*%
%ADD11O,0.900000X2.100000*%
%ADD12C,0.650000*%
%ADD13R,0.300000X1.750000*%
%ADD14R,1.000000X0.750000*%
%ADD15R,1.400000X1.200000*%
%ADD16R,5.200000X5.200000*%
%ADD17RoundRect,0.062500X-0.062500X-0.475000X0.062500X-0.475000X0.062500X0.475000X-0.062500X0.475000X0*%
%ADD18RoundRect,0.062500X-0.475000X-0.062500X0.475000X-0.062500X0.475000X0.062500X-0.475000X0.062500X0*%
%ADD19RoundRect,0.250000X-0.250000X-0.475000X0.250000X-0.475000X0.250000X0.475000X-0.250000X0.475000X0*%
%ADD20RoundRect,0.250000X0.475000X-0.250000X0.475000X0.250000X-0.475000X0.250000X-0.475000X-0.250000X0*%
%ADD21C,1.750000*%
%ADD22C,3.987800*%
%ADD23R,0.900000X1.200000*%
%ADD24RoundRect,0.250000X0.250000X0.475000X-0.250000X0.475000X-0.250000X-0.475000X0.250000X-0.475000X0*%
%ADD25C,2.000000*%
%ADD26R,2.000000X2.000000*%
%ADD27O,3.200000X2.000000*%
%ADD28RoundRect,0.250000X-0.262500X-0.450000X0.262500X-0.450000X0.262500X0.450000X-0.262500X0.450000X0*%
%ADD29RoundRect,0.250000X-0.375000X-0.625000X0.375000X-0.625000X0.375000X0.625000X-0.375000X0.625000X0*%
%ADD30C,2.475000*%
%ADD31C,2.400000*%
%ADD32C,1.950000*%
%ADD33C,1.650000*%
%ADD34RoundRect,0.250000X-0.475000X0.250000X-0.475000X-0.250000X0.475000X-0.250000X0.475000X0.250000X0*%
%ADD35RoundRect,0.150000X-0.512500X-0.150000X0.512500X-0.150000X0.512500X0.150000X-0.512500X0.150000X0*%
%ADD36R,0.600000X0.450000*%
%ADD37O,1.600000X2.000000*%
G04 APERTURE END LIST*
D10*
%TO.C,J1*%
X100967000Y-32060000D03*
X92327000Y-32060000D03*
D11*
X100967000Y-36240000D03*
X92327000Y-36240000D03*
D12*
X99537000Y-35740000D03*
X93757000Y-35740000D03*
D13*
X96397000Y-37080000D03*
X95897000Y-37080000D03*
X95397000Y-37080000D03*
X94897000Y-37080000D03*
X97397000Y-37080000D03*
X98397000Y-37080000D03*
X97897000Y-37080000D03*
X96897000Y-37080000D03*
X99997000Y-37080000D03*
X99697000Y-37080000D03*
X99197000Y-37080000D03*
X98897000Y-37080000D03*
X94097000Y-37080000D03*
X94397000Y-37080000D03*
X93597000Y-37080000D03*
X93297000Y-37080000D03*
%TD*%
D14*
%TO.C,S2*%
X97615000Y-89124000D03*
X91615000Y-89124000D03*
X97615000Y-85374000D03*
X91615000Y-85374000D03*
%TD*%
D15*
%TO.C,Y1*%
X155702000Y-76200000D03*
X153502000Y-76200000D03*
X153502000Y-77900000D03*
X155702000Y-77900000D03*
%TD*%
D16*
%TO.C,U1*%
X154036000Y-59421000D03*
D17*
X151536000Y-56083500D03*
X152036000Y-56083500D03*
X152536000Y-56083500D03*
X153036000Y-56083500D03*
X153536000Y-56083500D03*
X154036000Y-56083500D03*
X154536000Y-56083500D03*
X155036000Y-56083500D03*
X155536000Y-56083500D03*
X156036000Y-56083500D03*
X156536000Y-56083500D03*
D18*
X157373500Y-56921000D03*
X157373500Y-57421000D03*
X157373500Y-57921000D03*
X157373500Y-58421000D03*
X157373500Y-58921000D03*
X157373500Y-59421000D03*
X157373500Y-59921000D03*
X157373500Y-60421000D03*
X157373500Y-60921000D03*
X157373500Y-61421000D03*
X157373500Y-61921000D03*
D17*
X156536000Y-62758500D03*
X156036000Y-62758500D03*
X155536000Y-62758500D03*
X155036000Y-62758500D03*
X154536000Y-62758500D03*
X154036000Y-62758500D03*
X153536000Y-62758500D03*
X153036000Y-62758500D03*
X152536000Y-62758500D03*
X152036000Y-62758500D03*
X151536000Y-62758500D03*
D18*
X150698500Y-61921000D03*
X150698500Y-61421000D03*
X150698500Y-60921000D03*
X150698500Y-60421000D03*
X150698500Y-59921000D03*
X150698500Y-59421000D03*
X150698500Y-58921000D03*
X150698500Y-58421000D03*
X150698500Y-57921000D03*
X150698500Y-57421000D03*
X150698500Y-56921000D03*
%TD*%
D19*
%TO.C,C8*%
X140523000Y-55626000D03*
X138623000Y-55626000D03*
%TD*%
D20*
%TO.C,C6*%
X149606000Y-48326000D03*
X149606000Y-50226000D03*
%TD*%
D21*
%TO.C,SW10*%
X72548750Y-122237500D03*
X62388750Y-122237500D03*
D22*
X67468750Y-122237500D03*
%TD*%
D21*
%TO.C,SW28*%
X227330000Y-103187500D03*
X217170000Y-103187500D03*
D22*
X222250000Y-103187500D03*
%TD*%
D21*
%TO.C,SW3*%
X46355000Y-79375000D03*
X36195000Y-79375000D03*
D22*
X41275000Y-79375000D03*
%TD*%
%TO.C,SW17*%
X107950000Y-122237500D03*
D21*
X102870000Y-122237500D03*
X113030000Y-122237500D03*
%TD*%
%TO.C,SW5*%
X38576250Y-122237500D03*
D22*
X43656250Y-122237500D03*
D21*
X48736250Y-122237500D03*
%TD*%
%TO.C,SW12*%
X84455000Y-60325000D03*
X74295000Y-60325000D03*
D22*
X79375000Y-60325000D03*
%TD*%
D23*
%TO.C,D16*%
X99950000Y-111918750D03*
X103250000Y-111918750D03*
%TD*%
D21*
%TO.C,SW26*%
X208280000Y-103187500D03*
D22*
X203200000Y-103187500D03*
D21*
X198120000Y-103187500D03*
%TD*%
D19*
%TO.C,C4*%
X144587000Y-55626000D03*
X142687000Y-55626000D03*
%TD*%
D21*
%TO.C,SW9*%
X74930000Y-103187500D03*
D22*
X69850000Y-103187500D03*
D21*
X64770000Y-103187500D03*
%TD*%
D23*
%TO.C,D21*%
X138050000Y-130968750D03*
X141350000Y-130968750D03*
%TD*%
D21*
%TO.C,SW16*%
X113030000Y-103187500D03*
X102870000Y-103187500D03*
D22*
X107950000Y-103187500D03*
%TD*%
%TO.C,SW4*%
X46037500Y-103187500D03*
D21*
X40957500Y-103187500D03*
X51117500Y-103187500D03*
%TD*%
D23*
%TO.C,D6*%
X52325000Y-50006250D03*
X55625000Y-50006250D03*
%TD*%
%TO.C,D19*%
X119000000Y-130968750D03*
X122300000Y-130968750D03*
%TD*%
D24*
%TO.C,C5*%
X151069000Y-72517000D03*
X152969000Y-72517000D03*
%TD*%
D23*
%TO.C,D5*%
X35656250Y-130968750D03*
X38956250Y-130968750D03*
%TD*%
D24*
%TO.C,C3*%
X138496000Y-60452000D03*
X140396000Y-60452000D03*
%TD*%
D23*
%TO.C,D10*%
X59468750Y-130968750D03*
X62768750Y-130968750D03*
%TD*%
D25*
%TO.C,SW31*%
X187463000Y-44775750D03*
X187463000Y-49775750D03*
X172963000Y-47275750D03*
X172963000Y-49775750D03*
D26*
X172963000Y-44775750D03*
D27*
X180463000Y-52875750D03*
X180463000Y-41675750D03*
%TD*%
D23*
%TO.C,D22*%
X157100000Y-111918750D03*
X160400000Y-111918750D03*
%TD*%
D28*
%TO.C,R2*%
X123706250Y-43656250D03*
X125531250Y-43656250D03*
%TD*%
D21*
%TO.C,SW19*%
X132080000Y-122237500D03*
X121920000Y-122237500D03*
D22*
X127000000Y-122237500D03*
%TD*%
D28*
%TO.C,R4*%
X99100000Y-40481250D03*
X100925000Y-40481250D03*
%TD*%
D23*
%TO.C,D11*%
X71375000Y-50006250D03*
X74675000Y-50006250D03*
%TD*%
D29*
%TO.C,F1*%
X112293750Y-32543750D03*
X115093750Y-32543750D03*
%TD*%
D22*
%TO.C,SW18*%
X127000000Y-103187500D03*
D21*
X121920000Y-103187500D03*
X132080000Y-103187500D03*
%TD*%
D28*
%TO.C,R1*%
X123801500Y-48260000D03*
X125626500Y-48260000D03*
%TD*%
D23*
%TO.C,D8*%
X52325000Y-88106250D03*
X55625000Y-88106250D03*
%TD*%
D28*
%TO.C,R7*%
X99100000Y-45243750D03*
X100925000Y-45243750D03*
%TD*%
D23*
%TO.C,D20*%
X138050000Y-111918750D03*
X141350000Y-111918750D03*
%TD*%
%TO.C,D18*%
X119000000Y-111918750D03*
X122300000Y-111918750D03*
%TD*%
%TO.C,D17*%
X99950000Y-130968750D03*
X103250000Y-130968750D03*
%TD*%
%TO.C,D28*%
X214250000Y-111918750D03*
X217550000Y-111918750D03*
%TD*%
%TO.C,D25*%
X176150000Y-130968750D03*
X179450000Y-130968750D03*
%TD*%
%TO.C,D9*%
X59468750Y-111918750D03*
X62768750Y-111918750D03*
%TD*%
D21*
%TO.C,SW23*%
X160020000Y-122237500D03*
D22*
X165100000Y-122237500D03*
D21*
X170180000Y-122237500D03*
%TD*%
D22*
%TO.C,SW24*%
X184150000Y-103187500D03*
D21*
X179070000Y-103187500D03*
X189230000Y-103187500D03*
%TD*%
D23*
%TO.C,D15*%
X80900000Y-130968750D03*
X84200000Y-130968750D03*
%TD*%
D21*
%TO.C,SW14*%
X83820000Y-103187500D03*
X93980000Y-103187500D03*
D22*
X88900000Y-103187500D03*
%TD*%
D21*
%TO.C,SW29*%
X217170000Y-122237500D03*
X227330000Y-122237500D03*
D22*
X222250000Y-122237500D03*
%TD*%
D21*
%TO.C,SW2*%
X46355000Y-60325000D03*
X36195000Y-60325000D03*
D22*
X41275000Y-60325000D03*
%TD*%
D21*
%TO.C,SW22*%
X170180000Y-103187500D03*
D22*
X165100000Y-103187500D03*
D21*
X160020000Y-103187500D03*
%TD*%
D28*
%TO.C,R6*%
X146725000Y-73914000D03*
X148550000Y-73914000D03*
%TD*%
D19*
%TO.C,C7*%
X137162500Y-43307000D03*
X139062500Y-43307000D03*
%TD*%
D23*
%TO.C,D35*%
X114237500Y-47625000D03*
X117537500Y-47625000D03*
%TD*%
%TO.C,D23*%
X157100000Y-130968750D03*
X160400000Y-130968750D03*
%TD*%
%TO.C,D14*%
X80900000Y-111918750D03*
X84200000Y-111918750D03*
%TD*%
D21*
%TO.C,SW27*%
X198120000Y-122237500D03*
X208280000Y-122237500D03*
D22*
X203200000Y-122237500D03*
%TD*%
D28*
%TO.C,R3*%
X106243750Y-39687500D03*
X108068750Y-39687500D03*
%TD*%
D23*
%TO.C,D4*%
X35656250Y-111918750D03*
X38956250Y-111918750D03*
%TD*%
D30*
%TO.C,S1*%
X112306250Y-63466250D03*
X120906250Y-63466250D03*
D31*
X110281250Y-68466250D03*
X110281250Y-58466250D03*
X122931250Y-68466250D03*
X122931250Y-58466250D03*
D32*
X113356250Y-53216250D03*
X113356250Y-57716250D03*
D33*
X119106250Y-72196250D03*
X116606250Y-72196250D03*
X114106250Y-72196250D03*
D32*
X119856250Y-53216250D03*
D33*
X107876250Y-65966250D03*
X107876250Y-63466250D03*
X107876250Y-60966250D03*
D32*
X119856250Y-57716250D03*
%TD*%
D21*
%TO.C,SW20*%
X140970000Y-103187500D03*
D22*
X146050000Y-103187500D03*
D21*
X151130000Y-103187500D03*
%TD*%
D34*
%TO.C,C2*%
X153416000Y-80838000D03*
X153416000Y-82738000D03*
%TD*%
D23*
%TO.C,D3*%
X33275000Y-88106250D03*
X36575000Y-88106250D03*
%TD*%
D19*
%TO.C,C1*%
X159543750Y-76930250D03*
X161443750Y-76930250D03*
%TD*%
D21*
%TO.C,SW8*%
X55245000Y-79375000D03*
X65405000Y-79375000D03*
D22*
X60325000Y-79375000D03*
%TD*%
D21*
%TO.C,SW21*%
X151130000Y-122237500D03*
D22*
X146050000Y-122237500D03*
D21*
X140970000Y-122237500D03*
%TD*%
%TO.C,SW1*%
X46355000Y-41275000D03*
X36195000Y-41275000D03*
D22*
X41275000Y-41275000D03*
%TD*%
D21*
%TO.C,SW13*%
X74295000Y-79375000D03*
D22*
X79375000Y-79375000D03*
D21*
X84455000Y-79375000D03*
%TD*%
D23*
%TO.C,D29*%
X214187500Y-130968750D03*
X217487500Y-130968750D03*
%TD*%
%TO.C,D2*%
X33275000Y-69056250D03*
X36575000Y-69056250D03*
%TD*%
D21*
%TO.C,SW7*%
X55245000Y-60325000D03*
X65405000Y-60325000D03*
D22*
X60325000Y-60325000D03*
%TD*%
D28*
%TO.C,R5*%
X167155500Y-58420000D03*
X165330500Y-58420000D03*
%TD*%
D25*
%TO.C,SW30*%
X187463000Y-69382000D03*
X187463000Y-74382000D03*
X172963000Y-71882000D03*
X172963000Y-74382000D03*
D26*
X172963000Y-69382000D03*
D27*
X180463000Y-77482000D03*
X180463000Y-66282000D03*
%TD*%
D21*
%TO.C,SW15*%
X83820000Y-122237500D03*
X93980000Y-122237500D03*
D22*
X88900000Y-122237500D03*
%TD*%
D23*
%TO.C,D24*%
X176150000Y-111918750D03*
X179450000Y-111918750D03*
%TD*%
%TO.C,D27*%
X195200000Y-130968750D03*
X198500000Y-130968750D03*
%TD*%
D22*
%TO.C,SW11*%
X79375000Y-41275000D03*
D21*
X84455000Y-41275000D03*
X74295000Y-41275000D03*
%TD*%
D23*
%TO.C,D26*%
X195200000Y-111918750D03*
X198500000Y-111918750D03*
%TD*%
%TO.C,D13*%
X71375000Y-88106250D03*
X74675000Y-88106250D03*
%TD*%
D35*
%TO.C,U2*%
X114686500Y-40833000D03*
X114686500Y-41783000D03*
X114686500Y-42733000D03*
X116961500Y-42733000D03*
X116961500Y-41783000D03*
X116961500Y-40833000D03*
%TD*%
D36*
%TO.C,D36*%
X109793750Y-32543750D03*
X107693750Y-32543750D03*
%TD*%
D21*
%TO.C,SW6*%
X55245000Y-41275000D03*
D22*
X60325000Y-41275000D03*
D21*
X65405000Y-41275000D03*
%TD*%
D23*
%TO.C,D12*%
X71375000Y-69056250D03*
X74675000Y-69056250D03*
%TD*%
%TO.C,D1*%
X33275000Y-50006250D03*
X36575000Y-50006250D03*
%TD*%
D37*
%TO.C,Brd1*%
X211486250Y-49725000D03*
X214026250Y-49725000D03*
X216566250Y-49725000D03*
X219106250Y-49725000D03*
%TD*%
D21*
%TO.C,SW25*%
X179070000Y-122237500D03*
X189230000Y-122237500D03*
D22*
X184150000Y-122237500D03*
%TD*%
D23*
%TO.C,D7*%
X52325000Y-69056250D03*
X55625000Y-69056250D03*
%TD*%
M02*
