M48
; DRILL file {KiCad (6.0.5)} date Mon May 16 23:41:27 2022
; FORMAT={-:-/ absolute / inch / decimal}
; #@! TF.CreationDate,2022-05-16T23:41:27-07:00
; #@! TF.GenerationSoftware,Kicad,Pcbnew,(6.0.5)
; #@! TF.FileFunction,Plated,1,2,PTH
FMAT,2
INCH
; #@! TA.AperFunction,Plated,PTH,ViaDrill
T1C0.0157
; #@! TA.AperFunction,Plated,PTH,ComponentDrill
T2C0.0197
; #@! TA.AperFunction,Plated,PTH,ComponentDrill
T3C0.0236
; #@! TA.AperFunction,Plated,PTH,ComponentDrill
T4C0.0394
; #@! TA.AperFunction,Plated,PTH,ComponentDrill
T5C0.0433
; #@! TA.AperFunction,Plated,PTH,ComponentDrill
T6C0.0512
; #@! TA.AperFunction,Plated,PTH,ComponentDrill
T7C0.0579
; #@! TA.AperFunction,Plated,PTH,ComponentDrill
T8C0.0630
; #@! TA.AperFunction,Plated,PTH,ComponentDrill
T9C0.0650
%
G90
G05
T1
X3.6285Y-3.645
X3.635Y-3.795
X3.71Y-1.63
X3.7393Y-3.8443
X3.749Y-1.55
X3.806Y-1.5522
X3.835Y-1.58
X3.935Y-1.64
X4.0444Y-1.5346
X4.051Y-1.5815
X4.06Y-1.4553
X4.095Y-1.4165
X4.095Y-1.4735
X4.31Y-2.4
X4.355Y-2.435
X4.435Y-1.61
X4.46Y-2.57
X4.46Y-3.545
X4.56Y-1.355
X4.56Y-1.565
X4.755Y-1.645
X4.77Y-2.425
X4.7835Y-2.5715
X4.835Y-2.6
X5.1082Y-3.2882
X5.2465Y-2.4115
X5.2465Y-2.7715
X5.2468Y-2.8518
X5.275Y-3.29
X5.3749Y-2.6
X5.375Y-2.555
X5.4Y-2.1215
X5.405Y-2.315
X5.405Y-2.47
X5.419Y-2.599
X5.435Y-4.34
X5.4635Y-3.64
X5.4635Y-3.685
X5.465Y-3.725
X5.465Y-3.7644
X5.475Y-1.645
X5.5168Y-2.5818
X5.549Y-2.469
X5.58Y-2.255
X5.6132Y-2.4451
X5.655Y-2.3306
X5.6644Y-2.1215
X5.74Y-2.1922
X5.79Y-1.905
X5.8199Y-2.835
X5.8248Y-2.1902
X5.825Y-2.15
X5.8896Y-2.1296
X5.9485Y-2.7635
X5.9675Y-2.1575
X6.0038Y-1.7888
X6.005Y-2.0586
X6.042Y-2.0871
X6.0929Y-2.12
X6.1585Y-2.945
X6.16Y-2.145
X6.185Y-2.11
X6.185Y-5.08
X6.1873Y-2.9182
X6.195Y-2.02
X6.2047Y-2.8802
X6.2224Y-2.8415
X6.245Y-2.225
X6.2634Y-2.0525
X6.2852Y-2.0197
X6.3298Y-2.4152
X6.375Y-2.265
X6.3852Y-2.4702
X6.4493Y-2.0508
X6.4879Y-2.3671
X6.6Y-3.155
X6.6993Y-2.62
X8.42Y-2.0203
X8.505Y-2.02
T4
X6.8096Y-1.7628
X6.8096Y-1.8612
X6.8096Y-1.9597
X6.8096Y-2.7316
X6.8096Y-2.83
X6.8096Y-2.9284
X7.3804Y-1.7628
X7.3804Y-1.9597
X7.3804Y-2.7316
X7.3804Y-2.9284
X8.3262Y-1.9577
X8.4262Y-1.9577
X8.5262Y-1.9577
X8.6262Y-1.9577
T5
X4.2471Y-2.4002
X4.2471Y-2.4987
X4.2471Y-2.5971
X4.4924Y-2.8424
X4.5908Y-2.8424
X4.6892Y-2.8424
T6
X4.4628Y-2.0951
X4.4628Y-2.2723
X4.7188Y-2.0951
X4.7188Y-2.2723
T7
X1.475Y-1.525
X1.475Y-2.275
X1.475Y-3.025
X1.5687Y-4.7125
X1.6625Y-3.9625
X1.725Y-1.425
X1.725Y-2.175
X1.725Y-2.925
X1.8187Y-4.6125
X1.9125Y-3.8625
X2.225Y-1.525
X2.225Y-2.275
X2.225Y-3.025
X2.475Y-1.425
X2.475Y-2.175
X2.475Y-2.925
X2.5063Y-4.7125
X2.6Y-3.9625
X2.7563Y-4.6125
X2.85Y-3.8625
X2.975Y-1.525
X2.975Y-2.275
X2.975Y-3.025
X3.225Y-1.425
X3.225Y-2.175
X3.225Y-2.925
X3.35Y-3.9625
X3.35Y-4.7125
X3.6Y-3.8625
X3.6Y-4.6125
X4.1Y-3.9625
X4.1Y-4.7125
X4.35Y-3.8625
X4.35Y-4.6125
X4.85Y-3.9625
X4.85Y-4.7125
X5.1Y-3.8625
X5.1Y-4.6125
X5.6Y-3.9625
X5.6Y-4.7125
X5.85Y-3.8625
X5.85Y-4.6125
X6.35Y-3.9625
X6.35Y-4.7125
X6.6Y-3.8625
X6.6Y-4.6125
X7.1Y-3.9625
X7.1Y-4.7125
X7.35Y-3.8625
X7.35Y-4.6125
X7.85Y-3.9625
X7.85Y-4.7125
X8.1Y-3.8625
X8.1Y-4.6125
X8.6Y-3.9625
X8.6Y-4.7125
X8.85Y-3.8625
X8.85Y-4.6125
T8
X4.3418Y-2.3018
X4.3418Y-2.6955
X4.8398Y-2.3018
X4.8398Y-2.6955
T9
X4.4215Y-2.4987
X4.7601Y-2.4987
T2
G00X3.6349Y-1.4504
M15
G01X3.6349Y-1.4031
M16
G05
G00X3.9751Y-1.4504
M15
G01X3.9751Y-1.4031
M16
G05
T3
G00X3.6349Y-1.274
M15
G01X3.6349Y-1.2504
M16
G05
G00X3.9751Y-1.274
M15
G01X3.9751Y-1.2504
M16
G05
T0
M30
