%TF.GenerationSoftware,KiCad,Pcbnew,(6.0.5)*%
%TF.CreationDate,2022-05-16T23:41:31-07:00*%
%TF.ProjectId,3HMouse,33484d6f-7573-4652-9e6b-696361645f70,rev?*%
%TF.SameCoordinates,Original*%
%TF.FileFunction,Copper,L2,Bot*%
%TF.FilePolarity,Positive*%
%FSLAX46Y46*%
G04 Gerber Fmt 4.6, Leading zero omitted, Abs format (unit mm)*
G04 Created by KiCad (PCBNEW (6.0.5)) date 2022-05-16 23:41:31*
%MOMM*%
%LPD*%
G01*
G04 APERTURE LIST*
%TA.AperFunction,ComponentPad*%
%ADD10O,1.000000X1.600000*%
%TD*%
%TA.AperFunction,ComponentPad*%
%ADD11O,0.900000X2.100000*%
%TD*%
%TA.AperFunction,ComponentPad*%
%ADD12C,2.250000*%
%TD*%
%TA.AperFunction,ComponentPad*%
%ADD13C,2.000000*%
%TD*%
%TA.AperFunction,ComponentPad*%
%ADD14R,2.000000X2.000000*%
%TD*%
%TA.AperFunction,WasherPad*%
%ADD15O,3.200000X2.000000*%
%TD*%
%TA.AperFunction,ComponentPad*%
%ADD16C,2.475000*%
%TD*%
%TA.AperFunction,ComponentPad*%
%ADD17C,2.400000*%
%TD*%
%TA.AperFunction,ComponentPad*%
%ADD18C,1.950000*%
%TD*%
%TA.AperFunction,ComponentPad*%
%ADD19C,1.650000*%
%TD*%
%TA.AperFunction,ComponentPad*%
%ADD20O,1.600000X2.000000*%
%TD*%
%TA.AperFunction,ViaPad*%
%ADD21C,0.800000*%
%TD*%
%TA.AperFunction,Conductor*%
%ADD22C,0.250000*%
%TD*%
%TA.AperFunction,Conductor*%
%ADD23C,0.500000*%
%TD*%
G04 APERTURE END LIST*
D10*
%TO.P,J1,S1,SHIELD*%
%TO.N,Net-(R3-Pad1)*%
X100967000Y-32060000D03*
X92327000Y-32060000D03*
D11*
X100967000Y-36240000D03*
X92327000Y-36240000D03*
%TD*%
D12*
%TO.P,SW10,2*%
%TO.N,COL1*%
X70008750Y-117157500D03*
%TO.P,SW10,1*%
%TO.N,Net-(D10-Pad2)*%
X63658750Y-119697500D03*
%TD*%
%TO.P,SW28,2*%
%TO.N,COL9*%
X224790000Y-98107500D03*
%TO.P,SW28,1*%
%TO.N,Net-(D28-Pad2)*%
X218440000Y-100647500D03*
%TD*%
%TO.P,SW3,2*%
%TO.N,COL0*%
X43815000Y-74295000D03*
%TO.P,SW3,1*%
%TO.N,Net-(D3-Pad2)*%
X37465000Y-76835000D03*
%TD*%
%TO.P,SW17,2*%
%TO.N,COL3*%
X110490000Y-117157500D03*
%TO.P,SW17,1*%
%TO.N,Net-(D17-Pad2)*%
X104140000Y-119697500D03*
%TD*%
%TO.P,SW5,2*%
%TO.N,COL0*%
X46196250Y-117157500D03*
%TO.P,SW5,1*%
%TO.N,Net-(D5-Pad2)*%
X39846250Y-119697500D03*
%TD*%
%TO.P,SW12,2*%
%TO.N,COL2*%
X81915000Y-55245000D03*
%TO.P,SW12,1*%
%TO.N,Net-(D12-Pad2)*%
X75565000Y-57785000D03*
%TD*%
%TO.P,SW26,2*%
%TO.N,COL8*%
X205740000Y-98107500D03*
%TO.P,SW26,1*%
%TO.N,Net-(D26-Pad2)*%
X199390000Y-100647500D03*
%TD*%
%TO.P,SW9,2*%
%TO.N,COL1*%
X72390000Y-98107500D03*
%TO.P,SW9,1*%
%TO.N,Net-(D9-Pad2)*%
X66040000Y-100647500D03*
%TD*%
%TO.P,SW16,2*%
%TO.N,COL3*%
X110490000Y-98107500D03*
%TO.P,SW16,1*%
%TO.N,Net-(D16-Pad2)*%
X104140000Y-100647500D03*
%TD*%
%TO.P,SW4,2*%
%TO.N,COL0*%
X48577500Y-98107500D03*
%TO.P,SW4,1*%
%TO.N,Net-(D4-Pad2)*%
X42227500Y-100647500D03*
%TD*%
D13*
%TO.P,SW31,S2*%
%TO.N,N/C*%
X187463000Y-44775750D03*
%TO.P,SW31,S1*%
X187463000Y-49775750D03*
%TO.P,SW31,C,C*%
%TO.N,GND*%
X172963000Y-47275750D03*
%TO.P,SW31,B,B*%
%TO.N,RE1B*%
X172963000Y-49775750D03*
D14*
%TO.P,SW31,A,A*%
%TO.N,RE1A*%
X172963000Y-44775750D03*
D15*
%TO.P,SW31,*%
%TO.N,*%
X180463000Y-52875750D03*
X180463000Y-41675750D03*
%TD*%
D12*
%TO.P,SW19,2*%
%TO.N,COL4*%
X129540000Y-117157500D03*
%TO.P,SW19,1*%
%TO.N,Net-(D19-Pad2)*%
X123190000Y-119697500D03*
%TD*%
%TO.P,SW18,2*%
%TO.N,COL4*%
X129540000Y-98107500D03*
%TO.P,SW18,1*%
%TO.N,Net-(D18-Pad2)*%
X123190000Y-100647500D03*
%TD*%
%TO.P,SW23,2*%
%TO.N,COL6*%
X167640000Y-117157500D03*
%TO.P,SW23,1*%
%TO.N,Net-(D23-Pad2)*%
X161290000Y-119697500D03*
%TD*%
%TO.P,SW24,2*%
%TO.N,COL7*%
X186690000Y-98107500D03*
%TO.P,SW24,1*%
%TO.N,Net-(D24-Pad2)*%
X180340000Y-100647500D03*
%TD*%
%TO.P,SW14,2*%
%TO.N,COL2*%
X91440000Y-98107500D03*
%TO.P,SW14,1*%
%TO.N,Net-(D14-Pad2)*%
X85090000Y-100647500D03*
%TD*%
%TO.P,SW29,2*%
%TO.N,COL9*%
X224790000Y-117157500D03*
%TO.P,SW29,1*%
%TO.N,Net-(D29-Pad2)*%
X218440000Y-119697500D03*
%TD*%
%TO.P,SW2,2*%
%TO.N,COL0*%
X43815000Y-55245000D03*
%TO.P,SW2,1*%
%TO.N,Net-(D2-Pad2)*%
X37465000Y-57785000D03*
%TD*%
%TO.P,SW22,2*%
%TO.N,COL6*%
X167640000Y-98107500D03*
%TO.P,SW22,1*%
%TO.N,Net-(D22-Pad2)*%
X161290000Y-100647500D03*
%TD*%
%TO.P,SW27,2*%
%TO.N,COL8*%
X205740000Y-117157500D03*
%TO.P,SW27,1*%
%TO.N,Net-(D27-Pad2)*%
X199390000Y-119697500D03*
%TD*%
D16*
%TO.P,S1,MH6,MH6*%
%TO.N,unconnected-(S1-PadMH6)*%
X112306250Y-63466250D03*
%TO.P,S1,MH5,MH5*%
%TO.N,unconnected-(S1-PadMH5)*%
X120906250Y-63466250D03*
D17*
%TO.P,S1,MH4,MH4*%
%TO.N,unconnected-(S1-PadMH4)*%
X110281250Y-68466250D03*
%TO.P,S1,MH3,MH3*%
%TO.N,unconnected-(S1-PadMH3)*%
X110281250Y-58466250D03*
%TO.P,S1,MH2,MH2*%
%TO.N,unconnected-(S1-PadMH2)*%
X122931250Y-68466250D03*
%TO.P,S1,MH1,MH1*%
%TO.N,unconnected-(S1-PadMH1)*%
X122931250Y-58466250D03*
D18*
%TO.P,S1,D1,D1*%
%TO.N,Net-(D35-Pad2)*%
X113356250Y-53216250D03*
%TO.P,S1,C1,C1*%
%TO.N,COL10*%
X113356250Y-57716250D03*
D19*
%TO.P,S1,B13,B13*%
%TO.N,GND*%
X119106250Y-72196250D03*
%TO.P,S1,B12,B12*%
%TO.N,HOR*%
X116606250Y-72196250D03*
%TO.P,S1,B11,B11*%
%TO.N,+5V*%
X114106250Y-72196250D03*
D18*
%TO.P,S1,B1,B1*%
%TO.N,unconnected-(S1-PadB1)*%
X119856250Y-53216250D03*
D19*
%TO.P,S1,A13,A13*%
%TO.N,GND*%
X107876250Y-65966250D03*
%TO.P,S1,A12,A12*%
%TO.N,VER*%
X107876250Y-63466250D03*
%TO.P,S1,A11,A11*%
%TO.N,+5V*%
X107876250Y-60966250D03*
D18*
%TO.P,S1,A1,A1*%
%TO.N,unconnected-(S1-PadA1)*%
X119856250Y-57716250D03*
%TD*%
D12*
%TO.P,SW20,2*%
%TO.N,COL5*%
X148590000Y-98107500D03*
%TO.P,SW20,1*%
%TO.N,Net-(D20-Pad2)*%
X142240000Y-100647500D03*
%TD*%
%TO.P,SW8,2*%
%TO.N,COL1*%
X62865000Y-74295000D03*
%TO.P,SW8,1*%
%TO.N,Net-(D8-Pad2)*%
X56515000Y-76835000D03*
%TD*%
%TO.P,SW21,2*%
%TO.N,COL5*%
X148590000Y-117157500D03*
%TO.P,SW21,1*%
%TO.N,Net-(D21-Pad2)*%
X142240000Y-119697500D03*
%TD*%
%TO.P,SW1,2*%
%TO.N,COL0*%
X43815000Y-36195000D03*
%TO.P,SW1,1*%
%TO.N,Net-(D1-Pad2)*%
X37465000Y-38735000D03*
%TD*%
%TO.P,SW13,2*%
%TO.N,COL2*%
X81915000Y-74295000D03*
%TO.P,SW13,1*%
%TO.N,Net-(D13-Pad2)*%
X75565000Y-76835000D03*
%TD*%
%TO.P,SW7,2*%
%TO.N,COL1*%
X62865000Y-55245000D03*
%TO.P,SW7,1*%
%TO.N,Net-(D7-Pad2)*%
X56515000Y-57785000D03*
%TD*%
D13*
%TO.P,SW30,S2*%
%TO.N,N/C*%
X187463000Y-69382000D03*
%TO.P,SW30,S1*%
X187463000Y-74382000D03*
%TO.P,SW30,C,C*%
%TO.N,GND*%
X172963000Y-71882000D03*
%TO.P,SW30,B,B*%
%TO.N,RE0B*%
X172963000Y-74382000D03*
D14*
%TO.P,SW30,A,A*%
%TO.N,RE0A*%
X172963000Y-69382000D03*
D15*
%TO.P,SW30,*%
%TO.N,*%
X180463000Y-77482000D03*
X180463000Y-66282000D03*
%TD*%
D12*
%TO.P,SW15,2*%
%TO.N,COL2*%
X91440000Y-117157500D03*
%TO.P,SW15,1*%
%TO.N,Net-(D15-Pad2)*%
X85090000Y-119697500D03*
%TD*%
%TO.P,SW11,2*%
%TO.N,COL2*%
X81915000Y-36195000D03*
%TO.P,SW11,1*%
%TO.N,Net-(D11-Pad2)*%
X75565000Y-38735000D03*
%TD*%
%TO.P,SW6,2*%
%TO.N,COL1*%
X62865000Y-36195000D03*
%TO.P,SW6,1*%
%TO.N,Net-(D6-Pad2)*%
X56515000Y-38735000D03*
%TD*%
D20*
%TO.P,Brd1,1,GND*%
%TO.N,GND*%
X211486250Y-49725000D03*
%TO.P,Brd1,2,VCC*%
%TO.N,+5V*%
X214026250Y-49725000D03*
%TO.P,Brd1,3,SCL*%
%TO.N,SCL*%
X216566250Y-49725000D03*
%TO.P,Brd1,4,SDA*%
%TO.N,SDA*%
X219106250Y-49725000D03*
%TD*%
D12*
%TO.P,SW25,2*%
%TO.N,COL7*%
X186690000Y-117157500D03*
%TO.P,SW25,1*%
%TO.N,Net-(D25-Pad2)*%
X180340000Y-119697500D03*
%TD*%
D21*
%TO.N,Net-(D36-Pad1)*%
X99949000Y-41656000D03*
X94233825Y-41402175D03*
X102728168Y-38977758D03*
X103124000Y-36964500D03*
%TO.N,D+ I*%
X95223489Y-39370000D03*
X96672500Y-39425245D03*
%TO.N,D- I*%
X97409000Y-40132000D03*
%TO.N,VER*%
X121501511Y-65315489D03*
X113284000Y-65278000D03*
%TO.N,RE0A*%
X170162580Y-66548000D03*
%TO.N,ROW0*%
X121158000Y-61595000D03*
X110617000Y-61849000D03*
%TO.N,SCL*%
X163812142Y-52089560D03*
%TO.N,SDA*%
X159643908Y-51300599D03*
%TO.N,ROW4*%
X159091500Y-52133576D03*
%TO.N,+5V*%
X151091250Y-70192250D03*
X140127563Y-65578563D03*
%TO.N,COL6*%
X167640000Y-80137000D03*
%TO.N,GND*%
X164792900Y-60124100D03*
X162183666Y-62742650D03*
%TO.N,ROW1*%
X137642465Y-66014465D03*
X140944465Y-62712465D03*
%TO.N,+5V*%
X137287000Y-62738000D03*
X137287000Y-58801000D03*
%TO.N,D+ I*%
X102895312Y-40169500D03*
%TO.N,+5V*%
X109474000Y-60960000D03*
X152496500Y-45435500D03*
%TO.N,SDA*%
X157353000Y-51308000D03*
%TO.N,+5V*%
X160777805Y-61345180D03*
X151574133Y-54800133D03*
X157099000Y-53594000D03*
X149596676Y-54092676D03*
X147825500Y-72009000D03*
%TO.N,COL5*%
X156464000Y-54483000D03*
%TO.N,+5V*%
X147950701Y-55630299D03*
X145796011Y-55681935D03*
X137160000Y-53885500D03*
X143876780Y-53885500D03*
%TO.N,SDA*%
X213867150Y-51315428D03*
X216027000Y-51308000D03*
X154760500Y-53848000D03*
%TO.N,VER*%
X136525000Y-64897000D03*
X152527000Y-52288497D03*
%TO.N,HOR*%
X122809000Y-66040000D03*
X136523465Y-66040000D03*
X153465925Y-53012997D03*
%TO.N,ROW4*%
X157099000Y-129032000D03*
%TO.N,Net-(R5-Pad1)*%
X158623000Y-56515000D03*
X161925000Y-57531000D03*
%TO.N,COL4*%
X158050040Y-72174531D03*
X138811000Y-95614503D03*
%TO.N,COL3*%
X138811000Y-94615000D03*
X157600520Y-73157490D03*
%TO.N,COL2*%
X94977509Y-97644509D03*
X157157949Y-74121834D03*
X138773500Y-93599000D03*
%TO.N,COL1*%
X138773500Y-92456000D03*
X156426500Y-74803000D03*
%TO.N,ROW2*%
X92164500Y-92583000D03*
X113284000Y-90043000D03*
%TO.N,ROW3*%
X133260965Y-61251500D03*
X133269563Y-72436563D03*
X133260965Y-70395965D03*
X138049000Y-110236000D03*
%TO.N,/RESET*%
X133985000Y-83566000D03*
X129748951Y-83520951D03*
%TO.N,COL0*%
X142576254Y-62105274D03*
X92329000Y-96393000D03*
%TO.N,Net-(R3-Pad1)*%
X104013000Y-35978500D03*
X104013000Y-37427500D03*
%TO.N,+5V*%
X115824000Y-39751000D03*
X115824000Y-34417000D03*
%TO.N,D- I*%
X112649000Y-40894000D03*
%TO.N,+5V*%
X139065000Y-41783000D03*
X120777000Y-41783000D03*
X147066000Y-48387000D03*
%TO.N,COL10*%
X147955000Y-54610000D03*
%TO.N,/UCAP*%
X143637000Y-59196500D03*
X141732000Y-57277000D03*
%TD*%
D22*
%TO.N,Net-(D36-Pad1)*%
X94487650Y-41656000D02*
X99949000Y-41656000D01*
X94233825Y-41402175D02*
X94487650Y-41656000D01*
X102728168Y-38977758D02*
X102728168Y-37360332D01*
X102728168Y-37360332D02*
X103124000Y-36964500D01*
%TO.N,D+ I*%
X96617255Y-39370000D02*
X96672500Y-39425245D01*
X95223489Y-39370000D02*
X96617255Y-39370000D01*
X96672500Y-39425245D02*
X96690256Y-39407489D01*
X96690256Y-39407489D02*
X102133301Y-39407489D01*
X102133301Y-39407489D02*
X102895312Y-40169500D01*
%TO.N,D- I*%
X101769026Y-40132000D02*
X102531026Y-40894000D01*
X97409000Y-40132000D02*
X101769026Y-40132000D01*
%TO.N,VER*%
X113284000Y-65278000D02*
X121464022Y-65278000D01*
X121464022Y-65278000D02*
X121501511Y-65315489D01*
%TO.N,RE0A*%
X170162580Y-66548000D02*
X172963000Y-69348420D01*
X172963000Y-69348420D02*
X172963000Y-69382000D01*
%TO.N,ROW0*%
X120904000Y-61849000D02*
X121158000Y-61595000D01*
X110617000Y-61849000D02*
X120904000Y-61849000D01*
%TO.N,SCL*%
X163812142Y-52814142D02*
X163812142Y-52089560D01*
X163812145Y-52814145D02*
X163812142Y-52814142D01*
%TO.N,SDA*%
X159708369Y-51365060D02*
X213817518Y-51365060D01*
X159643908Y-51300599D02*
X159708369Y-51365060D01*
X213817518Y-51365060D02*
X213867150Y-51315428D01*
%TO.N,SCL*%
X163856076Y-52858076D02*
X163812145Y-52814145D01*
%TO.N,ROW4*%
X159175442Y-52217518D02*
X159091500Y-52133576D01*
X163099031Y-52217518D02*
X159175442Y-52217518D01*
D23*
%TO.N,+5V*%
X149274500Y-72009000D02*
X151091250Y-70192250D01*
X146558000Y-72009000D02*
X140127563Y-65578563D01*
X146558000Y-72009000D02*
X147825500Y-72009000D01*
D22*
%TO.N,/RESET*%
X129794000Y-83566000D02*
X129748951Y-83520951D01*
X133985000Y-83566000D02*
X129794000Y-83566000D01*
%TO.N,COL6*%
X167640000Y-80137000D02*
X167640000Y-98107500D01*
%TO.N,GND*%
X162183666Y-62742650D02*
X164792900Y-60133416D01*
X164792900Y-60133416D02*
X164792900Y-60124100D01*
%TO.N,ROW1*%
X140944465Y-62712465D02*
X137642465Y-66014465D01*
D23*
%TO.N,+5V*%
X137287000Y-58801000D02*
X137287000Y-62738000D01*
X147066000Y-50696280D02*
X143876780Y-53885500D01*
X147066000Y-48387000D02*
X147066000Y-50696280D01*
D22*
%TO.N,SCL*%
X182626000Y-54102000D02*
X212189250Y-54102000D01*
X212189250Y-54102000D02*
X216566250Y-49725000D01*
X182245000Y-54483000D02*
X182626000Y-54102000D01*
X178943000Y-54483000D02*
X182245000Y-54483000D01*
X165100000Y-54102000D02*
X178562000Y-54102000D01*
X178562000Y-54102000D02*
X178943000Y-54483000D01*
X163856076Y-52858076D02*
X165100000Y-54102000D01*
D23*
%TO.N,GND*%
X113475761Y-73470761D02*
X117831739Y-73470761D01*
X110114012Y-65966250D02*
X112831739Y-68683977D01*
X112831739Y-68683977D02*
X112831739Y-72826739D01*
X112831739Y-72826739D02*
X113475761Y-73470761D01*
X107876250Y-65966250D02*
X110114012Y-65966250D01*
X117831739Y-73470761D02*
X119106250Y-72196250D01*
%TO.N,+5V*%
X114106250Y-67652045D02*
X114106250Y-72196250D01*
X109474000Y-63019795D02*
X114106250Y-67652045D01*
X109474000Y-60960000D02*
X109474000Y-63019795D01*
X160777805Y-61336805D02*
X160777805Y-61345180D01*
X160020000Y-60579000D02*
X160777805Y-61336805D01*
X158369000Y-60579000D02*
X160020000Y-60579000D01*
X157734000Y-59944000D02*
X158369000Y-60579000D01*
X157734000Y-56007000D02*
X157734000Y-59944000D01*
X158242000Y-55499000D02*
X157734000Y-56007000D01*
X158242000Y-50995609D02*
X158242000Y-55499000D01*
X152681891Y-45435500D02*
X158242000Y-50995609D01*
X152496500Y-45435500D02*
X152681891Y-45435500D01*
D22*
X152505114Y-45435500D02*
X152496500Y-45435500D01*
%TO.N,SDA*%
X157345572Y-51315428D02*
X157353000Y-51308000D01*
%TO.N,+5V*%
X156039114Y-53594000D02*
X154832981Y-54800133D01*
X154832981Y-54800133D02*
X151574133Y-54800133D01*
X157099000Y-53594000D02*
X156039114Y-53594000D01*
%TO.N,SDA*%
X154760500Y-53848000D02*
X154813000Y-53848000D01*
X154813000Y-53848000D02*
X157345572Y-51315428D01*
%TO.N,COL5*%
X156464000Y-61595717D02*
X156658803Y-61790520D01*
X156464000Y-54483000D02*
X156464000Y-61595717D01*
%TO.N,+5V*%
X148059053Y-55630299D02*
X147950701Y-55630299D01*
X149596676Y-54092676D02*
X148059053Y-55630299D01*
D23*
X149274500Y-72009000D02*
X147825500Y-72009000D01*
D22*
%TO.N,COL5*%
X159004000Y-61790520D02*
X156658803Y-61790520D01*
X148590000Y-86995000D02*
X159004000Y-76581000D01*
X159004000Y-76581000D02*
X159004000Y-61790520D01*
X148590000Y-98107500D02*
X148590000Y-86995000D01*
D23*
%TO.N,+5V*%
X147899065Y-55681935D02*
X147950701Y-55630299D01*
X145796011Y-55681935D02*
X147899065Y-55681935D01*
X137309980Y-54035480D02*
X137160000Y-53885500D01*
X143830520Y-54035480D02*
X137309980Y-54035480D01*
X143876780Y-53989220D02*
X143830520Y-54035480D01*
X143876780Y-53885500D02*
X143876780Y-53989220D01*
D22*
%TO.N,VER*%
X142367000Y-60579000D02*
X140843000Y-60579000D01*
%TO.N,SDA*%
X217523250Y-51308000D02*
X219106250Y-49725000D01*
X216027000Y-51308000D02*
X217523250Y-51308000D01*
%TO.N,VER*%
X140843000Y-60579000D02*
X136525000Y-64897000D01*
X144134950Y-60579000D02*
X142367000Y-60579000D01*
X152425453Y-52288497D02*
X144134950Y-60579000D01*
X152527000Y-52288497D02*
X152425453Y-52288497D01*
%TO.N,HOR*%
X122762500Y-66040000D02*
X116606250Y-72196250D01*
X122809000Y-66040000D02*
X122762500Y-66040000D01*
X141182702Y-61380763D02*
X136523465Y-66040000D01*
X142494000Y-61380763D02*
X141182702Y-61380763D01*
X152336672Y-53012997D02*
X151125334Y-54224334D01*
X153465925Y-53012997D02*
X152336672Y-53012997D01*
X151125334Y-54224334D02*
X143968905Y-61380763D01*
X143968905Y-61380763D02*
X142494000Y-61380763D01*
%TO.N,ROW4*%
X157099000Y-104341409D02*
X157099000Y-129032000D01*
X159453520Y-101986889D02*
X157099000Y-104341409D01*
X159453520Y-66548000D02*
X159453520Y-101986889D01*
X159453520Y-64448197D02*
X159453520Y-66548000D01*
X160693206Y-63208511D02*
X159453520Y-64448197D01*
X161163359Y-62738358D02*
X160693206Y-63208511D01*
X163099031Y-60802686D02*
X161163359Y-62738358D01*
X163099031Y-52217518D02*
X163099031Y-57912000D01*
X163099031Y-57912000D02*
X163099031Y-60802686D01*
%TO.N,Net-(R5-Pad1)*%
X159004000Y-56896000D02*
X158623000Y-56515000D01*
X159639000Y-57531000D02*
X159004000Y-56896000D01*
X161925000Y-57531000D02*
X159639000Y-57531000D01*
%TO.N,COL4*%
X158496000Y-72620491D02*
X158050040Y-72174531D01*
X158496000Y-73406000D02*
X158496000Y-72620491D01*
X138836111Y-95614503D02*
X158496000Y-75954614D01*
X138811000Y-95614503D02*
X138836111Y-95614503D01*
X158496000Y-75954614D02*
X158496000Y-73406000D01*
%TO.N,COL3*%
X157882460Y-75543540D02*
X138811000Y-94615000D01*
X157600520Y-73157490D02*
X157882460Y-73439430D01*
X157882460Y-73439430D02*
X157882460Y-75543540D01*
%TO.N,COL2*%
X94514518Y-98107500D02*
X91440000Y-98107500D01*
X94977509Y-97644509D02*
X94514518Y-98107500D01*
X157157949Y-75214551D02*
X138773500Y-93599000D01*
X157157949Y-74121834D02*
X157157949Y-75214551D01*
%TO.N,COL1*%
X156426500Y-74803000D02*
X138773500Y-92456000D01*
%TO.N,ROW2*%
X94704500Y-90043000D02*
X92164500Y-92583000D01*
X113284000Y-90043000D02*
X94704500Y-90043000D01*
%TO.N,ROW3*%
X133260965Y-61251500D02*
X133260965Y-70395965D01*
X138049000Y-77216000D02*
X138049000Y-110236000D01*
X133269563Y-72436563D02*
X138049000Y-77216000D01*
%TO.N,COL0*%
X108288528Y-96393000D02*
X142576254Y-62105274D01*
X92329000Y-96393000D02*
X108288528Y-96393000D01*
%TO.N,Net-(R3-Pad1)*%
X104013000Y-37427500D02*
X104013000Y-35978500D01*
D23*
%TO.N,+5V*%
X115824000Y-34417000D02*
X115824000Y-39751000D01*
D22*
%TO.N,D- I*%
X102531026Y-40894000D02*
X112649000Y-40894000D01*
D23*
%TO.N,+5V*%
X120777000Y-41783000D02*
X139065000Y-41783000D01*
D22*
%TO.N,COL2*%
X81915000Y-55245000D02*
X81915000Y-36195000D01*
X81915000Y-74295000D02*
X81915000Y-55245000D01*
X91440000Y-83820000D02*
X81915000Y-74295000D01*
X91440000Y-98107500D02*
X91440000Y-83820000D01*
%TO.N,COL10*%
X116462500Y-54610000D02*
X113356250Y-57716250D01*
X147955000Y-54610000D02*
X116462500Y-54610000D01*
%TO.N,/UCAP*%
X141732000Y-57291500D02*
X141732000Y-57277000D01*
X143637000Y-59196500D02*
X141732000Y-57291500D01*
%TO.N,COL9*%
X224790000Y-98107500D02*
X224790000Y-117157500D01*
%TO.N,COL8*%
X205740000Y-98107500D02*
X205740000Y-117157500D01*
%TO.N,COL7*%
X186690000Y-98107500D02*
X186690000Y-117157500D01*
%TO.N,COL6*%
X167640000Y-98107500D02*
X167640000Y-117157500D01*
%TO.N,COL5*%
X148590000Y-98107500D02*
X148590000Y-117157500D01*
%TO.N,COL4*%
X129540000Y-98107500D02*
X129540000Y-117157500D01*
%TO.N,COL3*%
X110490000Y-98107500D02*
X110490000Y-117157500D01*
%TO.N,COL2*%
X91440000Y-98107500D02*
X91440000Y-117157500D01*
%TO.N,COL1*%
X72390000Y-114776250D02*
X70008750Y-117157500D01*
X72390000Y-98107500D02*
X72390000Y-114776250D01*
X62865000Y-88582500D02*
X72390000Y-98107500D01*
X62865000Y-74295000D02*
X62865000Y-88582500D01*
X62865000Y-55245000D02*
X62865000Y-74295000D01*
X62865000Y-36195000D02*
X62865000Y-55245000D01*
%TO.N,COL0*%
X43815000Y-36195000D02*
X43815000Y-55245000D01*
X43815000Y-55245000D02*
X43815000Y-74295000D01*
X43815000Y-74295000D02*
X43815000Y-93345000D01*
X43815000Y-93345000D02*
X48577500Y-98107500D01*
X48577500Y-114776250D02*
X46196250Y-117157500D01*
X48577500Y-98107500D02*
X48577500Y-114776250D01*
%TD*%
M02*
