%TF.GenerationSoftware,KiCad,Pcbnew,(6.0.5)*%
%TF.CreationDate,2022-05-18T14:43:54-07:00*%
%TF.ProjectId,3HMouse,33484d6f-7573-4652-9e6b-696361645f70,rev?*%
%TF.SameCoordinates,Original*%
%TF.FileFunction,Copper,L2,Bot*%
%TF.FilePolarity,Positive*%
%FSLAX46Y46*%
G04 Gerber Fmt 4.6, Leading zero omitted, Abs format (unit mm)*
G04 Created by KiCad (PCBNEW (6.0.5)) date 2022-05-18 14:43:54*
%MOMM*%
%LPD*%
G01*
G04 APERTURE LIST*
%TA.AperFunction,ComponentPad*%
%ADD10C,4.400000*%
%TD*%
%TA.AperFunction,SMDPad,CuDef*%
%ADD11R,2.550000X2.500000*%
%TD*%
%TA.AperFunction,ComponentPad*%
%ADD12R,2.000000X2.000000*%
%TD*%
%TA.AperFunction,ComponentPad*%
%ADD13C,2.000000*%
%TD*%
%TA.AperFunction,ComponentPad*%
%ADD14R,2.000000X3.200000*%
%TD*%
%TA.AperFunction,ComponentPad*%
%ADD15O,1.600000X2.000000*%
%TD*%
%TA.AperFunction,ComponentPad*%
%ADD16C,1.950000*%
%TD*%
%TA.AperFunction,ComponentPad*%
%ADD17C,1.650000*%
%TD*%
%TA.AperFunction,ComponentPad*%
%ADD18C,2.400000*%
%TD*%
%TA.AperFunction,ComponentPad*%
%ADD19C,2.475000*%
%TD*%
%TA.AperFunction,ComponentPad*%
%ADD20O,1.000000X1.600000*%
%TD*%
%TA.AperFunction,ComponentPad*%
%ADD21O,0.900000X2.100000*%
%TD*%
%TA.AperFunction,ViaPad*%
%ADD22C,0.800000*%
%TD*%
%TA.AperFunction,Conductor*%
%ADD23C,0.500000*%
%TD*%
%TA.AperFunction,Conductor*%
%ADD24C,0.250000*%
%TD*%
%TA.AperFunction,Conductor*%
%ADD25C,0.200000*%
%TD*%
G04 APERTURE END LIST*
D10*
%TO.P,H5,1,1*%
%TO.N,unconnected-(H5-Pad1)*%
X91281250Y-77787500D03*
%TD*%
D11*
%TO.P,SW0_1,1*%
%TO.N,Net-(D0_1-Pad2)*%
X45302500Y-30797500D03*
%TO.P,SW0_1,2*%
%TO.N,COL1*%
X58229500Y-28257500D03*
%TD*%
%TO.P,SW1_1,1*%
%TO.N,Net-(D1_1-Pad2)*%
X45302500Y-49847500D03*
%TO.P,SW1_1,2*%
%TO.N,COL1*%
X58229500Y-47307500D03*
%TD*%
%TO.P,SW2_2,1*%
%TO.N,Net-(D2_2-Pad2)*%
X64352500Y-68897500D03*
%TO.P,SW2_2,2*%
%TO.N,COL2*%
X77279500Y-66357500D03*
%TD*%
%TO.P,SW3_3,1*%
%TO.N,Net-(D3_3-Pad2)*%
X83402500Y-87947500D03*
%TO.P,SW3_3,2*%
%TO.N,COL3*%
X96329500Y-85407500D03*
%TD*%
D10*
%TO.P,H2,1,1*%
%TO.N,GND*%
X138906250Y-23018750D03*
%TD*%
D11*
%TO.P,SW4_1,1*%
%TO.N,Net-(D4_1-Pad2)*%
X45302500Y-106997500D03*
%TO.P,SW4_1,2*%
%TO.N,COL1*%
X58229500Y-104457500D03*
%TD*%
%TO.P,SW2_0,1*%
%TO.N,Net-(D2_0-Pad2)*%
X26252500Y-68897500D03*
%TO.P,SW2_0,2*%
%TO.N,COL0*%
X39179500Y-66357500D03*
%TD*%
D10*
%TO.P,H3,1,1*%
%TO.N,unconnected-(H3-Pad1)*%
X23018750Y-151606250D03*
%TD*%
D11*
%TO.P,SW6_1,1*%
%TO.N,Net-(D6_1-Pad2)*%
X45302500Y-145097500D03*
%TO.P,SW6_1,2*%
%TO.N,COL1*%
X58229500Y-142557500D03*
%TD*%
%TO.P,SW1_2,1*%
%TO.N,Net-(D1_2-Pad2)*%
X64352500Y-49847500D03*
%TO.P,SW1_2,2*%
%TO.N,COL2*%
X77279500Y-47307500D03*
%TD*%
D12*
%TO.P,RE2,A,A*%
%TO.N,RE2A*%
X131087500Y-107843750D03*
D13*
%TO.P,RE2,B,B*%
%TO.N,RE2B*%
X126087500Y-107843750D03*
%TO.P,RE2,C,C*%
%TO.N,GND*%
X128587500Y-107843750D03*
D14*
%TO.P,RE2,MP*%
%TO.N,N/C*%
X122987500Y-115343750D03*
X134187500Y-115343750D03*
D13*
%TO.P,RE2,S1,S1*%
%TO.N,COL5*%
X126087500Y-122343750D03*
%TO.P,RE2,S2,S2*%
%TO.N,Net-(D2_4-Pad2)*%
X131087500Y-122343750D03*
%TD*%
D11*
%TO.P,SW0_0,1*%
%TO.N,Net-(D0_0-Pad2)*%
X26252500Y-30797500D03*
%TO.P,SW0_0,2*%
%TO.N,COL0*%
X39179500Y-28257500D03*
%TD*%
%TO.P,SW6_4,1*%
%TO.N,Net-(D6_4-Pad2)*%
X102452500Y-145097500D03*
%TO.P,SW6_4,2*%
%TO.N,COL4*%
X115379500Y-142557500D03*
%TD*%
D12*
%TO.P,RE1,A,A*%
%TO.N,RE1A*%
X131087500Y-129275000D03*
D13*
%TO.P,RE1,B,B*%
%TO.N,RE1B*%
X126087500Y-129275000D03*
%TO.P,RE1,C,C*%
%TO.N,GND*%
X128587500Y-129275000D03*
D14*
%TO.P,RE1,MP*%
%TO.N,N/C*%
X134187500Y-136775000D03*
X122987500Y-136775000D03*
D13*
%TO.P,RE1,S1,S1*%
%TO.N,COL5*%
X126087500Y-143775000D03*
%TO.P,RE1,S2,S2*%
%TO.N,Net-(D1_4-Pad2)*%
X131087500Y-143775000D03*
%TD*%
D11*
%TO.P,SW5_0,1*%
%TO.N,Net-(D5_0-Pad2)*%
X26252500Y-126047500D03*
%TO.P,SW5_0,2*%
%TO.N,COL0*%
X39179500Y-123507500D03*
%TD*%
D15*
%TO.P,Brd1,1,GND*%
%TO.N,GND*%
X104458000Y-47811000D03*
%TO.P,Brd1,2,VCC*%
%TO.N,+5V*%
X101918000Y-47811000D03*
%TO.P,Brd1,3,SCL*%
%TO.N,SCL*%
X99378000Y-47811000D03*
%TO.P,Brd1,4,SDA*%
%TO.N,SDA*%
X96838000Y-47811000D03*
%TD*%
D11*
%TO.P,SW4_4,1*%
%TO.N,Net-(D4_4-Pad2)*%
X102452500Y-106997500D03*
%TO.P,SW4_4,2*%
%TO.N,COL4*%
X115379500Y-104457500D03*
%TD*%
%TO.P,SW3_1,1*%
%TO.N,Net-(D3_1-Pad2)*%
X45302500Y-87947500D03*
%TO.P,SW3_1,2*%
%TO.N,COL1*%
X58229500Y-85407500D03*
%TD*%
%TO.P,SW1_0,1*%
%TO.N,Net-(D1_0-Pad2)*%
X26252500Y-49847500D03*
%TO.P,SW1_0,2*%
%TO.N,COL0*%
X39179500Y-47307500D03*
%TD*%
D10*
%TO.P,H1,1,1*%
%TO.N,unconnected-(H1-Pad1)*%
X23018750Y-23018750D03*
%TD*%
%TO.P,H4,1,1*%
%TO.N,unconnected-(H4-Pad1)*%
X138906250Y-157162500D03*
%TD*%
D11*
%TO.P,SW3_2,1*%
%TO.N,Net-(D3_2-Pad2)*%
X64352500Y-87947500D03*
%TO.P,SW3_2,2*%
%TO.N,COL2*%
X77279500Y-85407500D03*
%TD*%
%TO.P,SW6_2,1*%
%TO.N,Net-(D6_2-Pad2)*%
X64352500Y-145097500D03*
%TO.P,SW6_2,2*%
%TO.N,COL2*%
X77279500Y-142557500D03*
%TD*%
%TO.P,SW5_2,1*%
%TO.N,Net-(D5_2-Pad2)*%
X64352500Y-126047500D03*
%TO.P,SW5_2,2*%
%TO.N,COL2*%
X77279500Y-123507500D03*
%TD*%
%TO.P,SW2_1,1*%
%TO.N,Net-(D2_1-Pad2)*%
X45302500Y-68897500D03*
%TO.P,SW2_1,2*%
%TO.N,COL1*%
X58229500Y-66357500D03*
%TD*%
D16*
%TO.P,S1,A1,A1*%
%TO.N,unconnected-(S1-PadA1)*%
X126760000Y-97858750D03*
D17*
%TO.P,S1,A11,A11*%
%TO.N,+5V*%
X138740000Y-94608750D03*
%TO.P,S1,A12,A12*%
%TO.N,VER*%
X138740000Y-92108750D03*
%TO.P,S1,A13,A13*%
%TO.N,GND*%
X138740000Y-89608750D03*
D16*
%TO.P,S1,B1,B1*%
%TO.N,unconnected-(S1-PadB1)*%
X126760000Y-102358750D03*
D17*
%TO.P,S1,B11,B11*%
%TO.N,+5V*%
X132510000Y-83378750D03*
%TO.P,S1,B12,B12*%
%TO.N,HOR*%
X130010000Y-83378750D03*
%TO.P,S1,B13,B13*%
%TO.N,GND*%
X127510000Y-83378750D03*
D16*
%TO.P,S1,C1,C1*%
%TO.N,COL5*%
X133260000Y-97858750D03*
%TO.P,S1,D1,D1*%
%TO.N,Net-(D0_5-Pad2)*%
X133260000Y-102358750D03*
D18*
%TO.P,S1,MH1,MH1*%
%TO.N,unconnected-(S1-PadMH1)*%
X123685000Y-97108750D03*
%TO.P,S1,MH2,MH2*%
%TO.N,unconnected-(S1-PadMH2)*%
X123685000Y-87108750D03*
%TO.P,S1,MH3,MH3*%
%TO.N,unconnected-(S1-PadMH3)*%
X136335000Y-97108750D03*
%TO.P,S1,MH4,MH4*%
%TO.N,unconnected-(S1-PadMH4)*%
X136335000Y-87108750D03*
D19*
%TO.P,S1,MH5,MH5*%
%TO.N,unconnected-(S1-PadMH5)*%
X125710000Y-92108750D03*
%TO.P,S1,MH6,MH6*%
%TO.N,unconnected-(S1-PadMH6)*%
X134310000Y-92108750D03*
%TD*%
D11*
%TO.P,SW4_2,1*%
%TO.N,Net-(D4_2-Pad2)*%
X64352500Y-106997500D03*
%TO.P,SW4_2,2*%
%TO.N,COL2*%
X77279500Y-104457500D03*
%TD*%
%TO.P,SW3_0,1*%
%TO.N,Net-(D3_0-Pad2)*%
X26252500Y-87947500D03*
%TO.P,SW3_0,2*%
%TO.N,COL0*%
X39179500Y-85407500D03*
%TD*%
%TO.P,SW4_3,1*%
%TO.N,Net-(D4_3-Pad2)*%
X83402500Y-106997500D03*
%TO.P,SW4_3,2*%
%TO.N,COL3*%
X96329500Y-104457500D03*
%TD*%
%TO.P,SW4_0,1*%
%TO.N,Net-(D4_0-Pad2)*%
X26252500Y-106997500D03*
%TO.P,SW4_0,2*%
%TO.N,COL0*%
X39179500Y-104457500D03*
%TD*%
%TO.P,SW6_0,1*%
%TO.N,Net-(D6_0-Pad2)*%
X26252500Y-145097500D03*
%TO.P,SW6_0,2*%
%TO.N,COL0*%
X39179500Y-142557500D03*
%TD*%
%TO.P,SW0_2,1*%
%TO.N,Net-(D0_2-Pad2)*%
X64352500Y-30797500D03*
%TO.P,SW0_2,2*%
%TO.N,COL2*%
X77279500Y-28257500D03*
%TD*%
%TO.P,SW6_3,1*%
%TO.N,Net-(D6_3-Pad2)*%
X83402500Y-145097500D03*
%TO.P,SW6_3,2*%
%TO.N,COL3*%
X96329500Y-142557500D03*
%TD*%
%TO.P,SW5_1,1*%
%TO.N,Net-(D5_1-Pad2)*%
X45302500Y-126047500D03*
%TO.P,SW5_1,2*%
%TO.N,COL1*%
X58229500Y-123507500D03*
%TD*%
D20*
%TO.P,J1,S1,SHIELD*%
%TO.N,Net-(J1-PadS1)*%
X125152250Y-24196750D03*
X116512250Y-24196750D03*
D21*
X116512250Y-28376750D03*
X125152250Y-28376750D03*
%TD*%
D11*
%TO.P,SW3_4,1*%
%TO.N,Net-(D3_4-Pad2)*%
X102452500Y-87947500D03*
%TO.P,SW3_4,2*%
%TO.N,COL4*%
X115379500Y-85407500D03*
%TD*%
%TO.P,SW5_3,1*%
%TO.N,Net-(D5_3-Pad2)*%
X83402500Y-126047500D03*
%TO.P,SW5_3,2*%
%TO.N,COL3*%
X96329500Y-123507500D03*
%TD*%
%TO.P,SW5_4,1*%
%TO.N,Net-(D5_4-Pad2)*%
X102452500Y-126047500D03*
%TO.P,SW5_4,2*%
%TO.N,COL4*%
X115379500Y-123507500D03*
%TD*%
D22*
%TO.N,GND*%
X117625500Y-43942000D03*
X121435500Y-40259000D03*
X111725688Y-59020688D03*
%TO.N,+5V*%
X90932000Y-65659000D03*
X73930921Y-59635250D03*
X109207140Y-119482031D03*
X107899899Y-66281940D03*
X78491521Y-59635250D03*
X71247000Y-100457000D03*
X97409000Y-71755000D03*
X71234140Y-43282031D03*
X134747000Y-75184000D03*
X71234140Y-62332031D03*
X34379701Y-62140299D03*
X34671000Y-100457000D03*
X96079799Y-58860201D03*
X71247000Y-81407000D03*
X34828676Y-81552976D03*
X34782827Y-157632952D03*
X109223597Y-138535914D03*
X110871000Y-63246000D03*
X34752151Y-138563976D03*
X34701676Y-119525976D03*
%TO.N,ROW0*%
X63881000Y-41783000D03*
X35306000Y-41529000D03*
X25653000Y-41783000D03*
X44689947Y-41777686D03*
X53936217Y-41523686D03*
X72898000Y-42291000D03*
%TO.N,Net-(D0_0-Pad2)*%
X27813000Y-40513000D03*
%TO.N,Net-(D0_1-Pad2)*%
X46863000Y-40386000D03*
%TO.N,Net-(D0_2-Pad2)*%
X65913000Y-40513000D03*
%TO.N,ROW1*%
X78491521Y-57023000D03*
X54356000Y-60579000D03*
X25653000Y-60833000D03*
X72786398Y-59578398D03*
X63627000Y-60833000D03*
X89656265Y-57028734D03*
X44703000Y-60833000D03*
X34899270Y-60579000D03*
%TO.N,ROW2*%
X25653000Y-79883000D03*
X65043674Y-76936576D03*
X54356000Y-79629000D03*
X44694900Y-79879362D03*
X73674572Y-61092974D03*
X34899270Y-79629000D03*
%TO.N,Net-(D1_0-Pad2)*%
X27813000Y-59563000D03*
%TO.N,Net-(D1_1-Pad2)*%
X46863000Y-59563000D03*
%TO.N,Net-(D1_2-Pad2)*%
X65913000Y-59563000D03*
%TO.N,Net-(D2_0-Pad2)*%
X27813000Y-78486000D03*
%TO.N,Net-(D2_1-Pad2)*%
X46863000Y-78486000D03*
%TO.N,Net-(D2_2-Pad2)*%
X65913000Y-78613000D03*
%TO.N,ROW3*%
X44703000Y-98933000D03*
X54356000Y-98679000D03*
X92456000Y-98679000D03*
X25645763Y-98927841D03*
X72771000Y-97663000D03*
X34892033Y-98673841D03*
X111383299Y-98928701D03*
X63747467Y-98927841D03*
X101854000Y-98933000D03*
X82793907Y-98915511D03*
%TO.N,Net-(D3_0-Pad2)*%
X27813000Y-97663000D03*
%TO.N,Net-(D3_1-Pad2)*%
X46863000Y-97663000D03*
%TO.N,Net-(D3_2-Pad2)*%
X65881250Y-97631250D03*
%TO.N,Net-(D3_3-Pad2)*%
X84963000Y-97536000D03*
%TO.N,Net-(D3_4-Pad2)*%
X104013000Y-97536000D03*
%TO.N,ROW4*%
X72989584Y-117727942D03*
X80262942Y-117981942D03*
X101854000Y-117983000D03*
X110998000Y-118237000D03*
X25654000Y-117983000D03*
X92049270Y-117729000D03*
X44697467Y-117981942D03*
X53943737Y-117727942D03*
X34900270Y-117729000D03*
X79845500Y-98233500D03*
X63743314Y-117981942D03*
X82803000Y-117983000D03*
%TO.N,Net-(D4_0-Pad2)*%
X27813000Y-116713000D03*
%TO.N,Net-(D4_1-Pad2)*%
X46863000Y-116713000D03*
%TO.N,Net-(D4_2-Pad2)*%
X65913000Y-116713000D03*
%TO.N,Net-(D4_3-Pad2)*%
X84963000Y-116586000D03*
%TO.N,Net-(D4_4-Pad2)*%
X104013000Y-116586000D03*
%TO.N,ROW5*%
X35026270Y-136779000D03*
X82803000Y-137033000D03*
X44830000Y-137033000D03*
X72999270Y-136779000D03*
X98806000Y-137033000D03*
X80264000Y-137033000D03*
X80659104Y-97652936D03*
X113986799Y-139632201D03*
X25780000Y-137033000D03*
X92049270Y-136779000D03*
X54076270Y-136779000D03*
X63753000Y-137033000D03*
%TO.N,Net-(D5_0-Pad2)*%
X27813000Y-135763000D03*
%TO.N,Net-(D5_1-Pad2)*%
X46863000Y-135763000D03*
%TO.N,Net-(D5_2-Pad2)*%
X65913000Y-135763000D03*
%TO.N,Net-(D5_3-Pad2)*%
X84963000Y-135763000D03*
%TO.N,Net-(D5_4-Pad2)*%
X104013000Y-135763000D03*
%TO.N,ROW6*%
X97778715Y-69861285D03*
X44703000Y-156083000D03*
X73406000Y-155829000D03*
X63753000Y-156083000D03*
X82803000Y-156083000D03*
X35179000Y-155829000D03*
X53949270Y-155829000D03*
X25653000Y-156083000D03*
X102235000Y-156083000D03*
X92583000Y-155829000D03*
%TO.N,Net-(D6_0-Pad2)*%
X27813000Y-154813000D03*
%TO.N,Net-(D6_1-Pad2)*%
X46863000Y-154813000D03*
%TO.N,Net-(D6_2-Pad2)*%
X65913000Y-154813000D03*
%TO.N,Net-(D6_3-Pad2)*%
X84963000Y-154813000D03*
%TO.N,Net-(D6_4-Pad2)*%
X104013000Y-154813000D03*
%TO.N,Net-(DL0_0-Pad1)*%
X30988000Y-59563000D03*
X30720448Y-51670230D03*
%TO.N,Net-(J1-PadB5)*%
X120247722Y-35769222D03*
X118895500Y-34417000D03*
%TO.N,/RESET*%
X119214001Y-73628980D03*
X114681000Y-69088000D03*
%TO.N,COL3*%
X88138000Y-64135000D03*
%TO.N,RE1A*%
X104885503Y-67728500D03*
%TO.N,RE1B*%
X103886000Y-68075980D03*
%TO.N,VER*%
X100325701Y-72394299D03*
X95152188Y-68677812D03*
%TO.N,HOR*%
X96139000Y-68453000D03*
X100203726Y-71229797D03*
%TO.N,COL0*%
X39667021Y-45212000D03*
%TO.N,COL1*%
X58717021Y-44581050D03*
%TO.N,COL2*%
X77767021Y-45041979D03*
%TO.N,COL4*%
X90369098Y-70421500D03*
%TO.N,COL5*%
X106901059Y-66318343D03*
%TO.N,RE2A*%
X105735549Y-66177449D03*
%TO.N,RE2B*%
X105812482Y-67278980D03*
%TD*%
D23*
%TO.N,GND*%
X117625500Y-44934500D02*
X117625500Y-43942000D01*
X111725688Y-50834312D02*
X117625500Y-44934500D01*
X111725688Y-51088312D02*
X111725688Y-50834312D01*
X117752500Y-43942000D02*
X121435500Y-40259000D01*
X117625500Y-43942000D02*
X117752500Y-43942000D01*
D24*
%TO.N,ROW0*%
X64389000Y-42291000D02*
X63881000Y-41783000D01*
X72898000Y-42291000D02*
X64389000Y-42291000D01*
D23*
%TO.N,GND*%
X111725688Y-50883688D02*
X108653000Y-47811000D01*
X121308500Y-40259000D02*
X121435500Y-40259000D01*
X111725688Y-51088312D02*
X111725688Y-50883688D01*
X111725688Y-59020688D02*
X111725688Y-51088312D01*
X108653000Y-47811000D02*
X104458000Y-47811000D01*
%TO.N,+5V*%
X101918000Y-47811000D02*
X101918000Y-52863250D01*
X71234140Y-43282031D02*
X71234140Y-48657909D01*
X71247000Y-81407000D02*
X71247000Y-86487000D01*
D24*
X107899899Y-66281940D02*
X107899899Y-66217101D01*
D23*
X34671000Y-100457000D02*
X33796828Y-101331172D01*
X109207140Y-123464891D02*
X109207140Y-119482031D01*
X112030921Y-135728590D02*
X112030921Y-126288672D01*
X140335000Y-93013750D02*
X138740000Y-94608750D01*
X71234140Y-48657909D02*
X73930921Y-51354690D01*
X130810000Y-77470000D02*
X133096000Y-75184000D01*
X33877979Y-144045336D02*
X36068000Y-146235357D01*
X36068000Y-108209532D02*
X36068000Y-118159652D01*
X97917000Y-59436000D02*
X101981000Y-63500000D01*
X96079799Y-58860201D02*
X96655598Y-59436000D01*
X132510000Y-79170000D02*
X130810000Y-77470000D01*
X96079799Y-58860201D02*
X90932000Y-64008000D01*
X73943781Y-97760219D02*
X71247000Y-100457000D01*
X110871000Y-64041109D02*
X123029891Y-76200000D01*
X34752151Y-138563976D02*
X33877979Y-139438148D01*
X136718750Y-83378750D02*
X140335000Y-86995000D01*
X36195000Y-70236532D02*
X36195000Y-80186652D01*
X97028000Y-71755000D02*
X90932000Y-65659000D01*
X33528000Y-67569532D02*
X36195000Y-70236532D01*
X36068000Y-118159652D02*
X34701676Y-119525976D01*
X123029891Y-76200000D02*
X129540000Y-76200000D01*
X33877979Y-139438148D02*
X33877979Y-144045336D01*
X33528000Y-62992000D02*
X33528000Y-67569532D01*
X140335000Y-86995000D02*
X140335000Y-93013750D01*
X73930921Y-51354690D02*
X73930921Y-59635250D01*
X101981000Y-63500000D02*
X110617000Y-63500000D01*
X33796828Y-105938360D02*
X36068000Y-108209532D01*
D24*
X107899899Y-66217101D02*
X110871000Y-63246000D01*
D23*
X36068000Y-146235357D02*
X36068000Y-156347779D01*
X97917000Y-56864250D02*
X97917000Y-59436000D01*
X33796828Y-101331172D02*
X33796828Y-105938360D01*
X73930921Y-59635250D02*
X71234140Y-62332031D01*
X130810000Y-77470000D02*
X129540000Y-76200000D01*
X110871000Y-63246000D02*
X110871000Y-64041109D01*
X36068000Y-156347779D02*
X34782827Y-157632952D01*
X110617000Y-63500000D02*
X110871000Y-63246000D01*
X71247000Y-86487000D02*
X73943781Y-89183781D01*
X109223597Y-138535914D02*
X112030921Y-135728590D01*
X36195000Y-80186652D02*
X34828676Y-81552976D01*
X101918000Y-52863250D02*
X97917000Y-56864250D01*
X96655598Y-59436000D02*
X97917000Y-59436000D01*
X84908250Y-59635250D02*
X90932000Y-65659000D01*
X90932000Y-64008000D02*
X90932000Y-65659000D01*
X112030921Y-126288672D02*
X109207140Y-123464891D01*
X34379701Y-62140299D02*
X33528000Y-62992000D01*
X78491521Y-59635250D02*
X84908250Y-59635250D01*
X97409000Y-71755000D02*
X97028000Y-71755000D01*
X132510000Y-83378750D02*
X132510000Y-79170000D01*
X132510000Y-83378750D02*
X136718750Y-83378750D01*
X133096000Y-75184000D02*
X134747000Y-75184000D01*
X73943781Y-89183781D02*
X73943781Y-97760219D01*
D24*
%TO.N,ROW0*%
X53936217Y-41523686D02*
X44943947Y-41523686D01*
X35306000Y-41529000D02*
X25907000Y-41529000D01*
%TO.N,Net-(D0_0-Pad2)*%
X26172502Y-38872502D02*
X26172502Y-30936116D01*
X27813000Y-40513000D02*
X26172502Y-38872502D01*
%TO.N,Net-(D0_1-Pad2)*%
X46863000Y-40386000D02*
X45243750Y-38766750D01*
X45243750Y-38766750D02*
X45243750Y-30956250D01*
%TO.N,Net-(D0_2-Pad2)*%
X64293750Y-38893750D02*
X64293750Y-30956250D01*
X65913000Y-40513000D02*
X64293750Y-38893750D01*
%TO.N,ROW1*%
X54356000Y-60579000D02*
X44957000Y-60579000D01*
X34899270Y-60579000D02*
X25907000Y-60579000D01*
X71531796Y-60833000D02*
X63627000Y-60833000D01*
X89650531Y-57023000D02*
X89656265Y-57028734D01*
X78491521Y-57023000D02*
X89650531Y-57023000D01*
X72786398Y-59578398D02*
X71531796Y-60833000D01*
%TO.N,ROW2*%
X73674572Y-61092974D02*
X69502021Y-65265525D01*
X54352362Y-79625362D02*
X44948900Y-79625362D01*
X69502021Y-65265525D02*
X69502021Y-70070979D01*
X54356000Y-79629000D02*
X54352362Y-79625362D01*
X69502021Y-70070979D02*
X65043674Y-74529326D01*
X34899270Y-79629000D02*
X25907000Y-79629000D01*
X65043674Y-74529326D02*
X65043674Y-76936576D01*
%TO.N,Net-(D1_0-Pad2)*%
X26193750Y-57943750D02*
X26193750Y-50006250D01*
X27813000Y-59563000D02*
X26193750Y-57943750D01*
%TO.N,Net-(D1_1-Pad2)*%
X45243750Y-57943750D02*
X45243750Y-50006250D01*
X46863000Y-59563000D02*
X45243750Y-57943750D01*
%TO.N,Net-(D1_2-Pad2)*%
X64290174Y-57940174D02*
X64290174Y-49980303D01*
X65913000Y-59563000D02*
X64290174Y-57940174D01*
%TO.N,Net-(D2_0-Pad2)*%
X26193750Y-76866750D02*
X26193750Y-69056250D01*
X27813000Y-78486000D02*
X26193750Y-76866750D01*
%TO.N,Net-(D2_1-Pad2)*%
X46863000Y-78486000D02*
X45243750Y-76866750D01*
X45243750Y-76866750D02*
X45243750Y-69056250D01*
%TO.N,Net-(D2_2-Pad2)*%
X65695484Y-78613000D02*
X64293750Y-77211266D01*
X64293750Y-77211266D02*
X64293750Y-69056250D01*
X65913000Y-78613000D02*
X65695484Y-78613000D01*
D25*
%TO.N,ROW3*%
X72771000Y-97663000D02*
X71506159Y-98927841D01*
D23*
X111383299Y-98928701D02*
X111379000Y-98933000D01*
D24*
X92438511Y-98661511D02*
X83047907Y-98661511D01*
X54356000Y-98679000D02*
X44957000Y-98679000D01*
D23*
X111379000Y-98933000D02*
X101854000Y-98933000D01*
D24*
X34892033Y-98673841D02*
X25899763Y-98673841D01*
X92456000Y-98679000D02*
X92438511Y-98661511D01*
D25*
X71506159Y-98927841D02*
X63747467Y-98927841D01*
D24*
%TO.N,Net-(D3_0-Pad2)*%
X26193750Y-96043750D02*
X26193750Y-88106250D01*
X27813000Y-97663000D02*
X26193750Y-96043750D01*
%TO.N,Net-(D3_1-Pad2)*%
X46863000Y-97663000D02*
X45243750Y-96043750D01*
X45243750Y-96043750D02*
X45243750Y-88106250D01*
%TO.N,Net-(D3_2-Pad2)*%
X64352500Y-96102500D02*
X65881250Y-97631250D01*
X64352500Y-87947500D02*
X64352500Y-96102500D01*
%TO.N,Net-(D3_3-Pad2)*%
X84963000Y-97536000D02*
X83343750Y-95916750D01*
X83343750Y-95916750D02*
X83343750Y-88106250D01*
%TO.N,Net-(D3_4-Pad2)*%
X102393750Y-95916750D02*
X102393750Y-88106250D01*
X104013000Y-97536000D02*
X102393750Y-95916750D01*
%TO.N,ROW4*%
X34900270Y-117729000D02*
X25908000Y-117729000D01*
X25908000Y-117729000D02*
X25654000Y-117983000D01*
X110998000Y-118237000D02*
X102108000Y-118237000D01*
X79845500Y-98233500D02*
X80262942Y-98650942D01*
X72989584Y-117727942D02*
X63997314Y-117727942D01*
X102108000Y-118237000D02*
X101854000Y-117983000D01*
X53943737Y-117727942D02*
X44951467Y-117727942D01*
X92049270Y-117729000D02*
X83057000Y-117729000D01*
X80262942Y-98650942D02*
X80262942Y-117981942D01*
%TO.N,Net-(D4_0-Pad2)*%
X27813000Y-116713000D02*
X26193750Y-115093750D01*
X26193750Y-115093750D02*
X26193750Y-107156250D01*
%TO.N,Net-(D4_1-Pad2)*%
X45243750Y-115093750D02*
X45243750Y-107156250D01*
X46863000Y-116713000D02*
X45243750Y-115093750D01*
%TO.N,Net-(D4_2-Pad2)*%
X65913000Y-116713000D02*
X64293750Y-115093750D01*
X64293750Y-115093750D02*
X64293750Y-107156250D01*
%TO.N,Net-(D4_3-Pad2)*%
X84963000Y-116586000D02*
X83343750Y-114966750D01*
X83343750Y-114966750D02*
X83343750Y-107156250D01*
%TO.N,Net-(D4_4-Pad2)*%
X104013000Y-116586000D02*
X102393750Y-114966750D01*
X102393750Y-114966750D02*
X102393750Y-107156250D01*
%TO.N,ROW5*%
X113986799Y-139632201D02*
X113538000Y-140081000D01*
X80987453Y-97981285D02*
X80987453Y-136309547D01*
X92049270Y-136779000D02*
X83057000Y-136779000D01*
X101854000Y-140081000D02*
X98806000Y-137033000D01*
X54076270Y-136779000D02*
X45084000Y-136779000D01*
X80987453Y-136309547D02*
X80264000Y-137033000D01*
X113538000Y-140081000D02*
X101854000Y-140081000D01*
X35026270Y-136779000D02*
X26034000Y-136779000D01*
X80659104Y-97652936D02*
X80987453Y-97981285D01*
X72999270Y-136779000D02*
X64007000Y-136779000D01*
%TO.N,Net-(D5_0-Pad2)*%
X26193750Y-134143750D02*
X26193750Y-126206250D01*
X27813000Y-135763000D02*
X26193750Y-134143750D01*
%TO.N,Net-(D5_1-Pad2)*%
X46863000Y-135763000D02*
X45243750Y-134143750D01*
X45243750Y-134143750D02*
X45243750Y-126206250D01*
%TO.N,Net-(D5_2-Pad2)*%
X64292858Y-134142858D02*
X64292858Y-126203963D01*
X65913000Y-135763000D02*
X64292858Y-134142858D01*
%TO.N,Net-(D5_3-Pad2)*%
X84963000Y-135763000D02*
X83343750Y-134143750D01*
X83343750Y-134143750D02*
X83343750Y-126206250D01*
%TO.N,Net-(D5_4-Pad2)*%
X104013000Y-135763000D02*
X102393750Y-134143750D01*
X102393750Y-134143750D02*
X102393750Y-126206250D01*
%TO.N,ROW6*%
X73406000Y-155829000D02*
X64007000Y-155829000D01*
X98387511Y-71073897D02*
X98387511Y-71590511D01*
X118676480Y-151071520D02*
X113665000Y-156083000D01*
X53949270Y-155829000D02*
X44957000Y-155829000D01*
X35179000Y-155829000D02*
X25907000Y-155829000D01*
X110049803Y-79062520D02*
X118555930Y-79062520D01*
X97778715Y-70465101D02*
X98387511Y-71073897D01*
X98387511Y-71590511D02*
X101727000Y-74930000D01*
X97778715Y-69861285D02*
X97778715Y-70465101D01*
X101727000Y-74930000D02*
X105917283Y-74930000D01*
X92583000Y-155829000D02*
X83057000Y-155829000D01*
X118555930Y-79062520D02*
X118676480Y-79183070D01*
X113665000Y-156083000D02*
X102235000Y-156083000D01*
X105917283Y-74930000D02*
X110049803Y-79062520D01*
X118676480Y-79183070D02*
X118676480Y-151071520D01*
%TO.N,Net-(D6_0-Pad2)*%
X26987500Y-146050000D02*
X26193750Y-145256250D01*
X27813000Y-154813000D02*
X26987500Y-153987500D01*
X26987500Y-153987500D02*
X26987500Y-146050000D01*
%TO.N,Net-(D6_1-Pad2)*%
X46863000Y-154813000D02*
X45243750Y-153193750D01*
X45243750Y-153193750D02*
X45243750Y-145256250D01*
%TO.N,Net-(D6_2-Pad2)*%
X64293750Y-153193750D02*
X64293750Y-145256250D01*
X65913000Y-154813000D02*
X64293750Y-153193750D01*
%TO.N,Net-(D6_3-Pad2)*%
X83343750Y-153193750D02*
X83343750Y-145256250D01*
X84963000Y-154813000D02*
X83343750Y-153193750D01*
%TO.N,Net-(D6_4-Pad2)*%
X104013000Y-154813000D02*
X102393750Y-153193750D01*
X102393750Y-153193750D02*
X102393750Y-145256250D01*
%TO.N,Net-(DL0_0-Pad1)*%
X30988000Y-59563000D02*
X30720448Y-59295448D01*
X30720448Y-59295448D02*
X30720448Y-51670230D01*
%TO.N,Net-(J1-PadB5)*%
X120247722Y-35769222D02*
X118895500Y-34417000D01*
%TO.N,/RESET*%
X119214001Y-73628980D02*
X119214001Y-73617110D01*
X114684891Y-69088000D02*
X114681000Y-69088000D01*
X119214001Y-73617110D02*
X114684891Y-69088000D01*
%TO.N,COL3*%
X96817021Y-104945021D02*
X96329500Y-104457500D01*
X96329500Y-77406500D02*
X96329500Y-85407500D01*
X96329500Y-104457500D02*
X96817021Y-103969979D01*
X96817021Y-123019979D02*
X96817021Y-104945021D01*
X96817021Y-103969979D02*
X96817021Y-85895021D01*
X96817021Y-85895021D02*
X96329500Y-85407500D01*
X88138000Y-69215000D02*
X96329500Y-77406500D01*
X88138000Y-64135000D02*
X88138000Y-69215000D01*
X96329500Y-123507500D02*
X96817021Y-123019979D01*
X96817021Y-142069979D02*
X96817021Y-123995021D01*
X96817021Y-123995021D02*
X96329500Y-123507500D01*
X96329500Y-142557500D02*
X96817021Y-142069979D01*
%TO.N,RE1A*%
X125398707Y-127950489D02*
X119575520Y-122127302D01*
X109240412Y-71108909D02*
X106134983Y-68003480D01*
X119575520Y-78810674D02*
X118928326Y-78163480D01*
X106134983Y-68003480D02*
X105160483Y-68003480D01*
X119575520Y-122127302D02*
X119575520Y-78810674D01*
X131087500Y-129275000D02*
X129762989Y-127950489D01*
X110422198Y-78163480D02*
X109240412Y-76981694D01*
X129762989Y-127950489D02*
X125398707Y-127950489D01*
X105160483Y-68003480D02*
X104885503Y-67728500D01*
X118928326Y-78163480D02*
X110422198Y-78163480D01*
X109240412Y-76981694D02*
X109240412Y-71108909D01*
%TO.N,RE1B*%
X118742128Y-78613000D02*
X119126000Y-78996872D01*
X105948785Y-68453000D02*
X108790892Y-71295108D01*
X108790892Y-71295108D02*
X108790892Y-77167892D01*
X104263020Y-68453000D02*
X105948785Y-68453000D01*
X119126000Y-122313500D02*
X126087500Y-129275000D01*
X103886000Y-68075980D02*
X104263020Y-68453000D01*
X108790892Y-77167892D02*
X110236000Y-78613000D01*
X110236000Y-78613000D02*
X118742128Y-78613000D01*
X119126000Y-78996872D02*
X119126000Y-122313500D01*
%TO.N,VER*%
X95651887Y-69177511D02*
X95152188Y-68677812D01*
X99784798Y-71853396D02*
X99784798Y-71835483D01*
X98641511Y-70692196D02*
X98641511Y-69699467D01*
X98641511Y-69699467D02*
X97844553Y-68902509D01*
X96439103Y-69177511D02*
X95651887Y-69177511D01*
X97844553Y-68902509D02*
X96714105Y-68902509D01*
X96714105Y-68902509D02*
X96439103Y-69177511D01*
X99784798Y-71835483D02*
X98641511Y-70692196D01*
X100325701Y-72394299D02*
X99784798Y-71853396D01*
%TO.N,HOR*%
X99091031Y-69513269D02*
X98030762Y-68453000D01*
X98030762Y-68453000D02*
X96139000Y-68453000D01*
X99936822Y-71229797D02*
X99091031Y-70384006D01*
X99091031Y-70384006D02*
X99091031Y-69513269D01*
X100203726Y-71229797D02*
X99936822Y-71229797D01*
%TO.N,COL0*%
X39667021Y-142069979D02*
X39667021Y-123995021D01*
X39667021Y-28745021D02*
X39179500Y-28257500D01*
X39179500Y-47307500D02*
X39667021Y-46819979D01*
X39667021Y-123995021D02*
X39179500Y-123507500D01*
X39667021Y-84919979D02*
X39667021Y-66845021D01*
X39667021Y-43985021D02*
X39667021Y-28745021D01*
X39179500Y-85407500D02*
X39667021Y-84919979D01*
X39179500Y-66357500D02*
X39667021Y-65869979D01*
X39667021Y-47795021D02*
X39179500Y-47307500D01*
X39179500Y-123507500D02*
X39667021Y-123019979D01*
X39667021Y-123019979D02*
X39667021Y-104945021D01*
X39179500Y-104457500D02*
X39667021Y-103969979D01*
X39667021Y-66845021D02*
X39179500Y-66357500D01*
X39667021Y-46819979D02*
X39667021Y-43985021D01*
X39667021Y-65869979D02*
X39667021Y-47795021D01*
X39179500Y-142557500D02*
X39667021Y-142069979D01*
X39667021Y-103969979D02*
X39667021Y-85895021D01*
X39667021Y-85895021D02*
X39179500Y-85407500D01*
X39667021Y-104945021D02*
X39179500Y-104457500D01*
%TO.N,COL1*%
X58229500Y-66357500D02*
X58717021Y-66845021D01*
X58717021Y-84919979D02*
X58229500Y-85407500D01*
X58717021Y-104945021D02*
X58717021Y-123019979D01*
X58717021Y-123995021D02*
X58717021Y-142069979D01*
X58717021Y-103969979D02*
X58229500Y-104457500D01*
X58717021Y-44406979D02*
X58717021Y-46819979D01*
X58229500Y-104457500D02*
X58717021Y-104945021D01*
X58717021Y-46819979D02*
X58229500Y-47307500D01*
X58717021Y-123019979D02*
X58229500Y-123507500D01*
X58229500Y-85407500D02*
X58717021Y-85895021D01*
X58229500Y-28257500D02*
X58717021Y-28745021D01*
X58229500Y-47307500D02*
X58717021Y-47795021D01*
X58229500Y-123507500D02*
X58717021Y-123995021D01*
X58717021Y-65869979D02*
X58229500Y-66357500D01*
X58717021Y-85895021D02*
X58717021Y-103969979D01*
X58717021Y-47795021D02*
X58717021Y-65869979D01*
X58717021Y-66845021D02*
X58717021Y-84919979D01*
X58717021Y-44406979D02*
X58717021Y-44581050D01*
X58717021Y-28745021D02*
X58717021Y-44406979D01*
X58717021Y-142069979D02*
X58229500Y-142557500D01*
%TO.N,COL2*%
X77767021Y-28745021D02*
X77767021Y-46819979D01*
X77767021Y-142069979D02*
X77279500Y-142557500D01*
X77279500Y-66357500D02*
X77767021Y-66845021D01*
X77767021Y-104945021D02*
X77767021Y-123019979D01*
X77767021Y-46819979D02*
X77279500Y-47307500D01*
X77279500Y-85407500D02*
X77767021Y-85895021D01*
X77279500Y-104457500D02*
X77767021Y-104945021D01*
X77767021Y-84919979D02*
X77279500Y-85407500D01*
X77767021Y-85895021D02*
X77767021Y-103969979D01*
X77279500Y-123507500D02*
X77767021Y-123995021D01*
X77767021Y-103969979D02*
X77279500Y-104457500D01*
X77279500Y-28257500D02*
X77767021Y-28745021D01*
X77767021Y-65869979D02*
X77279500Y-66357500D01*
X77767021Y-66845021D02*
X77767021Y-84919979D01*
X77279500Y-47307500D02*
X77767021Y-47795021D01*
X77767021Y-47795021D02*
X77767021Y-65869979D01*
X77767021Y-123019979D02*
X77279500Y-123507500D01*
X77767021Y-123995021D02*
X77767021Y-142069979D01*
%TO.N,COL4*%
X115867021Y-104945021D02*
X115867021Y-123019979D01*
X115867021Y-123995021D02*
X115867021Y-142069979D01*
X115867021Y-85895021D02*
X115867021Y-103969979D01*
X115379500Y-104457500D02*
X115867021Y-104945021D01*
X115379500Y-85407500D02*
X115867021Y-85895021D01*
X113504979Y-83532979D02*
X115379500Y-85407500D01*
X90369098Y-70421500D02*
X90369098Y-70810380D01*
X90369098Y-70810380D02*
X103091697Y-83532979D01*
X115867021Y-142069979D02*
X115379500Y-142557500D01*
X115867021Y-123019979D02*
X115379500Y-123507500D01*
X103091697Y-83532979D02*
X113504979Y-83532979D01*
X115867021Y-103969979D02*
X115379500Y-104457500D01*
X115379500Y-123507500D02*
X115867021Y-123995021D01*
%TO.N,COL5*%
X126087500Y-143775000D02*
X126481000Y-143775000D01*
X132412011Y-116507989D02*
X132412011Y-103348548D01*
X132461000Y-127999478D02*
X126805272Y-122343750D01*
X131762500Y-99031106D02*
X132934856Y-97858750D01*
X120924080Y-78252080D02*
X120924080Y-89809080D01*
X126481000Y-143775000D02*
X132461000Y-137795000D01*
X128973750Y-97858750D02*
X133260000Y-97858750D01*
X110588972Y-76423100D02*
X110980792Y-76814920D01*
X131762500Y-102699037D02*
X131762500Y-99031106D01*
X132412011Y-103348548D02*
X131762500Y-102699037D01*
X126087500Y-122343750D02*
X126576250Y-122343750D01*
X106986513Y-66947859D02*
X110588972Y-70550318D01*
X106986513Y-66792695D02*
X106986513Y-66947859D01*
X126805272Y-122343750D02*
X126087500Y-122343750D01*
X106901059Y-66318343D02*
X106901059Y-66707241D01*
X132461000Y-137795000D02*
X132461000Y-127999478D01*
X110588972Y-70550318D02*
X110588972Y-76423100D01*
X126576250Y-122343750D02*
X132412011Y-116507989D01*
X119486920Y-76814920D02*
X120924080Y-78252080D01*
X120924080Y-89809080D02*
X128973750Y-97858750D01*
X106901059Y-66707241D02*
X106986513Y-66792695D01*
X110980792Y-76814920D02*
X119486920Y-76814920D01*
X132934856Y-97858750D02*
X133260000Y-97858750D01*
%TO.N,RE2A*%
X129755016Y-106511266D02*
X131087500Y-107843750D01*
X110794594Y-77264440D02*
X119300722Y-77264440D01*
X120474560Y-101595092D02*
X125390734Y-106511266D01*
X125390734Y-106511266D02*
X129755016Y-106511266D01*
X105735549Y-66177449D02*
X106045000Y-66486900D01*
X106536993Y-67134055D02*
X110139452Y-70736514D01*
X110139452Y-70736514D02*
X110139452Y-76609298D01*
X106536993Y-66978877D02*
X106536993Y-67134055D01*
X106045016Y-66486900D02*
X106536993Y-66978877D01*
X106045000Y-66486900D02*
X106045016Y-66486900D01*
X120474560Y-78438278D02*
X120474560Y-101595092D01*
X119300722Y-77264440D02*
X120474560Y-78438278D01*
X110139452Y-76609298D02*
X110794594Y-77264440D01*
%TO.N,RE2B*%
X119114524Y-77713960D02*
X120025040Y-78624476D01*
X105812482Y-67278980D02*
X106046200Y-67278980D01*
X110608396Y-77713960D02*
X119114524Y-77713960D01*
X109689932Y-76795496D02*
X110608396Y-77713960D01*
X120025040Y-101781290D02*
X126087500Y-107843750D01*
X106046200Y-67278980D02*
X109689932Y-70922712D01*
X109689932Y-70922712D02*
X109689932Y-76795496D01*
X120025040Y-78624476D02*
X120025040Y-101781290D01*
%TD*%
M02*
