M48
; DRILL file {KiCad (6.0.5)} date Wed May 18 14:43:54 2022
; FORMAT={-:-/ absolute / inch / decimal}
; #@! TF.CreationDate,2022-05-18T14:43:54-07:00
; #@! TF.GenerationSoftware,Kicad,Pcbnew,(6.0.5)
; #@! TF.FileFunction,NonPlated,1,2,NPTH
FMAT,2
INCH
; #@! TA.AperFunction,NonPlated,NPTH,ComponentDrill
T1C0.0256
; #@! TA.AperFunction,NonPlated,NPTH,ComponentDrill
T2C0.0689
; #@! TA.AperFunction,NonPlated,NPTH,ComponentDrill
T3C0.1181
; #@! TA.AperFunction,NonPlated,NPTH,ComponentDrill
T4C0.1570
%
G90
G05
T1
X4.6434Y-1.0975
X4.871Y-1.0975
T2
X1.1125Y-1.3125
X1.1125Y-2.0625
X1.1125Y-2.8125
X1.1125Y-3.5625
X1.1125Y-4.3125
X1.1125Y-5.0625
X1.1125Y-5.8125
X1.5125Y-1.3125
X1.5125Y-2.0625
X1.5125Y-2.8125
X1.5125Y-3.5625
X1.5125Y-4.3125
X1.5125Y-5.0625
X1.5125Y-5.8125
X1.8625Y-1.3125
X1.8625Y-2.0625
X1.8625Y-2.8125
X1.8625Y-3.5625
X1.8625Y-4.3125
X1.8625Y-5.0625
X1.8625Y-5.8125
X2.2625Y-1.3125
X2.2625Y-2.0625
X2.2625Y-2.8125
X2.2625Y-3.5625
X2.2625Y-4.3125
X2.2625Y-5.0625
X2.2625Y-5.8125
X2.6125Y-1.3125
X2.6125Y-2.0625
X2.6125Y-2.8125
X2.6125Y-3.5625
X2.6125Y-4.3125
X2.6125Y-5.0625
X2.6125Y-5.8125
X3.0125Y-1.3125
X3.0125Y-2.0625
X3.0125Y-2.8125
X3.0125Y-3.5625
X3.0125Y-4.3125
X3.0125Y-5.0625
X3.0125Y-5.8125
X3.3625Y-3.5625
X3.3625Y-4.3125
X3.3625Y-5.0625
X3.3625Y-5.8125
X3.7625Y-3.5625
X3.7625Y-4.3125
X3.7625Y-5.0625
X3.7625Y-5.8125
X4.1125Y-3.5625
X4.1125Y-4.3125
X4.1125Y-5.0625
X4.1125Y-5.8125
X4.5125Y-3.5625
X4.5125Y-4.3125
X4.5125Y-5.0625
X4.5125Y-5.8125
T3
X1.1625Y-1.2125
X1.1625Y-1.9625
X1.1625Y-2.7125
X1.1625Y-3.4625
X1.1625Y-4.2125
X1.1625Y-4.9625
X1.1625Y-5.7125
X1.4125Y-1.1125
X1.4125Y-1.8625
X1.4125Y-2.6125
X1.4125Y-3.3625
X1.4125Y-4.1125
X1.4125Y-4.8625
X1.4125Y-5.6125
X1.9125Y-1.2125
X1.9125Y-1.9625
X1.9125Y-2.7125
X1.9125Y-3.4625
X1.9125Y-4.2125
X1.9125Y-4.9625
X1.9125Y-5.7125
X2.1625Y-1.1125
X2.1625Y-1.8625
X2.1625Y-2.6125
X2.1625Y-3.3625
X2.1625Y-4.1125
X2.1625Y-4.8625
X2.1625Y-5.6125
X2.6625Y-1.2125
X2.6625Y-1.9625
X2.6625Y-2.7125
X2.6625Y-3.4625
X2.6625Y-4.2125
X2.6625Y-4.9625
X2.6625Y-5.7125
X2.9125Y-1.1125
X2.9125Y-1.8625
X2.9125Y-2.6125
X2.9125Y-3.3625
X2.9125Y-4.1125
X2.9125Y-4.8625
X2.9125Y-5.6125
X3.4125Y-3.4625
X3.4125Y-4.2125
X3.4125Y-4.9625
X3.4125Y-5.7125
X3.6625Y-3.3625
X3.6625Y-4.1125
X3.6625Y-4.8625
X3.6625Y-5.6125
X4.1625Y-3.4625
X4.1625Y-4.2125
X4.1625Y-4.9625
X4.1625Y-5.7125
X4.4125Y-3.3625
X4.4125Y-4.1125
X4.4125Y-4.8625
X4.4125Y-5.6125
T4
X1.3125Y-1.3125
X1.3125Y-2.0625
X1.3125Y-2.8125
X1.3125Y-3.5625
X1.3125Y-4.3125
X1.3125Y-5.0625
X1.3125Y-5.8125
X2.0625Y-1.3125
X2.0625Y-2.0625
X2.0625Y-2.8125
X2.0625Y-3.5625
X2.0625Y-4.3125
X2.0625Y-5.0625
X2.0625Y-5.8125
X2.8125Y-1.3125
X2.8125Y-2.0625
X2.8125Y-2.8125
X2.8125Y-3.5625
X2.8125Y-4.3125
X2.8125Y-5.0625
X2.8125Y-5.8125
X3.5625Y-3.5625
X3.5625Y-4.3125
X3.5625Y-5.0625
X3.5625Y-5.8125
X4.3125Y-3.5625
X4.3125Y-4.3125
X4.3125Y-5.0625
X4.3125Y-5.8125
T0
M30
