M48
; DRILL file {KiCad (6.0.5)} date Wed May 18 14:43:54 2022
; FORMAT={-:-/ absolute / inch / decimal}
; #@! TF.CreationDate,2022-05-18T14:43:54-07:00
; #@! TF.GenerationSoftware,Kicad,Pcbnew,(6.0.5)
; #@! TF.FileFunction,Plated,1,2,PTH
FMAT,2
INCH
; #@! TA.AperFunction,Plated,PTH,ViaDrill
T1C0.0157
; #@! TA.AperFunction,Plated,PTH,ComponentDrill
T2C0.0197
; #@! TA.AperFunction,Plated,PTH,ComponentDrill
T3C0.0236
; #@! TA.AperFunction,Plated,PTH,ComponentDrill
T4C0.0394
; #@! TA.AperFunction,Plated,PTH,ComponentDrill
T5C0.0433
; #@! TA.AperFunction,Plated,PTH,ComponentDrill
T6C0.0512
; #@! TA.AperFunction,Plated,PTH,ComponentDrill
T7C0.0591
; #@! TA.AperFunction,Plated,PTH,ComponentDrill
T8C0.0630
; #@! TA.AperFunction,Plated,PTH,ComponentDrill
T9C0.0650
; #@! TA.AperFunction,Plated,PTH,ComponentDrill
T10C0.0866
%
G90
G05
T1
X1.0097Y-3.8948
X1.01Y-1.645
X1.01Y-2.395
X1.01Y-3.145
X1.01Y-6.145
X1.01Y-4.645
X1.015Y-5.395
X1.095Y-1.595
X1.095Y-2.345
X1.095Y-3.09
X1.095Y-3.845
X1.095Y-4.595
X1.095Y-5.345
X1.095Y-6.095
X1.2095Y-2.0343
X1.22Y-2.345
X1.3535Y-2.4465
X1.365Y-3.955
X1.3662Y-4.7057
X1.3682Y-5.4553
X1.3694Y-6.206
X1.3712Y-3.2107
X1.3737Y-3.8848
X1.374Y-2.385
X1.374Y-3.135
X1.374Y-4.635
X1.379Y-5.385
X1.385Y-6.135
X1.39Y-1.635
X1.5617Y-1.78
X1.7594Y-1.6448
X1.7596Y-3.1449
X1.7597Y-4.645
X1.76Y-2.395
X1.76Y-3.895
X1.76Y-6.145
X1.765Y-5.395
X1.845Y-1.59
X1.845Y-2.345
X1.845Y-3.09
X1.845Y-3.845
X1.845Y-4.595
X1.845Y-5.345
X1.845Y-6.095
X2.1235Y-1.6348
X2.1238Y-4.635
X2.124Y-6.135
X2.129Y-5.385
X2.14Y-2.385
X2.14Y-3.135
X2.14Y-3.885
X2.3117Y-1.7552
X2.505Y-2.395
X2.5096Y-4.645
X2.5097Y-3.8948
X2.51Y-5.395
X2.51Y-6.145
X2.515Y-1.645
X2.5608Y-3.029
X2.5938Y-3.8438
X2.595Y-1.595
X2.595Y-2.345
X2.595Y-3.095
X2.595Y-4.595
X2.595Y-5.345
X2.595Y-6.095
X2.8045Y-1.704
X2.8045Y-2.454
X2.805Y-3.205
X2.805Y-3.955
X2.865Y-3.845
X2.8656Y-2.3456
X2.87Y-1.665
X2.8736Y-4.635
X2.874Y-5.385
X2.89Y-6.135
X2.9006Y-2.4052
X2.9107Y-2.3478
X3.0617Y-1.7733
X3.0902Y-2.245
X3.0902Y-2.3478
X3.1435Y-3.8675
X3.16Y-4.645
X3.16Y-5.395
X3.1756Y-3.8446
X3.2596Y-3.8943
X3.26Y-4.645
X3.26Y-5.395
X3.26Y-6.145
X3.345Y-3.84
X3.345Y-4.59
X3.345Y-5.345
X3.345Y-6.095
X3.47Y-2.525
X3.5298Y-2.2452
X3.5578Y-2.7725
X3.58Y-2.585
X3.624Y-4.635
X3.624Y-5.385
X3.64Y-3.885
X3.645Y-6.135
X3.7461Y-2.7039
X3.7827Y-2.3173
X3.785Y-2.695
X3.835Y-2.825
X3.8496Y-2.7504
X3.89Y-5.395
X3.945Y-2.8043
X3.9498Y-2.8502
X4.01Y-3.895
X4.01Y-4.645
X4.025Y-6.145
X4.09Y-2.6802
X4.095Y-3.84
X4.095Y-4.59
X4.095Y-5.345
X4.095Y-6.095
X4.1294Y-2.6665
X4.1628Y-2.6054
X4.1658Y-2.6488
X4.2087Y-2.611
X4.248Y-2.6095
X4.2995Y-4.704
X4.3001Y-5.4542
X4.365Y-2.49
X4.37Y-4.655
X4.3852Y-3.8948
X4.3986Y-2.3236
X4.4877Y-5.4973
X4.515Y-2.72
X4.6309Y-1.73
X4.6809Y-1.355
X4.6935Y-2.8988
X4.7342Y-1.4082
X4.7809Y-1.585
X5.305Y-2.96
T4
X3.8125Y-1.8823
X3.9125Y-1.8823
X4.0125Y-1.8823
X4.1125Y-1.8823
X4.9641Y-4.2458
X4.9641Y-4.8167
X4.9641Y-5.0896
X4.9641Y-5.6604
X5.0625Y-4.2458
X5.0625Y-5.0896
X5.1609Y-4.2458
X5.1609Y-4.8167
X5.1609Y-5.0896
X5.1609Y-5.6604
T5
X5.0201Y-3.2826
X5.1185Y-3.2826
X5.2169Y-3.2826
X5.4622Y-3.5279
X5.4622Y-3.6263
X5.4622Y-3.7248
T6
X4.9906Y-3.8527
X4.9906Y-4.0299
X5.2465Y-3.8527
X5.2465Y-4.0299
T8
X4.8695Y-3.4295
X4.8695Y-3.8232
X5.3675Y-3.4295
X5.3675Y-3.8232
T9
X4.9492Y-3.6263
X5.2878Y-3.6263
T10
X0.9062Y-0.9062
X0.9062Y-5.9688
X3.5938Y-3.0625
X5.4688Y-0.9062
X5.4688Y-6.1875
T2
G00X4.5871Y-1.1408
M15
G01X4.5871Y-1.0936
M16
G05
G00X4.9273Y-1.1408
M15
G01X4.9273Y-1.0936
M16
G05
T3
G00X4.5871Y-0.9644
M15
G01X4.5871Y-0.9408
M16
G05
G00X4.9273Y-0.9644
M15
G01X4.9273Y-0.9408
M16
G05
T7
G00X4.842Y-4.5155
M15
G01X4.842Y-4.5667
M16
G05
G00X4.842Y-5.3593
M15
G01X4.842Y-5.4104
M16
G05
G00X5.283Y-4.5155
M15
G01X5.283Y-4.5667
M16
G05
G00X5.283Y-5.3593
M15
G01X5.283Y-5.4104
M16
G05
T0
M30
