%TF.GenerationSoftware,KiCad,Pcbnew,(6.0.5)*%
%TF.CreationDate,2022-05-18T14:43:54-07:00*%
%TF.ProjectId,3HMouse,33484d6f-7573-4652-9e6b-696361645f70,rev?*%
%TF.SameCoordinates,Original*%
%TF.FileFunction,Soldermask,Top*%
%TF.FilePolarity,Negative*%
%FSLAX46Y46*%
G04 Gerber Fmt 4.6, Leading zero omitted, Abs format (unit mm)*
G04 Created by KiCad (PCBNEW (6.0.5)) date 2022-05-18 14:43:54*
%MOMM*%
%LPD*%
G01*
G04 APERTURE LIST*
G04 Aperture macros list*
%AMRoundRect*
0 Rectangle with rounded corners*
0 $1 Rounding radius*
0 $2 $3 $4 $5 $6 $7 $8 $9 X,Y pos of 4 corners*
0 Add a 4 corners polygon primitive as box body*
4,1,4,$2,$3,$4,$5,$6,$7,$8,$9,$2,$3,0*
0 Add four circle primitives for the rounded corners*
1,1,$1+$1,$2,$3*
1,1,$1+$1,$4,$5*
1,1,$1+$1,$6,$7*
1,1,$1+$1,$8,$9*
0 Add four rect primitives between the rounded corners*
20,1,$1+$1,$2,$3,$4,$5,0*
20,1,$1+$1,$4,$5,$6,$7,0*
20,1,$1+$1,$6,$7,$8,$9,0*
20,1,$1+$1,$8,$9,$2,$3,0*%
%AMRotRect*
0 Rectangle, with rotation*
0 The origin of the aperture is its center*
0 $1 length*
0 $2 width*
0 $3 Rotation angle, in degrees counterclockwise*
0 Add horizontal line*
21,1,$1,$2,0,0,$3*%
G04 Aperture macros list end*
%ADD10C,4.400000*%
%ADD11R,0.900000X1.200000*%
%ADD12RoundRect,0.137500X-0.137500X-0.137500X0.137500X-0.137500X0.137500X0.137500X-0.137500X0.137500X0*%
%ADD13R,0.450000X0.600000*%
%ADD14C,1.750000*%
%ADD15C,3.000000*%
%ADD16C,3.987800*%
%ADD17RoundRect,0.250000X0.503814X0.132583X0.132583X0.503814X-0.503814X-0.132583X-0.132583X-0.503814X0*%
%ADD18RotRect,1.400000X1.200000X315.000000*%
%ADD19RoundRect,0.250000X-0.262500X-0.450000X0.262500X-0.450000X0.262500X0.450000X-0.262500X0.450000X0*%
%ADD20R,1.200000X0.900000*%
%ADD21R,2.000000X2.000000*%
%ADD22C,2.000000*%
%ADD23R,2.000000X3.200000*%
%ADD24RoundRect,0.250000X0.159099X-0.512652X0.512652X-0.159099X-0.159099X0.512652X-0.512652X0.159099X0*%
%ADD25O,1.600000X2.000000*%
%ADD26RoundRect,0.062500X0.380070X-0.291682X-0.291682X0.380070X-0.380070X0.291682X0.291682X-0.380070X0*%
%ADD27RoundRect,0.062500X0.380070X0.291682X0.291682X0.380070X-0.380070X-0.291682X-0.291682X-0.380070X0*%
%ADD28RotRect,5.200000X5.200000X135.000000*%
%ADD29RoundRect,0.250000X-0.450000X0.262500X-0.450000X-0.262500X0.450000X-0.262500X0.450000X0.262500X0*%
%ADD30R,1.000000X0.750000*%
%ADD31C,1.950000*%
%ADD32C,1.650000*%
%ADD33C,2.400000*%
%ADD34C,2.475000*%
%ADD35RoundRect,0.250000X0.512652X0.159099X0.159099X0.512652X-0.512652X-0.159099X-0.159099X-0.512652X0*%
%ADD36RoundRect,0.250000X-0.159099X0.512652X-0.512652X0.159099X0.159099X-0.512652X0.512652X-0.159099X0*%
%ADD37RoundRect,0.250000X-0.625000X0.375000X-0.625000X-0.375000X0.625000X-0.375000X0.625000X0.375000X0*%
%ADD38C,0.650000*%
%ADD39R,0.300000X1.750000*%
%ADD40O,1.000000X1.600000*%
%ADD41O,0.900000X2.100000*%
%ADD42RoundRect,0.250000X0.250000X0.475000X-0.250000X0.475000X-0.250000X-0.475000X0.250000X-0.475000X0*%
%ADD43RoundRect,0.150000X-0.150000X0.512500X-0.150000X-0.512500X0.150000X-0.512500X0.150000X0.512500X0*%
G04 APERTURE END LIST*
D10*
%TO.C,H5*%
X91281250Y-77787500D03*
%TD*%
D11*
%TO.C,D4_3*%
X81662000Y-117983000D03*
X84962000Y-117983000D03*
%TD*%
D12*
%TO.C,DL1_0*%
X32799000Y-61435000D03*
X33749000Y-61435000D03*
X33749000Y-60485000D03*
X32799000Y-60485000D03*
%TD*%
%TO.C,DL4_0*%
X32799000Y-118585000D03*
X33749000Y-118585000D03*
X33749000Y-117635000D03*
X32799000Y-117635000D03*
%TD*%
D13*
%TO.C,D36*%
X132230500Y-31276000D03*
X132230500Y-29176000D03*
%TD*%
D12*
%TO.C,DL0_1*%
X51976000Y-42512000D03*
X52926000Y-42512000D03*
X52926000Y-41562000D03*
X51976000Y-41562000D03*
%TD*%
D14*
%TO.C,SW0_1*%
X57467500Y-33337500D03*
X47307500Y-33337500D03*
D15*
X54927500Y-28257500D03*
D16*
X52387500Y-33337500D03*
D15*
X48577500Y-30797500D03*
%TD*%
D16*
%TO.C,SW1_1*%
X52387500Y-52387500D03*
D15*
X48577500Y-49847500D03*
D14*
X57467500Y-52387500D03*
X47307500Y-52387500D03*
D15*
X54927500Y-47307500D03*
%TD*%
D11*
%TO.C,D2_0*%
X24512000Y-79883000D03*
X27812000Y-79883000D03*
%TD*%
%TO.C,D0_0*%
X24512000Y-41783000D03*
X27812000Y-41783000D03*
%TD*%
D12*
%TO.C,DL2_1*%
X52103000Y-80485000D03*
X53053000Y-80485000D03*
X53053000Y-79535000D03*
X52103000Y-79535000D03*
%TD*%
D15*
%TO.C,SW2_2*%
X67627500Y-68897500D03*
D14*
X76517500Y-71437500D03*
D16*
X71437500Y-71437500D03*
D14*
X66357500Y-71437500D03*
D15*
X73977500Y-66357500D03*
%TD*%
D11*
%TO.C,D5_2*%
X62612000Y-137033000D03*
X65912000Y-137033000D03*
%TD*%
D15*
%TO.C,SW3_3*%
X86677500Y-87947500D03*
D14*
X85407500Y-90487500D03*
D16*
X90487500Y-90487500D03*
D15*
X93027500Y-85407500D03*
D14*
X95567500Y-90487500D03*
%TD*%
D10*
%TO.C,H2*%
X138906250Y-23018750D03*
%TD*%
D11*
%TO.C,D4_1*%
X43562000Y-117983000D03*
X46862000Y-117983000D03*
%TD*%
D17*
%TO.C,R5*%
X91323235Y-63256235D03*
X90032765Y-61965765D03*
%TD*%
D14*
%TO.C,SW4_1*%
X47307500Y-109537500D03*
D16*
X52387500Y-109537500D03*
D15*
X48577500Y-106997500D03*
D14*
X57467500Y-109537500D03*
D15*
X54927500Y-104457500D03*
%TD*%
D18*
%TO.C,Y1*%
X104285142Y-56465223D03*
X105840777Y-58020858D03*
X107042858Y-56818777D03*
X105487223Y-55263142D03*
%TD*%
D14*
%TO.C,SW2_0*%
X28257500Y-71437500D03*
D15*
X35877500Y-66357500D03*
X29527500Y-68897500D03*
D16*
X33337500Y-71437500D03*
D14*
X38417500Y-71437500D03*
%TD*%
D10*
%TO.C,H3*%
X23018750Y-151606250D03*
%TD*%
D11*
%TO.C,D1_0*%
X24512000Y-60833000D03*
X27812000Y-60833000D03*
%TD*%
D12*
%TO.C,DL5_4*%
X108999000Y-137635000D03*
X109949000Y-137635000D03*
X109949000Y-136685000D03*
X108999000Y-136685000D03*
%TD*%
D14*
%TO.C,SW6_1*%
X47307500Y-147637500D03*
D15*
X48577500Y-145097500D03*
D14*
X57467500Y-147637500D03*
D15*
X54927500Y-142557500D03*
D16*
X52387500Y-147637500D03*
%TD*%
D11*
%TO.C,D3_0*%
X24512000Y-98933000D03*
X27812000Y-98933000D03*
%TD*%
D12*
%TO.C,DL5_2*%
X70899000Y-137635000D03*
X71849000Y-137635000D03*
X71849000Y-136685000D03*
X70899000Y-136685000D03*
%TD*%
%TO.C,DL3_3*%
X90076000Y-99535000D03*
X91026000Y-99535000D03*
X91026000Y-98585000D03*
X90076000Y-98585000D03*
%TD*%
D19*
%TO.C,R8*%
X82780500Y-41529000D03*
X84605500Y-41529000D03*
%TD*%
D11*
%TO.C,D2_2*%
X62612000Y-79883000D03*
X65912000Y-79883000D03*
%TD*%
D12*
%TO.C,DL3_2*%
X71026000Y-99535000D03*
X71976000Y-99535000D03*
X71976000Y-98585000D03*
X71026000Y-98585000D03*
%TD*%
D20*
%TO.C,D1_4*%
X119253000Y-137415000D03*
X119253000Y-140715000D03*
%TD*%
D14*
%TO.C,SW1_2*%
X66357500Y-52387500D03*
D16*
X71437500Y-52387500D03*
D15*
X73977500Y-47307500D03*
X67627500Y-49847500D03*
D14*
X76517500Y-52387500D03*
%TD*%
D12*
%TO.C,DL6_0*%
X32926000Y-156685000D03*
X33876000Y-156685000D03*
X33876000Y-155735000D03*
X32926000Y-155735000D03*
%TD*%
%TO.C,DL3_4*%
X108999000Y-99535000D03*
X109949000Y-99535000D03*
X109949000Y-98585000D03*
X108999000Y-98585000D03*
%TD*%
D11*
%TO.C,D1_1*%
X43562000Y-60833000D03*
X46862000Y-60833000D03*
%TD*%
D12*
%TO.C,DL6_4*%
X108999000Y-156685000D03*
X109949000Y-156685000D03*
X109949000Y-155735000D03*
X108999000Y-155735000D03*
%TD*%
%TO.C,DL5_1*%
X51882000Y-137668000D03*
X52832000Y-137668000D03*
X52832000Y-136718000D03*
X51882000Y-136718000D03*
%TD*%
D21*
%TO.C,RE2*%
X131087500Y-107843750D03*
D22*
X126087500Y-107843750D03*
X128587500Y-107843750D03*
D23*
X122987500Y-115343750D03*
X134187500Y-115343750D03*
D22*
X126087500Y-122343750D03*
X131087500Y-122343750D03*
%TD*%
D14*
%TO.C,SW0_0*%
X28257500Y-33337500D03*
X38417500Y-33337500D03*
D15*
X35877500Y-28257500D03*
X29527500Y-30797500D03*
D16*
X33337500Y-33337500D03*
%TD*%
D24*
%TO.C,C6*%
X95467249Y-71791751D03*
X96810751Y-70448249D03*
%TD*%
D14*
%TO.C,SW6_4*%
X104457500Y-147637500D03*
D16*
X109537500Y-147637500D03*
D15*
X112077500Y-142557500D03*
D14*
X114617500Y-147637500D03*
D15*
X105727500Y-145097500D03*
%TD*%
D21*
%TO.C,RE1*%
X131087500Y-129275000D03*
D22*
X126087500Y-129275000D03*
X128587500Y-129275000D03*
D23*
X134187500Y-136775000D03*
X122987500Y-136775000D03*
D22*
X126087500Y-143775000D03*
X131087500Y-143775000D03*
%TD*%
D12*
%TO.C,DL6_3*%
X90076000Y-156685000D03*
X91026000Y-156685000D03*
X91026000Y-155735000D03*
X90076000Y-155735000D03*
%TD*%
D11*
%TO.C,D0_1*%
X43562000Y-41783000D03*
X46862000Y-41783000D03*
%TD*%
%TO.C,D5_1*%
X43562000Y-137033000D03*
X46862000Y-137033000D03*
%TD*%
%TO.C,D3_1*%
X43562000Y-98933000D03*
X46862000Y-98933000D03*
%TD*%
D16*
%TO.C,SW5_0*%
X33337500Y-128587500D03*
D15*
X35877500Y-123507500D03*
D14*
X38417500Y-128587500D03*
X28257500Y-128587500D03*
D15*
X29527500Y-126047500D03*
%TD*%
D12*
%TO.C,DL4_4*%
X108999000Y-118585000D03*
X109949000Y-118585000D03*
X109949000Y-117635000D03*
X108999000Y-117635000D03*
%TD*%
D25*
%TO.C,Brd1*%
X104458000Y-47811000D03*
X101918000Y-47811000D03*
X99378000Y-47811000D03*
X96838000Y-47811000D03*
%TD*%
D11*
%TO.C,D6_3*%
X81662000Y-156083000D03*
X84962000Y-156083000D03*
%TD*%
D15*
%TO.C,SW4_4*%
X112077500Y-104457500D03*
D14*
X114617500Y-109537500D03*
D15*
X105727500Y-106997500D03*
D16*
X109537500Y-109537500D03*
D14*
X104457500Y-109537500D03*
%TD*%
%TO.C,SW3_1*%
X47307500Y-90487500D03*
D15*
X48577500Y-87947500D03*
X54927500Y-85407500D03*
D16*
X52387500Y-90487500D03*
D14*
X57467500Y-90487500D03*
%TD*%
D26*
%TO.C,U1*%
X99038530Y-68536736D03*
X99392083Y-68183182D03*
X99745637Y-67829629D03*
X100099190Y-67476076D03*
X100452743Y-67122522D03*
X100806297Y-66768969D03*
X101159850Y-66415415D03*
X101513404Y-66061862D03*
X101866957Y-65708309D03*
X102220510Y-65354755D03*
X102574064Y-65001202D03*
D27*
X102574064Y-63816798D03*
X102220510Y-63463245D03*
X101866957Y-63109691D03*
X101513404Y-62756138D03*
X101159850Y-62402585D03*
X100806297Y-62049031D03*
X100452743Y-61695478D03*
X100099190Y-61341924D03*
X99745637Y-60988371D03*
X99392083Y-60634818D03*
X99038530Y-60281264D03*
D26*
X97854126Y-60281264D03*
X97500573Y-60634818D03*
X97147019Y-60988371D03*
X96793466Y-61341924D03*
X96439913Y-61695478D03*
X96086359Y-62049031D03*
X95732806Y-62402585D03*
X95379252Y-62756138D03*
X95025699Y-63109691D03*
X94672146Y-63463245D03*
X94318592Y-63816798D03*
D27*
X94318592Y-65001202D03*
X94672146Y-65354755D03*
X95025699Y-65708309D03*
X95379252Y-66061862D03*
X95732806Y-66415415D03*
X96086359Y-66768969D03*
X96439913Y-67122522D03*
X96793466Y-67476076D03*
X97147019Y-67829629D03*
X97500573Y-68183182D03*
X97854126Y-68536736D03*
D28*
X98446328Y-64409000D03*
%TD*%
D12*
%TO.C,DL2_2*%
X71026000Y-80485000D03*
X71976000Y-80485000D03*
X71976000Y-79535000D03*
X71026000Y-79535000D03*
%TD*%
%TO.C,DL5_0*%
X32926000Y-137635000D03*
X33876000Y-137635000D03*
X33876000Y-136685000D03*
X32926000Y-136685000D03*
%TD*%
D24*
%TO.C,C1*%
X102665789Y-54987291D03*
X104009291Y-53643789D03*
%TD*%
%TO.C,C5*%
X90514249Y-67981751D03*
X91857751Y-66638249D03*
%TD*%
D11*
%TO.C,D4_4*%
X100712000Y-117983000D03*
X104012000Y-117983000D03*
%TD*%
%TO.C,D3_2*%
X62612000Y-98933000D03*
X65912000Y-98933000D03*
%TD*%
D14*
%TO.C,SW1_0*%
X38417500Y-52387500D03*
D15*
X29527500Y-49847500D03*
D14*
X28257500Y-52387500D03*
D15*
X35877500Y-47307500D03*
D16*
X33337500Y-52387500D03*
%TD*%
D11*
%TO.C,D4_2*%
X62612000Y-117983000D03*
X65912000Y-117983000D03*
%TD*%
D10*
%TO.C,H1*%
X23018750Y-23018750D03*
%TD*%
D29*
%TO.C,R6*%
X136271000Y-75287500D03*
X136271000Y-77112500D03*
%TD*%
D12*
%TO.C,DL1_2*%
X71026000Y-61435000D03*
X71976000Y-61435000D03*
X71976000Y-60485000D03*
X71026000Y-60485000D03*
%TD*%
%TO.C,DL0_0*%
X32926000Y-42385000D03*
X33876000Y-42385000D03*
X33876000Y-41435000D03*
X32926000Y-41435000D03*
%TD*%
D11*
%TO.C,D5_4*%
X100712000Y-137033000D03*
X104012000Y-137033000D03*
%TD*%
D10*
%TO.C,H4*%
X138906250Y-157162500D03*
%TD*%
D20*
%TO.C,D0_5*%
X119380000Y-99442000D03*
X119380000Y-102742000D03*
%TD*%
D12*
%TO.C,DL4_2*%
X70899000Y-118585000D03*
X71849000Y-118585000D03*
X71849000Y-117635000D03*
X70899000Y-117635000D03*
%TD*%
D15*
%TO.C,SW3_2*%
X67627500Y-87947500D03*
D14*
X76517500Y-90487500D03*
D16*
X71437500Y-90487500D03*
D15*
X73977500Y-85407500D03*
D14*
X66357500Y-90487500D03*
%TD*%
D11*
%TO.C,D4_0*%
X24512000Y-117983000D03*
X27812000Y-117983000D03*
%TD*%
D12*
%TO.C,DL4_3*%
X89949000Y-118585000D03*
X90899000Y-118585000D03*
X90899000Y-117635000D03*
X89949000Y-117635000D03*
%TD*%
D29*
%TO.C,R7*%
X122809000Y-38330500D03*
X122809000Y-40155500D03*
%TD*%
D12*
%TO.C,DL6_2*%
X71026000Y-156685000D03*
X71976000Y-156685000D03*
X71976000Y-155735000D03*
X71026000Y-155735000D03*
%TD*%
D30*
%TO.C,S2*%
X127175000Y-74325000D03*
X133175000Y-74325000D03*
X127175000Y-78075000D03*
X133175000Y-78075000D03*
%TD*%
D12*
%TO.C,DL0_2*%
X71026000Y-42385000D03*
X71976000Y-42385000D03*
X71976000Y-41435000D03*
X71026000Y-41435000D03*
%TD*%
D15*
%TO.C,SW6_2*%
X67627500Y-145097500D03*
D16*
X71437500Y-147637500D03*
D14*
X76517500Y-147637500D03*
X66357500Y-147637500D03*
D15*
X73977500Y-142557500D03*
%TD*%
%TO.C,SW5_2*%
X67627500Y-126047500D03*
D14*
X66357500Y-128587500D03*
D16*
X71437500Y-128587500D03*
D14*
X76517500Y-128587500D03*
D15*
X73977500Y-123507500D03*
%TD*%
D16*
%TO.C,SW2_1*%
X52387500Y-71437500D03*
D14*
X57467500Y-71437500D03*
D15*
X54927500Y-66357500D03*
D14*
X47307500Y-71437500D03*
D15*
X48577500Y-68897500D03*
%TD*%
D29*
%TO.C,R1*%
X116736500Y-50395500D03*
X116736500Y-52220500D03*
%TD*%
D31*
%TO.C,S1*%
X126760000Y-97858750D03*
D32*
X138740000Y-94608750D03*
X138740000Y-92108750D03*
X138740000Y-89608750D03*
D31*
X126760000Y-102358750D03*
D32*
X132510000Y-83378750D03*
X130010000Y-83378750D03*
X127510000Y-83378750D03*
D31*
X133260000Y-97858750D03*
X133260000Y-102358750D03*
D33*
X123685000Y-97108750D03*
X123685000Y-87108750D03*
X136335000Y-97108750D03*
X136335000Y-87108750D03*
D34*
X125710000Y-92108750D03*
X134310000Y-92108750D03*
%TD*%
D12*
%TO.C,DL6_1*%
X51849000Y-156685000D03*
X52799000Y-156685000D03*
X52799000Y-155735000D03*
X51849000Y-155735000D03*
%TD*%
D35*
%TO.C,C3*%
X97445751Y-57567751D03*
X96102249Y-56224249D03*
%TD*%
D11*
%TO.C,D1_2*%
X62612000Y-60833000D03*
X65912000Y-60833000D03*
%TD*%
D14*
%TO.C,SW4_2*%
X66357500Y-109537500D03*
X76517500Y-109537500D03*
D15*
X73977500Y-104457500D03*
D16*
X71437500Y-109537500D03*
D15*
X67627500Y-106997500D03*
%TD*%
D12*
%TO.C,DL5_3*%
X89949000Y-137729000D03*
X90899000Y-137729000D03*
X90899000Y-136779000D03*
X89949000Y-136779000D03*
%TD*%
D20*
%TO.C,D2_4*%
X119253000Y-118365000D03*
X119253000Y-121665000D03*
%TD*%
D36*
%TO.C,C2*%
X108679024Y-58313522D03*
X107335522Y-59657024D03*
%TD*%
D24*
%TO.C,C7*%
X97118249Y-74077751D03*
X98461751Y-72734249D03*
%TD*%
D16*
%TO.C,SW3_0*%
X33337500Y-90487500D03*
D14*
X28257500Y-90487500D03*
D15*
X35877500Y-85407500D03*
X29527500Y-87947500D03*
D14*
X38417500Y-90487500D03*
%TD*%
D36*
%TO.C,C4*%
X113193751Y-62955249D03*
X111850249Y-64298751D03*
%TD*%
D11*
%TO.C,D3_4*%
X100712000Y-98933000D03*
X104012000Y-98933000D03*
%TD*%
D19*
%TO.C,R3*%
X128270000Y-28575000D03*
X130095000Y-28575000D03*
%TD*%
D29*
%TO.C,R2*%
X118641500Y-50395500D03*
X118641500Y-52220500D03*
%TD*%
D12*
%TO.C,DL4_1*%
X51849000Y-118585000D03*
X52799000Y-118585000D03*
X52799000Y-117635000D03*
X51849000Y-117635000D03*
%TD*%
D11*
%TO.C,D5_0*%
X24512000Y-137033000D03*
X27812000Y-137033000D03*
%TD*%
%TO.C,D5_3*%
X81662000Y-137033000D03*
X84962000Y-137033000D03*
%TD*%
D14*
%TO.C,SW4_3*%
X95567500Y-109537500D03*
D15*
X86677500Y-106997500D03*
D16*
X90487500Y-109537500D03*
D15*
X93027500Y-104457500D03*
D14*
X85407500Y-109537500D03*
%TD*%
D16*
%TO.C,SW4_0*%
X33337500Y-109537500D03*
D14*
X38417500Y-109537500D03*
D15*
X29527500Y-106997500D03*
X35877500Y-104457500D03*
D14*
X28257500Y-109537500D03*
%TD*%
D12*
%TO.C,DL3_0*%
X32799000Y-99535000D03*
X33749000Y-99535000D03*
X33749000Y-98585000D03*
X32799000Y-98585000D03*
%TD*%
D11*
%TO.C,D0_2*%
X62612000Y-41783000D03*
X65912000Y-41783000D03*
%TD*%
D29*
%TO.C,R4*%
X124737500Y-38330500D03*
X124737500Y-40155500D03*
%TD*%
D11*
%TO.C,D3_3*%
X81662000Y-98933000D03*
X84962000Y-98933000D03*
%TD*%
D37*
%TO.C,F1*%
X130960500Y-34287000D03*
X130960500Y-37087000D03*
%TD*%
D11*
%TO.C,D6_2*%
X62612000Y-156083000D03*
X65912000Y-156083000D03*
%TD*%
D14*
%TO.C,SW6_0*%
X38417500Y-147637500D03*
D15*
X29527500Y-145097500D03*
X35877500Y-142557500D03*
D14*
X28257500Y-147637500D03*
D16*
X33337500Y-147637500D03*
%TD*%
D11*
%TO.C,D6_4*%
X100712000Y-156083000D03*
X104012000Y-156083000D03*
%TD*%
D14*
%TO.C,SW0_2*%
X76517500Y-33337500D03*
D15*
X73977500Y-28257500D03*
D16*
X71437500Y-33337500D03*
D14*
X66357500Y-33337500D03*
D15*
X67627500Y-30797500D03*
%TD*%
D12*
%TO.C,DL3_1*%
X51976000Y-99535000D03*
X52926000Y-99535000D03*
X52926000Y-98585000D03*
X51976000Y-98585000D03*
%TD*%
D14*
%TO.C,SW6_3*%
X85407500Y-147637500D03*
D15*
X93027500Y-142557500D03*
D14*
X95567500Y-147637500D03*
D16*
X90487500Y-147637500D03*
D15*
X86677500Y-145097500D03*
%TD*%
D14*
%TO.C,SW5_1*%
X57467500Y-128587500D03*
D15*
X48577500Y-126047500D03*
X54927500Y-123507500D03*
D14*
X47307500Y-128587500D03*
D16*
X52387500Y-128587500D03*
%TD*%
D38*
%TO.C,J1*%
X117942250Y-27876750D03*
X123722250Y-27876750D03*
D39*
X124182250Y-29216750D03*
X123382250Y-29216750D03*
X122082250Y-29216750D03*
X121082250Y-29216750D03*
X120582250Y-29216750D03*
X119582250Y-29216750D03*
X118282250Y-29216750D03*
X117482250Y-29216750D03*
X117782250Y-29216750D03*
X118582250Y-29216750D03*
X119082250Y-29216750D03*
X120082250Y-29216750D03*
X121582250Y-29216750D03*
X122582250Y-29216750D03*
X123082250Y-29216750D03*
X123882250Y-29216750D03*
D40*
X125152250Y-24196750D03*
X116512250Y-24196750D03*
D41*
X116512250Y-28376750D03*
X125152250Y-28376750D03*
%TD*%
D42*
%TO.C,C8*%
X107122000Y-69850000D03*
X105222000Y-69850000D03*
%TD*%
D14*
%TO.C,SW3_4*%
X104457500Y-90487500D03*
D15*
X112077500Y-85407500D03*
X105727500Y-87947500D03*
D14*
X114617500Y-90487500D03*
D16*
X109537500Y-90487500D03*
%TD*%
%TO.C,SW5_3*%
X90487500Y-128587500D03*
D15*
X86677500Y-126047500D03*
D14*
X95567500Y-128587500D03*
X85407500Y-128587500D03*
D15*
X93027500Y-123507500D03*
%TD*%
D43*
%TO.C,U2*%
X118575500Y-45217500D03*
X117625500Y-45217500D03*
X116675500Y-45217500D03*
X116675500Y-47492500D03*
X117625500Y-47492500D03*
X118575500Y-47492500D03*
%TD*%
D11*
%TO.C,D6_1*%
X43562000Y-156083000D03*
X46862000Y-156083000D03*
%TD*%
D12*
%TO.C,DL1_1*%
X51882000Y-61435000D03*
X52832000Y-61435000D03*
X52832000Y-60485000D03*
X51882000Y-60485000D03*
%TD*%
D11*
%TO.C,D6_0*%
X24480250Y-156083000D03*
X27780250Y-156083000D03*
%TD*%
D12*
%TO.C,DL2_0*%
X32799000Y-80485000D03*
X33749000Y-80485000D03*
X33749000Y-79535000D03*
X32799000Y-79535000D03*
%TD*%
D15*
%TO.C,SW5_4*%
X112077500Y-123507500D03*
X105727500Y-126047500D03*
D14*
X104457500Y-128587500D03*
D16*
X109537500Y-128587500D03*
D14*
X114617500Y-128587500D03*
%TD*%
D11*
%TO.C,D2_1*%
X43562000Y-79883000D03*
X46862000Y-79883000D03*
%TD*%
M02*
