%TF.GenerationSoftware,KiCad,Pcbnew,(6.0.5)*%
%TF.CreationDate,2022-05-18T14:43:54-07:00*%
%TF.ProjectId,3HMouse,33484d6f-7573-4652-9e6b-696361645f70,rev?*%
%TF.SameCoordinates,Original*%
%TF.FileFunction,Legend,Bot*%
%TF.FilePolarity,Positive*%
%FSLAX46Y46*%
G04 Gerber Fmt 4.6, Leading zero omitted, Abs format (unit mm)*
G04 Created by KiCad (PCBNEW (6.0.5)) date 2022-05-18 14:43:54*
%MOMM*%
%LPD*%
G01*
G04 APERTURE LIST*
%ADD10C,4.400000*%
%ADD11C,1.750000*%
%ADD12C,3.000000*%
%ADD13C,3.987800*%
%ADD14R,2.550000X2.500000*%
%ADD15R,2.000000X2.000000*%
%ADD16C,2.000000*%
%ADD17R,2.000000X3.200000*%
%ADD18O,1.600000X2.000000*%
%ADD19C,1.950000*%
%ADD20C,1.650000*%
%ADD21C,2.400000*%
%ADD22C,2.475000*%
%ADD23C,0.650000*%
%ADD24O,1.000000X1.600000*%
%ADD25O,0.900000X2.100000*%
G04 APERTURE END LIST*
%LPC*%
D10*
%TO.C,H5*%
X91281250Y-77787500D03*
%TD*%
D11*
%TO.C,SW0_1*%
X57467500Y-33337500D03*
X47307500Y-33337500D03*
D12*
X54927500Y-28257500D03*
D13*
X52387500Y-33337500D03*
D12*
X48577500Y-30797500D03*
D14*
X45302500Y-30797500D03*
X58229500Y-28257500D03*
%TD*%
D13*
%TO.C,SW1_1*%
X52387500Y-52387500D03*
D12*
X48577500Y-49847500D03*
D11*
X57467500Y-52387500D03*
X47307500Y-52387500D03*
D12*
X54927500Y-47307500D03*
D14*
X45302500Y-49847500D03*
X58229500Y-47307500D03*
%TD*%
D12*
%TO.C,SW2_2*%
X67627500Y-68897500D03*
D11*
X76517500Y-71437500D03*
D13*
X71437500Y-71437500D03*
D11*
X66357500Y-71437500D03*
D12*
X73977500Y-66357500D03*
D14*
X64352500Y-68897500D03*
X77279500Y-66357500D03*
%TD*%
D12*
%TO.C,SW3_3*%
X86677500Y-87947500D03*
D11*
X85407500Y-90487500D03*
D13*
X90487500Y-90487500D03*
D12*
X93027500Y-85407500D03*
D11*
X95567500Y-90487500D03*
D14*
X83402500Y-87947500D03*
X96329500Y-85407500D03*
%TD*%
D10*
%TO.C,H2*%
X138906250Y-23018750D03*
%TD*%
D11*
%TO.C,SW4_1*%
X47307500Y-109537500D03*
D13*
X52387500Y-109537500D03*
D12*
X48577500Y-106997500D03*
D11*
X57467500Y-109537500D03*
D12*
X54927500Y-104457500D03*
D14*
X45302500Y-106997500D03*
X58229500Y-104457500D03*
%TD*%
D11*
%TO.C,SW2_0*%
X28257500Y-71437500D03*
D12*
X35877500Y-66357500D03*
X29527500Y-68897500D03*
D13*
X33337500Y-71437500D03*
D11*
X38417500Y-71437500D03*
D14*
X26252500Y-68897500D03*
X39179500Y-66357500D03*
%TD*%
D10*
%TO.C,H3*%
X23018750Y-151606250D03*
%TD*%
D11*
%TO.C,SW6_1*%
X47307500Y-147637500D03*
D12*
X48577500Y-145097500D03*
D11*
X57467500Y-147637500D03*
D12*
X54927500Y-142557500D03*
D13*
X52387500Y-147637500D03*
D14*
X45302500Y-145097500D03*
X58229500Y-142557500D03*
%TD*%
D11*
%TO.C,SW1_2*%
X66357500Y-52387500D03*
D13*
X71437500Y-52387500D03*
D12*
X73977500Y-47307500D03*
X67627500Y-49847500D03*
D11*
X76517500Y-52387500D03*
D14*
X64352500Y-49847500D03*
X77279500Y-47307500D03*
%TD*%
D15*
%TO.C,RE2*%
X131087500Y-107843750D03*
D16*
X126087500Y-107843750D03*
X128587500Y-107843750D03*
D17*
X122987500Y-115343750D03*
X134187500Y-115343750D03*
D16*
X126087500Y-122343750D03*
X131087500Y-122343750D03*
%TD*%
D11*
%TO.C,SW0_0*%
X28257500Y-33337500D03*
X38417500Y-33337500D03*
D12*
X35877500Y-28257500D03*
X29527500Y-30797500D03*
D13*
X33337500Y-33337500D03*
D14*
X26252500Y-30797500D03*
X39179500Y-28257500D03*
%TD*%
D11*
%TO.C,SW6_4*%
X104457500Y-147637500D03*
D13*
X109537500Y-147637500D03*
D12*
X112077500Y-142557500D03*
D11*
X114617500Y-147637500D03*
D12*
X105727500Y-145097500D03*
D14*
X102452500Y-145097500D03*
X115379500Y-142557500D03*
%TD*%
D15*
%TO.C,RE1*%
X131087500Y-129275000D03*
D16*
X126087500Y-129275000D03*
X128587500Y-129275000D03*
D17*
X134187500Y-136775000D03*
X122987500Y-136775000D03*
D16*
X126087500Y-143775000D03*
X131087500Y-143775000D03*
%TD*%
D13*
%TO.C,SW5_0*%
X33337500Y-128587500D03*
D12*
X35877500Y-123507500D03*
D11*
X38417500Y-128587500D03*
X28257500Y-128587500D03*
D12*
X29527500Y-126047500D03*
D14*
X26252500Y-126047500D03*
X39179500Y-123507500D03*
%TD*%
D18*
%TO.C,Brd1*%
X104458000Y-47811000D03*
X101918000Y-47811000D03*
X99378000Y-47811000D03*
X96838000Y-47811000D03*
%TD*%
D12*
%TO.C,SW4_4*%
X112077500Y-104457500D03*
D11*
X114617500Y-109537500D03*
D12*
X105727500Y-106997500D03*
D13*
X109537500Y-109537500D03*
D11*
X104457500Y-109537500D03*
D14*
X102452500Y-106997500D03*
X115379500Y-104457500D03*
%TD*%
D11*
%TO.C,SW3_1*%
X47307500Y-90487500D03*
D12*
X48577500Y-87947500D03*
X54927500Y-85407500D03*
D13*
X52387500Y-90487500D03*
D11*
X57467500Y-90487500D03*
D14*
X45302500Y-87947500D03*
X58229500Y-85407500D03*
%TD*%
D11*
%TO.C,SW1_0*%
X38417500Y-52387500D03*
D12*
X29527500Y-49847500D03*
D11*
X28257500Y-52387500D03*
D12*
X35877500Y-47307500D03*
D13*
X33337500Y-52387500D03*
D14*
X26252500Y-49847500D03*
X39179500Y-47307500D03*
%TD*%
D10*
%TO.C,H1*%
X23018750Y-23018750D03*
%TD*%
%TO.C,H4*%
X138906250Y-157162500D03*
%TD*%
D12*
%TO.C,SW3_2*%
X67627500Y-87947500D03*
D11*
X76517500Y-90487500D03*
D13*
X71437500Y-90487500D03*
D12*
X73977500Y-85407500D03*
D11*
X66357500Y-90487500D03*
D14*
X64352500Y-87947500D03*
X77279500Y-85407500D03*
%TD*%
D12*
%TO.C,SW6_2*%
X67627500Y-145097500D03*
D13*
X71437500Y-147637500D03*
D11*
X76517500Y-147637500D03*
X66357500Y-147637500D03*
D12*
X73977500Y-142557500D03*
D14*
X64352500Y-145097500D03*
X77279500Y-142557500D03*
%TD*%
D12*
%TO.C,SW5_2*%
X67627500Y-126047500D03*
D11*
X66357500Y-128587500D03*
D13*
X71437500Y-128587500D03*
D11*
X76517500Y-128587500D03*
D12*
X73977500Y-123507500D03*
D14*
X64352500Y-126047500D03*
X77279500Y-123507500D03*
%TD*%
D13*
%TO.C,SW2_1*%
X52387500Y-71437500D03*
D11*
X57467500Y-71437500D03*
D12*
X54927500Y-66357500D03*
D11*
X47307500Y-71437500D03*
D12*
X48577500Y-68897500D03*
D14*
X45302500Y-68897500D03*
X58229500Y-66357500D03*
%TD*%
D19*
%TO.C,S1*%
X126760000Y-97858750D03*
D20*
X138740000Y-94608750D03*
X138740000Y-92108750D03*
X138740000Y-89608750D03*
D19*
X126760000Y-102358750D03*
D20*
X132510000Y-83378750D03*
X130010000Y-83378750D03*
X127510000Y-83378750D03*
D19*
X133260000Y-97858750D03*
X133260000Y-102358750D03*
D21*
X123685000Y-97108750D03*
X123685000Y-87108750D03*
X136335000Y-97108750D03*
X136335000Y-87108750D03*
D22*
X125710000Y-92108750D03*
X134310000Y-92108750D03*
%TD*%
D11*
%TO.C,SW4_2*%
X66357500Y-109537500D03*
X76517500Y-109537500D03*
D12*
X73977500Y-104457500D03*
D13*
X71437500Y-109537500D03*
D12*
X67627500Y-106997500D03*
D14*
X64352500Y-106997500D03*
X77279500Y-104457500D03*
%TD*%
D13*
%TO.C,SW3_0*%
X33337500Y-90487500D03*
D11*
X28257500Y-90487500D03*
D12*
X35877500Y-85407500D03*
X29527500Y-87947500D03*
D11*
X38417500Y-90487500D03*
D14*
X26252500Y-87947500D03*
X39179500Y-85407500D03*
%TD*%
D11*
%TO.C,SW4_3*%
X95567500Y-109537500D03*
D12*
X86677500Y-106997500D03*
D13*
X90487500Y-109537500D03*
D12*
X93027500Y-104457500D03*
D11*
X85407500Y-109537500D03*
D14*
X83402500Y-106997500D03*
X96329500Y-104457500D03*
%TD*%
D13*
%TO.C,SW4_0*%
X33337500Y-109537500D03*
D11*
X38417500Y-109537500D03*
D12*
X29527500Y-106997500D03*
X35877500Y-104457500D03*
D11*
X28257500Y-109537500D03*
D14*
X26252500Y-106997500D03*
X39179500Y-104457500D03*
%TD*%
D11*
%TO.C,SW6_0*%
X38417500Y-147637500D03*
D12*
X29527500Y-145097500D03*
X35877500Y-142557500D03*
D11*
X28257500Y-147637500D03*
D13*
X33337500Y-147637500D03*
D14*
X26252500Y-145097500D03*
X39179500Y-142557500D03*
%TD*%
D11*
%TO.C,SW0_2*%
X76517500Y-33337500D03*
D12*
X73977500Y-28257500D03*
D13*
X71437500Y-33337500D03*
D11*
X66357500Y-33337500D03*
D12*
X67627500Y-30797500D03*
D14*
X64352500Y-30797500D03*
X77279500Y-28257500D03*
%TD*%
D11*
%TO.C,SW6_3*%
X85407500Y-147637500D03*
D12*
X93027500Y-142557500D03*
D11*
X95567500Y-147637500D03*
D13*
X90487500Y-147637500D03*
D12*
X86677500Y-145097500D03*
D14*
X83402500Y-145097500D03*
X96329500Y-142557500D03*
%TD*%
D11*
%TO.C,SW5_1*%
X57467500Y-128587500D03*
D12*
X48577500Y-126047500D03*
X54927500Y-123507500D03*
D11*
X47307500Y-128587500D03*
D13*
X52387500Y-128587500D03*
D14*
X45302500Y-126047500D03*
X58229500Y-123507500D03*
%TD*%
D23*
%TO.C,J1*%
X117942250Y-27876750D03*
X123722250Y-27876750D03*
D24*
X125152250Y-24196750D03*
X116512250Y-24196750D03*
D25*
X116512250Y-28376750D03*
X125152250Y-28376750D03*
%TD*%
D11*
%TO.C,SW3_4*%
X104457500Y-90487500D03*
D12*
X112077500Y-85407500D03*
X105727500Y-87947500D03*
D11*
X114617500Y-90487500D03*
D13*
X109537500Y-90487500D03*
D14*
X102452500Y-87947500D03*
X115379500Y-85407500D03*
%TD*%
D13*
%TO.C,SW5_3*%
X90487500Y-128587500D03*
D12*
X86677500Y-126047500D03*
D11*
X95567500Y-128587500D03*
X85407500Y-128587500D03*
D12*
X93027500Y-123507500D03*
D14*
X83402500Y-126047500D03*
X96329500Y-123507500D03*
%TD*%
D12*
%TO.C,SW5_4*%
X112077500Y-123507500D03*
X105727500Y-126047500D03*
D11*
X104457500Y-128587500D03*
D13*
X109537500Y-128587500D03*
D11*
X114617500Y-128587500D03*
D14*
X102452500Y-126047500D03*
X115379500Y-123507500D03*
%TD*%
M02*
