M48
; DRILL file {KiCad (6.0.5)} date Mon May 16 19:41:56 2022
; FORMAT={-:-/ absolute / inch / decimal}
; #@! TF.CreationDate,2022-05-16T19:41:56-07:00
; #@! TF.GenerationSoftware,Kicad,Pcbnew,(6.0.5)
; #@! TF.FileFunction,NonPlated,1,2,NPTH
FMAT,2
INCH
; #@! TA.AperFunction,NonPlated,NPTH,ComponentDrill
T1C0.0591
; #@! TA.AperFunction,NonPlated,NPTH,ComponentDrill
T2C0.0689
; #@! TA.AperFunction,NonPlated,NPTH,ComponentDrill
T3C0.1570
%
G90
G05
T2
X1.425Y-1.625
X1.425Y-2.375
X1.425Y-3.125
X1.5188Y-4.8125
X1.6125Y-4.0625
X1.825Y-1.625
X1.825Y-2.375
X1.825Y-3.125
X1.9187Y-4.8125
X2.0125Y-4.0625
X2.175Y-1.625
X2.175Y-2.375
X2.175Y-3.125
X2.4562Y-4.8125
X2.55Y-4.0625
X2.575Y-1.625
X2.575Y-2.375
X2.575Y-3.125
X2.8562Y-4.8125
X2.925Y-1.625
X2.925Y-2.375
X2.925Y-3.125
X2.95Y-4.0625
X3.3Y-4.0625
X3.3Y-4.8125
X3.325Y-1.625
X3.325Y-2.375
X3.325Y-3.125
X3.7Y-4.0625
X3.7Y-4.8125
X4.05Y-4.0625
X4.05Y-4.8125
X4.45Y-4.0625
X4.45Y-4.8125
X4.8Y-4.0625
X4.8Y-4.8125
X5.2Y-4.0625
X5.2Y-4.8125
X5.55Y-4.0625
X5.55Y-4.8125
X5.95Y-4.0625
X5.95Y-4.8125
X6.3Y-4.0625
X6.3Y-4.8125
X6.7Y-4.0625
X6.7Y-4.8125
X7.05Y-4.0625
X7.05Y-4.8125
X7.45Y-4.0625
X7.45Y-4.8125
X7.8Y-4.0625
X7.8Y-4.8125
X8.2Y-4.0625
X8.2Y-4.8125
X8.55Y-4.0625
X8.55Y-4.8125
X8.95Y-4.0625
X8.95Y-4.8125
T3
X1.625Y-1.625
X1.625Y-2.375
X1.625Y-3.125
X1.7188Y-4.8125
X1.8125Y-4.0625
X2.375Y-1.625
X2.375Y-2.375
X2.375Y-3.125
X2.6562Y-4.8125
X2.75Y-4.0625
X3.125Y-1.625
X3.125Y-2.375
X3.125Y-3.125
X3.5Y-4.0625
X3.5Y-4.8125
X4.25Y-4.0625
X4.25Y-4.8125
X5.0Y-4.0625
X5.0Y-4.8125
X5.75Y-4.0625
X5.75Y-4.8125
X6.5Y-4.0625
X6.5Y-4.8125
X7.25Y-4.0625
X7.25Y-4.8125
X8.0Y-4.0625
X8.0Y-4.8125
X8.75Y-4.0625
X8.75Y-4.8125
T1
G00X7.1932Y-1.6545
M15
G01X7.2443Y-1.6545
M16
G05
G00X7.1932Y-2.0955
M15
G01X7.2443Y-2.0955
M16
G05
G00X7.1932Y-2.6233
M15
G01X7.2443Y-2.6233
M16
G05
G00X7.1932Y-3.0642
M15
G01X7.2443Y-3.0642
M16
G05
T0
M30
