%TF.GenerationSoftware,KiCad,Pcbnew,(6.0.5)*%
%TF.CreationDate,2022-05-15T08:17:35-07:00*%
%TF.ProjectId,3HMouse,33484d6f-7573-4652-9e6b-696361645f70,rev?*%
%TF.SameCoordinates,Original*%
%TF.FileFunction,Legend,Top*%
%TF.FilePolarity,Positive*%
%FSLAX46Y46*%
G04 Gerber Fmt 4.6, Leading zero omitted, Abs format (unit mm)*
G04 Created by KiCad (PCBNEW (6.0.5)) date 2022-05-15 08:17:35*
%MOMM*%
%LPD*%
G01*
G04 APERTURE LIST*
%ADD10C,0.150000*%
%ADD11C,0.254000*%
%ADD12C,0.120000*%
%ADD13C,0.300000*%
%ADD14C,0.100000*%
G04 APERTURE END LIST*
D10*
X209693452Y-76446130D02*
X209693452Y-77160416D01*
X209645833Y-77303273D01*
X209550595Y-77398511D01*
X209407738Y-77446130D01*
X209312500Y-77446130D01*
X210645833Y-77446130D02*
X210169642Y-77446130D01*
X210169642Y-76446130D01*
X211550595Y-77350892D02*
X211502976Y-77398511D01*
X211360119Y-77446130D01*
X211264880Y-77446130D01*
X211122023Y-77398511D01*
X211026785Y-77303273D01*
X210979166Y-77208035D01*
X210931547Y-77017559D01*
X210931547Y-76874702D01*
X210979166Y-76684226D01*
X211026785Y-76588988D01*
X211122023Y-76493750D01*
X211264880Y-76446130D01*
X211360119Y-76446130D01*
X211502976Y-76493750D01*
X211550595Y-76541369D01*
X212264880Y-76446130D02*
X212264880Y-77160416D01*
X212217261Y-77303273D01*
X212122023Y-77398511D01*
X211979166Y-77446130D01*
X211883928Y-77446130D01*
X213217261Y-77446130D02*
X212741071Y-77446130D01*
X212741071Y-76446130D01*
X214122023Y-77350892D02*
X214074404Y-77398511D01*
X213931547Y-77446130D01*
X213836309Y-77446130D01*
X213693452Y-77398511D01*
X213598214Y-77303273D01*
X213550595Y-77208035D01*
X213502976Y-77017559D01*
X213502976Y-76874702D01*
X213550595Y-76684226D01*
X213598214Y-76588988D01*
X213693452Y-76493750D01*
X213836309Y-76446130D01*
X213931547Y-76446130D01*
X214074404Y-76493750D01*
X214122023Y-76541369D01*
X214836309Y-76446130D02*
X214836309Y-77160416D01*
X214788690Y-77303273D01*
X214693452Y-77398511D01*
X214550595Y-77446130D01*
X214455357Y-77446130D01*
X215788690Y-77446130D02*
X215312500Y-77446130D01*
X215312500Y-76446130D01*
X216693452Y-77350892D02*
X216645833Y-77398511D01*
X216502976Y-77446130D01*
X216407738Y-77446130D01*
X216264880Y-77398511D01*
X216169642Y-77303273D01*
X216122023Y-77208035D01*
X216074404Y-77017559D01*
X216074404Y-76874702D01*
X216122023Y-76684226D01*
X216169642Y-76588988D01*
X216264880Y-76493750D01*
X216407738Y-76446130D01*
X216502976Y-76446130D01*
X216645833Y-76493750D01*
X216693452Y-76541369D01*
X217407738Y-76446130D02*
X217407738Y-77160416D01*
X217360119Y-77303273D01*
X217264880Y-77398511D01*
X217122023Y-77446130D01*
X217026785Y-77446130D01*
X218360119Y-77446130D02*
X217883928Y-77446130D01*
X217883928Y-76446130D01*
X219264880Y-77350892D02*
X219217261Y-77398511D01*
X219074404Y-77446130D01*
X218979166Y-77446130D01*
X218836309Y-77398511D01*
X218741071Y-77303273D01*
X218693452Y-77208035D01*
X218645833Y-77017559D01*
X218645833Y-76874702D01*
X218693452Y-76684226D01*
X218741071Y-76588988D01*
X218836309Y-76493750D01*
X218979166Y-76446130D01*
X219074404Y-76446130D01*
X219217261Y-76493750D01*
X219264880Y-76541369D01*
%TO.C,Brd1*%
X213939583Y-60507571D02*
X214082440Y-60555190D01*
X214130059Y-60602809D01*
X214177678Y-60698047D01*
X214177678Y-60840904D01*
X214130059Y-60936142D01*
X214082440Y-60983761D01*
X213987202Y-61031380D01*
X213606250Y-61031380D01*
X213606250Y-60031380D01*
X213939583Y-60031380D01*
X214034821Y-60079000D01*
X214082440Y-60126619D01*
X214130059Y-60221857D01*
X214130059Y-60317095D01*
X214082440Y-60412333D01*
X214034821Y-60459952D01*
X213939583Y-60507571D01*
X213606250Y-60507571D01*
X214606250Y-61031380D02*
X214606250Y-60364714D01*
X214606250Y-60555190D02*
X214653869Y-60459952D01*
X214701488Y-60412333D01*
X214796726Y-60364714D01*
X214891964Y-60364714D01*
X215653869Y-61031380D02*
X215653869Y-60031380D01*
X215653869Y-60983761D02*
X215558630Y-61031380D01*
X215368154Y-61031380D01*
X215272916Y-60983761D01*
X215225297Y-60936142D01*
X215177678Y-60840904D01*
X215177678Y-60555190D01*
X215225297Y-60459952D01*
X215272916Y-60412333D01*
X215368154Y-60364714D01*
X215558630Y-60364714D01*
X215653869Y-60412333D01*
X216653869Y-61031380D02*
X216082440Y-61031380D01*
X216368154Y-61031380D02*
X216368154Y-60031380D01*
X216272916Y-60174238D01*
X216177678Y-60269476D01*
X216082440Y-60317095D01*
%TO.C,C3*%
X150394333Y-49662142D02*
X150346714Y-49709761D01*
X150203857Y-49757380D01*
X150108619Y-49757380D01*
X149965761Y-49709761D01*
X149870523Y-49614523D01*
X149822904Y-49519285D01*
X149775285Y-49328809D01*
X149775285Y-49185952D01*
X149822904Y-48995476D01*
X149870523Y-48900238D01*
X149965761Y-48805000D01*
X150108619Y-48757380D01*
X150203857Y-48757380D01*
X150346714Y-48805000D01*
X150394333Y-48852619D01*
X150727666Y-48757380D02*
X151346714Y-48757380D01*
X151013380Y-49138333D01*
X151156238Y-49138333D01*
X151251476Y-49185952D01*
X151299095Y-49233571D01*
X151346714Y-49328809D01*
X151346714Y-49566904D01*
X151299095Y-49662142D01*
X151251476Y-49709761D01*
X151156238Y-49757380D01*
X150870523Y-49757380D01*
X150775285Y-49709761D01*
X150727666Y-49662142D01*
%TO.C,J1*%
X102854166Y-43118630D02*
X102854166Y-43832916D01*
X102806547Y-43975773D01*
X102711309Y-44071011D01*
X102568452Y-44118630D01*
X102473214Y-44118630D01*
X103854166Y-44118630D02*
X103282738Y-44118630D01*
X103568452Y-44118630D02*
X103568452Y-43118630D01*
X103473214Y-43261488D01*
X103377976Y-43356726D01*
X103282738Y-43404345D01*
%TO.C,C6*%
X154614583Y-46302142D02*
X154566964Y-46349761D01*
X154424107Y-46397380D01*
X154328869Y-46397380D01*
X154186011Y-46349761D01*
X154090773Y-46254523D01*
X154043154Y-46159285D01*
X153995535Y-45968809D01*
X153995535Y-45825952D01*
X154043154Y-45635476D01*
X154090773Y-45540238D01*
X154186011Y-45445000D01*
X154328869Y-45397380D01*
X154424107Y-45397380D01*
X154566964Y-45445000D01*
X154614583Y-45492619D01*
X155471726Y-45397380D02*
X155281250Y-45397380D01*
X155186011Y-45445000D01*
X155138392Y-45492619D01*
X155043154Y-45635476D01*
X154995535Y-45825952D01*
X154995535Y-46206904D01*
X155043154Y-46302142D01*
X155090773Y-46349761D01*
X155186011Y-46397380D01*
X155376488Y-46397380D01*
X155471726Y-46349761D01*
X155519345Y-46302142D01*
X155566964Y-46206904D01*
X155566964Y-45968809D01*
X155519345Y-45873571D01*
X155471726Y-45825952D01*
X155376488Y-45778333D01*
X155186011Y-45778333D01*
X155090773Y-45825952D01*
X155043154Y-45873571D01*
X154995535Y-45968809D01*
%TO.C,C5*%
X167314583Y-72680892D02*
X167266964Y-72728511D01*
X167124107Y-72776130D01*
X167028869Y-72776130D01*
X166886011Y-72728511D01*
X166790773Y-72633273D01*
X166743154Y-72538035D01*
X166695535Y-72347559D01*
X166695535Y-72204702D01*
X166743154Y-72014226D01*
X166790773Y-71918988D01*
X166886011Y-71823750D01*
X167028869Y-71776130D01*
X167124107Y-71776130D01*
X167266964Y-71823750D01*
X167314583Y-71871369D01*
X168219345Y-71776130D02*
X167743154Y-71776130D01*
X167695535Y-72252321D01*
X167743154Y-72204702D01*
X167838392Y-72157083D01*
X168076488Y-72157083D01*
X168171726Y-72204702D01*
X168219345Y-72252321D01*
X168266964Y-72347559D01*
X168266964Y-72585654D01*
X168219345Y-72680892D01*
X168171726Y-72728511D01*
X168076488Y-72776130D01*
X167838392Y-72776130D01*
X167743154Y-72728511D01*
X167695535Y-72680892D01*
%TO.C,C4*%
X141552142Y-57316666D02*
X141599761Y-57364285D01*
X141647380Y-57507142D01*
X141647380Y-57602380D01*
X141599761Y-57745238D01*
X141504523Y-57840476D01*
X141409285Y-57888095D01*
X141218809Y-57935714D01*
X141075952Y-57935714D01*
X140885476Y-57888095D01*
X140790238Y-57840476D01*
X140695000Y-57745238D01*
X140647380Y-57602380D01*
X140647380Y-57507142D01*
X140695000Y-57364285D01*
X140742619Y-57316666D01*
X140980714Y-56459523D02*
X141647380Y-56459523D01*
X140599761Y-56697619D02*
X141314047Y-56935714D01*
X141314047Y-56316666D01*
%TO.C,Y1*%
X154125809Y-77952190D02*
X154125809Y-78428380D01*
X153792476Y-77428380D02*
X154125809Y-77952190D01*
X154459142Y-77428380D01*
X155316285Y-78428380D02*
X154744857Y-78428380D01*
X155030571Y-78428380D02*
X155030571Y-77428380D01*
X154935333Y-77571238D01*
X154840095Y-77666476D01*
X154744857Y-77714095D01*
%TO.C,U1*%
X154813095Y-50327380D02*
X154813095Y-51136904D01*
X154860714Y-51232142D01*
X154908333Y-51279761D01*
X155003571Y-51327380D01*
X155194047Y-51327380D01*
X155289285Y-51279761D01*
X155336904Y-51232142D01*
X155384523Y-51136904D01*
X155384523Y-50327380D01*
X156384523Y-51327380D02*
X155813095Y-51327380D01*
X156098809Y-51327380D02*
X156098809Y-50327380D01*
X156003571Y-50470238D01*
X155908333Y-50565476D01*
X155813095Y-50613095D01*
%TO.C,SW32*%
X99528261Y-81184523D02*
X99575880Y-81041666D01*
X99575880Y-80803571D01*
X99528261Y-80708333D01*
X99480642Y-80660714D01*
X99385404Y-80613095D01*
X99290166Y-80613095D01*
X99194928Y-80660714D01*
X99147309Y-80708333D01*
X99099690Y-80803571D01*
X99052071Y-80994047D01*
X99004452Y-81089285D01*
X98956833Y-81136904D01*
X98861595Y-81184523D01*
X98766357Y-81184523D01*
X98671119Y-81136904D01*
X98623500Y-81089285D01*
X98575880Y-80994047D01*
X98575880Y-80755952D01*
X98623500Y-80613095D01*
X98575880Y-80279761D02*
X99575880Y-80041666D01*
X98861595Y-79851190D01*
X99575880Y-79660714D01*
X98575880Y-79422619D01*
X98575880Y-79136904D02*
X98575880Y-78517857D01*
X98956833Y-78851190D01*
X98956833Y-78708333D01*
X99004452Y-78613095D01*
X99052071Y-78565476D01*
X99147309Y-78517857D01*
X99385404Y-78517857D01*
X99480642Y-78565476D01*
X99528261Y-78613095D01*
X99575880Y-78708333D01*
X99575880Y-78994047D01*
X99528261Y-79089285D01*
X99480642Y-79136904D01*
X98671119Y-78136904D02*
X98623500Y-78089285D01*
X98575880Y-77994047D01*
X98575880Y-77755952D01*
X98623500Y-77660714D01*
X98671119Y-77613095D01*
X98766357Y-77565476D01*
X98861595Y-77565476D01*
X99004452Y-77613095D01*
X99575880Y-78184523D01*
X99575880Y-77565476D01*
D11*
%TO.C,S1*%
X126031880Y-60839047D02*
X126213309Y-60899523D01*
X126515690Y-60899523D01*
X126636642Y-60839047D01*
X126697119Y-60778571D01*
X126757595Y-60657619D01*
X126757595Y-60536666D01*
X126697119Y-60415714D01*
X126636642Y-60355238D01*
X126515690Y-60294761D01*
X126273785Y-60234285D01*
X126152833Y-60173809D01*
X126092357Y-60113333D01*
X126031880Y-59992380D01*
X126031880Y-59871428D01*
X126092357Y-59750476D01*
X126152833Y-59690000D01*
X126273785Y-59629523D01*
X126576166Y-59629523D01*
X126757595Y-59690000D01*
X127967119Y-60899523D02*
X127241404Y-60899523D01*
X127604261Y-60899523D02*
X127604261Y-59629523D01*
X127483309Y-59810952D01*
X127362357Y-59931904D01*
X127241404Y-59992380D01*
D10*
%TO.C,R6*%
X147407333Y-74873380D02*
X147074000Y-74397190D01*
X146835904Y-74873380D02*
X146835904Y-73873380D01*
X147216857Y-73873380D01*
X147312095Y-73921000D01*
X147359714Y-73968619D01*
X147407333Y-74063857D01*
X147407333Y-74206714D01*
X147359714Y-74301952D01*
X147312095Y-74349571D01*
X147216857Y-74397190D01*
X146835904Y-74397190D01*
X148264476Y-73873380D02*
X148074000Y-73873380D01*
X147978761Y-73921000D01*
X147931142Y-73968619D01*
X147835904Y-74111476D01*
X147788285Y-74301952D01*
X147788285Y-74682904D01*
X147835904Y-74778142D01*
X147883523Y-74825761D01*
X147978761Y-74873380D01*
X148169238Y-74873380D01*
X148264476Y-74825761D01*
X148312095Y-74778142D01*
X148359714Y-74682904D01*
X148359714Y-74444809D01*
X148312095Y-74349571D01*
X148264476Y-74301952D01*
X148169238Y-74254333D01*
X147978761Y-74254333D01*
X147883523Y-74301952D01*
X147835904Y-74349571D01*
X147788285Y-74444809D01*
%TO.C,R5*%
X166283630Y-59816666D02*
X165807440Y-60150000D01*
X166283630Y-60388095D02*
X165283630Y-60388095D01*
X165283630Y-60007142D01*
X165331250Y-59911904D01*
X165378869Y-59864285D01*
X165474107Y-59816666D01*
X165616964Y-59816666D01*
X165712202Y-59864285D01*
X165759821Y-59911904D01*
X165807440Y-60007142D01*
X165807440Y-60388095D01*
X165283630Y-58911904D02*
X165283630Y-59388095D01*
X165759821Y-59435714D01*
X165712202Y-59388095D01*
X165664583Y-59292857D01*
X165664583Y-59054761D01*
X165712202Y-58959523D01*
X165759821Y-58911904D01*
X165855059Y-58864285D01*
X166093154Y-58864285D01*
X166188392Y-58911904D01*
X166236011Y-58959523D01*
X166283630Y-59054761D01*
X166283630Y-59292857D01*
X166236011Y-59388095D01*
X166188392Y-59435714D01*
%TO.C,R4*%
X110052380Y-48585416D02*
X109576190Y-48918750D01*
X110052380Y-49156845D02*
X109052380Y-49156845D01*
X109052380Y-48775892D01*
X109100000Y-48680654D01*
X109147619Y-48633035D01*
X109242857Y-48585416D01*
X109385714Y-48585416D01*
X109480952Y-48633035D01*
X109528571Y-48680654D01*
X109576190Y-48775892D01*
X109576190Y-49156845D01*
X109385714Y-47728273D02*
X110052380Y-47728273D01*
X109004761Y-47966369D02*
X109719047Y-48204464D01*
X109719047Y-47585416D01*
%TO.C,R3*%
X105289880Y-48585416D02*
X104813690Y-48918750D01*
X105289880Y-49156845D02*
X104289880Y-49156845D01*
X104289880Y-48775892D01*
X104337500Y-48680654D01*
X104385119Y-48633035D01*
X104480357Y-48585416D01*
X104623214Y-48585416D01*
X104718452Y-48633035D01*
X104766071Y-48680654D01*
X104813690Y-48775892D01*
X104813690Y-49156845D01*
X104289880Y-48252083D02*
X104289880Y-47633035D01*
X104670833Y-47966369D01*
X104670833Y-47823511D01*
X104718452Y-47728273D01*
X104766071Y-47680654D01*
X104861309Y-47633035D01*
X105099404Y-47633035D01*
X105194642Y-47680654D01*
X105242261Y-47728273D01*
X105289880Y-47823511D01*
X105289880Y-48109226D01*
X105242261Y-48204464D01*
X105194642Y-48252083D01*
%TO.C,R2*%
X124452083Y-42458630D02*
X124118750Y-41982440D01*
X123880654Y-42458630D02*
X123880654Y-41458630D01*
X124261607Y-41458630D01*
X124356845Y-41506250D01*
X124404464Y-41553869D01*
X124452083Y-41649107D01*
X124452083Y-41791964D01*
X124404464Y-41887202D01*
X124356845Y-41934821D01*
X124261607Y-41982440D01*
X123880654Y-41982440D01*
X124833035Y-41553869D02*
X124880654Y-41506250D01*
X124975892Y-41458630D01*
X125213988Y-41458630D01*
X125309226Y-41506250D01*
X125356845Y-41553869D01*
X125404464Y-41649107D01*
X125404464Y-41744345D01*
X125356845Y-41887202D01*
X124785416Y-42458630D01*
X125404464Y-42458630D01*
%TO.C,R1*%
X124452083Y-39283630D02*
X124118750Y-38807440D01*
X123880654Y-39283630D02*
X123880654Y-38283630D01*
X124261607Y-38283630D01*
X124356845Y-38331250D01*
X124404464Y-38378869D01*
X124452083Y-38474107D01*
X124452083Y-38616964D01*
X124404464Y-38712202D01*
X124356845Y-38759821D01*
X124261607Y-38807440D01*
X123880654Y-38807440D01*
X125404464Y-39283630D02*
X124833035Y-39283630D01*
X125118750Y-39283630D02*
X125118750Y-38283630D01*
X125023511Y-38426488D01*
X124928273Y-38521726D01*
X124833035Y-38569345D01*
%TO.C,D29*%
X216210714Y-129421130D02*
X216210714Y-128421130D01*
X216448809Y-128421130D01*
X216591666Y-128468750D01*
X216686904Y-128563988D01*
X216734523Y-128659226D01*
X216782142Y-128849702D01*
X216782142Y-128992559D01*
X216734523Y-129183035D01*
X216686904Y-129278273D01*
X216591666Y-129373511D01*
X216448809Y-129421130D01*
X216210714Y-129421130D01*
X217163095Y-128516369D02*
X217210714Y-128468750D01*
X217305952Y-128421130D01*
X217544047Y-128421130D01*
X217639285Y-128468750D01*
X217686904Y-128516369D01*
X217734523Y-128611607D01*
X217734523Y-128706845D01*
X217686904Y-128849702D01*
X217115476Y-129421130D01*
X217734523Y-129421130D01*
X218210714Y-129421130D02*
X218401190Y-129421130D01*
X218496428Y-129373511D01*
X218544047Y-129325892D01*
X218639285Y-129183035D01*
X218686904Y-128992559D01*
X218686904Y-128611607D01*
X218639285Y-128516369D01*
X218591666Y-128468750D01*
X218496428Y-128421130D01*
X218305952Y-128421130D01*
X218210714Y-128468750D01*
X218163095Y-128516369D01*
X218115476Y-128611607D01*
X218115476Y-128849702D01*
X218163095Y-128944940D01*
X218210714Y-128992559D01*
X218305952Y-129040178D01*
X218496428Y-129040178D01*
X218591666Y-128992559D01*
X218639285Y-128944940D01*
X218686904Y-128849702D01*
%TO.C,D28*%
X216273214Y-110371130D02*
X216273214Y-109371130D01*
X216511309Y-109371130D01*
X216654166Y-109418750D01*
X216749404Y-109513988D01*
X216797023Y-109609226D01*
X216844642Y-109799702D01*
X216844642Y-109942559D01*
X216797023Y-110133035D01*
X216749404Y-110228273D01*
X216654166Y-110323511D01*
X216511309Y-110371130D01*
X216273214Y-110371130D01*
X217225595Y-109466369D02*
X217273214Y-109418750D01*
X217368452Y-109371130D01*
X217606547Y-109371130D01*
X217701785Y-109418750D01*
X217749404Y-109466369D01*
X217797023Y-109561607D01*
X217797023Y-109656845D01*
X217749404Y-109799702D01*
X217177976Y-110371130D01*
X217797023Y-110371130D01*
X218368452Y-109799702D02*
X218273214Y-109752083D01*
X218225595Y-109704464D01*
X218177976Y-109609226D01*
X218177976Y-109561607D01*
X218225595Y-109466369D01*
X218273214Y-109418750D01*
X218368452Y-109371130D01*
X218558928Y-109371130D01*
X218654166Y-109418750D01*
X218701785Y-109466369D01*
X218749404Y-109561607D01*
X218749404Y-109609226D01*
X218701785Y-109704464D01*
X218654166Y-109752083D01*
X218558928Y-109799702D01*
X218368452Y-109799702D01*
X218273214Y-109847321D01*
X218225595Y-109894940D01*
X218177976Y-109990178D01*
X218177976Y-110180654D01*
X218225595Y-110275892D01*
X218273214Y-110323511D01*
X218368452Y-110371130D01*
X218558928Y-110371130D01*
X218654166Y-110323511D01*
X218701785Y-110275892D01*
X218749404Y-110180654D01*
X218749404Y-109990178D01*
X218701785Y-109894940D01*
X218654166Y-109847321D01*
X218558928Y-109799702D01*
%TO.C,D27*%
X197223214Y-129421130D02*
X197223214Y-128421130D01*
X197461309Y-128421130D01*
X197604166Y-128468750D01*
X197699404Y-128563988D01*
X197747023Y-128659226D01*
X197794642Y-128849702D01*
X197794642Y-128992559D01*
X197747023Y-129183035D01*
X197699404Y-129278273D01*
X197604166Y-129373511D01*
X197461309Y-129421130D01*
X197223214Y-129421130D01*
X198175595Y-128516369D02*
X198223214Y-128468750D01*
X198318452Y-128421130D01*
X198556547Y-128421130D01*
X198651785Y-128468750D01*
X198699404Y-128516369D01*
X198747023Y-128611607D01*
X198747023Y-128706845D01*
X198699404Y-128849702D01*
X198127976Y-129421130D01*
X198747023Y-129421130D01*
X199080357Y-128421130D02*
X199747023Y-128421130D01*
X199318452Y-129421130D01*
%TO.C,D26*%
X197223214Y-110371130D02*
X197223214Y-109371130D01*
X197461309Y-109371130D01*
X197604166Y-109418750D01*
X197699404Y-109513988D01*
X197747023Y-109609226D01*
X197794642Y-109799702D01*
X197794642Y-109942559D01*
X197747023Y-110133035D01*
X197699404Y-110228273D01*
X197604166Y-110323511D01*
X197461309Y-110371130D01*
X197223214Y-110371130D01*
X198175595Y-109466369D02*
X198223214Y-109418750D01*
X198318452Y-109371130D01*
X198556547Y-109371130D01*
X198651785Y-109418750D01*
X198699404Y-109466369D01*
X198747023Y-109561607D01*
X198747023Y-109656845D01*
X198699404Y-109799702D01*
X198127976Y-110371130D01*
X198747023Y-110371130D01*
X199604166Y-109371130D02*
X199413690Y-109371130D01*
X199318452Y-109418750D01*
X199270833Y-109466369D01*
X199175595Y-109609226D01*
X199127976Y-109799702D01*
X199127976Y-110180654D01*
X199175595Y-110275892D01*
X199223214Y-110323511D01*
X199318452Y-110371130D01*
X199508928Y-110371130D01*
X199604166Y-110323511D01*
X199651785Y-110275892D01*
X199699404Y-110180654D01*
X199699404Y-109942559D01*
X199651785Y-109847321D01*
X199604166Y-109799702D01*
X199508928Y-109752083D01*
X199318452Y-109752083D01*
X199223214Y-109799702D01*
X199175595Y-109847321D01*
X199127976Y-109942559D01*
%TO.C,D25*%
X178173214Y-129421130D02*
X178173214Y-128421130D01*
X178411309Y-128421130D01*
X178554166Y-128468750D01*
X178649404Y-128563988D01*
X178697023Y-128659226D01*
X178744642Y-128849702D01*
X178744642Y-128992559D01*
X178697023Y-129183035D01*
X178649404Y-129278273D01*
X178554166Y-129373511D01*
X178411309Y-129421130D01*
X178173214Y-129421130D01*
X179125595Y-128516369D02*
X179173214Y-128468750D01*
X179268452Y-128421130D01*
X179506547Y-128421130D01*
X179601785Y-128468750D01*
X179649404Y-128516369D01*
X179697023Y-128611607D01*
X179697023Y-128706845D01*
X179649404Y-128849702D01*
X179077976Y-129421130D01*
X179697023Y-129421130D01*
X180601785Y-128421130D02*
X180125595Y-128421130D01*
X180077976Y-128897321D01*
X180125595Y-128849702D01*
X180220833Y-128802083D01*
X180458928Y-128802083D01*
X180554166Y-128849702D01*
X180601785Y-128897321D01*
X180649404Y-128992559D01*
X180649404Y-129230654D01*
X180601785Y-129325892D01*
X180554166Y-129373511D01*
X180458928Y-129421130D01*
X180220833Y-129421130D01*
X180125595Y-129373511D01*
X180077976Y-129325892D01*
%TO.C,D24*%
X178173214Y-110371130D02*
X178173214Y-109371130D01*
X178411309Y-109371130D01*
X178554166Y-109418750D01*
X178649404Y-109513988D01*
X178697023Y-109609226D01*
X178744642Y-109799702D01*
X178744642Y-109942559D01*
X178697023Y-110133035D01*
X178649404Y-110228273D01*
X178554166Y-110323511D01*
X178411309Y-110371130D01*
X178173214Y-110371130D01*
X179125595Y-109466369D02*
X179173214Y-109418750D01*
X179268452Y-109371130D01*
X179506547Y-109371130D01*
X179601785Y-109418750D01*
X179649404Y-109466369D01*
X179697023Y-109561607D01*
X179697023Y-109656845D01*
X179649404Y-109799702D01*
X179077976Y-110371130D01*
X179697023Y-110371130D01*
X180554166Y-109704464D02*
X180554166Y-110371130D01*
X180316071Y-109323511D02*
X180077976Y-110037797D01*
X180697023Y-110037797D01*
%TO.C,D23*%
X159123214Y-129421130D02*
X159123214Y-128421130D01*
X159361309Y-128421130D01*
X159504166Y-128468750D01*
X159599404Y-128563988D01*
X159647023Y-128659226D01*
X159694642Y-128849702D01*
X159694642Y-128992559D01*
X159647023Y-129183035D01*
X159599404Y-129278273D01*
X159504166Y-129373511D01*
X159361309Y-129421130D01*
X159123214Y-129421130D01*
X160075595Y-128516369D02*
X160123214Y-128468750D01*
X160218452Y-128421130D01*
X160456547Y-128421130D01*
X160551785Y-128468750D01*
X160599404Y-128516369D01*
X160647023Y-128611607D01*
X160647023Y-128706845D01*
X160599404Y-128849702D01*
X160027976Y-129421130D01*
X160647023Y-129421130D01*
X160980357Y-128421130D02*
X161599404Y-128421130D01*
X161266071Y-128802083D01*
X161408928Y-128802083D01*
X161504166Y-128849702D01*
X161551785Y-128897321D01*
X161599404Y-128992559D01*
X161599404Y-129230654D01*
X161551785Y-129325892D01*
X161504166Y-129373511D01*
X161408928Y-129421130D01*
X161123214Y-129421130D01*
X161027976Y-129373511D01*
X160980357Y-129325892D01*
%TO.C,D22*%
X159123214Y-110371130D02*
X159123214Y-109371130D01*
X159361309Y-109371130D01*
X159504166Y-109418750D01*
X159599404Y-109513988D01*
X159647023Y-109609226D01*
X159694642Y-109799702D01*
X159694642Y-109942559D01*
X159647023Y-110133035D01*
X159599404Y-110228273D01*
X159504166Y-110323511D01*
X159361309Y-110371130D01*
X159123214Y-110371130D01*
X160075595Y-109466369D02*
X160123214Y-109418750D01*
X160218452Y-109371130D01*
X160456547Y-109371130D01*
X160551785Y-109418750D01*
X160599404Y-109466369D01*
X160647023Y-109561607D01*
X160647023Y-109656845D01*
X160599404Y-109799702D01*
X160027976Y-110371130D01*
X160647023Y-110371130D01*
X161027976Y-109466369D02*
X161075595Y-109418750D01*
X161170833Y-109371130D01*
X161408928Y-109371130D01*
X161504166Y-109418750D01*
X161551785Y-109466369D01*
X161599404Y-109561607D01*
X161599404Y-109656845D01*
X161551785Y-109799702D01*
X160980357Y-110371130D01*
X161599404Y-110371130D01*
%TO.C,D21*%
X140073214Y-129421130D02*
X140073214Y-128421130D01*
X140311309Y-128421130D01*
X140454166Y-128468750D01*
X140549404Y-128563988D01*
X140597023Y-128659226D01*
X140644642Y-128849702D01*
X140644642Y-128992559D01*
X140597023Y-129183035D01*
X140549404Y-129278273D01*
X140454166Y-129373511D01*
X140311309Y-129421130D01*
X140073214Y-129421130D01*
X141025595Y-128516369D02*
X141073214Y-128468750D01*
X141168452Y-128421130D01*
X141406547Y-128421130D01*
X141501785Y-128468750D01*
X141549404Y-128516369D01*
X141597023Y-128611607D01*
X141597023Y-128706845D01*
X141549404Y-128849702D01*
X140977976Y-129421130D01*
X141597023Y-129421130D01*
X142549404Y-129421130D02*
X141977976Y-129421130D01*
X142263690Y-129421130D02*
X142263690Y-128421130D01*
X142168452Y-128563988D01*
X142073214Y-128659226D01*
X141977976Y-128706845D01*
%TO.C,D20*%
X140073214Y-110371130D02*
X140073214Y-109371130D01*
X140311309Y-109371130D01*
X140454166Y-109418750D01*
X140549404Y-109513988D01*
X140597023Y-109609226D01*
X140644642Y-109799702D01*
X140644642Y-109942559D01*
X140597023Y-110133035D01*
X140549404Y-110228273D01*
X140454166Y-110323511D01*
X140311309Y-110371130D01*
X140073214Y-110371130D01*
X141025595Y-109466369D02*
X141073214Y-109418750D01*
X141168452Y-109371130D01*
X141406547Y-109371130D01*
X141501785Y-109418750D01*
X141549404Y-109466369D01*
X141597023Y-109561607D01*
X141597023Y-109656845D01*
X141549404Y-109799702D01*
X140977976Y-110371130D01*
X141597023Y-110371130D01*
X142216071Y-109371130D02*
X142311309Y-109371130D01*
X142406547Y-109418750D01*
X142454166Y-109466369D01*
X142501785Y-109561607D01*
X142549404Y-109752083D01*
X142549404Y-109990178D01*
X142501785Y-110180654D01*
X142454166Y-110275892D01*
X142406547Y-110323511D01*
X142311309Y-110371130D01*
X142216071Y-110371130D01*
X142120833Y-110323511D01*
X142073214Y-110275892D01*
X142025595Y-110180654D01*
X141977976Y-109990178D01*
X141977976Y-109752083D01*
X142025595Y-109561607D01*
X142073214Y-109466369D01*
X142120833Y-109418750D01*
X142216071Y-109371130D01*
%TO.C,D19*%
X121023214Y-129421130D02*
X121023214Y-128421130D01*
X121261309Y-128421130D01*
X121404166Y-128468750D01*
X121499404Y-128563988D01*
X121547023Y-128659226D01*
X121594642Y-128849702D01*
X121594642Y-128992559D01*
X121547023Y-129183035D01*
X121499404Y-129278273D01*
X121404166Y-129373511D01*
X121261309Y-129421130D01*
X121023214Y-129421130D01*
X122547023Y-129421130D02*
X121975595Y-129421130D01*
X122261309Y-129421130D02*
X122261309Y-128421130D01*
X122166071Y-128563988D01*
X122070833Y-128659226D01*
X121975595Y-128706845D01*
X123023214Y-129421130D02*
X123213690Y-129421130D01*
X123308928Y-129373511D01*
X123356547Y-129325892D01*
X123451785Y-129183035D01*
X123499404Y-128992559D01*
X123499404Y-128611607D01*
X123451785Y-128516369D01*
X123404166Y-128468750D01*
X123308928Y-128421130D01*
X123118452Y-128421130D01*
X123023214Y-128468750D01*
X122975595Y-128516369D01*
X122927976Y-128611607D01*
X122927976Y-128849702D01*
X122975595Y-128944940D01*
X123023214Y-128992559D01*
X123118452Y-129040178D01*
X123308928Y-129040178D01*
X123404166Y-128992559D01*
X123451785Y-128944940D01*
X123499404Y-128849702D01*
%TO.C,D18*%
X121023214Y-110371130D02*
X121023214Y-109371130D01*
X121261309Y-109371130D01*
X121404166Y-109418750D01*
X121499404Y-109513988D01*
X121547023Y-109609226D01*
X121594642Y-109799702D01*
X121594642Y-109942559D01*
X121547023Y-110133035D01*
X121499404Y-110228273D01*
X121404166Y-110323511D01*
X121261309Y-110371130D01*
X121023214Y-110371130D01*
X122547023Y-110371130D02*
X121975595Y-110371130D01*
X122261309Y-110371130D02*
X122261309Y-109371130D01*
X122166071Y-109513988D01*
X122070833Y-109609226D01*
X121975595Y-109656845D01*
X123118452Y-109799702D02*
X123023214Y-109752083D01*
X122975595Y-109704464D01*
X122927976Y-109609226D01*
X122927976Y-109561607D01*
X122975595Y-109466369D01*
X123023214Y-109418750D01*
X123118452Y-109371130D01*
X123308928Y-109371130D01*
X123404166Y-109418750D01*
X123451785Y-109466369D01*
X123499404Y-109561607D01*
X123499404Y-109609226D01*
X123451785Y-109704464D01*
X123404166Y-109752083D01*
X123308928Y-109799702D01*
X123118452Y-109799702D01*
X123023214Y-109847321D01*
X122975595Y-109894940D01*
X122927976Y-109990178D01*
X122927976Y-110180654D01*
X122975595Y-110275892D01*
X123023214Y-110323511D01*
X123118452Y-110371130D01*
X123308928Y-110371130D01*
X123404166Y-110323511D01*
X123451785Y-110275892D01*
X123499404Y-110180654D01*
X123499404Y-109990178D01*
X123451785Y-109894940D01*
X123404166Y-109847321D01*
X123308928Y-109799702D01*
%TO.C,D17*%
X101973214Y-129421130D02*
X101973214Y-128421130D01*
X102211309Y-128421130D01*
X102354166Y-128468750D01*
X102449404Y-128563988D01*
X102497023Y-128659226D01*
X102544642Y-128849702D01*
X102544642Y-128992559D01*
X102497023Y-129183035D01*
X102449404Y-129278273D01*
X102354166Y-129373511D01*
X102211309Y-129421130D01*
X101973214Y-129421130D01*
X103497023Y-129421130D02*
X102925595Y-129421130D01*
X103211309Y-129421130D02*
X103211309Y-128421130D01*
X103116071Y-128563988D01*
X103020833Y-128659226D01*
X102925595Y-128706845D01*
X103830357Y-128421130D02*
X104497023Y-128421130D01*
X104068452Y-129421130D01*
%TO.C,D16*%
X101973214Y-110371130D02*
X101973214Y-109371130D01*
X102211309Y-109371130D01*
X102354166Y-109418750D01*
X102449404Y-109513988D01*
X102497023Y-109609226D01*
X102544642Y-109799702D01*
X102544642Y-109942559D01*
X102497023Y-110133035D01*
X102449404Y-110228273D01*
X102354166Y-110323511D01*
X102211309Y-110371130D01*
X101973214Y-110371130D01*
X103497023Y-110371130D02*
X102925595Y-110371130D01*
X103211309Y-110371130D02*
X103211309Y-109371130D01*
X103116071Y-109513988D01*
X103020833Y-109609226D01*
X102925595Y-109656845D01*
X104354166Y-109371130D02*
X104163690Y-109371130D01*
X104068452Y-109418750D01*
X104020833Y-109466369D01*
X103925595Y-109609226D01*
X103877976Y-109799702D01*
X103877976Y-110180654D01*
X103925595Y-110275892D01*
X103973214Y-110323511D01*
X104068452Y-110371130D01*
X104258928Y-110371130D01*
X104354166Y-110323511D01*
X104401785Y-110275892D01*
X104449404Y-110180654D01*
X104449404Y-109942559D01*
X104401785Y-109847321D01*
X104354166Y-109799702D01*
X104258928Y-109752083D01*
X104068452Y-109752083D01*
X103973214Y-109799702D01*
X103925595Y-109847321D01*
X103877976Y-109942559D01*
%TO.C,D15*%
X82923214Y-129421130D02*
X82923214Y-128421130D01*
X83161309Y-128421130D01*
X83304166Y-128468750D01*
X83399404Y-128563988D01*
X83447023Y-128659226D01*
X83494642Y-128849702D01*
X83494642Y-128992559D01*
X83447023Y-129183035D01*
X83399404Y-129278273D01*
X83304166Y-129373511D01*
X83161309Y-129421130D01*
X82923214Y-129421130D01*
X84447023Y-129421130D02*
X83875595Y-129421130D01*
X84161309Y-129421130D02*
X84161309Y-128421130D01*
X84066071Y-128563988D01*
X83970833Y-128659226D01*
X83875595Y-128706845D01*
X85351785Y-128421130D02*
X84875595Y-128421130D01*
X84827976Y-128897321D01*
X84875595Y-128849702D01*
X84970833Y-128802083D01*
X85208928Y-128802083D01*
X85304166Y-128849702D01*
X85351785Y-128897321D01*
X85399404Y-128992559D01*
X85399404Y-129230654D01*
X85351785Y-129325892D01*
X85304166Y-129373511D01*
X85208928Y-129421130D01*
X84970833Y-129421130D01*
X84875595Y-129373511D01*
X84827976Y-129325892D01*
%TO.C,D14*%
X82923214Y-110371130D02*
X82923214Y-109371130D01*
X83161309Y-109371130D01*
X83304166Y-109418750D01*
X83399404Y-109513988D01*
X83447023Y-109609226D01*
X83494642Y-109799702D01*
X83494642Y-109942559D01*
X83447023Y-110133035D01*
X83399404Y-110228273D01*
X83304166Y-110323511D01*
X83161309Y-110371130D01*
X82923214Y-110371130D01*
X84447023Y-110371130D02*
X83875595Y-110371130D01*
X84161309Y-110371130D02*
X84161309Y-109371130D01*
X84066071Y-109513988D01*
X83970833Y-109609226D01*
X83875595Y-109656845D01*
X85304166Y-109704464D02*
X85304166Y-110371130D01*
X85066071Y-109323511D02*
X84827976Y-110037797D01*
X85447023Y-110037797D01*
%TO.C,D13*%
X73398214Y-86558630D02*
X73398214Y-85558630D01*
X73636309Y-85558630D01*
X73779166Y-85606250D01*
X73874404Y-85701488D01*
X73922023Y-85796726D01*
X73969642Y-85987202D01*
X73969642Y-86130059D01*
X73922023Y-86320535D01*
X73874404Y-86415773D01*
X73779166Y-86511011D01*
X73636309Y-86558630D01*
X73398214Y-86558630D01*
X74922023Y-86558630D02*
X74350595Y-86558630D01*
X74636309Y-86558630D02*
X74636309Y-85558630D01*
X74541071Y-85701488D01*
X74445833Y-85796726D01*
X74350595Y-85844345D01*
X75255357Y-85558630D02*
X75874404Y-85558630D01*
X75541071Y-85939583D01*
X75683928Y-85939583D01*
X75779166Y-85987202D01*
X75826785Y-86034821D01*
X75874404Y-86130059D01*
X75874404Y-86368154D01*
X75826785Y-86463392D01*
X75779166Y-86511011D01*
X75683928Y-86558630D01*
X75398214Y-86558630D01*
X75302976Y-86511011D01*
X75255357Y-86463392D01*
%TO.C,D12*%
X73398214Y-67508630D02*
X73398214Y-66508630D01*
X73636309Y-66508630D01*
X73779166Y-66556250D01*
X73874404Y-66651488D01*
X73922023Y-66746726D01*
X73969642Y-66937202D01*
X73969642Y-67080059D01*
X73922023Y-67270535D01*
X73874404Y-67365773D01*
X73779166Y-67461011D01*
X73636309Y-67508630D01*
X73398214Y-67508630D01*
X74922023Y-67508630D02*
X74350595Y-67508630D01*
X74636309Y-67508630D02*
X74636309Y-66508630D01*
X74541071Y-66651488D01*
X74445833Y-66746726D01*
X74350595Y-66794345D01*
X75302976Y-66603869D02*
X75350595Y-66556250D01*
X75445833Y-66508630D01*
X75683928Y-66508630D01*
X75779166Y-66556250D01*
X75826785Y-66603869D01*
X75874404Y-66699107D01*
X75874404Y-66794345D01*
X75826785Y-66937202D01*
X75255357Y-67508630D01*
X75874404Y-67508630D01*
%TO.C,D11*%
X73398214Y-48458630D02*
X73398214Y-47458630D01*
X73636309Y-47458630D01*
X73779166Y-47506250D01*
X73874404Y-47601488D01*
X73922023Y-47696726D01*
X73969642Y-47887202D01*
X73969642Y-48030059D01*
X73922023Y-48220535D01*
X73874404Y-48315773D01*
X73779166Y-48411011D01*
X73636309Y-48458630D01*
X73398214Y-48458630D01*
X74922023Y-48458630D02*
X74350595Y-48458630D01*
X74636309Y-48458630D02*
X74636309Y-47458630D01*
X74541071Y-47601488D01*
X74445833Y-47696726D01*
X74350595Y-47744345D01*
X75874404Y-48458630D02*
X75302976Y-48458630D01*
X75588690Y-48458630D02*
X75588690Y-47458630D01*
X75493452Y-47601488D01*
X75398214Y-47696726D01*
X75302976Y-47744345D01*
%TO.C,D10*%
X61491964Y-129421130D02*
X61491964Y-128421130D01*
X61730059Y-128421130D01*
X61872916Y-128468750D01*
X61968154Y-128563988D01*
X62015773Y-128659226D01*
X62063392Y-128849702D01*
X62063392Y-128992559D01*
X62015773Y-129183035D01*
X61968154Y-129278273D01*
X61872916Y-129373511D01*
X61730059Y-129421130D01*
X61491964Y-129421130D01*
X63015773Y-129421130D02*
X62444345Y-129421130D01*
X62730059Y-129421130D02*
X62730059Y-128421130D01*
X62634821Y-128563988D01*
X62539583Y-128659226D01*
X62444345Y-128706845D01*
X63634821Y-128421130D02*
X63730059Y-128421130D01*
X63825297Y-128468750D01*
X63872916Y-128516369D01*
X63920535Y-128611607D01*
X63968154Y-128802083D01*
X63968154Y-129040178D01*
X63920535Y-129230654D01*
X63872916Y-129325892D01*
X63825297Y-129373511D01*
X63730059Y-129421130D01*
X63634821Y-129421130D01*
X63539583Y-129373511D01*
X63491964Y-129325892D01*
X63444345Y-129230654D01*
X63396726Y-129040178D01*
X63396726Y-128802083D01*
X63444345Y-128611607D01*
X63491964Y-128516369D01*
X63539583Y-128468750D01*
X63634821Y-128421130D01*
%TO.C,D9*%
X64349404Y-110371130D02*
X64349404Y-109371130D01*
X64587500Y-109371130D01*
X64730357Y-109418750D01*
X64825595Y-109513988D01*
X64873214Y-109609226D01*
X64920833Y-109799702D01*
X64920833Y-109942559D01*
X64873214Y-110133035D01*
X64825595Y-110228273D01*
X64730357Y-110323511D01*
X64587500Y-110371130D01*
X64349404Y-110371130D01*
X65397023Y-110371130D02*
X65587500Y-110371130D01*
X65682738Y-110323511D01*
X65730357Y-110275892D01*
X65825595Y-110133035D01*
X65873214Y-109942559D01*
X65873214Y-109561607D01*
X65825595Y-109466369D01*
X65777976Y-109418750D01*
X65682738Y-109371130D01*
X65492261Y-109371130D01*
X65397023Y-109418750D01*
X65349404Y-109466369D01*
X65301785Y-109561607D01*
X65301785Y-109799702D01*
X65349404Y-109894940D01*
X65397023Y-109942559D01*
X65492261Y-109990178D01*
X65682738Y-109990178D01*
X65777976Y-109942559D01*
X65825595Y-109894940D01*
X65873214Y-109799702D01*
%TO.C,D8*%
X54824404Y-86558630D02*
X54824404Y-85558630D01*
X55062500Y-85558630D01*
X55205357Y-85606250D01*
X55300595Y-85701488D01*
X55348214Y-85796726D01*
X55395833Y-85987202D01*
X55395833Y-86130059D01*
X55348214Y-86320535D01*
X55300595Y-86415773D01*
X55205357Y-86511011D01*
X55062500Y-86558630D01*
X54824404Y-86558630D01*
X55967261Y-85987202D02*
X55872023Y-85939583D01*
X55824404Y-85891964D01*
X55776785Y-85796726D01*
X55776785Y-85749107D01*
X55824404Y-85653869D01*
X55872023Y-85606250D01*
X55967261Y-85558630D01*
X56157738Y-85558630D01*
X56252976Y-85606250D01*
X56300595Y-85653869D01*
X56348214Y-85749107D01*
X56348214Y-85796726D01*
X56300595Y-85891964D01*
X56252976Y-85939583D01*
X56157738Y-85987202D01*
X55967261Y-85987202D01*
X55872023Y-86034821D01*
X55824404Y-86082440D01*
X55776785Y-86177678D01*
X55776785Y-86368154D01*
X55824404Y-86463392D01*
X55872023Y-86511011D01*
X55967261Y-86558630D01*
X56157738Y-86558630D01*
X56252976Y-86511011D01*
X56300595Y-86463392D01*
X56348214Y-86368154D01*
X56348214Y-86177678D01*
X56300595Y-86082440D01*
X56252976Y-86034821D01*
X56157738Y-85987202D01*
%TO.C,D7*%
X54824404Y-67508630D02*
X54824404Y-66508630D01*
X55062500Y-66508630D01*
X55205357Y-66556250D01*
X55300595Y-66651488D01*
X55348214Y-66746726D01*
X55395833Y-66937202D01*
X55395833Y-67080059D01*
X55348214Y-67270535D01*
X55300595Y-67365773D01*
X55205357Y-67461011D01*
X55062500Y-67508630D01*
X54824404Y-67508630D01*
X55729166Y-66508630D02*
X56395833Y-66508630D01*
X55967261Y-67508630D01*
%TO.C,D6*%
X54824404Y-48458630D02*
X54824404Y-47458630D01*
X55062500Y-47458630D01*
X55205357Y-47506250D01*
X55300595Y-47601488D01*
X55348214Y-47696726D01*
X55395833Y-47887202D01*
X55395833Y-48030059D01*
X55348214Y-48220535D01*
X55300595Y-48315773D01*
X55205357Y-48411011D01*
X55062500Y-48458630D01*
X54824404Y-48458630D01*
X56252976Y-47458630D02*
X56062500Y-47458630D01*
X55967261Y-47506250D01*
X55919642Y-47553869D01*
X55824404Y-47696726D01*
X55776785Y-47887202D01*
X55776785Y-48268154D01*
X55824404Y-48363392D01*
X55872023Y-48411011D01*
X55967261Y-48458630D01*
X56157738Y-48458630D01*
X56252976Y-48411011D01*
X56300595Y-48363392D01*
X56348214Y-48268154D01*
X56348214Y-48030059D01*
X56300595Y-47934821D01*
X56252976Y-47887202D01*
X56157738Y-47839583D01*
X55967261Y-47839583D01*
X55872023Y-47887202D01*
X55824404Y-47934821D01*
X55776785Y-48030059D01*
%TO.C,D5*%
X38155654Y-129421130D02*
X38155654Y-128421130D01*
X38393750Y-128421130D01*
X38536607Y-128468750D01*
X38631845Y-128563988D01*
X38679464Y-128659226D01*
X38727083Y-128849702D01*
X38727083Y-128992559D01*
X38679464Y-129183035D01*
X38631845Y-129278273D01*
X38536607Y-129373511D01*
X38393750Y-129421130D01*
X38155654Y-129421130D01*
X39631845Y-128421130D02*
X39155654Y-128421130D01*
X39108035Y-128897321D01*
X39155654Y-128849702D01*
X39250892Y-128802083D01*
X39488988Y-128802083D01*
X39584226Y-128849702D01*
X39631845Y-128897321D01*
X39679464Y-128992559D01*
X39679464Y-129230654D01*
X39631845Y-129325892D01*
X39584226Y-129373511D01*
X39488988Y-129421130D01*
X39250892Y-129421130D01*
X39155654Y-129373511D01*
X39108035Y-129325892D01*
%TO.C,D4*%
X40536904Y-110371130D02*
X40536904Y-109371130D01*
X40775000Y-109371130D01*
X40917857Y-109418750D01*
X41013095Y-109513988D01*
X41060714Y-109609226D01*
X41108333Y-109799702D01*
X41108333Y-109942559D01*
X41060714Y-110133035D01*
X41013095Y-110228273D01*
X40917857Y-110323511D01*
X40775000Y-110371130D01*
X40536904Y-110371130D01*
X41965476Y-109704464D02*
X41965476Y-110371130D01*
X41727380Y-109323511D02*
X41489285Y-110037797D01*
X42108333Y-110037797D01*
%TO.C,D3*%
X35774404Y-86558630D02*
X35774404Y-85558630D01*
X36012500Y-85558630D01*
X36155357Y-85606250D01*
X36250595Y-85701488D01*
X36298214Y-85796726D01*
X36345833Y-85987202D01*
X36345833Y-86130059D01*
X36298214Y-86320535D01*
X36250595Y-86415773D01*
X36155357Y-86511011D01*
X36012500Y-86558630D01*
X35774404Y-86558630D01*
X36679166Y-85558630D02*
X37298214Y-85558630D01*
X36964880Y-85939583D01*
X37107738Y-85939583D01*
X37202976Y-85987202D01*
X37250595Y-86034821D01*
X37298214Y-86130059D01*
X37298214Y-86368154D01*
X37250595Y-86463392D01*
X37202976Y-86511011D01*
X37107738Y-86558630D01*
X36822023Y-86558630D01*
X36726785Y-86511011D01*
X36679166Y-86463392D01*
%TO.C,D2*%
X35774404Y-67508630D02*
X35774404Y-66508630D01*
X36012500Y-66508630D01*
X36155357Y-66556250D01*
X36250595Y-66651488D01*
X36298214Y-66746726D01*
X36345833Y-66937202D01*
X36345833Y-67080059D01*
X36298214Y-67270535D01*
X36250595Y-67365773D01*
X36155357Y-67461011D01*
X36012500Y-67508630D01*
X35774404Y-67508630D01*
X36726785Y-66603869D02*
X36774404Y-66556250D01*
X36869642Y-66508630D01*
X37107738Y-66508630D01*
X37202976Y-66556250D01*
X37250595Y-66603869D01*
X37298214Y-66699107D01*
X37298214Y-66794345D01*
X37250595Y-66937202D01*
X36679166Y-67508630D01*
X37298214Y-67508630D01*
%TO.C,D1*%
X35774404Y-48458630D02*
X35774404Y-47458630D01*
X36012500Y-47458630D01*
X36155357Y-47506250D01*
X36250595Y-47601488D01*
X36298214Y-47696726D01*
X36345833Y-47887202D01*
X36345833Y-48030059D01*
X36298214Y-48220535D01*
X36250595Y-48315773D01*
X36155357Y-48411011D01*
X36012500Y-48458630D01*
X35774404Y-48458630D01*
X37298214Y-48458630D02*
X36726785Y-48458630D01*
X37012500Y-48458630D02*
X37012500Y-47458630D01*
X36917261Y-47601488D01*
X36822023Y-47696726D01*
X36726785Y-47744345D01*
%TO.C,C7*%
X137945833Y-43127142D02*
X137898214Y-43174761D01*
X137755357Y-43222380D01*
X137660119Y-43222380D01*
X137517261Y-43174761D01*
X137422023Y-43079523D01*
X137374404Y-42984285D01*
X137326785Y-42793809D01*
X137326785Y-42650952D01*
X137374404Y-42460476D01*
X137422023Y-42365238D01*
X137517261Y-42270000D01*
X137660119Y-42222380D01*
X137755357Y-42222380D01*
X137898214Y-42270000D01*
X137945833Y-42317619D01*
X138279166Y-42222380D02*
X138945833Y-42222380D01*
X138517261Y-43222380D01*
%TO.C,C8*%
X143343333Y-60907142D02*
X143295714Y-60954761D01*
X143152857Y-61002380D01*
X143057619Y-61002380D01*
X142914761Y-60954761D01*
X142819523Y-60859523D01*
X142771904Y-60764285D01*
X142724285Y-60573809D01*
X142724285Y-60430952D01*
X142771904Y-60240476D01*
X142819523Y-60145238D01*
X142914761Y-60050000D01*
X143057619Y-60002380D01*
X143152857Y-60002380D01*
X143295714Y-60050000D01*
X143343333Y-60097619D01*
X143914761Y-60430952D02*
X143819523Y-60383333D01*
X143771904Y-60335714D01*
X143724285Y-60240476D01*
X143724285Y-60192857D01*
X143771904Y-60097619D01*
X143819523Y-60050000D01*
X143914761Y-60002380D01*
X144105238Y-60002380D01*
X144200476Y-60050000D01*
X144248095Y-60097619D01*
X144295714Y-60192857D01*
X144295714Y-60240476D01*
X144248095Y-60335714D01*
X144200476Y-60383333D01*
X144105238Y-60430952D01*
X143914761Y-60430952D01*
X143819523Y-60478571D01*
X143771904Y-60526190D01*
X143724285Y-60621428D01*
X143724285Y-60811904D01*
X143771904Y-60907142D01*
X143819523Y-60954761D01*
X143914761Y-61002380D01*
X144105238Y-61002380D01*
X144200476Y-60954761D01*
X144248095Y-60907142D01*
X144295714Y-60811904D01*
X144295714Y-60621428D01*
X144248095Y-60526190D01*
X144200476Y-60478571D01*
X144105238Y-60430952D01*
%TO.C,C2*%
X147314583Y-74083392D02*
X147266964Y-74131011D01*
X147124107Y-74178630D01*
X147028869Y-74178630D01*
X146886011Y-74131011D01*
X146790773Y-74035773D01*
X146743154Y-73940535D01*
X146695535Y-73750059D01*
X146695535Y-73607202D01*
X146743154Y-73416726D01*
X146790773Y-73321488D01*
X146886011Y-73226250D01*
X147028869Y-73178630D01*
X147124107Y-73178630D01*
X147266964Y-73226250D01*
X147314583Y-73273869D01*
X147695535Y-73273869D02*
X147743154Y-73226250D01*
X147838392Y-73178630D01*
X148076488Y-73178630D01*
X148171726Y-73226250D01*
X148219345Y-73273869D01*
X148266964Y-73369107D01*
X148266964Y-73464345D01*
X148219345Y-73607202D01*
X147647916Y-74178630D01*
X148266964Y-74178630D01*
%TO.C,C1*%
X160327083Y-74083392D02*
X160279464Y-74131011D01*
X160136607Y-74178630D01*
X160041369Y-74178630D01*
X159898511Y-74131011D01*
X159803273Y-74035773D01*
X159755654Y-73940535D01*
X159708035Y-73750059D01*
X159708035Y-73607202D01*
X159755654Y-73416726D01*
X159803273Y-73321488D01*
X159898511Y-73226250D01*
X160041369Y-73178630D01*
X160136607Y-73178630D01*
X160279464Y-73226250D01*
X160327083Y-73273869D01*
X161279464Y-74178630D02*
X160708035Y-74178630D01*
X160993750Y-74178630D02*
X160993750Y-73178630D01*
X160898511Y-73321488D01*
X160803273Y-73416726D01*
X160708035Y-73464345D01*
D12*
%TO.C,Brd1*%
X228568250Y-51308000D02*
X228314250Y-51320000D01*
X228568250Y-67945000D02*
X228568250Y-51308000D01*
X225228250Y-67920000D02*
X228568250Y-67945000D01*
X225228250Y-51320000D02*
X228314250Y-51320000D01*
X210407250Y-48514000D02*
X210407250Y-50927000D01*
X220186250Y-50927000D02*
X210407250Y-50927000D01*
X220186250Y-48514000D02*
X220186250Y-50927000D01*
X210407250Y-48514000D02*
X220186250Y-48514000D01*
X202128250Y-51320000D02*
X225228250Y-51320000D01*
X202128250Y-67920000D02*
X202128250Y-51320000D01*
X225228250Y-67920000D02*
X202128250Y-67920000D01*
X201706250Y-75325000D02*
X201706250Y-48025000D01*
X229106250Y-75325000D02*
X201706250Y-75325000D01*
X229106250Y-48025000D02*
X229106250Y-75325000D01*
X201706250Y-48025000D02*
X229106250Y-48025000D01*
%TO.C,C3*%
X150822252Y-46890000D02*
X150299748Y-46890000D01*
X150822252Y-48360000D02*
X150299748Y-48360000D01*
%TO.C,J1*%
X98437500Y-42676250D02*
X98437500Y-35416250D01*
X107937500Y-42676250D02*
X107937500Y-35416250D01*
X99937500Y-42676250D02*
X98437500Y-42676250D01*
X107937500Y-42676250D02*
X106437500Y-42676250D01*
%TO.C,C6*%
X154519998Y-48360000D02*
X155042502Y-48360000D01*
X154519998Y-46890000D02*
X155042502Y-46890000D01*
%TO.C,C5*%
X167742502Y-69908750D02*
X167219998Y-69908750D01*
X167742502Y-71378750D02*
X167219998Y-71378750D01*
%TO.C,C4*%
X143610000Y-57411252D02*
X143610000Y-56888748D01*
X142140000Y-57411252D02*
X142140000Y-56888748D01*
%TO.C,Y1*%
X156602000Y-77176000D02*
X156602000Y-73876000D01*
X156602000Y-73876000D02*
X152602000Y-73876000D01*
D10*
%TO.C,U1*%
X162750000Y-53150000D02*
X162750000Y-53825000D01*
X148400000Y-67500000D02*
X148400000Y-66825000D01*
X148400000Y-67500000D02*
X149075000Y-67500000D01*
X162750000Y-67500000D02*
X162075000Y-67500000D01*
X162750000Y-67500000D02*
X162750000Y-66825000D01*
X148400000Y-53150000D02*
X148400000Y-53725000D01*
X148400000Y-53725000D02*
X147125000Y-53725000D01*
X148400000Y-53150000D02*
X149075000Y-53150000D01*
X162750000Y-53150000D02*
X162075000Y-53150000D01*
%TO.C,SW32*%
X104187500Y-79375000D02*
G75*
G03*
X104187500Y-79375000I-1000000J0D01*
G01*
X100587500Y-76775000D02*
X105787500Y-76775000D01*
X100587500Y-81975000D02*
X100587500Y-76775000D01*
X105787500Y-81975000D02*
X100587500Y-81975000D01*
X105787500Y-76775000D02*
X105787500Y-81975000D01*
D12*
%TO.C,SW31*%
X175556250Y-43525000D02*
X176156250Y-43525000D01*
X175856250Y-43825000D02*
X175556250Y-43525000D01*
X176156250Y-43525000D02*
X175856250Y-43825000D01*
X182856250Y-47625000D02*
X183856250Y-47625000D01*
X181356250Y-53525000D02*
X177256250Y-53525000D01*
X183356250Y-47125000D02*
X183356250Y-48125000D01*
X189456250Y-46325000D02*
X189456250Y-48925000D01*
X189456250Y-41725000D02*
X189456250Y-44125000D01*
X189456250Y-51125000D02*
X189456250Y-53525000D01*
X177256250Y-41725000D02*
X177256250Y-53525000D01*
X181356250Y-41725000D02*
X177256250Y-41725000D01*
X189456250Y-53525000D02*
X185356250Y-53525000D01*
X185356250Y-41725000D02*
X189456250Y-41725000D01*
X186356250Y-47625000D02*
G75*
G03*
X186356250Y-47625000I-3000000J0D01*
G01*
%TO.C,SW30*%
X175556250Y-68131250D02*
X176156250Y-68131250D01*
X175856250Y-68431250D02*
X175556250Y-68131250D01*
X176156250Y-68131250D02*
X175856250Y-68431250D01*
X182856250Y-72231250D02*
X183856250Y-72231250D01*
X181356250Y-78131250D02*
X177256250Y-78131250D01*
X183356250Y-71731250D02*
X183356250Y-72731250D01*
X189456250Y-70931250D02*
X189456250Y-73531250D01*
X189456250Y-66331250D02*
X189456250Y-68731250D01*
X189456250Y-75731250D02*
X189456250Y-78131250D01*
X177256250Y-66331250D02*
X177256250Y-78131250D01*
X181356250Y-66331250D02*
X177256250Y-66331250D01*
X189456250Y-78131250D02*
X185356250Y-78131250D01*
X185356250Y-66331250D02*
X189456250Y-66331250D01*
X186356250Y-72231250D02*
G75*
G03*
X186356250Y-72231250I-3000000J0D01*
G01*
D13*
%TO.C,S1*%
X136450500Y-62065000D02*
X136450500Y-62065000D01*
X136649500Y-62065000D02*
X136649500Y-62065000D01*
D14*
X135549500Y-53750000D02*
X135549500Y-67065000D01*
X117350500Y-57065000D02*
X117350500Y-66900000D01*
X117350500Y-66900000D02*
X130450500Y-66900000D01*
D13*
X136450500Y-62065000D02*
G75*
G03*
X136649500Y-62065000I99500J0D01*
G01*
X136649500Y-62065000D02*
G75*
G03*
X136450500Y-62065000I-99500J0D01*
G01*
D12*
%TO.C,R6*%
X147801064Y-73506000D02*
X147346936Y-73506000D01*
X147801064Y-72036000D02*
X147346936Y-72036000D01*
%TO.C,R5*%
X166746250Y-59877064D02*
X166746250Y-59422936D01*
X168216250Y-59877064D02*
X168216250Y-59422936D01*
%TO.C,R4*%
X108685000Y-48191686D02*
X108685000Y-48645814D01*
X107215000Y-48191686D02*
X107215000Y-48645814D01*
%TO.C,R3*%
X103922500Y-48191686D02*
X103922500Y-48645814D01*
X102452500Y-48191686D02*
X102452500Y-48645814D01*
%TO.C,R2*%
X124391686Y-42921250D02*
X124845814Y-42921250D01*
X124391686Y-44391250D02*
X124845814Y-44391250D01*
%TO.C,R1*%
X124391686Y-39746250D02*
X124845814Y-39746250D01*
X124391686Y-41216250D02*
X124845814Y-41216250D01*
%TO.C,D29*%
X215175000Y-129968750D02*
X219075000Y-129968750D01*
X215175000Y-129968750D02*
X215175000Y-131968750D01*
X215175000Y-131968750D02*
X219075000Y-131968750D01*
%TO.C,D28*%
X215237500Y-110918750D02*
X219137500Y-110918750D01*
X215237500Y-110918750D02*
X215237500Y-112918750D01*
X215237500Y-112918750D02*
X219137500Y-112918750D01*
%TO.C,D27*%
X196187500Y-129968750D02*
X200087500Y-129968750D01*
X196187500Y-129968750D02*
X196187500Y-131968750D01*
X196187500Y-131968750D02*
X200087500Y-131968750D01*
%TO.C,D26*%
X196187500Y-110918750D02*
X200087500Y-110918750D01*
X196187500Y-110918750D02*
X196187500Y-112918750D01*
X196187500Y-112918750D02*
X200087500Y-112918750D01*
%TO.C,D25*%
X177137500Y-129968750D02*
X181037500Y-129968750D01*
X177137500Y-129968750D02*
X177137500Y-131968750D01*
X177137500Y-131968750D02*
X181037500Y-131968750D01*
%TO.C,D24*%
X177137500Y-110918750D02*
X181037500Y-110918750D01*
X177137500Y-110918750D02*
X177137500Y-112918750D01*
X177137500Y-112918750D02*
X181037500Y-112918750D01*
%TO.C,D23*%
X158087500Y-129968750D02*
X161987500Y-129968750D01*
X158087500Y-129968750D02*
X158087500Y-131968750D01*
X158087500Y-131968750D02*
X161987500Y-131968750D01*
%TO.C,D22*%
X158087500Y-110918750D02*
X161987500Y-110918750D01*
X158087500Y-110918750D02*
X158087500Y-112918750D01*
X158087500Y-112918750D02*
X161987500Y-112918750D01*
%TO.C,D21*%
X139037500Y-129968750D02*
X142937500Y-129968750D01*
X139037500Y-129968750D02*
X139037500Y-131968750D01*
X139037500Y-131968750D02*
X142937500Y-131968750D01*
%TO.C,D20*%
X139037500Y-110918750D02*
X142937500Y-110918750D01*
X139037500Y-110918750D02*
X139037500Y-112918750D01*
X139037500Y-112918750D02*
X142937500Y-112918750D01*
%TO.C,D19*%
X119987500Y-129968750D02*
X123887500Y-129968750D01*
X119987500Y-129968750D02*
X119987500Y-131968750D01*
X119987500Y-131968750D02*
X123887500Y-131968750D01*
%TO.C,D18*%
X119987500Y-110918750D02*
X123887500Y-110918750D01*
X119987500Y-110918750D02*
X119987500Y-112918750D01*
X119987500Y-112918750D02*
X123887500Y-112918750D01*
%TO.C,D17*%
X100937500Y-129968750D02*
X104837500Y-129968750D01*
X100937500Y-129968750D02*
X100937500Y-131968750D01*
X100937500Y-131968750D02*
X104837500Y-131968750D01*
%TO.C,D16*%
X100937500Y-110918750D02*
X104837500Y-110918750D01*
X100937500Y-110918750D02*
X100937500Y-112918750D01*
X100937500Y-112918750D02*
X104837500Y-112918750D01*
%TO.C,D15*%
X81887500Y-129968750D02*
X85787500Y-129968750D01*
X81887500Y-129968750D02*
X81887500Y-131968750D01*
X81887500Y-131968750D02*
X85787500Y-131968750D01*
%TO.C,D14*%
X81887500Y-110918750D02*
X85787500Y-110918750D01*
X81887500Y-110918750D02*
X81887500Y-112918750D01*
X81887500Y-112918750D02*
X85787500Y-112918750D01*
%TO.C,D13*%
X72362500Y-87106250D02*
X76262500Y-87106250D01*
X72362500Y-87106250D02*
X72362500Y-89106250D01*
X72362500Y-89106250D02*
X76262500Y-89106250D01*
%TO.C,D12*%
X72362500Y-68056250D02*
X76262500Y-68056250D01*
X72362500Y-68056250D02*
X72362500Y-70056250D01*
X72362500Y-70056250D02*
X76262500Y-70056250D01*
%TO.C,D11*%
X72362500Y-51006250D02*
X76262500Y-51006250D01*
X72362500Y-49006250D02*
X72362500Y-51006250D01*
X72362500Y-49006250D02*
X76262500Y-49006250D01*
%TO.C,D10*%
X60456250Y-129968750D02*
X64356250Y-129968750D01*
X60456250Y-129968750D02*
X60456250Y-131968750D01*
X60456250Y-131968750D02*
X64356250Y-131968750D01*
%TO.C,D9*%
X62837500Y-110918750D02*
X66737500Y-110918750D01*
X62837500Y-110918750D02*
X62837500Y-112918750D01*
X62837500Y-112918750D02*
X66737500Y-112918750D01*
%TO.C,D8*%
X53312500Y-87106250D02*
X57212500Y-87106250D01*
X53312500Y-87106250D02*
X53312500Y-89106250D01*
X53312500Y-89106250D02*
X57212500Y-89106250D01*
%TO.C,D7*%
X53312500Y-68056250D02*
X57212500Y-68056250D01*
X53312500Y-68056250D02*
X53312500Y-70056250D01*
X53312500Y-70056250D02*
X57212500Y-70056250D01*
%TO.C,D6*%
X53312500Y-49006250D02*
X57212500Y-49006250D01*
X53312500Y-49006250D02*
X53312500Y-51006250D01*
X53312500Y-51006250D02*
X57212500Y-51006250D01*
%TO.C,D5*%
X36643750Y-129968750D02*
X40543750Y-129968750D01*
X36643750Y-129968750D02*
X36643750Y-131968750D01*
X36643750Y-131968750D02*
X40543750Y-131968750D01*
%TO.C,D4*%
X39025000Y-110918750D02*
X42925000Y-110918750D01*
X39025000Y-110918750D02*
X39025000Y-112918750D01*
X39025000Y-112918750D02*
X42925000Y-112918750D01*
%TO.C,D3*%
X34262500Y-87106250D02*
X38162500Y-87106250D01*
X34262500Y-87106250D02*
X34262500Y-89106250D01*
X34262500Y-89106250D02*
X38162500Y-89106250D01*
%TO.C,D2*%
X34262500Y-68056250D02*
X38162500Y-68056250D01*
X34262500Y-68056250D02*
X34262500Y-70056250D01*
X34262500Y-70056250D02*
X38162500Y-70056250D01*
%TO.C,D1*%
X34262500Y-51006250D02*
X38162500Y-51006250D01*
X34262500Y-49006250D02*
X34262500Y-51006250D01*
X34262500Y-49006250D02*
X38162500Y-49006250D01*
%TO.C,C7*%
X137851248Y-43715000D02*
X138373752Y-43715000D01*
X137851248Y-45185000D02*
X138373752Y-45185000D01*
%TO.C,C8*%
X143248748Y-62965000D02*
X143771252Y-62965000D01*
X143248748Y-61495000D02*
X143771252Y-61495000D01*
%TO.C,C2*%
X147219998Y-76141250D02*
X147742502Y-76141250D01*
X147219998Y-74671250D02*
X147742502Y-74671250D01*
%TO.C,C1*%
X160232498Y-76141250D02*
X160755002Y-76141250D01*
X160232498Y-74671250D02*
X160755002Y-74671250D01*
%TD*%
M02*
