%TF.GenerationSoftware,KiCad,Pcbnew,(6.0.5)*%
%TF.CreationDate,2022-05-16T19:41:58-07:00*%
%TF.ProjectId,3HMouse,33484d6f-7573-4652-9e6b-696361645f70,rev?*%
%TF.SameCoordinates,Original*%
%TF.FileFunction,Soldermask,Top*%
%TF.FilePolarity,Negative*%
%FSLAX46Y46*%
G04 Gerber Fmt 4.6, Leading zero omitted, Abs format (unit mm)*
G04 Created by KiCad (PCBNEW (6.0.5)) date 2022-05-16 19:41:58*
%MOMM*%
%LPD*%
G01*
G04 APERTURE LIST*
G04 Aperture macros list*
%AMRoundRect*
0 Rectangle with rounded corners*
0 $1 Rounding radius*
0 $2 $3 $4 $5 $6 $7 $8 $9 X,Y pos of 4 corners*
0 Add a 4 corners polygon primitive as box body*
4,1,4,$2,$3,$4,$5,$6,$7,$8,$9,$2,$3,0*
0 Add four circle primitives for the rounded corners*
1,1,$1+$1,$2,$3*
1,1,$1+$1,$4,$5*
1,1,$1+$1,$6,$7*
1,1,$1+$1,$8,$9*
0 Add four rect primitives between the rounded corners*
20,1,$1+$1,$2,$3,$4,$5,0*
20,1,$1+$1,$4,$5,$6,$7,0*
20,1,$1+$1,$6,$7,$8,$9,0*
20,1,$1+$1,$8,$9,$2,$3,0*%
G04 Aperture macros list end*
%ADD10RoundRect,0.250000X-0.250000X-0.475000X0.250000X-0.475000X0.250000X0.475000X-0.250000X0.475000X0*%
%ADD11RoundRect,0.250000X0.475000X-0.250000X0.475000X0.250000X-0.475000X0.250000X-0.475000X-0.250000X0*%
%ADD12C,3.987800*%
%ADD13C,1.750000*%
%ADD14R,0.900000X1.200000*%
%ADD15RoundRect,0.250000X0.250000X0.475000X-0.250000X0.475000X-0.250000X-0.475000X0.250000X-0.475000X0*%
%ADD16O,3.200000X2.000000*%
%ADD17R,2.000000X2.000000*%
%ADD18C,2.000000*%
%ADD19RoundRect,0.250000X-0.262500X-0.450000X0.262500X-0.450000X0.262500X0.450000X-0.262500X0.450000X0*%
%ADD20R,1.500000X0.550000*%
%ADD21R,0.550000X1.500000*%
%ADD22RoundRect,0.250000X-0.375000X-0.625000X0.375000X-0.625000X0.375000X0.625000X-0.375000X0.625000X0*%
%ADD23O,0.900000X1.700000*%
%ADD24O,0.900000X2.400000*%
%ADD25C,0.700000*%
%ADD26R,1.800000X1.100000*%
%ADD27C,1.950000*%
%ADD28C,1.650000*%
%ADD29C,2.400000*%
%ADD30C,2.475000*%
%ADD31RoundRect,0.250000X-0.475000X0.250000X-0.475000X-0.250000X0.475000X-0.250000X0.475000X0.250000X0*%
%ADD32R,1.400000X1.200000*%
%ADD33RoundRect,0.250000X0.262500X0.450000X-0.262500X0.450000X-0.262500X-0.450000X0.262500X-0.450000X0*%
%ADD34RoundRect,0.150000X-0.512500X-0.150000X0.512500X-0.150000X0.512500X0.150000X-0.512500X0.150000X0*%
%ADD35R,0.600000X0.450000*%
%ADD36O,1.600000X2.000000*%
G04 APERTURE END LIST*
D10*
%TO.C,C8*%
X138623000Y-55626000D03*
X140523000Y-55626000D03*
%TD*%
D11*
%TO.C,C6*%
X149606000Y-50226000D03*
X149606000Y-48326000D03*
%TD*%
D12*
%TO.C,SW10*%
X67468750Y-122237500D03*
D13*
X62388750Y-122237500D03*
X72548750Y-122237500D03*
%TD*%
D12*
%TO.C,SW28*%
X222250000Y-103187500D03*
D13*
X217170000Y-103187500D03*
X227330000Y-103187500D03*
%TD*%
D12*
%TO.C,SW3*%
X41275000Y-79375000D03*
D13*
X36195000Y-79375000D03*
X46355000Y-79375000D03*
%TD*%
%TO.C,SW17*%
X113030000Y-122237500D03*
X102870000Y-122237500D03*
D12*
X107950000Y-122237500D03*
%TD*%
D13*
%TO.C,SW5*%
X48736250Y-122237500D03*
D12*
X43656250Y-122237500D03*
D13*
X38576250Y-122237500D03*
%TD*%
D12*
%TO.C,SW12*%
X79375000Y-60325000D03*
D13*
X74295000Y-60325000D03*
X84455000Y-60325000D03*
%TD*%
D14*
%TO.C,D16*%
X99950000Y-111918750D03*
X103250000Y-111918750D03*
%TD*%
D13*
%TO.C,SW26*%
X198120000Y-103187500D03*
D12*
X203200000Y-103187500D03*
D13*
X208280000Y-103187500D03*
%TD*%
D15*
%TO.C,C4*%
X144587000Y-55626000D03*
X142687000Y-55626000D03*
%TD*%
D13*
%TO.C,SW9*%
X64770000Y-103187500D03*
D12*
X69850000Y-103187500D03*
D13*
X74930000Y-103187500D03*
%TD*%
D14*
%TO.C,D21*%
X138050000Y-130968750D03*
X141350000Y-130968750D03*
%TD*%
D12*
%TO.C,SW16*%
X107950000Y-103187500D03*
D13*
X102870000Y-103187500D03*
X113030000Y-103187500D03*
%TD*%
%TO.C,SW4*%
X51117500Y-103187500D03*
X40957500Y-103187500D03*
D12*
X46037500Y-103187500D03*
%TD*%
D14*
%TO.C,D6*%
X52325000Y-50006250D03*
X55625000Y-50006250D03*
%TD*%
%TO.C,D19*%
X119000000Y-130968750D03*
X122300000Y-130968750D03*
%TD*%
D15*
%TO.C,C5*%
X148397000Y-78740000D03*
X146497000Y-78740000D03*
%TD*%
D14*
%TO.C,D5*%
X35656250Y-130968750D03*
X38956250Y-130968750D03*
%TD*%
D15*
%TO.C,C3*%
X140396000Y-60452000D03*
X138496000Y-60452000D03*
%TD*%
D14*
%TO.C,D10*%
X59468750Y-130968750D03*
X62768750Y-130968750D03*
%TD*%
D16*
%TO.C,SW31*%
X183356250Y-42025000D03*
X183356250Y-53225000D03*
D17*
X175856250Y-45125000D03*
D18*
X175856250Y-50125000D03*
X175856250Y-47625000D03*
X190356250Y-50125000D03*
X190356250Y-45125000D03*
%TD*%
D14*
%TO.C,D22*%
X157100000Y-111918750D03*
X160400000Y-111918750D03*
%TD*%
D19*
%TO.C,R2*%
X123706250Y-43656250D03*
X125531250Y-43656250D03*
%TD*%
D20*
%TO.C,U1*%
X147875000Y-54325000D03*
X147875000Y-55125000D03*
X147875000Y-55925000D03*
X147875000Y-56725000D03*
X147875000Y-57525000D03*
X147875000Y-58325000D03*
X147875000Y-59125000D03*
X147875000Y-59925000D03*
X147875000Y-60725000D03*
X147875000Y-61525000D03*
X147875000Y-62325000D03*
X147875000Y-63125000D03*
X147875000Y-63925000D03*
X147875000Y-64725000D03*
X147875000Y-65525000D03*
X147875000Y-66325000D03*
D21*
X149575000Y-68025000D03*
X150375000Y-68025000D03*
X151175000Y-68025000D03*
X151975000Y-68025000D03*
X152775000Y-68025000D03*
X153575000Y-68025000D03*
X154375000Y-68025000D03*
X155175000Y-68025000D03*
X155975000Y-68025000D03*
X156775000Y-68025000D03*
X157575000Y-68025000D03*
X158375000Y-68025000D03*
X159175000Y-68025000D03*
X159975000Y-68025000D03*
X160775000Y-68025000D03*
X161575000Y-68025000D03*
D20*
X163275000Y-66325000D03*
X163275000Y-65525000D03*
X163275000Y-64725000D03*
X163275000Y-63925000D03*
X163275000Y-63125000D03*
X163275000Y-62325000D03*
X163275000Y-61525000D03*
X163275000Y-60725000D03*
X163275000Y-59925000D03*
X163275000Y-59125000D03*
X163275000Y-58325000D03*
X163275000Y-57525000D03*
X163275000Y-56725000D03*
X163275000Y-55925000D03*
X163275000Y-55125000D03*
X163275000Y-54325000D03*
D21*
X161575000Y-52625000D03*
X160775000Y-52625000D03*
X159975000Y-52625000D03*
X159175000Y-52625000D03*
X158375000Y-52625000D03*
X157575000Y-52625000D03*
X156775000Y-52625000D03*
X155975000Y-52625000D03*
X155175000Y-52625000D03*
X154375000Y-52625000D03*
X153575000Y-52625000D03*
X152775000Y-52625000D03*
X151975000Y-52625000D03*
X151175000Y-52625000D03*
X150375000Y-52625000D03*
X149575000Y-52625000D03*
%TD*%
D12*
%TO.C,SW19*%
X127000000Y-122237500D03*
D13*
X121920000Y-122237500D03*
X132080000Y-122237500D03*
%TD*%
D19*
%TO.C,R4*%
X99100000Y-40481250D03*
X100925000Y-40481250D03*
%TD*%
D14*
%TO.C,D11*%
X71375000Y-50006250D03*
X74675000Y-50006250D03*
%TD*%
D22*
%TO.C,F1*%
X112293750Y-32543750D03*
X115093750Y-32543750D03*
%TD*%
D13*
%TO.C,SW18*%
X132080000Y-103187500D03*
X121920000Y-103187500D03*
D12*
X127000000Y-103187500D03*
%TD*%
D19*
%TO.C,R1*%
X123801500Y-48260000D03*
X125626500Y-48260000D03*
%TD*%
D14*
%TO.C,D8*%
X52325000Y-88106250D03*
X55625000Y-88106250D03*
%TD*%
D19*
%TO.C,R7*%
X99100000Y-45243750D03*
X100925000Y-45243750D03*
%TD*%
D14*
%TO.C,D20*%
X138050000Y-111918750D03*
X141350000Y-111918750D03*
%TD*%
%TO.C,D18*%
X119000000Y-111918750D03*
X122300000Y-111918750D03*
%TD*%
%TO.C,D17*%
X99950000Y-130968750D03*
X103250000Y-130968750D03*
%TD*%
D23*
%TO.C,J1*%
X93665000Y-31073000D03*
X102315000Y-31073000D03*
D24*
X93665000Y-34453000D03*
X102315000Y-34453000D03*
D25*
X100965000Y-34083000D03*
X100115000Y-34083000D03*
X99265000Y-34083000D03*
X98415000Y-34083000D03*
X97565000Y-34083000D03*
X96715000Y-34083000D03*
X95865000Y-34083000D03*
X95015000Y-34083000D03*
X95015000Y-35433000D03*
X95865000Y-35433000D03*
X96715000Y-35433000D03*
X97565000Y-35433000D03*
X98415000Y-35433000D03*
X99265000Y-35433000D03*
X100115000Y-35433000D03*
X100965000Y-35433000D03*
%TD*%
D26*
%TO.C,SW32*%
X97556250Y-89162500D03*
X91356250Y-85462500D03*
X97556250Y-85462500D03*
X91356250Y-89162500D03*
%TD*%
D14*
%TO.C,D28*%
X214250000Y-111918750D03*
X217550000Y-111918750D03*
%TD*%
%TO.C,D25*%
X176150000Y-130968750D03*
X179450000Y-130968750D03*
%TD*%
%TO.C,D9*%
X59468750Y-111918750D03*
X62768750Y-111918750D03*
%TD*%
D13*
%TO.C,SW23*%
X170180000Y-122237500D03*
D12*
X165100000Y-122237500D03*
D13*
X160020000Y-122237500D03*
%TD*%
%TO.C,SW24*%
X189230000Y-103187500D03*
X179070000Y-103187500D03*
D12*
X184150000Y-103187500D03*
%TD*%
D14*
%TO.C,D15*%
X80900000Y-130968750D03*
X84200000Y-130968750D03*
%TD*%
D12*
%TO.C,SW14*%
X88900000Y-103187500D03*
D13*
X93980000Y-103187500D03*
X83820000Y-103187500D03*
%TD*%
D12*
%TO.C,SW29*%
X222250000Y-122237500D03*
D13*
X227330000Y-122237500D03*
X217170000Y-122237500D03*
%TD*%
D12*
%TO.C,SW2*%
X41275000Y-60325000D03*
D13*
X36195000Y-60325000D03*
X46355000Y-60325000D03*
%TD*%
%TO.C,SW22*%
X160020000Y-103187500D03*
D12*
X165100000Y-103187500D03*
D13*
X170180000Y-103187500D03*
%TD*%
D19*
%TO.C,R6*%
X146725000Y-73914000D03*
X148550000Y-73914000D03*
%TD*%
D10*
%TO.C,C7*%
X137162500Y-43307000D03*
X139062500Y-43307000D03*
%TD*%
D14*
%TO.C,D35*%
X117537500Y-47625000D03*
X114237500Y-47625000D03*
%TD*%
%TO.C,D23*%
X157100000Y-130968750D03*
X160400000Y-130968750D03*
%TD*%
%TO.C,D14*%
X80900000Y-111918750D03*
X84200000Y-111918750D03*
%TD*%
D12*
%TO.C,SW27*%
X203200000Y-122237500D03*
D13*
X208280000Y-122237500D03*
X198120000Y-122237500D03*
%TD*%
D19*
%TO.C,R3*%
X106243750Y-39687500D03*
X108068750Y-39687500D03*
%TD*%
D14*
%TO.C,D4*%
X35656250Y-111918750D03*
X38956250Y-111918750D03*
%TD*%
D27*
%TO.C,S1*%
X119856250Y-57716250D03*
D28*
X107876250Y-60966250D03*
X107876250Y-63466250D03*
X107876250Y-65966250D03*
D27*
X119856250Y-53216250D03*
D28*
X114106250Y-72196250D03*
X116606250Y-72196250D03*
X119106250Y-72196250D03*
D27*
X113356250Y-57716250D03*
X113356250Y-53216250D03*
D29*
X122931250Y-58466250D03*
X122931250Y-68466250D03*
X110281250Y-58466250D03*
X110281250Y-68466250D03*
D30*
X120906250Y-63466250D03*
X112306250Y-63466250D03*
%TD*%
D13*
%TO.C,SW20*%
X151130000Y-103187500D03*
D12*
X146050000Y-103187500D03*
D13*
X140970000Y-103187500D03*
%TD*%
D31*
%TO.C,C2*%
X153416000Y-80838000D03*
X153416000Y-82738000D03*
%TD*%
D14*
%TO.C,D3*%
X33275000Y-88106250D03*
X36575000Y-88106250D03*
%TD*%
D10*
%TO.C,C1*%
X159543750Y-76930250D03*
X161443750Y-76930250D03*
%TD*%
D12*
%TO.C,SW8*%
X60325000Y-79375000D03*
D13*
X65405000Y-79375000D03*
X55245000Y-79375000D03*
%TD*%
%TO.C,SW21*%
X140970000Y-122237500D03*
D12*
X146050000Y-122237500D03*
D13*
X151130000Y-122237500D03*
%TD*%
D32*
%TO.C,Y1*%
X155702000Y-76200000D03*
X153502000Y-76200000D03*
X153502000Y-77900000D03*
X155702000Y-77900000D03*
%TD*%
D12*
%TO.C,SW1*%
X41275000Y-41275000D03*
D13*
X36195000Y-41275000D03*
X46355000Y-41275000D03*
%TD*%
%TO.C,SW13*%
X84455000Y-79375000D03*
D12*
X79375000Y-79375000D03*
D13*
X74295000Y-79375000D03*
%TD*%
D14*
%TO.C,D29*%
X214187500Y-130968750D03*
X217487500Y-130968750D03*
%TD*%
%TO.C,D2*%
X33275000Y-69056250D03*
X36575000Y-69056250D03*
%TD*%
D12*
%TO.C,SW7*%
X60325000Y-60325000D03*
D13*
X65405000Y-60325000D03*
X55245000Y-60325000D03*
%TD*%
D33*
%TO.C,R5*%
X167155500Y-58420000D03*
X165330500Y-58420000D03*
%TD*%
D16*
%TO.C,SW30*%
X183356250Y-66631250D03*
X183356250Y-77831250D03*
D17*
X175856250Y-69731250D03*
D18*
X175856250Y-74731250D03*
X175856250Y-72231250D03*
X190356250Y-74731250D03*
X190356250Y-69731250D03*
%TD*%
D12*
%TO.C,SW15*%
X88900000Y-122237500D03*
D13*
X93980000Y-122237500D03*
X83820000Y-122237500D03*
%TD*%
D14*
%TO.C,D24*%
X176150000Y-111918750D03*
X179450000Y-111918750D03*
%TD*%
%TO.C,D27*%
X195200000Y-130968750D03*
X198500000Y-130968750D03*
%TD*%
D13*
%TO.C,SW11*%
X74295000Y-41275000D03*
X84455000Y-41275000D03*
D12*
X79375000Y-41275000D03*
%TD*%
D14*
%TO.C,D26*%
X195200000Y-111918750D03*
X198500000Y-111918750D03*
%TD*%
%TO.C,D13*%
X71375000Y-88106250D03*
X74675000Y-88106250D03*
%TD*%
D34*
%TO.C,U2*%
X114686500Y-40833000D03*
X114686500Y-41783000D03*
X114686500Y-42733000D03*
X116961500Y-42733000D03*
X116961500Y-41783000D03*
X116961500Y-40833000D03*
%TD*%
D35*
%TO.C,D36*%
X109793750Y-32543750D03*
X107693750Y-32543750D03*
%TD*%
D13*
%TO.C,SW6*%
X65405000Y-41275000D03*
D12*
X60325000Y-41275000D03*
D13*
X55245000Y-41275000D03*
%TD*%
D14*
%TO.C,D12*%
X71375000Y-69056250D03*
X74675000Y-69056250D03*
%TD*%
%TO.C,D1*%
X33275000Y-50006250D03*
X36575000Y-50006250D03*
%TD*%
D36*
%TO.C,Brd1*%
X211486250Y-49725000D03*
X214026250Y-49725000D03*
X216566250Y-49725000D03*
X219106250Y-49725000D03*
%TD*%
D12*
%TO.C,SW25*%
X184150000Y-122237500D03*
D13*
X189230000Y-122237500D03*
X179070000Y-122237500D03*
%TD*%
D14*
%TO.C,D7*%
X52325000Y-69056250D03*
X55625000Y-69056250D03*
%TD*%
M02*
