M48
; DRILL file {KiCad (6.0.5)} date Sun May 15 08:17:38 2022
; FORMAT={-:-/ absolute / inch / decimal}
; #@! TF.CreationDate,2022-05-15T08:17:38-07:00
; #@! TF.GenerationSoftware,Kicad,Pcbnew,(6.0.5)
; #@! TF.FileFunction,Plated,1,2,PTH
FMAT,2
INCH
; #@! TA.AperFunction,Plated,PTH,ViaDrill
T1C0.0157
; #@! TA.AperFunction,Plated,PTH,ComponentDrill
T2C0.0157
; #@! TA.AperFunction,Plated,PTH,ComponentDrill
T3C0.0197
; #@! TA.AperFunction,Plated,PTH,ComponentDrill
T4C0.0394
; #@! TA.AperFunction,Plated,PTH,ComponentDrill
T5C0.0409
; #@! TA.AperFunction,Plated,PTH,ComponentDrill
T6C0.0433
; #@! TA.AperFunction,Plated,PTH,ComponentDrill
T7C0.0512
; #@! TA.AperFunction,Plated,PTH,ComponentDrill
T8C0.0579
; #@! TA.AperFunction,Plated,PTH,ComponentDrill
T9C0.0630
; #@! TA.AperFunction,Plated,PTH,ComponentDrill
T10C0.0650
%
G90
G05
T1
X1.7188Y-1.9688
X1.7188Y-2.7188
X1.8125Y-1.9688
X1.8125Y-2.7188
X1.8438Y-3.4688
X1.9062Y-4.4062
X1.9688Y-3.4688
X2.0Y-4.4062
X2.4688Y-1.9688
X2.4688Y-2.7188
X2.4688Y-3.4688
X2.5625Y-1.9688
X2.5625Y-2.7188
X2.5625Y-3.4688
X2.825Y-2.935
X2.8438Y-4.4062
X2.875Y-2.795
X2.9375Y-4.4062
X3.435Y-2.95
X3.5938Y-4.4062
X3.65Y-3.3
X3.6875Y-4.4062
X4.0005Y-1.7037
X4.0634Y-1.715
X4.0634Y-1.7544
X4.2833Y-1.715
X4.2833Y-1.7544
X4.3438Y-4.4062
X4.4375Y-4.4062
X5.03Y-1.72
X5.0301Y-1.6806
X5.0938Y-4.4062
X5.1875Y-4.4062
X5.34Y-2.95
X5.3802Y-2.9502
X5.4204Y-2.9504
X5.4607Y-2.9507
X5.501Y-2.9508
X5.57Y-2.2723
X5.7444Y-2.2437
X5.8438Y-4.4062
X5.905Y-2.97
X5.935Y-3.01
X5.935Y-3.08
X5.9375Y-4.4062
X5.95Y-2.3
X5.95Y-2.4
X5.965Y-1.7189
X5.965Y-1.785
X6.047Y-2.7339
X6.0492Y-2.78
X6.14Y-2.78
X6.245Y-4.33
X6.5Y-2.455
X6.5003Y-2.3914
X6.53Y-2.36
X6.53Y-2.42
X6.55Y-2.7
X6.5938Y-4.4062
X6.625Y-2.1562
X6.63Y-2.45
X6.63Y-2.6689
X6.6875Y-4.4062
X6.7Y-2.45
X6.7812Y-2.1562
X6.955Y-5.11
X7.3438Y-4.4062
X7.4375Y-4.4062
X7.5938Y-2.0938
X8.0938Y-4.4062
X8.1875Y-4.4062
T2
X3.9523Y-1.6148
X3.968Y-1.5873
X3.9995Y-1.5873
X4.0153Y-1.6148
X4.031Y-1.5873
X4.0468Y-1.6148
X4.0782Y-1.6148
X4.094Y-1.5873
X4.1097Y-1.6148
X4.1255Y-1.5873
X4.157Y-1.5873
X4.1727Y-1.6148
T4
X6.9235Y-1.7766
X6.9235Y-1.875
X6.9235Y-1.9734
X6.9235Y-2.7453
X6.9235Y-2.8438
X6.9235Y-2.9422
X7.4943Y-1.7766
X7.4943Y-1.9734
X7.4943Y-2.7453
X7.4943Y-2.9422
X8.3262Y-1.9577
X8.4262Y-1.9577
X8.5262Y-1.9577
X8.6262Y-1.9577
T5
X1.575Y-1.825
X1.575Y-2.575
X1.575Y-3.325
X1.6687Y-5.0125
X1.675Y-1.825
X1.675Y-2.575
X1.675Y-3.325
X1.7625Y-4.2625
X1.7688Y-5.0125
X1.8625Y-4.2625
X2.325Y-1.825
X2.325Y-2.575
X2.325Y-3.325
X2.425Y-1.825
X2.425Y-2.575
X2.425Y-3.325
X2.6062Y-5.0125
X2.7Y-4.2625
X2.7062Y-5.0125
X2.8Y-4.2625
X3.075Y-1.825
X3.075Y-2.575
X3.075Y-3.325
X3.175Y-1.825
X3.175Y-2.575
X3.175Y-3.325
X3.45Y-4.2625
X3.45Y-5.0125
X3.55Y-4.2625
X3.55Y-5.0125
X4.2Y-4.2625
X4.2Y-5.0125
X4.3Y-4.2625
X4.3Y-5.0125
X4.95Y-4.2625
X4.95Y-5.0125
X5.05Y-4.2625
X5.05Y-5.0125
X5.7Y-4.2625
X5.7Y-5.0125
X5.8Y-4.2625
X5.8Y-5.0125
X6.45Y-4.2625
X6.45Y-5.0125
X6.55Y-4.2625
X6.55Y-5.0125
X7.2Y-4.2625
X7.2Y-5.0125
X7.3Y-4.2625
X7.3Y-5.0125
X7.95Y-4.2625
X7.95Y-5.0125
X8.05Y-4.2625
X8.05Y-5.0125
X8.7Y-4.2625
X8.7Y-5.0125
X8.8Y-4.2625
X8.8Y-5.0125
T6
X4.8326Y-2.0014
X4.931Y-2.0014
X5.0294Y-2.0014
X5.2747Y-2.2467
X5.2747Y-2.3451
X5.2747Y-2.4435
T7
X4.8031Y-2.5715
X4.8031Y-2.7486
X5.059Y-2.5715
X5.059Y-2.7486
T8
X1.475Y-1.525
X1.475Y-2.275
X1.475Y-3.025
X1.5687Y-4.7125
X1.6625Y-3.9625
X1.725Y-1.425
X1.725Y-2.175
X1.725Y-2.925
X1.8187Y-4.6125
X1.9125Y-3.8625
X2.225Y-1.525
X2.225Y-2.275
X2.225Y-3.025
X2.475Y-1.425
X2.475Y-2.175
X2.475Y-2.925
X2.5063Y-4.7125
X2.6Y-3.9625
X2.7563Y-4.6125
X2.85Y-3.8625
X2.975Y-1.525
X2.975Y-2.275
X2.975Y-3.025
X3.225Y-1.425
X3.225Y-2.175
X3.225Y-2.925
X3.35Y-3.9625
X3.35Y-4.7125
X3.6Y-3.8625
X3.6Y-4.6125
X4.1Y-3.9625
X4.1Y-4.7125
X4.35Y-3.8625
X4.35Y-4.6125
X4.85Y-3.9625
X4.85Y-4.7125
X5.1Y-3.8625
X5.1Y-4.6125
X5.6Y-3.9625
X5.6Y-4.7125
X5.85Y-3.8625
X5.85Y-4.6125
X6.35Y-3.9625
X6.35Y-4.7125
X6.6Y-3.8625
X6.6Y-4.6125
X7.1Y-3.9625
X7.1Y-4.7125
X7.35Y-3.8625
X7.35Y-4.6125
X7.85Y-3.9625
X7.85Y-4.7125
X8.1Y-3.8625
X8.1Y-4.6125
X8.6Y-3.9625
X8.6Y-4.7125
X8.85Y-3.8625
X8.85Y-4.6125
T9
X4.682Y-2.1482
X4.682Y-2.5419
X5.18Y-2.1482
X5.18Y-2.5419
T10
X4.7617Y-2.3451
X5.1003Y-2.3451
T3
G00X3.8857Y-1.3687
M15
G01X3.8857Y-1.3451
M16
G05
G00X3.8999Y-1.603
M15
G01X3.8999Y-1.5794
M16
G05
G00X4.2251Y-1.603
M15
G01X4.2251Y-1.5794
M16
G05
G00X4.2393Y-1.3687
M15
G01X4.2393Y-1.3451
M16
G05
T0
M30
