%TF.GenerationSoftware,KiCad,Pcbnew,(6.0.5)*%
%TF.CreationDate,2022-05-16T22:40:58-07:00*%
%TF.ProjectId,3HMouse,33484d6f-7573-4652-9e6b-696361645f70,rev?*%
%TF.SameCoordinates,Original*%
%TF.FileFunction,Soldermask,Bot*%
%TF.FilePolarity,Negative*%
%FSLAX46Y46*%
G04 Gerber Fmt 4.6, Leading zero omitted, Abs format (unit mm)*
G04 Created by KiCad (PCBNEW (6.0.5)) date 2022-05-16 22:40:58*
%MOMM*%
%LPD*%
G01*
G04 APERTURE LIST*
%ADD10C,2.250000*%
%ADD11C,1.750000*%
%ADD12C,3.987800*%
%ADD13C,2.000000*%
%ADD14R,2.000000X2.000000*%
%ADD15O,3.200000X2.000000*%
%ADD16O,0.900000X1.700000*%
%ADD17O,0.900000X2.400000*%
%ADD18C,0.700000*%
%ADD19C,2.475000*%
%ADD20C,2.400000*%
%ADD21C,1.950000*%
%ADD22C,1.650000*%
%ADD23O,1.600000X2.000000*%
G04 APERTURE END LIST*
D10*
%TO.C,SW10*%
X70008750Y-117157500D03*
X63658750Y-119697500D03*
D11*
X72548750Y-122237500D03*
X62388750Y-122237500D03*
D12*
X67468750Y-122237500D03*
%TD*%
D10*
%TO.C,SW28*%
X224790000Y-98107500D03*
X218440000Y-100647500D03*
D11*
X227330000Y-103187500D03*
X217170000Y-103187500D03*
D12*
X222250000Y-103187500D03*
%TD*%
D10*
%TO.C,SW3*%
X43815000Y-74295000D03*
X37465000Y-76835000D03*
D11*
X46355000Y-79375000D03*
X36195000Y-79375000D03*
D12*
X41275000Y-79375000D03*
%TD*%
D10*
%TO.C,SW17*%
X110490000Y-117157500D03*
X104140000Y-119697500D03*
D12*
X107950000Y-122237500D03*
D11*
X102870000Y-122237500D03*
X113030000Y-122237500D03*
%TD*%
D10*
%TO.C,SW5*%
X46196250Y-117157500D03*
X39846250Y-119697500D03*
D11*
X38576250Y-122237500D03*
D12*
X43656250Y-122237500D03*
D11*
X48736250Y-122237500D03*
%TD*%
D10*
%TO.C,SW12*%
X81915000Y-55245000D03*
X75565000Y-57785000D03*
D11*
X84455000Y-60325000D03*
X74295000Y-60325000D03*
D12*
X79375000Y-60325000D03*
%TD*%
D10*
%TO.C,SW26*%
X205740000Y-98107500D03*
X199390000Y-100647500D03*
D11*
X208280000Y-103187500D03*
D12*
X203200000Y-103187500D03*
D11*
X198120000Y-103187500D03*
%TD*%
D10*
%TO.C,SW9*%
X72390000Y-98107500D03*
X66040000Y-100647500D03*
D11*
X74930000Y-103187500D03*
D12*
X69850000Y-103187500D03*
D11*
X64770000Y-103187500D03*
%TD*%
D10*
%TO.C,SW16*%
X110490000Y-98107500D03*
X104140000Y-100647500D03*
D11*
X113030000Y-103187500D03*
X102870000Y-103187500D03*
D12*
X107950000Y-103187500D03*
%TD*%
D10*
%TO.C,SW4*%
X48577500Y-98107500D03*
X42227500Y-100647500D03*
D12*
X46037500Y-103187500D03*
D11*
X40957500Y-103187500D03*
X51117500Y-103187500D03*
%TD*%
D13*
%TO.C,SW31*%
X187463000Y-44775750D03*
X187463000Y-49775750D03*
X172963000Y-47275750D03*
X172963000Y-49775750D03*
D14*
X172963000Y-44775750D03*
D15*
X180463000Y-52875750D03*
X180463000Y-41675750D03*
%TD*%
D10*
%TO.C,SW19*%
X129540000Y-117157500D03*
X123190000Y-119697500D03*
D11*
X132080000Y-122237500D03*
X121920000Y-122237500D03*
D12*
X127000000Y-122237500D03*
%TD*%
D10*
%TO.C,SW18*%
X129540000Y-98107500D03*
X123190000Y-100647500D03*
D12*
X127000000Y-103187500D03*
D11*
X121920000Y-103187500D03*
X132080000Y-103187500D03*
%TD*%
D16*
%TO.C,J1*%
X93665000Y-31073000D03*
X102315000Y-31073000D03*
D17*
X93665000Y-34453000D03*
X102315000Y-34453000D03*
D18*
X100965000Y-34083000D03*
X100115000Y-34083000D03*
X99265000Y-34083000D03*
X98415000Y-34083000D03*
X97565000Y-34083000D03*
X96715000Y-34083000D03*
X95865000Y-34083000D03*
X95015000Y-34083000D03*
X95015000Y-35433000D03*
X95865000Y-35433000D03*
X96715000Y-35433000D03*
X97565000Y-35433000D03*
X98415000Y-35433000D03*
X99265000Y-35433000D03*
X100115000Y-35433000D03*
X100965000Y-35433000D03*
%TD*%
D10*
%TO.C,SW23*%
X167640000Y-117157500D03*
X161290000Y-119697500D03*
D11*
X160020000Y-122237500D03*
D12*
X165100000Y-122237500D03*
D11*
X170180000Y-122237500D03*
%TD*%
D10*
%TO.C,SW24*%
X186690000Y-98107500D03*
X180340000Y-100647500D03*
D12*
X184150000Y-103187500D03*
D11*
X179070000Y-103187500D03*
X189230000Y-103187500D03*
%TD*%
D10*
%TO.C,SW14*%
X91440000Y-98107500D03*
X85090000Y-100647500D03*
D11*
X83820000Y-103187500D03*
X93980000Y-103187500D03*
D12*
X88900000Y-103187500D03*
%TD*%
D10*
%TO.C,SW29*%
X224790000Y-117157500D03*
X218440000Y-119697500D03*
D11*
X217170000Y-122237500D03*
X227330000Y-122237500D03*
D12*
X222250000Y-122237500D03*
%TD*%
D10*
%TO.C,SW2*%
X43815000Y-55245000D03*
X37465000Y-57785000D03*
D11*
X46355000Y-60325000D03*
X36195000Y-60325000D03*
D12*
X41275000Y-60325000D03*
%TD*%
D10*
%TO.C,SW22*%
X167640000Y-98107500D03*
X161290000Y-100647500D03*
D11*
X170180000Y-103187500D03*
D12*
X165100000Y-103187500D03*
D11*
X160020000Y-103187500D03*
%TD*%
D10*
%TO.C,SW27*%
X205740000Y-117157500D03*
X199390000Y-119697500D03*
D11*
X198120000Y-122237500D03*
X208280000Y-122237500D03*
D12*
X203200000Y-122237500D03*
%TD*%
D19*
%TO.C,S1*%
X112306250Y-63466250D03*
X120906250Y-63466250D03*
D20*
X110281250Y-68466250D03*
X110281250Y-58466250D03*
X122931250Y-68466250D03*
X122931250Y-58466250D03*
D21*
X113356250Y-53216250D03*
X113356250Y-57716250D03*
D22*
X119106250Y-72196250D03*
X116606250Y-72196250D03*
X114106250Y-72196250D03*
D21*
X119856250Y-53216250D03*
D22*
X107876250Y-65966250D03*
X107876250Y-63466250D03*
X107876250Y-60966250D03*
D21*
X119856250Y-57716250D03*
%TD*%
D10*
%TO.C,SW20*%
X148590000Y-98107500D03*
X142240000Y-100647500D03*
D11*
X140970000Y-103187500D03*
D12*
X146050000Y-103187500D03*
D11*
X151130000Y-103187500D03*
%TD*%
D10*
%TO.C,SW8*%
X62865000Y-74295000D03*
X56515000Y-76835000D03*
D11*
X55245000Y-79375000D03*
X65405000Y-79375000D03*
D12*
X60325000Y-79375000D03*
%TD*%
D10*
%TO.C,SW21*%
X148590000Y-117157500D03*
X142240000Y-119697500D03*
D11*
X151130000Y-122237500D03*
D12*
X146050000Y-122237500D03*
D11*
X140970000Y-122237500D03*
%TD*%
D10*
%TO.C,SW1*%
X43815000Y-36195000D03*
X37465000Y-38735000D03*
D11*
X46355000Y-41275000D03*
X36195000Y-41275000D03*
D12*
X41275000Y-41275000D03*
%TD*%
D10*
%TO.C,SW13*%
X81915000Y-74295000D03*
X75565000Y-76835000D03*
D11*
X74295000Y-79375000D03*
D12*
X79375000Y-79375000D03*
D11*
X84455000Y-79375000D03*
%TD*%
D10*
%TO.C,SW7*%
X62865000Y-55245000D03*
X56515000Y-57785000D03*
D11*
X55245000Y-60325000D03*
X65405000Y-60325000D03*
D12*
X60325000Y-60325000D03*
%TD*%
D13*
%TO.C,SW30*%
X187463000Y-69382000D03*
X187463000Y-74382000D03*
X172963000Y-71882000D03*
X172963000Y-74382000D03*
D14*
X172963000Y-69382000D03*
D15*
X180463000Y-77482000D03*
X180463000Y-66282000D03*
%TD*%
D10*
%TO.C,SW15*%
X91440000Y-117157500D03*
X85090000Y-119697500D03*
D11*
X83820000Y-122237500D03*
X93980000Y-122237500D03*
D12*
X88900000Y-122237500D03*
%TD*%
D10*
%TO.C,SW11*%
X81915000Y-36195000D03*
X75565000Y-38735000D03*
D12*
X79375000Y-41275000D03*
D11*
X84455000Y-41275000D03*
X74295000Y-41275000D03*
%TD*%
D10*
%TO.C,SW6*%
X62865000Y-36195000D03*
X56515000Y-38735000D03*
D11*
X55245000Y-41275000D03*
D12*
X60325000Y-41275000D03*
D11*
X65405000Y-41275000D03*
%TD*%
D23*
%TO.C,Brd1*%
X211486250Y-49725000D03*
X214026250Y-49725000D03*
X216566250Y-49725000D03*
X219106250Y-49725000D03*
%TD*%
D10*
%TO.C,SW25*%
X186690000Y-117157500D03*
X180340000Y-119697500D03*
D11*
X179070000Y-122237500D03*
X189230000Y-122237500D03*
D12*
X184150000Y-122237500D03*
%TD*%
M02*
