M48
; DRILL file {KiCad (6.0.5)} date Mon May 16 19:36:10 2022
; FORMAT={-:-/ absolute / inch / decimal}
; #@! TF.CreationDate,2022-05-16T19:36:10-07:00
; #@! TF.GenerationSoftware,Kicad,Pcbnew,(6.0.5)
; #@! TF.FileFunction,Plated,1,2,PTH
FMAT,2
INCH
; #@! TA.AperFunction,Plated,PTH,ViaDrill
T1C0.0157
; #@! TA.AperFunction,Plated,PTH,ComponentDrill
T2C0.0157
; #@! TA.AperFunction,Plated,PTH,ComponentDrill
T3C0.0236
; #@! TA.AperFunction,Plated,PTH,ComponentDrill
T4C0.0394
; #@! TA.AperFunction,Plated,PTH,ComponentDrill
T5C0.0433
; #@! TA.AperFunction,Plated,PTH,ComponentDrill
T6C0.0512
; #@! TA.AperFunction,Plated,PTH,ComponentDrill
T7C0.0579
; #@! TA.AperFunction,Plated,PTH,ComponentDrill
T8C0.0630
; #@! TA.AperFunction,Plated,PTH,ComponentDrill
T9C0.0650
%
G90
G05
T1
X2.7773Y-3.2677
X2.8252Y-3.2348
X3.2979Y-2.035
X3.3448Y-3.2357
X3.3464Y-3.275
X3.4036Y-3.175
X3.4036Y-3.2356
X3.4036Y-3.275
X3.4338Y-3.207
X3.659Y-1.285
X3.7162Y-1.285
X3.87Y-1.53
X3.9023Y-1.4827
X4.0729Y-1.4121
X4.455Y-1.61
X4.68Y-1.875
X5.2814Y-1.9014
X5.3Y-1.72
X5.4438Y-1.7806
X5.4438Y-1.82
X5.4811Y-2.4307
X5.5625Y-2.2188
X5.6257Y-2.7367
X5.6535Y-2.7645
X5.6562Y-2.3125
X5.6814Y-2.7924
X5.7098Y-2.8196
X5.735Y-2.2304
X5.735Y-2.27
X5.737Y-2.848
X5.8127Y-2.8127
X5.875Y-2.39
X5.875Y-2.47
X5.875Y-2.515
X5.875Y-2.4294
X5.9754Y-2.3621
X5.985Y-2.0187
X6.0148Y-2.3621
X6.015Y-1.99
X6.015Y-2.5138
X6.0312Y-2.875
X6.0434Y-2.5938
X6.0806Y-2.9375
X6.18Y-4.34
X6.25Y-5.025
X6.4798Y-2.7202
X6.48Y-2.7596
X6.4813Y-2.4905
X6.5107Y-2.5193
X6.5393Y-2.4375
T2
X3.7407Y-1.3419
X3.7407Y-1.395
X3.7742Y-1.3419
X3.7742Y-1.395
X3.8077Y-1.3419
X3.8077Y-1.395
X3.8411Y-1.3419
X3.8411Y-1.395
X3.8746Y-1.3419
X3.8746Y-1.395
X3.9081Y-1.3419
X3.9081Y-1.395
X3.9415Y-1.3419
X3.9415Y-1.395
X3.975Y-1.3419
X3.975Y-1.395
T4
X6.9235Y-1.7766
X6.9235Y-1.875
X6.9235Y-1.9734
X6.9235Y-2.7453
X6.9235Y-2.8438
X6.9235Y-2.9422
X7.4943Y-1.7766
X7.4943Y-1.9734
X7.4943Y-2.7453
X7.4943Y-2.9422
X8.3262Y-1.9577
X8.4262Y-1.9577
X8.5262Y-1.9577
X8.6262Y-1.9577
T5
X4.2471Y-2.4002
X4.2471Y-2.4987
X4.2471Y-2.5971
X4.4924Y-2.8424
X4.5908Y-2.8424
X4.6892Y-2.8424
T6
X4.4628Y-2.0951
X4.4628Y-2.2723
X4.7188Y-2.0951
X4.7188Y-2.2723
T7
X1.475Y-1.525
X1.475Y-2.275
X1.475Y-3.025
X1.5687Y-4.7125
X1.6625Y-3.9625
X1.725Y-1.425
X1.725Y-2.175
X1.725Y-2.925
X1.8187Y-4.6125
X1.9125Y-3.8625
X2.225Y-1.525
X2.225Y-2.275
X2.225Y-3.025
X2.475Y-1.425
X2.475Y-2.175
X2.475Y-2.925
X2.5063Y-4.7125
X2.6Y-3.9625
X2.7563Y-4.6125
X2.85Y-3.8625
X2.975Y-1.525
X2.975Y-2.275
X2.975Y-3.025
X3.225Y-1.425
X3.225Y-2.175
X3.225Y-2.925
X3.35Y-3.9625
X3.35Y-4.7125
X3.6Y-3.8625
X3.6Y-4.6125
X4.1Y-3.9625
X4.1Y-4.7125
X4.35Y-3.8625
X4.35Y-4.6125
X4.85Y-3.9625
X4.85Y-4.7125
X5.1Y-3.8625
X5.1Y-4.6125
X5.6Y-3.9625
X5.6Y-4.7125
X5.85Y-3.8625
X5.85Y-4.6125
X6.35Y-3.9625
X6.35Y-4.7125
X6.6Y-3.8625
X6.6Y-4.6125
X7.1Y-3.9625
X7.1Y-4.7125
X7.35Y-3.8625
X7.35Y-4.6125
X7.85Y-3.9625
X7.85Y-4.7125
X8.1Y-3.8625
X8.1Y-4.6125
X8.6Y-3.9625
X8.6Y-4.7125
X8.85Y-3.8625
X8.85Y-4.6125
T8
X4.3418Y-2.3018
X4.3418Y-2.6955
X4.8398Y-2.3018
X4.8398Y-2.6955
T9
X4.4215Y-2.4987
X4.7601Y-2.4987
T3
G00X3.6876Y-1.2391
M15
G01X3.6876Y-1.2076
M16
G05
G00X3.6876Y-1.3859
M15
G01X3.6876Y-1.3269
M16
G05
G00X4.0281Y-1.2391
M15
G01X4.0281Y-1.2076
M16
G05
G00X4.0281Y-1.3859
M15
G01X4.0281Y-1.3269
M16
G05
T0
M30
