%TF.GenerationSoftware,KiCad,Pcbnew,(6.0.5)*%
%TF.CreationDate,2022-05-15T08:17:35-07:00*%
%TF.ProjectId,3HMouse,33484d6f-7573-4652-9e6b-696361645f70,rev?*%
%TF.SameCoordinates,Original*%
%TF.FileFunction,Soldermask,Top*%
%TF.FilePolarity,Negative*%
%FSLAX46Y46*%
G04 Gerber Fmt 4.6, Leading zero omitted, Abs format (unit mm)*
G04 Created by KiCad (PCBNEW (6.0.5)) date 2022-05-15 08:17:35*
%MOMM*%
%LPD*%
G01*
G04 APERTURE LIST*
G04 Aperture macros list*
%AMRoundRect*
0 Rectangle with rounded corners*
0 $1 Rounding radius*
0 $2 $3 $4 $5 $6 $7 $8 $9 X,Y pos of 4 corners*
0 Add a 4 corners polygon primitive as box body*
4,1,4,$2,$3,$4,$5,$6,$7,$8,$9,$2,$3,0*
0 Add four circle primitives for the rounded corners*
1,1,$1+$1,$2,$3*
1,1,$1+$1,$4,$5*
1,1,$1+$1,$6,$7*
1,1,$1+$1,$8,$9*
0 Add four rect primitives between the rounded corners*
20,1,$1+$1,$2,$3,$4,$5,0*
20,1,$1+$1,$4,$5,$6,$7,0*
20,1,$1+$1,$6,$7,$8,$9,0*
20,1,$1+$1,$8,$9,$2,$3,0*%
G04 Aperture macros list end*
%ADD10O,1.600000X2.000000*%
%ADD11RoundRect,0.250000X0.250000X0.475000X-0.250000X0.475000X-0.250000X-0.475000X0.250000X-0.475000X0*%
%ADD12C,0.650000*%
%ADD13O,0.950000X0.650000*%
%ADD14R,0.300000X0.700000*%
%ADD15O,0.800000X1.400000*%
%ADD16RoundRect,0.250000X-0.250000X-0.475000X0.250000X-0.475000X0.250000X0.475000X-0.250000X0.475000X0*%
%ADD17RoundRect,0.250000X0.475000X-0.250000X0.475000X0.250000X-0.475000X0.250000X-0.475000X-0.250000X0*%
%ADD18R,1.400000X1.200000*%
%ADD19R,1.500000X0.550000*%
%ADD20R,0.550000X1.500000*%
%ADD21R,1.100000X1.800000*%
%ADD22C,3.987800*%
%ADD23C,1.750000*%
%ADD24O,3.200000X2.000000*%
%ADD25R,2.000000X2.000000*%
%ADD26C,2.000000*%
%ADD27C,1.950000*%
%ADD28C,1.650000*%
%ADD29C,2.400000*%
%ADD30C,2.475000*%
%ADD31RoundRect,0.250000X0.262500X0.450000X-0.262500X0.450000X-0.262500X-0.450000X0.262500X-0.450000X0*%
%ADD32RoundRect,0.250000X0.450000X-0.262500X0.450000X0.262500X-0.450000X0.262500X-0.450000X-0.262500X0*%
%ADD33RoundRect,0.250000X-0.450000X0.262500X-0.450000X-0.262500X0.450000X-0.262500X0.450000X0.262500X0*%
%ADD34RoundRect,0.250000X-0.262500X-0.450000X0.262500X-0.450000X0.262500X0.450000X-0.262500X0.450000X0*%
%ADD35R,0.900000X1.200000*%
G04 APERTURE END LIST*
D10*
%TO.C,Brd1*%
X219106250Y-49725000D03*
X216566250Y-49725000D03*
X211486250Y-49725000D03*
X214026250Y-49725000D03*
%TD*%
D11*
%TO.C,C3*%
X151511000Y-47625000D03*
X149611000Y-47625000D03*
%TD*%
D12*
%TO.C,J1*%
X106787500Y-41666250D03*
D13*
X99587500Y-41666250D03*
D14*
X105937500Y-42326250D03*
X105437500Y-42326250D03*
X104937500Y-42326250D03*
X104437500Y-42326250D03*
X103937500Y-42326250D03*
X103437500Y-42326250D03*
X102937500Y-42326250D03*
X102437500Y-42326250D03*
X101937500Y-42326250D03*
X101437500Y-42326250D03*
X100937500Y-42326250D03*
X100437500Y-42326250D03*
D12*
X100387500Y-41016250D03*
X100787500Y-40316250D03*
X101587500Y-40316250D03*
X101987500Y-41016250D03*
X102387500Y-40316250D03*
X102787500Y-41016250D03*
X103587500Y-41016250D03*
X103987500Y-40316250D03*
X104387500Y-41016250D03*
X104787500Y-40316250D03*
X105587500Y-40316250D03*
X105987500Y-41016250D03*
D15*
X98697500Y-34466250D03*
X99057500Y-40416250D03*
X107677500Y-34466250D03*
X107317500Y-40416250D03*
%TD*%
D16*
%TO.C,C6*%
X153831250Y-47625000D03*
X155731250Y-47625000D03*
%TD*%
D11*
%TO.C,C5*%
X168431250Y-70643750D03*
X166531250Y-70643750D03*
%TD*%
D17*
%TO.C,C4*%
X142875000Y-58100000D03*
X142875000Y-56200000D03*
%TD*%
D18*
%TO.C,Y1*%
X155702000Y-74676000D03*
X153502000Y-74676000D03*
X153502000Y-76376000D03*
X155702000Y-76376000D03*
%TD*%
D19*
%TO.C,U1*%
X147875000Y-54325000D03*
X147875000Y-55125000D03*
X147875000Y-55925000D03*
X147875000Y-56725000D03*
X147875000Y-57525000D03*
X147875000Y-58325000D03*
X147875000Y-59125000D03*
X147875000Y-59925000D03*
X147875000Y-60725000D03*
X147875000Y-61525000D03*
X147875000Y-62325000D03*
X147875000Y-63125000D03*
X147875000Y-63925000D03*
X147875000Y-64725000D03*
X147875000Y-65525000D03*
X147875000Y-66325000D03*
D20*
X149575000Y-68025000D03*
X150375000Y-68025000D03*
X151175000Y-68025000D03*
X151975000Y-68025000D03*
X152775000Y-68025000D03*
X153575000Y-68025000D03*
X154375000Y-68025000D03*
X155175000Y-68025000D03*
X155975000Y-68025000D03*
X156775000Y-68025000D03*
X157575000Y-68025000D03*
X158375000Y-68025000D03*
X159175000Y-68025000D03*
X159975000Y-68025000D03*
X160775000Y-68025000D03*
X161575000Y-68025000D03*
D19*
X163275000Y-66325000D03*
X163275000Y-65525000D03*
X163275000Y-64725000D03*
X163275000Y-63925000D03*
X163275000Y-63125000D03*
X163275000Y-62325000D03*
X163275000Y-61525000D03*
X163275000Y-60725000D03*
X163275000Y-59925000D03*
X163275000Y-59125000D03*
X163275000Y-58325000D03*
X163275000Y-57525000D03*
X163275000Y-56725000D03*
X163275000Y-55925000D03*
X163275000Y-55125000D03*
X163275000Y-54325000D03*
D20*
X161575000Y-52625000D03*
X160775000Y-52625000D03*
X159975000Y-52625000D03*
X159175000Y-52625000D03*
X158375000Y-52625000D03*
X157575000Y-52625000D03*
X156775000Y-52625000D03*
X155975000Y-52625000D03*
X155175000Y-52625000D03*
X154375000Y-52625000D03*
X153575000Y-52625000D03*
X152775000Y-52625000D03*
X151975000Y-52625000D03*
X151175000Y-52625000D03*
X150375000Y-52625000D03*
X149575000Y-52625000D03*
%TD*%
D21*
%TO.C,SW32*%
X101337500Y-82475000D03*
X105037500Y-76275000D03*
X105037500Y-82475000D03*
X101337500Y-76275000D03*
%TD*%
D22*
%TO.C,SW29*%
X222250000Y-122237500D03*
D23*
X217170000Y-122237500D03*
X227330000Y-122237500D03*
%TD*%
D22*
%TO.C,SW28*%
X222250000Y-103187500D03*
D23*
X217170000Y-103187500D03*
X227330000Y-103187500D03*
%TD*%
D22*
%TO.C,SW27*%
X203200000Y-122237500D03*
D23*
X198120000Y-122237500D03*
X208280000Y-122237500D03*
%TD*%
D22*
%TO.C,SW26*%
X203200000Y-103187500D03*
D23*
X198120000Y-103187500D03*
X208280000Y-103187500D03*
%TD*%
D24*
%TO.C,SW31*%
X183356250Y-53225000D03*
X183356250Y-42025000D03*
D25*
X175856250Y-45125000D03*
D26*
X175856250Y-50125000D03*
X175856250Y-47625000D03*
X190356250Y-50125000D03*
X190356250Y-45125000D03*
%TD*%
D24*
%TO.C,SW30*%
X183356250Y-77831250D03*
X183356250Y-66631250D03*
D25*
X175856250Y-69731250D03*
D26*
X175856250Y-74731250D03*
X175856250Y-72231250D03*
X190356250Y-74731250D03*
X190356250Y-69731250D03*
%TD*%
D22*
%TO.C,SW25*%
X184150000Y-122237500D03*
D23*
X179070000Y-122237500D03*
X189230000Y-122237500D03*
%TD*%
D22*
%TO.C,SW24*%
X184150000Y-103187500D03*
D23*
X179070000Y-103187500D03*
X189230000Y-103187500D03*
%TD*%
D22*
%TO.C,SW23*%
X165100000Y-122237500D03*
D23*
X160020000Y-122237500D03*
X170180000Y-122237500D03*
%TD*%
D22*
%TO.C,SW22*%
X165100000Y-103187500D03*
D23*
X160020000Y-103187500D03*
X170180000Y-103187500D03*
%TD*%
%TO.C,SW21*%
X151130000Y-122237500D03*
X140970000Y-122237500D03*
D22*
X146050000Y-122237500D03*
%TD*%
%TO.C,SW20*%
X146050000Y-103187500D03*
D23*
X140970000Y-103187500D03*
X151130000Y-103187500D03*
%TD*%
D22*
%TO.C,SW19*%
X127000000Y-122237500D03*
D23*
X121920000Y-122237500D03*
X132080000Y-122237500D03*
%TD*%
D22*
%TO.C,SW18*%
X127000000Y-103187500D03*
D23*
X121920000Y-103187500D03*
X132080000Y-103187500D03*
%TD*%
D22*
%TO.C,SW17*%
X107950000Y-122237500D03*
D23*
X102870000Y-122237500D03*
X113030000Y-122237500D03*
%TD*%
D22*
%TO.C,SW16*%
X107950000Y-103187500D03*
D23*
X102870000Y-103187500D03*
X113030000Y-103187500D03*
%TD*%
D22*
%TO.C,SW15*%
X88900000Y-122237500D03*
D23*
X83820000Y-122237500D03*
X93980000Y-122237500D03*
%TD*%
D22*
%TO.C,SW14*%
X88900000Y-103187500D03*
D23*
X83820000Y-103187500D03*
X93980000Y-103187500D03*
%TD*%
D22*
%TO.C,SW13*%
X79375000Y-79375000D03*
D23*
X74295000Y-79375000D03*
X84455000Y-79375000D03*
%TD*%
D22*
%TO.C,SW12*%
X79375000Y-60325000D03*
D23*
X74295000Y-60325000D03*
X84455000Y-60325000D03*
%TD*%
D22*
%TO.C,SW11*%
X79375000Y-41275000D03*
D23*
X74295000Y-41275000D03*
X84455000Y-41275000D03*
%TD*%
D22*
%TO.C,SW10*%
X67468750Y-122237500D03*
D23*
X62388750Y-122237500D03*
X72548750Y-122237500D03*
%TD*%
D22*
%TO.C,SW9*%
X69850000Y-103187500D03*
D23*
X64770000Y-103187500D03*
X74930000Y-103187500D03*
%TD*%
D22*
%TO.C,SW8*%
X60325000Y-79375000D03*
D23*
X55245000Y-79375000D03*
X65405000Y-79375000D03*
%TD*%
D22*
%TO.C,SW7*%
X60325000Y-60325000D03*
D23*
X55245000Y-60325000D03*
X65405000Y-60325000D03*
%TD*%
D22*
%TO.C,SW6*%
X60325000Y-41275000D03*
D23*
X55245000Y-41275000D03*
X65405000Y-41275000D03*
%TD*%
D22*
%TO.C,SW5*%
X43656250Y-122237500D03*
D23*
X38576250Y-122237500D03*
X48736250Y-122237500D03*
%TD*%
D22*
%TO.C,SW4*%
X46037500Y-103187500D03*
D23*
X40957500Y-103187500D03*
X51117500Y-103187500D03*
%TD*%
D22*
%TO.C,SW3*%
X41275000Y-79375000D03*
D23*
X36195000Y-79375000D03*
X46355000Y-79375000D03*
%TD*%
D22*
%TO.C,SW2*%
X41275000Y-60325000D03*
D23*
X36195000Y-60325000D03*
X46355000Y-60325000D03*
%TD*%
D22*
%TO.C,SW1*%
X41275000Y-41275000D03*
D23*
X36195000Y-41275000D03*
X46355000Y-41275000D03*
%TD*%
D27*
%TO.C,S1*%
X121997500Y-65315000D03*
D28*
X133977500Y-62065000D03*
X133977500Y-59565000D03*
X133977500Y-57065000D03*
D27*
X121997500Y-69815000D03*
D28*
X127747500Y-50835000D03*
X125247500Y-50835000D03*
X122747500Y-50835000D03*
D27*
X128497500Y-65315000D03*
X128497500Y-69815000D03*
D29*
X118922500Y-64565000D03*
X118922500Y-54565000D03*
X131572500Y-64565000D03*
X131572500Y-54565000D03*
D30*
X120947500Y-59565000D03*
X129547500Y-59565000D03*
%TD*%
D31*
%TO.C,R6*%
X148486500Y-72771000D03*
X146661500Y-72771000D03*
%TD*%
D32*
%TO.C,R5*%
X167481250Y-60562500D03*
X167481250Y-58737500D03*
%TD*%
D33*
%TO.C,R4*%
X107950000Y-47506250D03*
X107950000Y-49331250D03*
%TD*%
%TO.C,R3*%
X103187500Y-47506250D03*
X103187500Y-49331250D03*
%TD*%
D34*
%TO.C,R2*%
X123706250Y-43656250D03*
X125531250Y-43656250D03*
%TD*%
%TO.C,R1*%
X123706250Y-40481250D03*
X125531250Y-40481250D03*
%TD*%
D35*
%TO.C,D29*%
X215775000Y-130968750D03*
X219075000Y-130968750D03*
%TD*%
%TO.C,D28*%
X215837500Y-111918750D03*
X219137500Y-111918750D03*
%TD*%
%TO.C,D27*%
X196787500Y-130968750D03*
X200087500Y-130968750D03*
%TD*%
%TO.C,D26*%
X196787500Y-111918750D03*
X200087500Y-111918750D03*
%TD*%
%TO.C,D25*%
X177737500Y-130968750D03*
X181037500Y-130968750D03*
%TD*%
%TO.C,D24*%
X177737500Y-111918750D03*
X181037500Y-111918750D03*
%TD*%
%TO.C,D23*%
X158687500Y-130968750D03*
X161987500Y-130968750D03*
%TD*%
%TO.C,D22*%
X158687500Y-111918750D03*
X161987500Y-111918750D03*
%TD*%
%TO.C,D21*%
X139637500Y-130968750D03*
X142937500Y-130968750D03*
%TD*%
%TO.C,D20*%
X139637500Y-111918750D03*
X142937500Y-111918750D03*
%TD*%
%TO.C,D19*%
X120587500Y-130968750D03*
X123887500Y-130968750D03*
%TD*%
%TO.C,D18*%
X120587500Y-111918750D03*
X123887500Y-111918750D03*
%TD*%
%TO.C,D17*%
X101537500Y-130968750D03*
X104837500Y-130968750D03*
%TD*%
%TO.C,D16*%
X101537500Y-111918750D03*
X104837500Y-111918750D03*
%TD*%
%TO.C,D15*%
X82487500Y-130968750D03*
X85787500Y-130968750D03*
%TD*%
%TO.C,D14*%
X82487500Y-111918750D03*
X85787500Y-111918750D03*
%TD*%
%TO.C,D13*%
X72962500Y-88106250D03*
X76262500Y-88106250D03*
%TD*%
%TO.C,D12*%
X72962500Y-69056250D03*
X76262500Y-69056250D03*
%TD*%
%TO.C,D11*%
X76262500Y-50006250D03*
X72962500Y-50006250D03*
%TD*%
%TO.C,D10*%
X61056250Y-130968750D03*
X64356250Y-130968750D03*
%TD*%
%TO.C,D9*%
X63437500Y-111918750D03*
X66737500Y-111918750D03*
%TD*%
%TO.C,D8*%
X53912500Y-88106250D03*
X57212500Y-88106250D03*
%TD*%
%TO.C,D7*%
X53912500Y-69056250D03*
X57212500Y-69056250D03*
%TD*%
%TO.C,D6*%
X53912500Y-50006250D03*
X57212500Y-50006250D03*
%TD*%
%TO.C,D5*%
X37243750Y-130968750D03*
X40543750Y-130968750D03*
%TD*%
%TO.C,D4*%
X39625000Y-111918750D03*
X42925000Y-111918750D03*
%TD*%
%TO.C,D3*%
X34862500Y-88106250D03*
X38162500Y-88106250D03*
%TD*%
%TO.C,D2*%
X34862500Y-69056250D03*
X38162500Y-69056250D03*
%TD*%
%TO.C,D1*%
X38162500Y-50006250D03*
X34862500Y-50006250D03*
%TD*%
D16*
%TO.C,C7*%
X139062500Y-44450000D03*
X137162500Y-44450000D03*
%TD*%
%TO.C,C8*%
X142560000Y-62230000D03*
X144460000Y-62230000D03*
%TD*%
%TO.C,C2*%
X146531250Y-75406250D03*
X148431250Y-75406250D03*
%TD*%
%TO.C,C1*%
X159543750Y-75406250D03*
X161443750Y-75406250D03*
%TD*%
M02*
