%TF.GenerationSoftware,KiCad,Pcbnew,(6.0.5)*%
%TF.CreationDate,2022-05-15T08:17:35-07:00*%
%TF.ProjectId,3HMouse,33484d6f-7573-4652-9e6b-696361645f70,rev?*%
%TF.SameCoordinates,Original*%
%TF.FileFunction,Copper,L1,Top*%
%TF.FilePolarity,Positive*%
%FSLAX46Y46*%
G04 Gerber Fmt 4.6, Leading zero omitted, Abs format (unit mm)*
G04 Created by KiCad (PCBNEW (6.0.5)) date 2022-05-15 08:17:35*
%MOMM*%
%LPD*%
G01*
G04 APERTURE LIST*
G04 Aperture macros list*
%AMRoundRect*
0 Rectangle with rounded corners*
0 $1 Rounding radius*
0 $2 $3 $4 $5 $6 $7 $8 $9 X,Y pos of 4 corners*
0 Add a 4 corners polygon primitive as box body*
4,1,4,$2,$3,$4,$5,$6,$7,$8,$9,$2,$3,0*
0 Add four circle primitives for the rounded corners*
1,1,$1+$1,$2,$3*
1,1,$1+$1,$4,$5*
1,1,$1+$1,$6,$7*
1,1,$1+$1,$8,$9*
0 Add four rect primitives between the rounded corners*
20,1,$1+$1,$2,$3,$4,$5,0*
20,1,$1+$1,$4,$5,$6,$7,0*
20,1,$1+$1,$6,$7,$8,$9,0*
20,1,$1+$1,$8,$9,$2,$3,0*%
G04 Aperture macros list end*
%TA.AperFunction,ComponentPad*%
%ADD10O,1.600000X2.000000*%
%TD*%
%TA.AperFunction,SMDPad,CuDef*%
%ADD11RoundRect,0.250000X0.250000X0.475000X-0.250000X0.475000X-0.250000X-0.475000X0.250000X-0.475000X0*%
%TD*%
%TA.AperFunction,SMDPad,CuDef*%
%ADD12R,0.300000X0.700000*%
%TD*%
%TA.AperFunction,ComponentPad*%
%ADD13C,0.650000*%
%TD*%
%TA.AperFunction,ComponentPad*%
%ADD14O,0.800000X1.400000*%
%TD*%
%TA.AperFunction,SMDPad,CuDef*%
%ADD15RoundRect,0.250000X-0.250000X-0.475000X0.250000X-0.475000X0.250000X0.475000X-0.250000X0.475000X0*%
%TD*%
%TA.AperFunction,SMDPad,CuDef*%
%ADD16RoundRect,0.250000X0.475000X-0.250000X0.475000X0.250000X-0.475000X0.250000X-0.475000X-0.250000X0*%
%TD*%
%TA.AperFunction,SMDPad,CuDef*%
%ADD17R,1.400000X1.200000*%
%TD*%
%TA.AperFunction,SMDPad,CuDef*%
%ADD18R,1.500000X0.550000*%
%TD*%
%TA.AperFunction,SMDPad,CuDef*%
%ADD19R,0.550000X1.500000*%
%TD*%
%TA.AperFunction,SMDPad,CuDef*%
%ADD20R,1.100000X1.800000*%
%TD*%
%TA.AperFunction,ComponentPad*%
%ADD21C,2.250000*%
%TD*%
%TA.AperFunction,ComponentPad*%
%ADD22C,1.905000*%
%TD*%
%TA.AperFunction,ComponentPad*%
%ADD23R,1.905000X1.905000*%
%TD*%
%TA.AperFunction,WasherPad*%
%ADD24O,3.200000X2.000000*%
%TD*%
%TA.AperFunction,ComponentPad*%
%ADD25R,2.000000X2.000000*%
%TD*%
%TA.AperFunction,ComponentPad*%
%ADD26C,2.000000*%
%TD*%
%TA.AperFunction,ComponentPad*%
%ADD27C,1.950000*%
%TD*%
%TA.AperFunction,ComponentPad*%
%ADD28C,1.650000*%
%TD*%
%TA.AperFunction,ComponentPad*%
%ADD29C,2.400000*%
%TD*%
%TA.AperFunction,ComponentPad*%
%ADD30C,2.475000*%
%TD*%
%TA.AperFunction,SMDPad,CuDef*%
%ADD31RoundRect,0.250000X0.262500X0.450000X-0.262500X0.450000X-0.262500X-0.450000X0.262500X-0.450000X0*%
%TD*%
%TA.AperFunction,SMDPad,CuDef*%
%ADD32RoundRect,0.250000X0.450000X-0.262500X0.450000X0.262500X-0.450000X0.262500X-0.450000X-0.262500X0*%
%TD*%
%TA.AperFunction,SMDPad,CuDef*%
%ADD33RoundRect,0.250000X-0.450000X0.262500X-0.450000X-0.262500X0.450000X-0.262500X0.450000X0.262500X0*%
%TD*%
%TA.AperFunction,SMDPad,CuDef*%
%ADD34RoundRect,0.250000X-0.262500X-0.450000X0.262500X-0.450000X0.262500X0.450000X-0.262500X0.450000X0*%
%TD*%
%TA.AperFunction,SMDPad,CuDef*%
%ADD35R,0.900000X1.200000*%
%TD*%
%TA.AperFunction,ViaPad*%
%ADD36C,0.800000*%
%TD*%
%TA.AperFunction,Conductor*%
%ADD37C,0.200000*%
%TD*%
%TA.AperFunction,Conductor*%
%ADD38C,0.381000*%
%TD*%
%TA.AperFunction,Conductor*%
%ADD39C,0.254000*%
%TD*%
G04 APERTURE END LIST*
D10*
%TO.P,Brd1,4,SDA*%
%TO.N,unconnected-(Brd1-Pad4)*%
X219106250Y-49725000D03*
%TO.P,Brd1,3,SCL*%
%TO.N,unconnected-(Brd1-Pad3)*%
X216566250Y-49725000D03*
%TO.P,Brd1,1,GND*%
%TO.N,GND*%
X211486250Y-49725000D03*
%TO.P,Brd1,2,VCC*%
%TO.N,+5V*%
X214026250Y-49725000D03*
%TD*%
D11*
%TO.P,C3,1*%
%TO.N,GND*%
X151511000Y-47625000D03*
%TO.P,C3,2*%
%TO.N,+5V*%
X149611000Y-47625000D03*
%TD*%
D12*
%TO.P,J1,A1,GND*%
%TO.N,GND*%
X105937500Y-42326250D03*
%TO.P,J1,A2,TX1+*%
%TO.N,unconnected-(J1-PadA2)*%
X105437500Y-42326250D03*
%TO.P,J1,A3,TX1-*%
%TO.N,unconnected-(J1-PadA3)*%
X104937500Y-42326250D03*
%TO.P,J1,A4,VBUS*%
%TO.N,VBUS*%
X104437500Y-42326250D03*
%TO.P,J1,A5,CC1*%
%TO.N,CC1*%
X103937500Y-42326250D03*
%TO.P,J1,A6,D+*%
%TO.N,D+*%
X103437500Y-42326250D03*
%TO.P,J1,A7,D-*%
%TO.N,D-*%
X102937500Y-42326250D03*
%TO.P,J1,A8,SBU1*%
%TO.N,unconnected-(J1-PadA8)*%
X102437500Y-42326250D03*
%TO.P,J1,A9,VBUS*%
%TO.N,VBUS*%
X101937500Y-42326250D03*
%TO.P,J1,A10,RX2-*%
%TO.N,unconnected-(J1-PadA10)*%
X101437500Y-42326250D03*
%TO.P,J1,A11,RX2+*%
%TO.N,unconnected-(J1-PadA11)*%
X100937500Y-42326250D03*
%TO.P,J1,A12,GND*%
%TO.N,GND*%
X100437500Y-42326250D03*
D13*
%TO.P,J1,B1,GND*%
X100387500Y-41016250D03*
%TO.P,J1,B2,TX2+*%
%TO.N,unconnected-(J1-PadB2)*%
X100787500Y-40316250D03*
%TO.P,J1,B3,TX2-*%
%TO.N,unconnected-(J1-PadB3)*%
X101587500Y-40316250D03*
%TO.P,J1,B4,VBUS*%
%TO.N,VBUS*%
X101987500Y-41016250D03*
%TO.P,J1,B5,CC2*%
%TO.N,CC2*%
X102387500Y-40316250D03*
%TO.P,J1,B6,D+*%
%TO.N,D+*%
X102787500Y-41016250D03*
%TO.P,J1,B7,D-*%
%TO.N,D-*%
X103587500Y-41016250D03*
%TO.P,J1,B8,SBU2*%
%TO.N,unconnected-(J1-PadB8)*%
X103987500Y-40316250D03*
%TO.P,J1,B9,VBUS*%
%TO.N,VBUS*%
X104387500Y-41016250D03*
%TO.P,J1,B10,RX1-*%
%TO.N,unconnected-(J1-PadB10)*%
X104787500Y-40316250D03*
%TO.P,J1,B11,RX1+*%
%TO.N,unconnected-(J1-PadB11)*%
X105587500Y-40316250D03*
%TO.P,J1,B12,GND*%
%TO.N,GND*%
X105987500Y-41016250D03*
D14*
%TO.P,J1,S1,SHIELD*%
X98697500Y-34466250D03*
X99057500Y-40416250D03*
X107677500Y-34466250D03*
X107317500Y-40416250D03*
%TD*%
D15*
%TO.P,C6,1*%
%TO.N,GND*%
X153831250Y-47625000D03*
%TO.P,C6,2*%
%TO.N,+5V*%
X155731250Y-47625000D03*
%TD*%
D11*
%TO.P,C5,1*%
%TO.N,GND*%
X168431250Y-70643750D03*
%TO.P,C5,2*%
%TO.N,+5V*%
X166531250Y-70643750D03*
%TD*%
D16*
%TO.P,C4,1*%
%TO.N,GND*%
X142875000Y-58100000D03*
%TO.P,C4,2*%
%TO.N,+5V*%
X142875000Y-56200000D03*
%TD*%
D17*
%TO.P,Y1,1,1*%
%TO.N,Net-(C1-Pad1)*%
X155702000Y-74676000D03*
%TO.P,Y1,2,2*%
%TO.N,GND*%
X153502000Y-74676000D03*
%TO.P,Y1,3,3*%
%TO.N,Net-(C2-Pad1)*%
X153502000Y-76376000D03*
%TO.P,Y1,4,4*%
%TO.N,GND*%
X155702000Y-76376000D03*
%TD*%
D18*
%TO.P,U1,1,PE6*%
%TO.N,unconnected-(U1-Pad1)*%
X147875000Y-54325000D03*
%TO.P,U1,2,PE7*%
%TO.N,unconnected-(U1-Pad2)*%
X147875000Y-55125000D03*
%TO.P,U1,3,UVCC*%
%TO.N,+5V*%
X147875000Y-55925000D03*
%TO.P,U1,4,D-*%
%TO.N,Net-(R2-Pad2)*%
X147875000Y-56725000D03*
%TO.P,U1,5,D+*%
%TO.N,Net-(R1-Pad2)*%
X147875000Y-57525000D03*
%TO.P,U1,6,UGND*%
%TO.N,GND*%
X147875000Y-58325000D03*
%TO.P,U1,7,UCAP*%
%TO.N,Net-(U1-Pad7)*%
X147875000Y-59125000D03*
%TO.P,U1,8,VBUS*%
%TO.N,+5V*%
X147875000Y-59925000D03*
%TO.P,U1,9,PE3*%
%TO.N,unconnected-(U1-Pad9)*%
X147875000Y-60725000D03*
%TO.P,U1,10,PB0*%
%TO.N,unconnected-(U1-Pad10)*%
X147875000Y-61525000D03*
%TO.P,U1,11,PB1*%
%TO.N,unconnected-(U1-Pad11)*%
X147875000Y-62325000D03*
%TO.P,U1,12,PB2*%
%TO.N,COL0*%
X147875000Y-63125000D03*
%TO.P,U1,13,PB3*%
%TO.N,COL1*%
X147875000Y-63925000D03*
%TO.P,U1,14,PB4*%
%TO.N,COL2*%
X147875000Y-64725000D03*
%TO.P,U1,15,PB5*%
%TO.N,COL3*%
X147875000Y-65525000D03*
%TO.P,U1,16,PB6*%
%TO.N,COL4*%
X147875000Y-66325000D03*
D19*
%TO.P,U1,17,PB7*%
%TO.N,COL5*%
X149575000Y-68025000D03*
%TO.P,U1,18,PE4*%
%TO.N,unconnected-(U1-Pad18)*%
X150375000Y-68025000D03*
%TO.P,U1,19,PE5*%
%TO.N,unconnected-(U1-Pad19)*%
X151175000Y-68025000D03*
%TO.P,U1,20,~{RESET}*%
%TO.N,Net-(R6-Pad2)*%
X151975000Y-68025000D03*
%TO.P,U1,21,VCC*%
%TO.N,+5V*%
X152775000Y-68025000D03*
%TO.P,U1,22,GND*%
%TO.N,GND*%
X153575000Y-68025000D03*
%TO.P,U1,23,XTAL2*%
%TO.N,Net-(C2-Pad1)*%
X154375000Y-68025000D03*
%TO.P,U1,24,XTAL1*%
%TO.N,Net-(C1-Pad1)*%
X155175000Y-68025000D03*
%TO.P,U1,25,PD0*%
%TO.N,unconnected-(U1-Pad25)*%
X155975000Y-68025000D03*
%TO.P,U1,26,PD1*%
%TO.N,unconnected-(U1-Pad26)*%
X156775000Y-68025000D03*
%TO.P,U1,27,PD2*%
%TO.N,unconnected-(U1-Pad27)*%
X157575000Y-68025000D03*
%TO.P,U1,28,PD3*%
%TO.N,unconnected-(U1-Pad28)*%
X158375000Y-68025000D03*
%TO.P,U1,29,PD4*%
%TO.N,unconnected-(U1-Pad29)*%
X159175000Y-68025000D03*
%TO.P,U1,30,PD5*%
%TO.N,unconnected-(U1-Pad30)*%
X159975000Y-68025000D03*
%TO.P,U1,31,PD6*%
%TO.N,unconnected-(U1-Pad31)*%
X160775000Y-68025000D03*
%TO.P,U1,32,PD7*%
%TO.N,unconnected-(U1-Pad32)*%
X161575000Y-68025000D03*
D18*
%TO.P,U1,33,PE0*%
%TO.N,COL6*%
X163275000Y-66325000D03*
%TO.P,U1,34,PE1*%
%TO.N,COL7*%
X163275000Y-65525000D03*
%TO.P,U1,35,PC0*%
%TO.N,COL8*%
X163275000Y-64725000D03*
%TO.P,U1,36,PC1*%
%TO.N,COL9*%
X163275000Y-63925000D03*
%TO.P,U1,37,PC2*%
%TO.N,ROW0*%
X163275000Y-63125000D03*
%TO.P,U1,38,PC3*%
%TO.N,ROW1*%
X163275000Y-62325000D03*
%TO.P,U1,39,PC4*%
%TO.N,ROW2*%
X163275000Y-61525000D03*
%TO.P,U1,40,PC5*%
%TO.N,ROW3*%
X163275000Y-60725000D03*
%TO.P,U1,41,PC6*%
%TO.N,ROW4*%
X163275000Y-59925000D03*
%TO.P,U1,42,PC7*%
%TO.N,unconnected-(U1-Pad42)*%
X163275000Y-59125000D03*
%TO.P,U1,43,PE2/~{HWB}*%
%TO.N,Net-(R5-Pad2)*%
X163275000Y-58325000D03*
%TO.P,U1,44,PA7*%
%TO.N,unconnected-(U1-Pad44)*%
X163275000Y-57525000D03*
%TO.P,U1,45,PA6*%
%TO.N,unconnected-(U1-Pad45)*%
X163275000Y-56725000D03*
%TO.P,U1,46,PA5*%
%TO.N,unconnected-(U1-Pad46)*%
X163275000Y-55925000D03*
%TO.P,U1,47,PA4*%
%TO.N,unconnected-(U1-Pad47)*%
X163275000Y-55125000D03*
%TO.P,U1,48,PA3*%
%TO.N,unconnected-(U1-Pad48)*%
X163275000Y-54325000D03*
D19*
%TO.P,U1,49,PA2*%
%TO.N,unconnected-(U1-Pad49)*%
X161575000Y-52625000D03*
%TO.P,U1,50,PA1*%
%TO.N,unconnected-(U1-Pad50)*%
X160775000Y-52625000D03*
%TO.P,U1,51,PA0*%
%TO.N,unconnected-(U1-Pad51)*%
X159975000Y-52625000D03*
%TO.P,U1,52,VCC*%
%TO.N,+5V*%
X159175000Y-52625000D03*
%TO.P,U1,53,GND*%
%TO.N,GND*%
X158375000Y-52625000D03*
%TO.P,U1,54,PF7*%
%TO.N,unconnected-(U1-Pad54)*%
X157575000Y-52625000D03*
%TO.P,U1,55,PF6*%
%TO.N,unconnected-(U1-Pad55)*%
X156775000Y-52625000D03*
%TO.P,U1,56,PF5*%
%TO.N,unconnected-(U1-Pad56)*%
X155975000Y-52625000D03*
%TO.P,U1,57,PF4*%
%TO.N,unconnected-(U1-Pad57)*%
X155175000Y-52625000D03*
%TO.P,U1,58,PF3*%
%TO.N,unconnected-(U1-Pad58)*%
X154375000Y-52625000D03*
%TO.P,U1,59,PF2*%
%TO.N,unconnected-(U1-Pad59)*%
X153575000Y-52625000D03*
%TO.P,U1,60,PF1*%
%TO.N,unconnected-(U1-Pad60)*%
X152775000Y-52625000D03*
%TO.P,U1,61,PF0*%
%TO.N,unconnected-(U1-Pad61)*%
X151975000Y-52625000D03*
%TO.P,U1,62,AREF*%
%TO.N,unconnected-(U1-Pad62)*%
X151175000Y-52625000D03*
%TO.P,U1,63,GND*%
%TO.N,GND*%
X150375000Y-52625000D03*
%TO.P,U1,64,AVCC*%
%TO.N,+5V*%
X149575000Y-52625000D03*
%TD*%
D20*
%TO.P,SW32,1,1*%
%TO.N,GND*%
X101337500Y-82475000D03*
%TO.P,SW32,2,2*%
%TO.N,Net-(R6-Pad2)*%
X105037500Y-76275000D03*
%TO.P,SW32,3*%
%TO.N,N/C*%
X105037500Y-82475000D03*
%TO.P,SW32,4*%
X101337500Y-76275000D03*
%TD*%
D21*
%TO.P,SW29,2*%
%TO.N,COL9*%
X224790000Y-117157500D03*
%TO.P,SW29,1*%
%TO.N,Net-(D29-Pad2)*%
X218440000Y-119697500D03*
D22*
%TO.P,SW29,3*%
%TO.N,N/C*%
X220980000Y-127317500D03*
D23*
%TO.P,SW29,4*%
X223520000Y-127317500D03*
%TD*%
D21*
%TO.P,SW28,2*%
%TO.N,COL9*%
X224790000Y-98107500D03*
%TO.P,SW28,1*%
%TO.N,Net-(D28-Pad2)*%
X218440000Y-100647500D03*
D22*
%TO.P,SW28,3*%
%TO.N,N/C*%
X220980000Y-108267500D03*
D23*
%TO.P,SW28,4*%
X223520000Y-108267500D03*
%TD*%
D21*
%TO.P,SW27,2*%
%TO.N,COL8*%
X205740000Y-117157500D03*
%TO.P,SW27,1*%
%TO.N,Net-(D27-Pad2)*%
X199390000Y-119697500D03*
D22*
%TO.P,SW27,3*%
%TO.N,N/C*%
X201930000Y-127317500D03*
D23*
%TO.P,SW27,4*%
X204470000Y-127317500D03*
%TD*%
D21*
%TO.P,SW26,2*%
%TO.N,COL8*%
X205740000Y-98107500D03*
%TO.P,SW26,1*%
%TO.N,Net-(D26-Pad2)*%
X199390000Y-100647500D03*
D22*
%TO.P,SW26,3*%
%TO.N,N/C*%
X201930000Y-108267500D03*
D23*
%TO.P,SW26,4*%
X204470000Y-108267500D03*
%TD*%
D24*
%TO.P,SW31,*%
%TO.N,*%
X183356250Y-53225000D03*
X183356250Y-42025000D03*
D25*
%TO.P,SW31,A,A*%
%TO.N,unconnected-(SW31-PadA)*%
X175856250Y-45125000D03*
D26*
%TO.P,SW31,B,B*%
%TO.N,unconnected-(SW31-PadB)*%
X175856250Y-50125000D03*
%TO.P,SW31,C,C*%
%TO.N,unconnected-(SW31-PadC)*%
X175856250Y-47625000D03*
%TO.P,SW31,S1*%
%TO.N,N/C*%
X190356250Y-50125000D03*
%TO.P,SW31,S2*%
X190356250Y-45125000D03*
%TD*%
D24*
%TO.P,SW30,*%
%TO.N,*%
X183356250Y-77831250D03*
X183356250Y-66631250D03*
D25*
%TO.P,SW30,A,A*%
%TO.N,unconnected-(SW30-PadA)*%
X175856250Y-69731250D03*
D26*
%TO.P,SW30,B,B*%
%TO.N,unconnected-(SW30-PadB)*%
X175856250Y-74731250D03*
%TO.P,SW30,C,C*%
%TO.N,unconnected-(SW30-PadC)*%
X175856250Y-72231250D03*
%TO.P,SW30,S1*%
%TO.N,N/C*%
X190356250Y-74731250D03*
%TO.P,SW30,S2*%
X190356250Y-69731250D03*
%TD*%
D21*
%TO.P,SW25,2*%
%TO.N,COL7*%
X186690000Y-117157500D03*
%TO.P,SW25,1*%
%TO.N,Net-(D25-Pad2)*%
X180340000Y-119697500D03*
D22*
%TO.P,SW25,3*%
%TO.N,N/C*%
X182880000Y-127317500D03*
D23*
%TO.P,SW25,4*%
X185420000Y-127317500D03*
%TD*%
D21*
%TO.P,SW24,2*%
%TO.N,COL7*%
X186690000Y-98107500D03*
%TO.P,SW24,1*%
%TO.N,Net-(D24-Pad2)*%
X180340000Y-100647500D03*
D22*
%TO.P,SW24,3*%
%TO.N,N/C*%
X182880000Y-108267500D03*
D23*
%TO.P,SW24,4*%
X185420000Y-108267500D03*
%TD*%
D21*
%TO.P,SW23,2*%
%TO.N,COL6*%
X167640000Y-117157500D03*
%TO.P,SW23,1*%
%TO.N,Net-(D23-Pad2)*%
X161290000Y-119697500D03*
D22*
%TO.P,SW23,3*%
%TO.N,N/C*%
X163830000Y-127317500D03*
D23*
%TO.P,SW23,4*%
X166370000Y-127317500D03*
%TD*%
D21*
%TO.P,SW22,2*%
%TO.N,COL6*%
X167640000Y-98107500D03*
%TO.P,SW22,1*%
%TO.N,Net-(D22-Pad2)*%
X161290000Y-100647500D03*
D22*
%TO.P,SW22,3*%
%TO.N,N/C*%
X163830000Y-108267500D03*
D23*
%TO.P,SW22,4*%
X166370000Y-108267500D03*
%TD*%
%TO.P,SW21,4*%
%TO.N,N/C*%
X147320000Y-127317500D03*
D22*
%TO.P,SW21,3*%
X144780000Y-127317500D03*
D21*
%TO.P,SW21,1*%
%TO.N,Net-(D21-Pad2)*%
X142240000Y-119697500D03*
%TO.P,SW21,2*%
%TO.N,COL5*%
X148590000Y-117157500D03*
%TD*%
%TO.P,SW20,2*%
%TO.N,COL5*%
X148590000Y-98107500D03*
%TO.P,SW20,1*%
%TO.N,Net-(D20-Pad2)*%
X142240000Y-100647500D03*
D22*
%TO.P,SW20,3*%
%TO.N,N/C*%
X144780000Y-108267500D03*
D23*
%TO.P,SW20,4*%
X147320000Y-108267500D03*
%TD*%
D21*
%TO.P,SW19,2*%
%TO.N,COL4*%
X129540000Y-117157500D03*
%TO.P,SW19,1*%
%TO.N,Net-(D19-Pad2)*%
X123190000Y-119697500D03*
D22*
%TO.P,SW19,3*%
%TO.N,N/C*%
X125730000Y-127317500D03*
D23*
%TO.P,SW19,4*%
X128270000Y-127317500D03*
%TD*%
D21*
%TO.P,SW18,2*%
%TO.N,COL4*%
X129540000Y-98107500D03*
%TO.P,SW18,1*%
%TO.N,Net-(D18-Pad2)*%
X123190000Y-100647500D03*
D22*
%TO.P,SW18,3*%
%TO.N,N/C*%
X125730000Y-108267500D03*
D23*
%TO.P,SW18,4*%
X128270000Y-108267500D03*
%TD*%
D21*
%TO.P,SW17,2*%
%TO.N,COL3*%
X110490000Y-117157500D03*
%TO.P,SW17,1*%
%TO.N,Net-(D17-Pad2)*%
X104140000Y-119697500D03*
D22*
%TO.P,SW17,3*%
%TO.N,N/C*%
X106680000Y-127317500D03*
D23*
%TO.P,SW17,4*%
X109220000Y-127317500D03*
%TD*%
D21*
%TO.P,SW16,2*%
%TO.N,COL3*%
X110490000Y-98107500D03*
%TO.P,SW16,1*%
%TO.N,Net-(D16-Pad2)*%
X104140000Y-100647500D03*
D22*
%TO.P,SW16,3*%
%TO.N,N/C*%
X106680000Y-108267500D03*
D23*
%TO.P,SW16,4*%
X109220000Y-108267500D03*
%TD*%
D21*
%TO.P,SW15,2*%
%TO.N,COL2*%
X91440000Y-117157500D03*
%TO.P,SW15,1*%
%TO.N,Net-(D15-Pad2)*%
X85090000Y-119697500D03*
D22*
%TO.P,SW15,3*%
%TO.N,N/C*%
X87630000Y-127317500D03*
D23*
%TO.P,SW15,4*%
X90170000Y-127317500D03*
%TD*%
D21*
%TO.P,SW14,2*%
%TO.N,COL2*%
X91440000Y-98107500D03*
%TO.P,SW14,1*%
%TO.N,Net-(D14-Pad2)*%
X85090000Y-100647500D03*
D22*
%TO.P,SW14,3*%
%TO.N,N/C*%
X87630000Y-108267500D03*
D23*
%TO.P,SW14,4*%
X90170000Y-108267500D03*
%TD*%
D21*
%TO.P,SW13,2*%
%TO.N,COL2*%
X81915000Y-74295000D03*
%TO.P,SW13,1*%
%TO.N,Net-(D13-Pad2)*%
X75565000Y-76835000D03*
D22*
%TO.P,SW13,3*%
%TO.N,N/C*%
X78105000Y-84455000D03*
D23*
%TO.P,SW13,4*%
X80645000Y-84455000D03*
%TD*%
D21*
%TO.P,SW12,2*%
%TO.N,COL2*%
X81915000Y-55245000D03*
%TO.P,SW12,1*%
%TO.N,Net-(D12-Pad2)*%
X75565000Y-57785000D03*
D22*
%TO.P,SW12,3*%
%TO.N,N/C*%
X78105000Y-65405000D03*
D23*
%TO.P,SW12,4*%
X80645000Y-65405000D03*
%TD*%
D21*
%TO.P,SW11,2*%
%TO.N,COL2*%
X81915000Y-36195000D03*
%TO.P,SW11,1*%
%TO.N,Net-(D11-Pad2)*%
X75565000Y-38735000D03*
D22*
%TO.P,SW11,3*%
%TO.N,N/C*%
X78105000Y-46355000D03*
D23*
%TO.P,SW11,4*%
X80645000Y-46355000D03*
%TD*%
D21*
%TO.P,SW10,2*%
%TO.N,COL1*%
X70008750Y-117157500D03*
%TO.P,SW10,1*%
%TO.N,Net-(D10-Pad2)*%
X63658750Y-119697500D03*
D22*
%TO.P,SW10,3*%
%TO.N,N/C*%
X66198750Y-127317500D03*
D23*
%TO.P,SW10,4*%
X68738750Y-127317500D03*
%TD*%
D21*
%TO.P,SW9,2*%
%TO.N,COL1*%
X72390000Y-98107500D03*
%TO.P,SW9,1*%
%TO.N,Net-(D9-Pad2)*%
X66040000Y-100647500D03*
D22*
%TO.P,SW9,3*%
%TO.N,N/C*%
X68580000Y-108267500D03*
D23*
%TO.P,SW9,4*%
X71120000Y-108267500D03*
%TD*%
D21*
%TO.P,SW8,2*%
%TO.N,COL1*%
X62865000Y-74295000D03*
%TO.P,SW8,1*%
%TO.N,Net-(D8-Pad2)*%
X56515000Y-76835000D03*
D22*
%TO.P,SW8,3*%
%TO.N,N/C*%
X59055000Y-84455000D03*
D23*
%TO.P,SW8,4*%
X61595000Y-84455000D03*
%TD*%
D21*
%TO.P,SW7,2*%
%TO.N,COL1*%
X62865000Y-55245000D03*
%TO.P,SW7,1*%
%TO.N,Net-(D7-Pad2)*%
X56515000Y-57785000D03*
D22*
%TO.P,SW7,3*%
%TO.N,N/C*%
X59055000Y-65405000D03*
D23*
%TO.P,SW7,4*%
X61595000Y-65405000D03*
%TD*%
D21*
%TO.P,SW6,2*%
%TO.N,COL1*%
X62865000Y-36195000D03*
%TO.P,SW6,1*%
%TO.N,Net-(D6-Pad2)*%
X56515000Y-38735000D03*
D22*
%TO.P,SW6,3*%
%TO.N,N/C*%
X59055000Y-46355000D03*
D23*
%TO.P,SW6,4*%
X61595000Y-46355000D03*
%TD*%
D21*
%TO.P,SW5,2*%
%TO.N,COL0*%
X46196250Y-117157500D03*
%TO.P,SW5,1*%
%TO.N,Net-(D5-Pad2)*%
X39846250Y-119697500D03*
D22*
%TO.P,SW5,3*%
%TO.N,N/C*%
X42386250Y-127317500D03*
D23*
%TO.P,SW5,4*%
X44926250Y-127317500D03*
%TD*%
D21*
%TO.P,SW4,2*%
%TO.N,COL0*%
X48577500Y-98107500D03*
%TO.P,SW4,1*%
%TO.N,Net-(D4-Pad2)*%
X42227500Y-100647500D03*
D22*
%TO.P,SW4,3*%
%TO.N,N/C*%
X44767500Y-108267500D03*
D23*
%TO.P,SW4,4*%
X47307500Y-108267500D03*
%TD*%
D21*
%TO.P,SW3,2*%
%TO.N,COL0*%
X43815000Y-74295000D03*
%TO.P,SW3,1*%
%TO.N,Net-(D3-Pad2)*%
X37465000Y-76835000D03*
D22*
%TO.P,SW3,3*%
%TO.N,N/C*%
X40005000Y-84455000D03*
D23*
%TO.P,SW3,4*%
X42545000Y-84455000D03*
%TD*%
D21*
%TO.P,SW2,2*%
%TO.N,COL0*%
X43815000Y-55245000D03*
%TO.P,SW2,1*%
%TO.N,Net-(D2-Pad2)*%
X37465000Y-57785000D03*
D22*
%TO.P,SW2,3*%
%TO.N,N/C*%
X40005000Y-65405000D03*
D23*
%TO.P,SW2,4*%
X42545000Y-65405000D03*
%TD*%
D21*
%TO.P,SW1,2*%
%TO.N,COL0*%
X43815000Y-36195000D03*
%TO.P,SW1,1*%
%TO.N,Net-(D1-Pad2)*%
X37465000Y-38735000D03*
D22*
%TO.P,SW1,3*%
%TO.N,N/C*%
X40005000Y-46355000D03*
D23*
%TO.P,SW1,4*%
X42545000Y-46355000D03*
%TD*%
D27*
%TO.P,S1,A1,A1*%
%TO.N,unconnected-(S1-PadA1)*%
X121997500Y-65315000D03*
D28*
%TO.P,S1,A11,A11*%
%TO.N,unconnected-(S1-PadA11)*%
X133977500Y-62065000D03*
%TO.P,S1,A12,A12*%
%TO.N,unconnected-(S1-PadA12)*%
X133977500Y-59565000D03*
%TO.P,S1,A13,A13*%
%TO.N,unconnected-(S1-PadA13)*%
X133977500Y-57065000D03*
D27*
%TO.P,S1,B1,B1*%
%TO.N,unconnected-(S1-PadB1)*%
X121997500Y-69815000D03*
D28*
%TO.P,S1,B11,B11*%
%TO.N,unconnected-(S1-PadB11)*%
X127747500Y-50835000D03*
%TO.P,S1,B12,B12*%
%TO.N,unconnected-(S1-PadB12)*%
X125247500Y-50835000D03*
%TO.P,S1,B13,B13*%
%TO.N,unconnected-(S1-PadB13)*%
X122747500Y-50835000D03*
D27*
%TO.P,S1,C1,C1*%
%TO.N,unconnected-(S1-PadC1)*%
X128497500Y-65315000D03*
%TO.P,S1,D1,D1*%
%TO.N,unconnected-(S1-PadD1)*%
X128497500Y-69815000D03*
D29*
%TO.P,S1,MH1,MH1*%
%TO.N,unconnected-(S1-PadMH1)*%
X118922500Y-64565000D03*
%TO.P,S1,MH2,MH2*%
%TO.N,unconnected-(S1-PadMH2)*%
X118922500Y-54565000D03*
%TO.P,S1,MH3,MH3*%
%TO.N,unconnected-(S1-PadMH3)*%
X131572500Y-64565000D03*
%TO.P,S1,MH4,MH4*%
%TO.N,unconnected-(S1-PadMH4)*%
X131572500Y-54565000D03*
D30*
%TO.P,S1,MH5,MH5*%
%TO.N,unconnected-(S1-PadMH5)*%
X120947500Y-59565000D03*
%TO.P,S1,MH6,MH6*%
%TO.N,unconnected-(S1-PadMH6)*%
X129547500Y-59565000D03*
%TD*%
D31*
%TO.P,R6,1*%
%TO.N,+5V*%
X148486500Y-72771000D03*
%TO.P,R6,2*%
%TO.N,Net-(R6-Pad2)*%
X146661500Y-72771000D03*
%TD*%
D32*
%TO.P,R5,1*%
%TO.N,GND*%
X167481250Y-60562500D03*
%TO.P,R5,2*%
%TO.N,Net-(R5-Pad2)*%
X167481250Y-58737500D03*
%TD*%
D33*
%TO.P,R4,1*%
%TO.N,CC2*%
X107950000Y-47506250D03*
%TO.P,R4,2*%
%TO.N,GND*%
X107950000Y-49331250D03*
%TD*%
%TO.P,R3,1*%
%TO.N,CC1*%
X103187500Y-47506250D03*
%TO.P,R3,2*%
%TO.N,GND*%
X103187500Y-49331250D03*
%TD*%
D34*
%TO.P,R2,1*%
%TO.N,D-*%
X123706250Y-43656250D03*
%TO.P,R2,2*%
%TO.N,Net-(R2-Pad2)*%
X125531250Y-43656250D03*
%TD*%
%TO.P,R1,1*%
%TO.N,D+*%
X123706250Y-40481250D03*
%TO.P,R1,2*%
%TO.N,Net-(R1-Pad2)*%
X125531250Y-40481250D03*
%TD*%
D35*
%TO.P,D29,1,K*%
%TO.N,ROW4*%
X215775000Y-130968750D03*
%TO.P,D29,2,A*%
%TO.N,Net-(D29-Pad2)*%
X219075000Y-130968750D03*
%TD*%
%TO.P,D28,1,K*%
%TO.N,ROW3*%
X215837500Y-111918750D03*
%TO.P,D28,2,A*%
%TO.N,Net-(D28-Pad2)*%
X219137500Y-111918750D03*
%TD*%
%TO.P,D27,1,K*%
%TO.N,ROW4*%
X196787500Y-130968750D03*
%TO.P,D27,2,A*%
%TO.N,Net-(D27-Pad2)*%
X200087500Y-130968750D03*
%TD*%
%TO.P,D26,1,K*%
%TO.N,ROW3*%
X196787500Y-111918750D03*
%TO.P,D26,2,A*%
%TO.N,Net-(D26-Pad2)*%
X200087500Y-111918750D03*
%TD*%
%TO.P,D25,1,K*%
%TO.N,ROW4*%
X177737500Y-130968750D03*
%TO.P,D25,2,A*%
%TO.N,Net-(D25-Pad2)*%
X181037500Y-130968750D03*
%TD*%
%TO.P,D24,1,K*%
%TO.N,ROW3*%
X177737500Y-111918750D03*
%TO.P,D24,2,A*%
%TO.N,Net-(D24-Pad2)*%
X181037500Y-111918750D03*
%TD*%
%TO.P,D23,1,K*%
%TO.N,ROW4*%
X158687500Y-130968750D03*
%TO.P,D23,2,A*%
%TO.N,Net-(D23-Pad2)*%
X161987500Y-130968750D03*
%TD*%
%TO.P,D22,1,K*%
%TO.N,ROW3*%
X158687500Y-111918750D03*
%TO.P,D22,2,A*%
%TO.N,Net-(D22-Pad2)*%
X161987500Y-111918750D03*
%TD*%
%TO.P,D21,1,K*%
%TO.N,ROW4*%
X139637500Y-130968750D03*
%TO.P,D21,2,A*%
%TO.N,Net-(D21-Pad2)*%
X142937500Y-130968750D03*
%TD*%
%TO.P,D20,1,K*%
%TO.N,ROW3*%
X139637500Y-111918750D03*
%TO.P,D20,2,A*%
%TO.N,Net-(D20-Pad2)*%
X142937500Y-111918750D03*
%TD*%
%TO.P,D19,1,K*%
%TO.N,ROW4*%
X120587500Y-130968750D03*
%TO.P,D19,2,A*%
%TO.N,Net-(D19-Pad2)*%
X123887500Y-130968750D03*
%TD*%
%TO.P,D18,1,K*%
%TO.N,ROW3*%
X120587500Y-111918750D03*
%TO.P,D18,2,A*%
%TO.N,Net-(D18-Pad2)*%
X123887500Y-111918750D03*
%TD*%
%TO.P,D17,1,K*%
%TO.N,ROW4*%
X101537500Y-130968750D03*
%TO.P,D17,2,A*%
%TO.N,Net-(D17-Pad2)*%
X104837500Y-130968750D03*
%TD*%
%TO.P,D16,1,K*%
%TO.N,ROW3*%
X101537500Y-111918750D03*
%TO.P,D16,2,A*%
%TO.N,Net-(D16-Pad2)*%
X104837500Y-111918750D03*
%TD*%
%TO.P,D15,1,K*%
%TO.N,ROW4*%
X82487500Y-130968750D03*
%TO.P,D15,2,A*%
%TO.N,Net-(D15-Pad2)*%
X85787500Y-130968750D03*
%TD*%
%TO.P,D14,1,K*%
%TO.N,ROW3*%
X82487500Y-111918750D03*
%TO.P,D14,2,A*%
%TO.N,Net-(D14-Pad2)*%
X85787500Y-111918750D03*
%TD*%
%TO.P,D13,1,K*%
%TO.N,ROW2*%
X72962500Y-88106250D03*
%TO.P,D13,2,A*%
%TO.N,Net-(D13-Pad2)*%
X76262500Y-88106250D03*
%TD*%
%TO.P,D12,1,K*%
%TO.N,ROW1*%
X72962500Y-69056250D03*
%TO.P,D12,2,A*%
%TO.N,Net-(D12-Pad2)*%
X76262500Y-69056250D03*
%TD*%
%TO.P,D11,2,A*%
%TO.N,Net-(D11-Pad2)*%
X76262500Y-50006250D03*
%TO.P,D11,1,K*%
%TO.N,ROW0*%
X72962500Y-50006250D03*
%TD*%
%TO.P,D10,1,K*%
%TO.N,ROW4*%
X61056250Y-130968750D03*
%TO.P,D10,2,A*%
%TO.N,Net-(D10-Pad2)*%
X64356250Y-130968750D03*
%TD*%
%TO.P,D9,1,K*%
%TO.N,ROW3*%
X63437500Y-111918750D03*
%TO.P,D9,2,A*%
%TO.N,Net-(D9-Pad2)*%
X66737500Y-111918750D03*
%TD*%
%TO.P,D8,1,K*%
%TO.N,ROW2*%
X53912500Y-88106250D03*
%TO.P,D8,2,A*%
%TO.N,Net-(D8-Pad2)*%
X57212500Y-88106250D03*
%TD*%
%TO.P,D7,1,K*%
%TO.N,ROW1*%
X53912500Y-69056250D03*
%TO.P,D7,2,A*%
%TO.N,Net-(D7-Pad2)*%
X57212500Y-69056250D03*
%TD*%
%TO.P,D6,1,K*%
%TO.N,ROW0*%
X53912500Y-50006250D03*
%TO.P,D6,2,A*%
%TO.N,Net-(D6-Pad2)*%
X57212500Y-50006250D03*
%TD*%
%TO.P,D5,1,K*%
%TO.N,ROW4*%
X37243750Y-130968750D03*
%TO.P,D5,2,A*%
%TO.N,Net-(D5-Pad2)*%
X40543750Y-130968750D03*
%TD*%
%TO.P,D4,1,K*%
%TO.N,ROW3*%
X39625000Y-111918750D03*
%TO.P,D4,2,A*%
%TO.N,Net-(D4-Pad2)*%
X42925000Y-111918750D03*
%TD*%
%TO.P,D3,1,K*%
%TO.N,ROW2*%
X34862500Y-88106250D03*
%TO.P,D3,2,A*%
%TO.N,Net-(D3-Pad2)*%
X38162500Y-88106250D03*
%TD*%
%TO.P,D2,1,K*%
%TO.N,ROW1*%
X34862500Y-69056250D03*
%TO.P,D2,2,A*%
%TO.N,Net-(D2-Pad2)*%
X38162500Y-69056250D03*
%TD*%
%TO.P,D1,2,A*%
%TO.N,Net-(D1-Pad2)*%
X38162500Y-50006250D03*
%TO.P,D1,1,K*%
%TO.N,ROW0*%
X34862500Y-50006250D03*
%TD*%
D15*
%TO.P,C7,2*%
%TO.N,+5V*%
X139062500Y-44450000D03*
%TO.P,C7,1*%
%TO.N,GND*%
X137162500Y-44450000D03*
%TD*%
%TO.P,C8,1*%
%TO.N,GND*%
X142560000Y-62230000D03*
%TO.P,C8,2*%
%TO.N,Net-(U1-Pad7)*%
X144460000Y-62230000D03*
%TD*%
%TO.P,C2,1*%
%TO.N,Net-(C2-Pad1)*%
X146531250Y-75406250D03*
%TO.P,C2,2*%
%TO.N,GND*%
X148431250Y-75406250D03*
%TD*%
%TO.P,C1,1*%
%TO.N,Net-(C1-Pad1)*%
X159543750Y-75406250D03*
%TO.P,C1,2*%
%TO.N,GND*%
X161443750Y-75406250D03*
%TD*%
D36*
%TO.N,D-*%
X101612498Y-43275230D03*
%TO.N,GND*%
X192881250Y-53181250D03*
%TO.N,+5V*%
X168275000Y-54768750D03*
X172243750Y-54768750D03*
%TO.N,GND*%
X151130000Y-58420000D03*
X151130000Y-60960000D03*
%TO.N,ROW4*%
X176657000Y-129794000D03*
X165862000Y-59944000D03*
%TO.N,ROW3*%
X158623000Y-109982000D03*
X165108674Y-60741500D03*
%TO.N,ROW2*%
X71755000Y-74549000D03*
X165862000Y-61468000D03*
%TO.N,ROW1*%
X73025000Y-70993000D03*
X165100000Y-62357000D03*
%TO.N,COL5*%
X139724334Y-74951377D03*
%TO.N,COL4*%
X138701142Y-74947142D03*
%TO.N,COL3*%
X137679428Y-74941428D03*
%TO.N,COL2*%
X92710000Y-83820000D03*
X136657714Y-74935714D03*
%TO.N,COL1*%
X135636000Y-74930000D03*
%TO.N,COL0*%
X87249000Y-74930000D03*
%TO.N,+5V*%
X170180000Y-62230000D03*
%TO.N,GND*%
X168402000Y-67790000D03*
X168402000Y-62230000D03*
X149987000Y-75438000D03*
X153593865Y-69440135D03*
X151511000Y-43660000D03*
X151511000Y-45339000D03*
%TO.N,Net-(R1-Pad2)*%
X141478000Y-57716500D03*
X127763868Y-42688499D03*
%TO.N,Net-(R2-Pad2)*%
X145908461Y-56990000D03*
X127762000Y-43688000D03*
%TO.N,D-*%
X108796041Y-44560503D03*
X103211000Y-44560503D03*
%TO.N,D+*%
X103211000Y-43561000D03*
X108796041Y-43561000D03*
%TO.N,ROW0*%
X43656250Y-50006250D03*
X46037500Y-50006250D03*
X62706250Y-50006250D03*
X65087500Y-50006250D03*
%TO.N,ROW1*%
X62706250Y-69056250D03*
X65087500Y-69056250D03*
X43656250Y-69056250D03*
X46037500Y-69056250D03*
%TO.N,ROW2*%
X50006250Y-88106250D03*
X46831250Y-88106250D03*
X62706250Y-88106250D03*
X65087500Y-88106250D03*
%TO.N,ROW3*%
X48418750Y-111918750D03*
X50800000Y-111918750D03*
X72231250Y-111918750D03*
X74612500Y-111918750D03*
X91281250Y-111918750D03*
X93662500Y-111918750D03*
X110331250Y-111918750D03*
X112712500Y-111918750D03*
X129381250Y-111918750D03*
X131762500Y-111918750D03*
X148431250Y-111918750D03*
X150812500Y-111918750D03*
X167481250Y-111918750D03*
X169862500Y-111918750D03*
X186531250Y-111918750D03*
X188912500Y-111918750D03*
X205581250Y-111918750D03*
X207962500Y-111918750D03*
%TO.N,+5V*%
X166370000Y-68580000D03*
%TO.N,Net-(C2-Pad1)*%
X150749000Y-78232000D03*
X150749000Y-76454000D03*
%TO.N,+5V*%
X153648500Y-70612000D03*
X155956000Y-70612000D03*
%TD*%
D37*
%TO.N,D-*%
X101616476Y-43271252D02*
X101612498Y-43275230D01*
X102511489Y-43271252D02*
X101616476Y-43271252D01*
%TO.N,D+*%
X102787500Y-41099443D02*
X102787500Y-41016250D01*
X103437500Y-41749443D02*
X102787500Y-41099443D01*
X103437500Y-42326250D02*
X103437500Y-41749443D01*
D38*
%TO.N,GND*%
X99057500Y-40416250D02*
X99787500Y-40416250D01*
X99787500Y-40416250D02*
X100387500Y-41016250D01*
X105987500Y-42316261D02*
X105977511Y-42326250D01*
X105987500Y-41016250D02*
X105987500Y-42316261D01*
X105987500Y-41016250D02*
X106587500Y-40416250D01*
X106587500Y-40416250D02*
X107317500Y-40416250D01*
D39*
%TO.N,CC2*%
X103810000Y-38893750D02*
X102387500Y-40316250D01*
X107156250Y-38893750D02*
X103810000Y-38893750D01*
X107618434Y-39355934D02*
X107156250Y-38893750D01*
X107618434Y-39389730D02*
X107618434Y-39355934D01*
D38*
%TO.N,GND*%
X196337500Y-49725000D02*
X192881250Y-53181250D01*
X211486250Y-49725000D02*
X196337500Y-49725000D01*
%TO.N,+5V*%
X168275000Y-49212500D02*
X168433750Y-49053750D01*
X168275000Y-54768750D02*
X168275000Y-49212500D01*
X168433750Y-49053750D02*
X170180000Y-50800000D01*
X167576500Y-48196500D02*
X168433750Y-49053750D01*
X208982500Y-54768750D02*
X172243750Y-54768750D01*
X214026250Y-49725000D02*
X208982500Y-54768750D01*
%TO.N,GND*%
X147970000Y-58420000D02*
X147875000Y-58325000D01*
X153575000Y-63405000D02*
X151130000Y-60960000D01*
X153575000Y-68025000D02*
X153575000Y-63405000D01*
X151130000Y-58420000D02*
X147970000Y-58420000D01*
D39*
%TO.N,ROW4*%
X176657000Y-129888250D02*
X177737500Y-130968750D01*
X176657000Y-129794000D02*
X176657000Y-129888250D01*
X165843000Y-59925000D02*
X165862000Y-59944000D01*
X163275000Y-59925000D02*
X165843000Y-59925000D01*
%TO.N,ROW3*%
X158623000Y-111854250D02*
X158687500Y-111918750D01*
X158623000Y-109982000D02*
X158623000Y-111854250D01*
X165092174Y-60725000D02*
X165108674Y-60741500D01*
X163275000Y-60725000D02*
X165092174Y-60725000D01*
%TO.N,ROW2*%
X72962500Y-75756500D02*
X72962500Y-88106250D01*
X71755000Y-74549000D02*
X72962500Y-75756500D01*
X165805000Y-61525000D02*
X165862000Y-61468000D01*
X163275000Y-61525000D02*
X165805000Y-61525000D01*
%TO.N,ROW1*%
X73025000Y-69118750D02*
X72962500Y-69056250D01*
X73025000Y-70993000D02*
X73025000Y-69118750D01*
X165068000Y-62325000D02*
X165100000Y-62357000D01*
X163275000Y-62325000D02*
X165068000Y-62325000D01*
%TO.N,ROW0*%
X72962500Y-39178500D02*
X72962500Y-50006250D01*
X77397511Y-34743489D02*
X72962500Y-39178500D01*
X82516237Y-34743489D02*
X77397511Y-34743489D01*
X83366511Y-35593763D02*
X82516237Y-34743489D01*
X155704939Y-35593763D02*
X83366511Y-35593763D01*
X170942000Y-50830824D02*
X155704939Y-35593763D01*
X170942000Y-62495443D02*
X170942000Y-50830824D01*
X170312443Y-63125000D02*
X170942000Y-62495443D01*
X163275000Y-63125000D02*
X170312443Y-63125000D01*
%TO.N,COL9*%
X222821500Y-96139000D02*
X224790000Y-98107500D01*
X186173184Y-96139000D02*
X222821500Y-96139000D01*
X170618330Y-80584146D02*
X186173184Y-96139000D01*
X170618330Y-67054765D02*
X170618330Y-80584146D01*
X167488565Y-63925000D02*
X170618330Y-67054765D01*
X163275000Y-63925000D02*
X167488565Y-63925000D01*
%TO.N,COL8*%
X186048799Y-96655989D02*
X170164810Y-80772000D01*
X204288489Y-96655989D02*
X186048799Y-96655989D01*
X170164810Y-67242619D02*
X167647191Y-64725000D01*
X205740000Y-98107500D02*
X204288489Y-96655989D01*
X170164810Y-80772000D02*
X170164810Y-67242619D01*
X167647191Y-64725000D02*
X163275000Y-64725000D01*
%TO.N,COL7*%
X169711290Y-81128790D02*
X186690000Y-98107500D01*
X169711290Y-67430473D02*
X169711290Y-81128790D01*
X167805817Y-65525000D02*
X169711290Y-67430473D01*
X163275000Y-65525000D02*
X167805817Y-65525000D01*
%TO.N,COL6*%
X169257770Y-96489730D02*
X167640000Y-98107500D01*
X169257770Y-67618327D02*
X169257770Y-96489730D01*
X167964443Y-66325000D02*
X169257770Y-67618327D01*
X163275000Y-66325000D02*
X167964443Y-66325000D01*
%TO.N,COL5*%
X146650711Y-68025000D02*
X139724334Y-74951377D01*
X149575000Y-68025000D02*
X146650711Y-68025000D01*
D38*
%TO.N,GND*%
X153575000Y-69421270D02*
X153593865Y-69440135D01*
X153575000Y-68025000D02*
X153575000Y-69421270D01*
D39*
%TO.N,COL4*%
X147323284Y-66325000D02*
X138701142Y-74947142D01*
X147875000Y-66325000D02*
X147323284Y-66325000D01*
%TO.N,COL3*%
X147095856Y-65525000D02*
X137679428Y-74941428D01*
X147875000Y-65525000D02*
X147095856Y-65525000D01*
%TO.N,COL2*%
X146868428Y-64725000D02*
X136657714Y-74935714D01*
X92710000Y-83820000D02*
X91440000Y-83820000D01*
X147875000Y-64725000D02*
X146868428Y-64725000D01*
%TO.N,COL1*%
X73533000Y-99314000D02*
X73515000Y-99332000D01*
X73515000Y-99332000D02*
X73515000Y-113651250D01*
X73515000Y-99232500D02*
X73515000Y-99332000D01*
X146641000Y-63925000D02*
X135636000Y-74930000D01*
X147875000Y-63925000D02*
X146641000Y-63925000D01*
%TO.N,COL0*%
X47561500Y-78041500D02*
X48577500Y-79057500D01*
X134366000Y-74295000D02*
X133731000Y-74930000D01*
X43815000Y-74295000D02*
X47561500Y-78041500D01*
X145542000Y-63119000D02*
X134366000Y-74295000D01*
X146865000Y-63119000D02*
X145542000Y-63119000D01*
X146871000Y-63125000D02*
X146865000Y-63119000D01*
X147875000Y-63125000D02*
X146871000Y-63125000D01*
X133731000Y-74930000D02*
X87249000Y-74930000D01*
D38*
%TO.N,+5V*%
X170180000Y-62230000D02*
X170180000Y-50800000D01*
%TO.N,GND*%
X168402000Y-70614500D02*
X168431250Y-70643750D01*
X168402000Y-67790000D02*
X168402000Y-70614500D01*
X168431250Y-61512500D02*
X168431250Y-62200750D01*
X168431250Y-62200750D02*
X168402000Y-62230000D01*
%TO.N,+5V*%
X167576500Y-48218478D02*
X167576500Y-48196500D01*
X155869978Y-59925000D02*
X167576500Y-48218478D01*
X147875000Y-59925000D02*
X155869978Y-59925000D01*
X163830000Y-44450000D02*
X167576500Y-48196500D01*
%TO.N,GND*%
X149288500Y-76136500D02*
X149288500Y-76263500D01*
X149987000Y-75438000D02*
X149288500Y-76136500D01*
X149288500Y-76263500D02*
X148431250Y-75406250D01*
X150391011Y-77366011D02*
X149288500Y-76263500D01*
X151511000Y-50358000D02*
X151511000Y-47625000D01*
X150375000Y-51494000D02*
X151511000Y-50358000D01*
X150375000Y-52625000D02*
X150375000Y-51494000D01*
X151185980Y-43334980D02*
X138277520Y-43334980D01*
X138277520Y-43334980D02*
X137162500Y-44450000D01*
X151511000Y-43660000D02*
X151185980Y-43334980D01*
X151511000Y-47625000D02*
X151511000Y-45339000D01*
X135257500Y-52613245D02*
X135257500Y-46355000D01*
X141511255Y-58867000D02*
X135257500Y-52613245D01*
X142560000Y-58867000D02*
X141511255Y-58867000D01*
X142560000Y-58867000D02*
X142560000Y-58415000D01*
X142560000Y-59502000D02*
X142560000Y-58867000D01*
D39*
%TO.N,Net-(R1-Pad2)*%
X125531250Y-40481250D02*
X125556619Y-40481250D01*
X125556619Y-40481250D02*
X127763868Y-42688499D01*
X147683489Y-57716511D02*
X147875000Y-57525000D01*
X145607529Y-57716511D02*
X147683489Y-57716511D01*
X145164498Y-57273480D02*
X145607529Y-57716511D01*
X141921020Y-57273480D02*
X145164498Y-57273480D01*
X141478000Y-57716500D02*
X141921020Y-57273480D01*
D38*
%TO.N,+5V*%
X143150000Y-55925000D02*
X147875000Y-55925000D01*
X142875000Y-56200000D02*
X143150000Y-55925000D01*
%TO.N,GND*%
X142621000Y-59563000D02*
X142560000Y-59502000D01*
X145669000Y-59563000D02*
X142621000Y-59563000D01*
X146907000Y-58325000D02*
X145669000Y-59563000D01*
X142560000Y-62230000D02*
X142560000Y-59502000D01*
X147875000Y-58325000D02*
X146907000Y-58325000D01*
D39*
%TO.N,Net-(R2-Pad2)*%
X146173461Y-56725000D02*
X147875000Y-56725000D01*
X145908461Y-56990000D02*
X146173461Y-56725000D01*
X125531250Y-43656250D02*
X127730250Y-43656250D01*
X127730250Y-43656250D02*
X127762000Y-43688000D01*
D37*
%TO.N,D-*%
X122801997Y-44560503D02*
X123706250Y-43656250D01*
X108796041Y-44560503D02*
X122801997Y-44560503D01*
X102511489Y-43860992D02*
X103211000Y-44560503D01*
X102937500Y-42326250D02*
X102937500Y-42845241D01*
X102511489Y-43271252D02*
X102511489Y-43860992D01*
X102937500Y-42845241D02*
X102511489Y-43271252D01*
%TO.N,D+*%
X120626500Y-43561000D02*
X123706250Y-40481250D01*
X103437500Y-43334500D02*
X103211000Y-43561000D01*
X108796041Y-43561000D02*
X120626500Y-43561000D01*
X103437500Y-42326250D02*
X103437500Y-43334500D01*
D38*
%TO.N,GND*%
X135257500Y-46355000D02*
X137162500Y-44450000D01*
X113355750Y-49331250D02*
X116332000Y-46355000D01*
X116332000Y-46355000D02*
X135257500Y-46355000D01*
X107950000Y-49331250D02*
X113355750Y-49331250D01*
D39*
%TO.N,CC1*%
X103937500Y-46756250D02*
X103937500Y-42326250D01*
X103187500Y-47506250D02*
X103937500Y-46756250D01*
%TO.N,CC2*%
X108069541Y-47386709D02*
X108069541Y-39840837D01*
X108069541Y-39840837D02*
X107618434Y-39389730D01*
X107950000Y-47506250D02*
X108069541Y-47386709D01*
D38*
%TO.N,GND*%
X105719250Y-48119376D02*
X105719250Y-49331250D01*
X107552521Y-46286105D02*
X105719250Y-48119376D01*
X107552521Y-40651271D02*
X107552521Y-46286105D01*
X107317500Y-40416250D02*
X107552521Y-40651271D01*
X103187500Y-49331250D02*
X107950000Y-49331250D01*
D39*
%TO.N,ROW0*%
X43656250Y-50006250D02*
X42729739Y-50932761D01*
X42729739Y-50932761D02*
X35789011Y-50932761D01*
X35789011Y-50932761D02*
X34862500Y-50006250D01*
X53912500Y-50006250D02*
X46037500Y-50006250D01*
X54839011Y-50932761D02*
X53912500Y-50006250D01*
X61779739Y-50932761D02*
X54839011Y-50932761D01*
X62706250Y-50006250D02*
X61779739Y-50932761D01*
X72962500Y-50006250D02*
X65087500Y-50006250D01*
%TO.N,ROW1*%
X62706250Y-69056250D02*
X61779739Y-69982761D01*
X54839011Y-69982761D02*
X53912500Y-69056250D01*
X72962500Y-69056250D02*
X65087500Y-69056250D01*
X61779739Y-69982761D02*
X54839011Y-69982761D01*
X42729739Y-69982761D02*
X35789011Y-69982761D01*
X43656250Y-69056250D02*
X42729739Y-69982761D01*
X53912500Y-69056250D02*
X46037500Y-69056250D01*
X35789011Y-69982761D02*
X34862500Y-69056250D01*
%TO.N,ROW2*%
X45904739Y-89032761D02*
X35789011Y-89032761D01*
X35789011Y-89032761D02*
X34862500Y-88106250D01*
X46831250Y-88106250D02*
X45904739Y-89032761D01*
X53912500Y-88106250D02*
X50006250Y-88106250D01*
X54839011Y-89032761D02*
X53912500Y-88106250D01*
X62706250Y-88106250D02*
X61779739Y-89032761D01*
X72962500Y-88106250D02*
X65087500Y-88106250D01*
X61779739Y-89032761D02*
X54839011Y-89032761D01*
%TO.N,ROW4*%
X214848489Y-131895261D02*
X197714011Y-131895261D01*
X197714011Y-131895261D02*
X196787500Y-130968750D01*
X215775000Y-130968750D02*
X214848489Y-131895261D01*
X178664011Y-131895261D02*
X177737500Y-130968750D01*
X195860989Y-131895261D02*
X178664011Y-131895261D01*
X196787500Y-130968750D02*
X195860989Y-131895261D01*
X159614011Y-131895261D02*
X158687500Y-130968750D01*
X176810989Y-131895261D02*
X159614011Y-131895261D01*
X177737500Y-130968750D02*
X176810989Y-131895261D01*
X140564011Y-131895261D02*
X139637500Y-130968750D01*
X157760989Y-131895261D02*
X140564011Y-131895261D01*
X158687500Y-130968750D02*
X157760989Y-131895261D01*
X121514011Y-131895261D02*
X120587500Y-130968750D01*
X138710989Y-131895261D02*
X121514011Y-131895261D01*
X139637500Y-130968750D02*
X138710989Y-131895261D01*
X102464011Y-131895261D02*
X101537500Y-130968750D01*
X119660989Y-131895261D02*
X102464011Y-131895261D01*
X120587500Y-130968750D02*
X119660989Y-131895261D01*
X101537500Y-130968750D02*
X100610989Y-131895261D01*
X100610989Y-131895261D02*
X83414011Y-131895261D01*
X83414011Y-131895261D02*
X82487500Y-130968750D01*
X61982761Y-131895261D02*
X61056250Y-130968750D01*
X81560989Y-131895261D02*
X61982761Y-131895261D01*
X82487500Y-130968750D02*
X81560989Y-131895261D01*
X38170261Y-131895261D02*
X37243750Y-130968750D01*
X60129739Y-131895261D02*
X38170261Y-131895261D01*
X61056250Y-130968750D02*
X60129739Y-131895261D01*
%TO.N,ROW3*%
X40551511Y-112845261D02*
X39625000Y-111918750D01*
X48418750Y-111918750D02*
X47492239Y-112845261D01*
X47492239Y-112845261D02*
X40551511Y-112845261D01*
X63437500Y-111918750D02*
X50800000Y-111918750D01*
X71304739Y-112845261D02*
X64364011Y-112845261D01*
X72231250Y-111918750D02*
X71304739Y-112845261D01*
X64364011Y-112845261D02*
X63437500Y-111918750D01*
X82487500Y-111918750D02*
X74612500Y-111918750D01*
X83414011Y-112845261D02*
X82487500Y-111918750D01*
X90354739Y-112845261D02*
X83414011Y-112845261D01*
X91281250Y-111918750D02*
X90354739Y-112845261D01*
X101537500Y-111918750D02*
X93662500Y-111918750D01*
X102464011Y-112845261D02*
X101537500Y-111918750D01*
X109404739Y-112845261D02*
X102464011Y-112845261D01*
X110331250Y-111918750D02*
X109404739Y-112845261D01*
X120587500Y-111918750D02*
X112712500Y-111918750D01*
X128454739Y-112845261D02*
X121514011Y-112845261D01*
X129381250Y-111918750D02*
X128454739Y-112845261D01*
X121514011Y-112845261D02*
X120587500Y-111918750D01*
X139637500Y-111918750D02*
X131762500Y-111918750D01*
X140564011Y-112845261D02*
X139637500Y-111918750D01*
X147504739Y-112845261D02*
X140564011Y-112845261D01*
X148431250Y-111918750D02*
X147504739Y-112845261D01*
X158687500Y-111918750D02*
X150812500Y-111918750D01*
X167481250Y-111918750D02*
X166554739Y-112845261D01*
X166554739Y-112845261D02*
X159614011Y-112845261D01*
X159614011Y-112845261D02*
X158687500Y-111918750D01*
X177737500Y-111918750D02*
X169862500Y-111918750D01*
X186531250Y-111918750D02*
X185604739Y-112845261D01*
X178664011Y-112845261D02*
X177737500Y-111918750D01*
X196787500Y-111918750D02*
X188912500Y-111918750D01*
X185604739Y-112845261D02*
X178664011Y-112845261D01*
X204654739Y-112845261D02*
X197714011Y-112845261D01*
X205581250Y-111918750D02*
X204654739Y-112845261D01*
X197714011Y-112845261D02*
X196787500Y-111918750D01*
X215837500Y-111918750D02*
X207962500Y-111918750D01*
%TO.N,COL9*%
X226218750Y-115728750D02*
X224790000Y-117157500D01*
X226218750Y-108417239D02*
X226218750Y-115728750D01*
X224790000Y-106988489D02*
X226218750Y-108417239D01*
X224790000Y-98107500D02*
X224790000Y-106988489D01*
%TO.N,COL8*%
X206865000Y-116032500D02*
X205740000Y-117157500D01*
X206865000Y-99232500D02*
X206865000Y-116032500D01*
X205740000Y-98107500D02*
X206865000Y-99232500D01*
%TO.N,COL7*%
X187815000Y-116032500D02*
X186690000Y-117157500D01*
X186690000Y-102417419D02*
X187815000Y-103542419D01*
X187815000Y-103542419D02*
X187815000Y-116032500D01*
X186690000Y-98107500D02*
X186690000Y-102417419D01*
%TO.N,COL6*%
X168765000Y-116032500D02*
X167640000Y-117157500D01*
X168765000Y-99232500D02*
X168765000Y-116032500D01*
X167640000Y-98107500D02*
X168765000Y-99232500D01*
%TO.N,COL5*%
X149715000Y-116032500D02*
X148590000Y-117157500D01*
X148590000Y-102417419D02*
X149715000Y-103542419D01*
X149715000Y-103542419D02*
X149715000Y-116032500D01*
X148590000Y-98107500D02*
X148590000Y-102417419D01*
%TO.N,COL4*%
X130665000Y-116032500D02*
X129540000Y-117157500D01*
X130665000Y-99232500D02*
X130665000Y-116032500D01*
X129540000Y-98107500D02*
X130665000Y-99232500D01*
%TO.N,COL3*%
X111615000Y-116032500D02*
X110490000Y-117157500D01*
X111615000Y-99232500D02*
X111615000Y-116032500D01*
X110490000Y-98107500D02*
X111615000Y-99232500D01*
%TO.N,COL2*%
X92565000Y-99232500D02*
X92565000Y-116032500D01*
X92565000Y-116032500D02*
X91440000Y-117157500D01*
X91440000Y-98107500D02*
X92565000Y-99232500D01*
%TO.N,COL1*%
X73515000Y-113651250D02*
X70008750Y-117157500D01*
X72390000Y-98107500D02*
X73515000Y-99232500D01*
%TO.N,COL0*%
X49702500Y-113651250D02*
X46196250Y-117157500D01*
X49702500Y-99232500D02*
X49702500Y-113651250D01*
X48577500Y-98107500D02*
X49702500Y-99232500D01*
%TO.N,COL1*%
X63990000Y-73170000D02*
X62865000Y-74295000D01*
X63990000Y-56370000D02*
X63990000Y-73170000D01*
X62865000Y-55245000D02*
X63990000Y-56370000D01*
%TO.N,COL2*%
X83040000Y-73170000D02*
X81915000Y-74295000D01*
X81915000Y-55245000D02*
X83040000Y-56370000D01*
X83040000Y-56370000D02*
X83040000Y-73170000D01*
X83040000Y-54120000D02*
X81915000Y-55245000D01*
X83040000Y-37320000D02*
X83040000Y-54120000D01*
X81915000Y-36195000D02*
X83040000Y-37320000D01*
%TO.N,COL1*%
X63990000Y-41629919D02*
X63990000Y-54120000D01*
X63990000Y-54120000D02*
X62865000Y-55245000D01*
X62865000Y-40504919D02*
X63990000Y-41629919D01*
X62865000Y-36195000D02*
X62865000Y-40504919D01*
%TO.N,COL2*%
X91440000Y-83820000D02*
X91440000Y-98107500D01*
X81915000Y-74295000D02*
X91440000Y-83820000D01*
%TO.N,COL1*%
X63990000Y-75420000D02*
X63990000Y-89707500D01*
X62865000Y-74295000D02*
X63990000Y-75420000D01*
X63990000Y-89707500D02*
X72390000Y-98107500D01*
%TO.N,COL0*%
X48577500Y-79057500D02*
X48577500Y-98107500D01*
X44940000Y-73170000D02*
X43815000Y-74295000D01*
X44940000Y-56370000D02*
X44940000Y-73170000D01*
X43815000Y-55245000D02*
X44940000Y-56370000D01*
X44940000Y-54120000D02*
X43815000Y-55245000D01*
X43815000Y-36195000D02*
X44940000Y-37320000D01*
X44940000Y-37320000D02*
X44940000Y-54120000D01*
%TO.N,Net-(D12-Pad2)*%
X75565000Y-68358750D02*
X76262500Y-69056250D01*
X75565000Y-57785000D02*
X75565000Y-68358750D01*
%TO.N,Net-(D7-Pad2)*%
X56515000Y-68358750D02*
X57212500Y-69056250D01*
X56515000Y-57785000D02*
X56515000Y-68358750D01*
%TO.N,Net-(D13-Pad2)*%
X75565000Y-87408750D02*
X76262500Y-88106250D01*
X75565000Y-76835000D02*
X75565000Y-87408750D01*
%TO.N,Net-(D8-Pad2)*%
X56515000Y-87408750D02*
X57212500Y-88106250D01*
X56515000Y-76835000D02*
X56515000Y-87408750D01*
%TO.N,Net-(D15-Pad2)*%
X85090000Y-119697500D02*
X85090000Y-130271250D01*
X85090000Y-130271250D02*
X85787500Y-130968750D01*
%TO.N,Net-(D17-Pad2)*%
X104140000Y-130271250D02*
X104837500Y-130968750D01*
X104140000Y-119697500D02*
X104140000Y-130271250D01*
%TO.N,Net-(D19-Pad2)*%
X123190000Y-130271250D02*
X123887500Y-130968750D01*
X123190000Y-119697500D02*
X123190000Y-130271250D01*
%TO.N,Net-(D21-Pad2)*%
X142240000Y-130271250D02*
X142937500Y-130968750D01*
X142240000Y-119697500D02*
X142240000Y-130271250D01*
%TO.N,Net-(D23-Pad2)*%
X161290000Y-130271250D02*
X161987500Y-130968750D01*
X161290000Y-119697500D02*
X161290000Y-130271250D01*
%TO.N,Net-(D25-Pad2)*%
X180340000Y-130271250D02*
X181037500Y-130968750D01*
X180340000Y-119697500D02*
X180340000Y-130271250D01*
%TO.N,Net-(D27-Pad2)*%
X199390000Y-130271250D02*
X200087500Y-130968750D01*
X199390000Y-119697500D02*
X199390000Y-130271250D01*
%TO.N,Net-(D29-Pad2)*%
X218440000Y-130333750D02*
X219075000Y-130968750D01*
X218440000Y-119697500D02*
X218440000Y-130333750D01*
%TO.N,Net-(D28-Pad2)*%
X218440000Y-111221250D02*
X219137500Y-111918750D01*
X218440000Y-100647500D02*
X218440000Y-111221250D01*
%TO.N,Net-(D26-Pad2)*%
X199390000Y-111221250D02*
X200087500Y-111918750D01*
X199390000Y-100647500D02*
X199390000Y-111221250D01*
%TO.N,Net-(D24-Pad2)*%
X180340000Y-100647500D02*
X180340000Y-111221250D01*
X180340000Y-111221250D02*
X181037500Y-111918750D01*
%TO.N,Net-(D22-Pad2)*%
X161290000Y-111221250D02*
X161987500Y-111918750D01*
X161290000Y-100647500D02*
X161290000Y-111221250D01*
%TO.N,Net-(D20-Pad2)*%
X142240000Y-111221250D02*
X142937500Y-111918750D01*
X142240000Y-100647500D02*
X142240000Y-111221250D01*
%TO.N,Net-(D18-Pad2)*%
X123190000Y-111221250D02*
X123887500Y-111918750D01*
X123190000Y-100647500D02*
X123190000Y-111221250D01*
%TO.N,Net-(D16-Pad2)*%
X104140000Y-111221250D02*
X104837500Y-111918750D01*
X104140000Y-100647500D02*
X104140000Y-111221250D01*
%TO.N,Net-(D14-Pad2)*%
X85090000Y-111221250D02*
X85787500Y-111918750D01*
X85090000Y-100647500D02*
X85090000Y-111221250D01*
%TO.N,Net-(D9-Pad2)*%
X66040000Y-111221250D02*
X66737500Y-111918750D01*
X66040000Y-100647500D02*
X66040000Y-111221250D01*
%TO.N,Net-(D10-Pad2)*%
X63658750Y-130271250D02*
X64356250Y-130968750D01*
X63658750Y-119697500D02*
X63658750Y-130271250D01*
%TO.N,Net-(D5-Pad2)*%
X39846250Y-130271250D02*
X40543750Y-130968750D01*
X39846250Y-119697500D02*
X39846250Y-130271250D01*
%TO.N,Net-(D4-Pad2)*%
X42227500Y-100647500D02*
X42227500Y-111221250D01*
X42227500Y-111221250D02*
X42925000Y-111918750D01*
%TO.N,Net-(D3-Pad2)*%
X37465000Y-87408750D02*
X38162500Y-88106250D01*
X37465000Y-76835000D02*
X37465000Y-87408750D01*
%TO.N,Net-(D2-Pad2)*%
X37465000Y-68358750D02*
X38162500Y-69056250D01*
X37465000Y-57785000D02*
X37465000Y-68358750D01*
%TO.N,Net-(D1-Pad2)*%
X37465000Y-49308750D02*
X38162500Y-50006250D01*
X37465000Y-38735000D02*
X37465000Y-49308750D01*
%TO.N,Net-(D11-Pad2)*%
X75565000Y-49308750D02*
X76262500Y-50006250D01*
X75565000Y-38735000D02*
X75565000Y-49308750D01*
%TO.N,Net-(D6-Pad2)*%
X56515000Y-38735000D02*
X56515000Y-49308750D01*
X56515000Y-49308750D02*
X57212500Y-50006250D01*
D38*
%TO.N,+5V*%
X155731250Y-47625000D02*
X155731250Y-44479250D01*
X155702000Y-44450000D02*
X163830000Y-44450000D01*
X149606000Y-44450000D02*
X155702000Y-44450000D01*
X155731250Y-44479250D02*
X155702000Y-44450000D01*
X149606000Y-44450000D02*
X149606000Y-47620000D01*
X149606000Y-47620000D02*
X149611000Y-47625000D01*
X139062500Y-44450000D02*
X149606000Y-44450000D01*
X139062500Y-52387500D02*
X142875000Y-56200000D01*
X139062500Y-44450000D02*
X139062500Y-52387500D01*
X166370000Y-70482500D02*
X166531250Y-70643750D01*
X166370000Y-68580000D02*
X166370000Y-70482500D01*
%TO.N,GND*%
X151614989Y-78483256D02*
X151614989Y-77493011D01*
X151614989Y-77493011D02*
X151487989Y-77366011D01*
X101337500Y-82475000D02*
X104790489Y-79022011D01*
X151076234Y-79022011D02*
X151614989Y-78483256D01*
X151487989Y-77366011D02*
X150391011Y-77366011D01*
X154711989Y-77366011D02*
X151487989Y-77366011D01*
X104790489Y-79022011D02*
X151076234Y-79022011D01*
D39*
%TO.N,Net-(R6-Pad2)*%
X146661500Y-72771000D02*
X143157500Y-76275000D01*
X143157500Y-76275000D02*
X105037500Y-76275000D01*
D38*
%TO.N,+5V*%
X149575000Y-47661000D02*
X149575000Y-52625000D01*
X149611000Y-47625000D02*
X149575000Y-47661000D01*
%TO.N,GND*%
X153831250Y-47625000D02*
X151511000Y-47625000D01*
D39*
%TO.N,Net-(C2-Pad1)*%
X149357000Y-78232000D02*
X150749000Y-78232000D01*
X150749000Y-76454000D02*
X150827000Y-76376000D01*
X150827000Y-76376000D02*
X153502000Y-76376000D01*
X146531250Y-75406250D02*
X149357000Y-78232000D01*
D38*
%TO.N,GND*%
X155702000Y-76376000D02*
X154711989Y-77366011D01*
D39*
%TO.N,Net-(R6-Pad2)*%
X150211020Y-69221480D02*
X146661500Y-72771000D01*
X151782520Y-69221480D02*
X150211020Y-69221480D01*
X151975000Y-69029000D02*
X151782520Y-69221480D01*
X151975000Y-68025000D02*
X151975000Y-69029000D01*
D38*
%TO.N,+5V*%
X151519000Y-69738500D02*
X148486500Y-72771000D01*
X152775000Y-69738500D02*
X151519000Y-69738500D01*
%TO.N,GND*%
X142560000Y-58415000D02*
X142875000Y-58100000D01*
D39*
%TO.N,Net-(U1-Pad7)*%
X146871000Y-59125000D02*
X144460000Y-61536000D01*
X144460000Y-61536000D02*
X144460000Y-62230000D01*
X147875000Y-59125000D02*
X146871000Y-59125000D01*
D38*
%TO.N,+5V*%
X152775000Y-69738500D02*
X152775000Y-68025000D01*
X153648500Y-70612000D02*
X152775000Y-69738500D01*
X155987750Y-70643750D02*
X155956000Y-70612000D01*
X166531250Y-70643750D02*
X155987750Y-70643750D01*
D39*
%TO.N,Net-(C2-Pad1)*%
X152475489Y-75602511D02*
X152475489Y-73203511D01*
X152475489Y-73203511D02*
X154375000Y-71304000D01*
X153248978Y-76376000D02*
X152475489Y-75602511D01*
X154375000Y-71304000D02*
X154375000Y-68025000D01*
X153502000Y-76376000D02*
X153248978Y-76376000D01*
%TO.N,Net-(C1-Pad1)*%
X155175000Y-69577000D02*
X155175000Y-68025000D01*
X155194000Y-69596000D02*
X155175000Y-69577000D01*
X155194000Y-71433750D02*
X155194000Y-69596000D01*
X155702000Y-71941750D02*
X155194000Y-71433750D01*
X155702000Y-74676000D02*
X155702000Y-71941750D01*
D38*
%TO.N,GND*%
X153670000Y-74676000D02*
X153502000Y-74676000D01*
X155370000Y-76376000D02*
X153670000Y-74676000D01*
X155702000Y-76376000D02*
X155370000Y-76376000D01*
X156319750Y-76993750D02*
X155702000Y-76376000D01*
X162718750Y-76993750D02*
X156319750Y-76993750D01*
X162718750Y-76356250D02*
X162718750Y-76993750D01*
X163668750Y-75406250D02*
X162718750Y-76356250D01*
X161443750Y-75406250D02*
X163668750Y-75406250D01*
X163668750Y-75406250D02*
X168431250Y-70643750D01*
D39*
%TO.N,Net-(R5-Pad2)*%
X167481250Y-58737500D02*
X167068750Y-58325000D01*
X167068750Y-58325000D02*
X163275000Y-58325000D01*
D38*
%TO.N,GND*%
X168431250Y-61512500D02*
X167481250Y-60562500D01*
X158375000Y-51368666D02*
X158375000Y-52625000D01*
X154946270Y-48740020D02*
X155746354Y-48740020D01*
X153831250Y-47625000D02*
X154946270Y-48740020D01*
X155746354Y-48740020D02*
X158375000Y-51368666D01*
%TO.N,+5V*%
X159175000Y-51068750D02*
X159175000Y-52625000D01*
X155731250Y-47625000D02*
X159175000Y-51068750D01*
%TD*%
M02*
