%TF.GenerationSoftware,KiCad,Pcbnew,(6.0.5)*%
%TF.CreationDate,2022-05-16T19:36:13-07:00*%
%TF.ProjectId,3HMouse,33484d6f-7573-4652-9e6b-696361645f70,rev?*%
%TF.SameCoordinates,Original*%
%TF.FileFunction,Soldermask,Bot*%
%TF.FilePolarity,Negative*%
%FSLAX46Y46*%
G04 Gerber Fmt 4.6, Leading zero omitted, Abs format (unit mm)*
G04 Created by KiCad (PCBNEW (6.0.5)) date 2022-05-16 19:36:13*
%MOMM*%
%LPD*%
G01*
G04 APERTURE LIST*
%ADD10C,1.750000*%
%ADD11C,2.250000*%
%ADD12C,3.987800*%
%ADD13O,0.900000X2.400000*%
%ADD14O,0.900000X1.700000*%
%ADD15C,0.700000*%
%ADD16O,1.600000X2.000000*%
%ADD17O,3.200000X2.000000*%
%ADD18R,2.000000X2.000000*%
%ADD19C,2.000000*%
%ADD20C,1.950000*%
%ADD21C,1.650000*%
%ADD22C,2.400000*%
%ADD23C,2.475000*%
G04 APERTURE END LIST*
D10*
%TO.C,SW1*%
X46355000Y-41275000D03*
X36195000Y-41275000D03*
D11*
X37465000Y-38735000D03*
D12*
X41275000Y-41275000D03*
D11*
X43815000Y-36195000D03*
%TD*%
D10*
%TO.C,SW2*%
X46355000Y-60325000D03*
X36195000Y-60325000D03*
D11*
X37465000Y-57785000D03*
D12*
X41275000Y-60325000D03*
D11*
X43815000Y-55245000D03*
%TD*%
D10*
%TO.C,SW3*%
X46355000Y-79375000D03*
X36195000Y-79375000D03*
D11*
X37465000Y-76835000D03*
D12*
X41275000Y-79375000D03*
D11*
X43815000Y-74295000D03*
%TD*%
D10*
%TO.C,SW4*%
X51117500Y-103187500D03*
X40957500Y-103187500D03*
D11*
X42227500Y-100647500D03*
D12*
X46037500Y-103187500D03*
D11*
X48577500Y-98107500D03*
%TD*%
D10*
%TO.C,SW5*%
X48736250Y-122237500D03*
X38576250Y-122237500D03*
D11*
X39846250Y-119697500D03*
D12*
X43656250Y-122237500D03*
D11*
X46196250Y-117157500D03*
%TD*%
D10*
%TO.C,SW6*%
X65405000Y-41275000D03*
X55245000Y-41275000D03*
D11*
X56515000Y-38735000D03*
D12*
X60325000Y-41275000D03*
D11*
X62865000Y-36195000D03*
%TD*%
D10*
%TO.C,SW7*%
X65405000Y-60325000D03*
X55245000Y-60325000D03*
D11*
X56515000Y-57785000D03*
D12*
X60325000Y-60325000D03*
D11*
X62865000Y-55245000D03*
%TD*%
D10*
%TO.C,SW8*%
X65405000Y-79375000D03*
X55245000Y-79375000D03*
D11*
X56515000Y-76835000D03*
D12*
X60325000Y-79375000D03*
D11*
X62865000Y-74295000D03*
%TD*%
D10*
%TO.C,SW9*%
X74930000Y-103187500D03*
X64770000Y-103187500D03*
D11*
X66040000Y-100647500D03*
D12*
X69850000Y-103187500D03*
D11*
X72390000Y-98107500D03*
%TD*%
D10*
%TO.C,SW10*%
X72548750Y-122237500D03*
X62388750Y-122237500D03*
D11*
X63658750Y-119697500D03*
D12*
X67468750Y-122237500D03*
D11*
X70008750Y-117157500D03*
%TD*%
D10*
%TO.C,SW11*%
X84455000Y-41275000D03*
X74295000Y-41275000D03*
D11*
X75565000Y-38735000D03*
D12*
X79375000Y-41275000D03*
D11*
X81915000Y-36195000D03*
%TD*%
D10*
%TO.C,SW12*%
X84455000Y-60325000D03*
X74295000Y-60325000D03*
D11*
X75565000Y-57785000D03*
D12*
X79375000Y-60325000D03*
D11*
X81915000Y-55245000D03*
%TD*%
D10*
%TO.C,SW13*%
X84455000Y-79375000D03*
X74295000Y-79375000D03*
D11*
X75565000Y-76835000D03*
D12*
X79375000Y-79375000D03*
D11*
X81915000Y-74295000D03*
%TD*%
D10*
%TO.C,SW14*%
X93980000Y-103187500D03*
X83820000Y-103187500D03*
D11*
X85090000Y-100647500D03*
D12*
X88900000Y-103187500D03*
D11*
X91440000Y-98107500D03*
%TD*%
D10*
%TO.C,SW15*%
X93980000Y-122237500D03*
X83820000Y-122237500D03*
D11*
X85090000Y-119697500D03*
D12*
X88900000Y-122237500D03*
D11*
X91440000Y-117157500D03*
%TD*%
D10*
%TO.C,SW16*%
X113030000Y-103187500D03*
X102870000Y-103187500D03*
D11*
X104140000Y-100647500D03*
D12*
X107950000Y-103187500D03*
D11*
X110490000Y-98107500D03*
%TD*%
D10*
%TO.C,SW17*%
X113030000Y-122237500D03*
X102870000Y-122237500D03*
D11*
X104140000Y-119697500D03*
D12*
X107950000Y-122237500D03*
D11*
X110490000Y-117157500D03*
%TD*%
D10*
%TO.C,SW18*%
X132080000Y-103187500D03*
X121920000Y-103187500D03*
D11*
X123190000Y-100647500D03*
D12*
X127000000Y-103187500D03*
D11*
X129540000Y-98107500D03*
%TD*%
D10*
%TO.C,SW19*%
X132080000Y-122237500D03*
X121920000Y-122237500D03*
D11*
X123190000Y-119697500D03*
D12*
X127000000Y-122237500D03*
D11*
X129540000Y-117157500D03*
%TD*%
D10*
%TO.C,SW20*%
X151130000Y-103187500D03*
X140970000Y-103187500D03*
D11*
X142240000Y-100647500D03*
D12*
X146050000Y-103187500D03*
D11*
X148590000Y-98107500D03*
%TD*%
D10*
%TO.C,SW21*%
X151130000Y-122237500D03*
X140970000Y-122237500D03*
D11*
X142240000Y-119697500D03*
D12*
X146050000Y-122237500D03*
D11*
X148590000Y-117157500D03*
%TD*%
D10*
%TO.C,SW22*%
X170180000Y-103187500D03*
X160020000Y-103187500D03*
D11*
X161290000Y-100647500D03*
D12*
X165100000Y-103187500D03*
D11*
X167640000Y-98107500D03*
%TD*%
D10*
%TO.C,SW23*%
X170180000Y-122237500D03*
X160020000Y-122237500D03*
D11*
X161290000Y-119697500D03*
D12*
X165100000Y-122237500D03*
D11*
X167640000Y-117157500D03*
%TD*%
D10*
%TO.C,SW24*%
X189230000Y-103187500D03*
X179070000Y-103187500D03*
D11*
X180340000Y-100647500D03*
D12*
X184150000Y-103187500D03*
D11*
X186690000Y-98107500D03*
%TD*%
D10*
%TO.C,SW25*%
X189230000Y-122237500D03*
X179070000Y-122237500D03*
D11*
X180340000Y-119697500D03*
D12*
X184150000Y-122237500D03*
D11*
X186690000Y-117157500D03*
%TD*%
D10*
%TO.C,SW26*%
X208280000Y-103187500D03*
X198120000Y-103187500D03*
D11*
X199390000Y-100647500D03*
D12*
X203200000Y-103187500D03*
D11*
X205740000Y-98107500D03*
%TD*%
D10*
%TO.C,SW27*%
X208280000Y-122237500D03*
X198120000Y-122237500D03*
D11*
X199390000Y-119697500D03*
D12*
X203200000Y-122237500D03*
D11*
X205740000Y-117157500D03*
%TD*%
D10*
%TO.C,SW28*%
X227330000Y-103187500D03*
X217170000Y-103187500D03*
D11*
X218440000Y-100647500D03*
D12*
X222250000Y-103187500D03*
D11*
X224790000Y-98107500D03*
%TD*%
D10*
%TO.C,SW29*%
X227330000Y-122237500D03*
X217170000Y-122237500D03*
D11*
X218440000Y-119697500D03*
D12*
X222250000Y-122237500D03*
D11*
X224790000Y-117157500D03*
%TD*%
D13*
%TO.C,J1*%
X102315000Y-34453000D03*
X93665000Y-34453000D03*
D14*
X102315000Y-31073000D03*
X93665000Y-31073000D03*
D15*
X100965000Y-34083000D03*
X100115000Y-34083000D03*
X99265000Y-34083000D03*
X98415000Y-34083000D03*
X97565000Y-34083000D03*
X96715000Y-34083000D03*
X95865000Y-34083000D03*
X95015000Y-34083000D03*
X95015000Y-35433000D03*
X95865000Y-35433000D03*
X96715000Y-35433000D03*
X97565000Y-35433000D03*
X98415000Y-35433000D03*
X99265000Y-35433000D03*
X100115000Y-35433000D03*
X100965000Y-35433000D03*
%TD*%
D16*
%TO.C,Brd1*%
X219106250Y-49725000D03*
X216566250Y-49725000D03*
X211486250Y-49725000D03*
X214026250Y-49725000D03*
%TD*%
D17*
%TO.C,SW31*%
X183356250Y-53225000D03*
X183356250Y-42025000D03*
D18*
X175856250Y-45125000D03*
D19*
X175856250Y-50125000D03*
X175856250Y-47625000D03*
X190356250Y-50125000D03*
X190356250Y-45125000D03*
%TD*%
D17*
%TO.C,SW30*%
X183356250Y-77831250D03*
X183356250Y-66631250D03*
D18*
X175856250Y-69731250D03*
D19*
X175856250Y-74731250D03*
X175856250Y-72231250D03*
X190356250Y-74731250D03*
X190356250Y-69731250D03*
%TD*%
D20*
%TO.C,S1*%
X119856250Y-57716250D03*
D21*
X107876250Y-60966250D03*
X107876250Y-63466250D03*
X107876250Y-65966250D03*
D20*
X119856250Y-53216250D03*
D21*
X114106250Y-72196250D03*
X116606250Y-72196250D03*
X119106250Y-72196250D03*
D20*
X113356250Y-57716250D03*
X113356250Y-53216250D03*
D22*
X122931250Y-58466250D03*
X122931250Y-68466250D03*
X110281250Y-58466250D03*
X110281250Y-68466250D03*
D23*
X120906250Y-63466250D03*
X112306250Y-63466250D03*
%TD*%
M02*
