%TF.GenerationSoftware,KiCad,Pcbnew,(6.0.5)*%
%TF.CreationDate,2022-05-15T08:17:35-07:00*%
%TF.ProjectId,3HMouse,33484d6f-7573-4652-9e6b-696361645f70,rev?*%
%TF.SameCoordinates,Original*%
%TF.FileFunction,Copper,L2,Bot*%
%TF.FilePolarity,Positive*%
%FSLAX46Y46*%
G04 Gerber Fmt 4.6, Leading zero omitted, Abs format (unit mm)*
G04 Created by KiCad (PCBNEW (6.0.5)) date 2022-05-15 08:17:35*
%MOMM*%
%LPD*%
G01*
G04 APERTURE LIST*
%TA.AperFunction,ComponentPad*%
%ADD10O,1.600000X2.000000*%
%TD*%
%TA.AperFunction,ComponentPad*%
%ADD11C,0.650000*%
%TD*%
%TA.AperFunction,ComponentPad*%
%ADD12O,0.800000X1.400000*%
%TD*%
%TA.AperFunction,ComponentPad*%
%ADD13C,2.250000*%
%TD*%
%TA.AperFunction,ComponentPad*%
%ADD14C,1.905000*%
%TD*%
%TA.AperFunction,ComponentPad*%
%ADD15R,1.905000X1.905000*%
%TD*%
%TA.AperFunction,WasherPad*%
%ADD16O,3.200000X2.000000*%
%TD*%
%TA.AperFunction,ComponentPad*%
%ADD17R,2.000000X2.000000*%
%TD*%
%TA.AperFunction,ComponentPad*%
%ADD18C,2.000000*%
%TD*%
%TA.AperFunction,ComponentPad*%
%ADD19C,1.950000*%
%TD*%
%TA.AperFunction,ComponentPad*%
%ADD20C,1.650000*%
%TD*%
%TA.AperFunction,ComponentPad*%
%ADD21C,2.400000*%
%TD*%
%TA.AperFunction,ComponentPad*%
%ADD22C,2.475000*%
%TD*%
%TA.AperFunction,ViaPad*%
%ADD23C,0.800000*%
%TD*%
%TA.AperFunction,Conductor*%
%ADD24C,0.200000*%
%TD*%
%TA.AperFunction,Conductor*%
%ADD25C,0.381000*%
%TD*%
%TA.AperFunction,Conductor*%
%ADD26C,0.254000*%
%TD*%
G04 APERTURE END LIST*
D10*
%TO.P,Brd1,4,SDA*%
%TO.N,unconnected-(Brd1-Pad4)*%
X219106250Y-49725000D03*
%TO.P,Brd1,3,SCL*%
%TO.N,unconnected-(Brd1-Pad3)*%
X216566250Y-49725000D03*
%TO.P,Brd1,1,GND*%
%TO.N,GND*%
X211486250Y-49725000D03*
%TO.P,Brd1,2,VCC*%
%TO.N,+5V*%
X214026250Y-49725000D03*
%TD*%
D11*
%TO.P,J1,B1,GND*%
%TO.N,GND*%
X100387500Y-41016250D03*
%TO.P,J1,B2,TX2+*%
%TO.N,unconnected-(J1-PadB2)*%
X100787500Y-40316250D03*
%TO.P,J1,B3,TX2-*%
%TO.N,unconnected-(J1-PadB3)*%
X101587500Y-40316250D03*
%TO.P,J1,B4,VBUS*%
%TO.N,VBUS*%
X101987500Y-41016250D03*
%TO.P,J1,B5,CC2*%
%TO.N,CC2*%
X102387500Y-40316250D03*
%TO.P,J1,B6,D+*%
%TO.N,D+*%
X102787500Y-41016250D03*
%TO.P,J1,B7,D-*%
%TO.N,D-*%
X103587500Y-41016250D03*
%TO.P,J1,B8,SBU2*%
%TO.N,unconnected-(J1-PadB8)*%
X103987500Y-40316250D03*
%TO.P,J1,B9,VBUS*%
%TO.N,VBUS*%
X104387500Y-41016250D03*
%TO.P,J1,B10,RX1-*%
%TO.N,unconnected-(J1-PadB10)*%
X104787500Y-40316250D03*
%TO.P,J1,B11,RX1+*%
%TO.N,unconnected-(J1-PadB11)*%
X105587500Y-40316250D03*
%TO.P,J1,B12,GND*%
%TO.N,GND*%
X105987500Y-41016250D03*
D12*
%TO.P,J1,S1,SHIELD*%
X98697500Y-34466250D03*
X99057500Y-40416250D03*
X107677500Y-34466250D03*
X107317500Y-40416250D03*
%TD*%
D13*
%TO.P,SW29,2*%
%TO.N,COL9*%
X224790000Y-117157500D03*
%TO.P,SW29,1*%
%TO.N,Net-(D29-Pad2)*%
X218440000Y-119697500D03*
D14*
%TO.P,SW29,3*%
%TO.N,N/C*%
X220980000Y-127317500D03*
D15*
%TO.P,SW29,4*%
X223520000Y-127317500D03*
%TD*%
D13*
%TO.P,SW28,2*%
%TO.N,COL9*%
X224790000Y-98107500D03*
%TO.P,SW28,1*%
%TO.N,Net-(D28-Pad2)*%
X218440000Y-100647500D03*
D14*
%TO.P,SW28,3*%
%TO.N,N/C*%
X220980000Y-108267500D03*
D15*
%TO.P,SW28,4*%
X223520000Y-108267500D03*
%TD*%
D13*
%TO.P,SW27,2*%
%TO.N,COL8*%
X205740000Y-117157500D03*
%TO.P,SW27,1*%
%TO.N,Net-(D27-Pad2)*%
X199390000Y-119697500D03*
D14*
%TO.P,SW27,3*%
%TO.N,N/C*%
X201930000Y-127317500D03*
D15*
%TO.P,SW27,4*%
X204470000Y-127317500D03*
%TD*%
D13*
%TO.P,SW26,2*%
%TO.N,COL8*%
X205740000Y-98107500D03*
%TO.P,SW26,1*%
%TO.N,Net-(D26-Pad2)*%
X199390000Y-100647500D03*
D14*
%TO.P,SW26,3*%
%TO.N,N/C*%
X201930000Y-108267500D03*
D15*
%TO.P,SW26,4*%
X204470000Y-108267500D03*
%TD*%
D16*
%TO.P,SW31,*%
%TO.N,*%
X183356250Y-53225000D03*
X183356250Y-42025000D03*
D17*
%TO.P,SW31,A,A*%
%TO.N,unconnected-(SW31-PadA)*%
X175856250Y-45125000D03*
D18*
%TO.P,SW31,B,B*%
%TO.N,unconnected-(SW31-PadB)*%
X175856250Y-50125000D03*
%TO.P,SW31,C,C*%
%TO.N,unconnected-(SW31-PadC)*%
X175856250Y-47625000D03*
%TO.P,SW31,S1*%
%TO.N,N/C*%
X190356250Y-50125000D03*
%TO.P,SW31,S2*%
X190356250Y-45125000D03*
%TD*%
D16*
%TO.P,SW30,*%
%TO.N,*%
X183356250Y-77831250D03*
X183356250Y-66631250D03*
D17*
%TO.P,SW30,A,A*%
%TO.N,unconnected-(SW30-PadA)*%
X175856250Y-69731250D03*
D18*
%TO.P,SW30,B,B*%
%TO.N,unconnected-(SW30-PadB)*%
X175856250Y-74731250D03*
%TO.P,SW30,C,C*%
%TO.N,unconnected-(SW30-PadC)*%
X175856250Y-72231250D03*
%TO.P,SW30,S1*%
%TO.N,N/C*%
X190356250Y-74731250D03*
%TO.P,SW30,S2*%
X190356250Y-69731250D03*
%TD*%
D13*
%TO.P,SW25,2*%
%TO.N,COL7*%
X186690000Y-117157500D03*
%TO.P,SW25,1*%
%TO.N,Net-(D25-Pad2)*%
X180340000Y-119697500D03*
D14*
%TO.P,SW25,3*%
%TO.N,N/C*%
X182880000Y-127317500D03*
D15*
%TO.P,SW25,4*%
X185420000Y-127317500D03*
%TD*%
D13*
%TO.P,SW24,2*%
%TO.N,COL7*%
X186690000Y-98107500D03*
%TO.P,SW24,1*%
%TO.N,Net-(D24-Pad2)*%
X180340000Y-100647500D03*
D14*
%TO.P,SW24,3*%
%TO.N,N/C*%
X182880000Y-108267500D03*
D15*
%TO.P,SW24,4*%
X185420000Y-108267500D03*
%TD*%
D13*
%TO.P,SW23,2*%
%TO.N,COL6*%
X167640000Y-117157500D03*
%TO.P,SW23,1*%
%TO.N,Net-(D23-Pad2)*%
X161290000Y-119697500D03*
D14*
%TO.P,SW23,3*%
%TO.N,N/C*%
X163830000Y-127317500D03*
D15*
%TO.P,SW23,4*%
X166370000Y-127317500D03*
%TD*%
D13*
%TO.P,SW22,2*%
%TO.N,COL6*%
X167640000Y-98107500D03*
%TO.P,SW22,1*%
%TO.N,Net-(D22-Pad2)*%
X161290000Y-100647500D03*
D14*
%TO.P,SW22,3*%
%TO.N,N/C*%
X163830000Y-108267500D03*
D15*
%TO.P,SW22,4*%
X166370000Y-108267500D03*
%TD*%
%TO.P,SW21,4*%
%TO.N,N/C*%
X147320000Y-127317500D03*
D14*
%TO.P,SW21,3*%
X144780000Y-127317500D03*
D13*
%TO.P,SW21,1*%
%TO.N,Net-(D21-Pad2)*%
X142240000Y-119697500D03*
%TO.P,SW21,2*%
%TO.N,COL5*%
X148590000Y-117157500D03*
%TD*%
%TO.P,SW20,2*%
%TO.N,COL5*%
X148590000Y-98107500D03*
%TO.P,SW20,1*%
%TO.N,Net-(D20-Pad2)*%
X142240000Y-100647500D03*
D14*
%TO.P,SW20,3*%
%TO.N,N/C*%
X144780000Y-108267500D03*
D15*
%TO.P,SW20,4*%
X147320000Y-108267500D03*
%TD*%
D13*
%TO.P,SW19,2*%
%TO.N,COL4*%
X129540000Y-117157500D03*
%TO.P,SW19,1*%
%TO.N,Net-(D19-Pad2)*%
X123190000Y-119697500D03*
D14*
%TO.P,SW19,3*%
%TO.N,N/C*%
X125730000Y-127317500D03*
D15*
%TO.P,SW19,4*%
X128270000Y-127317500D03*
%TD*%
D13*
%TO.P,SW18,2*%
%TO.N,COL4*%
X129540000Y-98107500D03*
%TO.P,SW18,1*%
%TO.N,Net-(D18-Pad2)*%
X123190000Y-100647500D03*
D14*
%TO.P,SW18,3*%
%TO.N,N/C*%
X125730000Y-108267500D03*
D15*
%TO.P,SW18,4*%
X128270000Y-108267500D03*
%TD*%
D13*
%TO.P,SW17,2*%
%TO.N,COL3*%
X110490000Y-117157500D03*
%TO.P,SW17,1*%
%TO.N,Net-(D17-Pad2)*%
X104140000Y-119697500D03*
D14*
%TO.P,SW17,3*%
%TO.N,N/C*%
X106680000Y-127317500D03*
D15*
%TO.P,SW17,4*%
X109220000Y-127317500D03*
%TD*%
D13*
%TO.P,SW16,2*%
%TO.N,COL3*%
X110490000Y-98107500D03*
%TO.P,SW16,1*%
%TO.N,Net-(D16-Pad2)*%
X104140000Y-100647500D03*
D14*
%TO.P,SW16,3*%
%TO.N,N/C*%
X106680000Y-108267500D03*
D15*
%TO.P,SW16,4*%
X109220000Y-108267500D03*
%TD*%
D13*
%TO.P,SW15,2*%
%TO.N,COL2*%
X91440000Y-117157500D03*
%TO.P,SW15,1*%
%TO.N,Net-(D15-Pad2)*%
X85090000Y-119697500D03*
D14*
%TO.P,SW15,3*%
%TO.N,N/C*%
X87630000Y-127317500D03*
D15*
%TO.P,SW15,4*%
X90170000Y-127317500D03*
%TD*%
D13*
%TO.P,SW14,2*%
%TO.N,COL2*%
X91440000Y-98107500D03*
%TO.P,SW14,1*%
%TO.N,Net-(D14-Pad2)*%
X85090000Y-100647500D03*
D14*
%TO.P,SW14,3*%
%TO.N,N/C*%
X87630000Y-108267500D03*
D15*
%TO.P,SW14,4*%
X90170000Y-108267500D03*
%TD*%
D13*
%TO.P,SW13,2*%
%TO.N,COL2*%
X81915000Y-74295000D03*
%TO.P,SW13,1*%
%TO.N,Net-(D13-Pad2)*%
X75565000Y-76835000D03*
D14*
%TO.P,SW13,3*%
%TO.N,N/C*%
X78105000Y-84455000D03*
D15*
%TO.P,SW13,4*%
X80645000Y-84455000D03*
%TD*%
D13*
%TO.P,SW12,2*%
%TO.N,COL2*%
X81915000Y-55245000D03*
%TO.P,SW12,1*%
%TO.N,Net-(D12-Pad2)*%
X75565000Y-57785000D03*
D14*
%TO.P,SW12,3*%
%TO.N,N/C*%
X78105000Y-65405000D03*
D15*
%TO.P,SW12,4*%
X80645000Y-65405000D03*
%TD*%
D13*
%TO.P,SW11,2*%
%TO.N,COL2*%
X81915000Y-36195000D03*
%TO.P,SW11,1*%
%TO.N,Net-(D11-Pad2)*%
X75565000Y-38735000D03*
D14*
%TO.P,SW11,3*%
%TO.N,N/C*%
X78105000Y-46355000D03*
D15*
%TO.P,SW11,4*%
X80645000Y-46355000D03*
%TD*%
D13*
%TO.P,SW10,2*%
%TO.N,COL1*%
X70008750Y-117157500D03*
%TO.P,SW10,1*%
%TO.N,Net-(D10-Pad2)*%
X63658750Y-119697500D03*
D14*
%TO.P,SW10,3*%
%TO.N,N/C*%
X66198750Y-127317500D03*
D15*
%TO.P,SW10,4*%
X68738750Y-127317500D03*
%TD*%
D13*
%TO.P,SW9,2*%
%TO.N,COL1*%
X72390000Y-98107500D03*
%TO.P,SW9,1*%
%TO.N,Net-(D9-Pad2)*%
X66040000Y-100647500D03*
D14*
%TO.P,SW9,3*%
%TO.N,N/C*%
X68580000Y-108267500D03*
D15*
%TO.P,SW9,4*%
X71120000Y-108267500D03*
%TD*%
D13*
%TO.P,SW8,2*%
%TO.N,COL1*%
X62865000Y-74295000D03*
%TO.P,SW8,1*%
%TO.N,Net-(D8-Pad2)*%
X56515000Y-76835000D03*
D14*
%TO.P,SW8,3*%
%TO.N,N/C*%
X59055000Y-84455000D03*
D15*
%TO.P,SW8,4*%
X61595000Y-84455000D03*
%TD*%
D13*
%TO.P,SW7,2*%
%TO.N,COL1*%
X62865000Y-55245000D03*
%TO.P,SW7,1*%
%TO.N,Net-(D7-Pad2)*%
X56515000Y-57785000D03*
D14*
%TO.P,SW7,3*%
%TO.N,N/C*%
X59055000Y-65405000D03*
D15*
%TO.P,SW7,4*%
X61595000Y-65405000D03*
%TD*%
D13*
%TO.P,SW6,2*%
%TO.N,COL1*%
X62865000Y-36195000D03*
%TO.P,SW6,1*%
%TO.N,Net-(D6-Pad2)*%
X56515000Y-38735000D03*
D14*
%TO.P,SW6,3*%
%TO.N,N/C*%
X59055000Y-46355000D03*
D15*
%TO.P,SW6,4*%
X61595000Y-46355000D03*
%TD*%
D13*
%TO.P,SW5,2*%
%TO.N,COL0*%
X46196250Y-117157500D03*
%TO.P,SW5,1*%
%TO.N,Net-(D5-Pad2)*%
X39846250Y-119697500D03*
D14*
%TO.P,SW5,3*%
%TO.N,N/C*%
X42386250Y-127317500D03*
D15*
%TO.P,SW5,4*%
X44926250Y-127317500D03*
%TD*%
D13*
%TO.P,SW4,2*%
%TO.N,COL0*%
X48577500Y-98107500D03*
%TO.P,SW4,1*%
%TO.N,Net-(D4-Pad2)*%
X42227500Y-100647500D03*
D14*
%TO.P,SW4,3*%
%TO.N,N/C*%
X44767500Y-108267500D03*
D15*
%TO.P,SW4,4*%
X47307500Y-108267500D03*
%TD*%
D13*
%TO.P,SW3,2*%
%TO.N,COL0*%
X43815000Y-74295000D03*
%TO.P,SW3,1*%
%TO.N,Net-(D3-Pad2)*%
X37465000Y-76835000D03*
D14*
%TO.P,SW3,3*%
%TO.N,N/C*%
X40005000Y-84455000D03*
D15*
%TO.P,SW3,4*%
X42545000Y-84455000D03*
%TD*%
D13*
%TO.P,SW2,2*%
%TO.N,COL0*%
X43815000Y-55245000D03*
%TO.P,SW2,1*%
%TO.N,Net-(D2-Pad2)*%
X37465000Y-57785000D03*
D14*
%TO.P,SW2,3*%
%TO.N,N/C*%
X40005000Y-65405000D03*
D15*
%TO.P,SW2,4*%
X42545000Y-65405000D03*
%TD*%
D13*
%TO.P,SW1,2*%
%TO.N,COL0*%
X43815000Y-36195000D03*
%TO.P,SW1,1*%
%TO.N,Net-(D1-Pad2)*%
X37465000Y-38735000D03*
D14*
%TO.P,SW1,3*%
%TO.N,N/C*%
X40005000Y-46355000D03*
D15*
%TO.P,SW1,4*%
X42545000Y-46355000D03*
%TD*%
D19*
%TO.P,S1,A1,A1*%
%TO.N,unconnected-(S1-PadA1)*%
X121997500Y-65315000D03*
D20*
%TO.P,S1,A11,A11*%
%TO.N,unconnected-(S1-PadA11)*%
X133977500Y-62065000D03*
%TO.P,S1,A12,A12*%
%TO.N,unconnected-(S1-PadA12)*%
X133977500Y-59565000D03*
%TO.P,S1,A13,A13*%
%TO.N,unconnected-(S1-PadA13)*%
X133977500Y-57065000D03*
D19*
%TO.P,S1,B1,B1*%
%TO.N,unconnected-(S1-PadB1)*%
X121997500Y-69815000D03*
D20*
%TO.P,S1,B11,B11*%
%TO.N,unconnected-(S1-PadB11)*%
X127747500Y-50835000D03*
%TO.P,S1,B12,B12*%
%TO.N,unconnected-(S1-PadB12)*%
X125247500Y-50835000D03*
%TO.P,S1,B13,B13*%
%TO.N,unconnected-(S1-PadB13)*%
X122747500Y-50835000D03*
D19*
%TO.P,S1,C1,C1*%
%TO.N,unconnected-(S1-PadC1)*%
X128497500Y-65315000D03*
%TO.P,S1,D1,D1*%
%TO.N,unconnected-(S1-PadD1)*%
X128497500Y-69815000D03*
D21*
%TO.P,S1,MH1,MH1*%
%TO.N,unconnected-(S1-PadMH1)*%
X118922500Y-64565000D03*
%TO.P,S1,MH2,MH2*%
%TO.N,unconnected-(S1-PadMH2)*%
X118922500Y-54565000D03*
%TO.P,S1,MH3,MH3*%
%TO.N,unconnected-(S1-PadMH3)*%
X131572500Y-64565000D03*
%TO.P,S1,MH4,MH4*%
%TO.N,unconnected-(S1-PadMH4)*%
X131572500Y-54565000D03*
D22*
%TO.P,S1,MH5,MH5*%
%TO.N,unconnected-(S1-PadMH5)*%
X120947500Y-59565000D03*
%TO.P,S1,MH6,MH6*%
%TO.N,unconnected-(S1-PadMH6)*%
X129547500Y-59565000D03*
%TD*%
D23*
%TO.N,D-*%
X101612498Y-43275230D03*
%TO.N,GND*%
X192881250Y-53181250D03*
%TO.N,+5V*%
X168275000Y-54768750D03*
X172243750Y-54768750D03*
%TO.N,GND*%
X151130000Y-58420000D03*
X151130000Y-60960000D03*
%TO.N,ROW4*%
X176657000Y-129794000D03*
X165862000Y-59944000D03*
%TO.N,ROW3*%
X158623000Y-109982000D03*
X165108674Y-60741500D03*
%TO.N,ROW2*%
X71755000Y-74549000D03*
X165862000Y-61468000D03*
%TO.N,ROW1*%
X73025000Y-70993000D03*
X165100000Y-62357000D03*
%TO.N,COL5*%
X139724334Y-74951377D03*
%TO.N,COL4*%
X138701142Y-74947142D03*
%TO.N,COL3*%
X137679428Y-74941428D03*
%TO.N,COL2*%
X92710000Y-83820000D03*
X136657714Y-74935714D03*
%TO.N,COL1*%
X135636000Y-74930000D03*
%TO.N,COL0*%
X87249000Y-74930000D03*
%TO.N,+5V*%
X170180000Y-62230000D03*
%TO.N,GND*%
X168402000Y-67790000D03*
X168402000Y-62230000D03*
X149987000Y-75438000D03*
X153593865Y-69440135D03*
X151511000Y-43660000D03*
X151511000Y-45339000D03*
%TO.N,Net-(R1-Pad2)*%
X141478000Y-57716500D03*
X127763868Y-42688499D03*
%TO.N,Net-(R2-Pad2)*%
X145908461Y-56990000D03*
X127762000Y-43688000D03*
%TO.N,D-*%
X108796041Y-44560503D03*
X103211000Y-44560503D03*
%TO.N,D+*%
X103211000Y-43561000D03*
X108796041Y-43561000D03*
%TO.N,ROW0*%
X43656250Y-50006250D03*
X46037500Y-50006250D03*
X62706250Y-50006250D03*
X65087500Y-50006250D03*
%TO.N,ROW1*%
X62706250Y-69056250D03*
X65087500Y-69056250D03*
X43656250Y-69056250D03*
X46037500Y-69056250D03*
%TO.N,ROW2*%
X50006250Y-88106250D03*
X46831250Y-88106250D03*
X62706250Y-88106250D03*
X65087500Y-88106250D03*
%TO.N,ROW3*%
X48418750Y-111918750D03*
X50800000Y-111918750D03*
X72231250Y-111918750D03*
X74612500Y-111918750D03*
X91281250Y-111918750D03*
X93662500Y-111918750D03*
X110331250Y-111918750D03*
X112712500Y-111918750D03*
X129381250Y-111918750D03*
X131762500Y-111918750D03*
X148431250Y-111918750D03*
X150812500Y-111918750D03*
X167481250Y-111918750D03*
X169862500Y-111918750D03*
X186531250Y-111918750D03*
X188912500Y-111918750D03*
X205581250Y-111918750D03*
X207962500Y-111918750D03*
%TO.N,+5V*%
X166370000Y-68580000D03*
%TO.N,Net-(C2-Pad1)*%
X150749000Y-78232000D03*
X150749000Y-76454000D03*
%TO.N,+5V*%
X153648500Y-70612000D03*
X155956000Y-70612000D03*
%TD*%
D24*
%TO.N,D-*%
X101612498Y-43275230D02*
X103587500Y-41300228D01*
X103587500Y-41300228D02*
X103587500Y-41016250D01*
D25*
%TO.N,GND*%
X98697500Y-40056250D02*
X99057500Y-40416250D01*
X98697500Y-34466250D02*
X98697500Y-40056250D01*
X107677500Y-34466250D02*
X98697500Y-34466250D01*
X107946261Y-39787489D02*
X107946261Y-34735011D01*
X107317500Y-40416250D02*
X107946261Y-39787489D01*
X107946261Y-34735011D02*
X107677500Y-34466250D01*
X151606250Y-57943750D02*
X151130000Y-58420000D01*
X188118750Y-57943750D02*
X151606250Y-57943750D01*
X192881250Y-53181250D02*
X188118750Y-57943750D01*
%TO.N,+5V*%
X172243750Y-54768750D02*
X168275000Y-54768750D01*
%TO.N,GND*%
X151130000Y-60960000D02*
X151130000Y-58420000D01*
D26*
%TO.N,ROW4*%
X174529739Y-127666739D02*
X176657000Y-129794000D01*
X174529739Y-65552296D02*
X174529739Y-127666739D01*
X168921443Y-59944000D02*
X174529739Y-65552296D01*
X165862000Y-59944000D02*
X168921443Y-59944000D01*
%TO.N,ROW3*%
X158623000Y-75184000D02*
X158623000Y-109982000D01*
X166588511Y-61167068D02*
X166588511Y-67218489D01*
X166162943Y-60741500D02*
X166588511Y-61167068D01*
X165108674Y-60741500D02*
X166162943Y-60741500D01*
X166588511Y-67218489D02*
X158623000Y-75184000D01*
%TO.N,ROW2*%
X164961557Y-61468000D02*
X158369588Y-68059969D01*
X158369588Y-68059969D02*
X74930588Y-68059969D01*
X165862000Y-61468000D02*
X164961557Y-61468000D01*
X71755000Y-71235557D02*
X71755000Y-74549000D01*
X74930588Y-68059969D02*
X71755000Y-71235557D01*
%TO.N,ROW1*%
X75504511Y-68513489D02*
X73025000Y-70993000D01*
X158943511Y-68513489D02*
X75504511Y-68513489D01*
X165100000Y-62357000D02*
X158943511Y-68513489D01*
D25*
%TO.N,+5V*%
X170180000Y-68580000D02*
X166370000Y-68580000D01*
X170180000Y-62230000D02*
X170180000Y-68580000D01*
D26*
%TO.N,COL5*%
X139724334Y-74951377D02*
X139724334Y-89241834D01*
X139724334Y-89241834D02*
X148590000Y-98107500D01*
%TO.N,COL0*%
X76200000Y-75311000D02*
X63901748Y-75311000D01*
X56027748Y-74295000D02*
X43815000Y-74295000D01*
X76635511Y-75746511D02*
X76200000Y-75311000D01*
X63466237Y-75746511D02*
X57479259Y-75746511D01*
X86432489Y-75746511D02*
X76635511Y-75746511D01*
X63901748Y-75311000D02*
X63466237Y-75746511D01*
X87249000Y-74930000D02*
X86432489Y-75746511D01*
X57479259Y-75746511D02*
X56027748Y-74295000D01*
%TO.N,COL1*%
X98933000Y-74930000D02*
X75755500Y-98107500D01*
X75755500Y-98107500D02*
X72390000Y-98107500D01*
%TO.N,COL3*%
X114513356Y-98107500D02*
X110490000Y-98107500D01*
X137679428Y-74941428D02*
X114513356Y-98107500D01*
%TO.N,COL4*%
X138701142Y-74947142D02*
X129540000Y-84108284D01*
X129540000Y-84108284D02*
X129540000Y-98107500D01*
%TO.N,COL2*%
X127773443Y-83820000D02*
X92710000Y-83820000D01*
X136657714Y-74935714D02*
X136657714Y-74935729D01*
X136657714Y-74935729D02*
X127773443Y-83820000D01*
%TO.N,COL1*%
X135636000Y-74930000D02*
X98933000Y-74930000D01*
D25*
%TO.N,GND*%
X168402000Y-62230000D02*
X168402000Y-67790000D01*
X153593865Y-69440135D02*
X152858489Y-70175511D01*
X152858489Y-72566511D02*
X149987000Y-75438000D01*
X152858489Y-70175511D02*
X152858489Y-72566511D01*
X151511000Y-45339000D02*
X151511000Y-43660000D01*
D26*
%TO.N,Net-(R1-Pad2)*%
X127763868Y-42688499D02*
X127734058Y-42688499D01*
X140763057Y-57716500D02*
X141478000Y-57716500D01*
X127734058Y-42688499D02*
X127035489Y-43387068D01*
X127035489Y-43387068D02*
X127035489Y-43988932D01*
X127035489Y-43988932D02*
X140763057Y-57716500D01*
%TO.N,Net-(R2-Pad2)*%
X141064000Y-56990000D02*
X145908461Y-56990000D01*
X127762000Y-43688000D02*
X141064000Y-56990000D01*
D24*
%TO.N,D-*%
X103211000Y-44560503D02*
X108796041Y-44560503D01*
%TO.N,D+*%
X103211000Y-43561000D02*
X108796041Y-43561000D01*
D26*
%TO.N,ROW0*%
X46037500Y-50006250D02*
X43656250Y-50006250D01*
X65087500Y-50006250D02*
X62706250Y-50006250D01*
%TO.N,ROW1*%
X65087500Y-69056250D02*
X62706250Y-69056250D01*
X46037500Y-69056250D02*
X43656250Y-69056250D01*
%TO.N,ROW2*%
X50006250Y-88106250D02*
X46831250Y-88106250D01*
X65087500Y-88106250D02*
X62706250Y-88106250D01*
%TO.N,ROW3*%
X50800000Y-111918750D02*
X48418750Y-111918750D01*
X74612500Y-111918750D02*
X72231250Y-111918750D01*
X93662500Y-111918750D02*
X91281250Y-111918750D01*
X112712500Y-111918750D02*
X110331250Y-111918750D01*
X131762500Y-111918750D02*
X129381250Y-111918750D01*
X150812500Y-111918750D02*
X148431250Y-111918750D01*
X169862500Y-111918750D02*
X167481250Y-111918750D01*
X188912500Y-111918750D02*
X186531250Y-111918750D01*
X207962500Y-111918750D02*
X205581250Y-111918750D01*
%TO.N,Net-(C2-Pad1)*%
X150749000Y-78232000D02*
X150749000Y-76454000D01*
D25*
%TO.N,+5V*%
X155956000Y-70612000D02*
X153648500Y-70612000D01*
%TD*%
M02*
